M48
INCH,LZ
;FILE_FORMAT=2:4
;TYPE=PLATED
;Layer: PTH_Through_Via
;EasyEDA v6.5.22, 2023-04-15 17:34:24
;819af3526855441081df4c6eebb6a90a,5a628b76fac64d3cb101ae6d552a3bac,10
;Gerber Generator version 0.2
;Holesize 1 = 0.0120 inch
T01C0.0120
%
G05
G90
T01
X013552Y-009196
X012764Y-009196
X012764Y-008409
X013552Y-008409
X020675Y-007900
X020675Y-009800
X006400Y-004425
X006400Y-021125
X006375Y-009675
X005200Y-015350
X020700Y-011250
X011275Y-010417
X015504Y-008881
X016800Y-007500
X015774Y-011070
X017350Y-012950
X012950Y-016225
X019500Y-016250
X013775Y-006950
X010950Y-009125
X011296Y-009179
X015449Y-009600
X014183Y-006964
X021500Y-012975
X017700Y-013500
X016050Y-005850
X014175Y-005650
X011498Y-005234
X011300Y-008175
X009473Y-009709
X009473Y-010209
X009473Y-010609
X016800Y-009900
X016800Y-010600
X016675Y-011550
X018900Y-011550
X014192Y-011980
X012767Y-011980
X016677Y-008156
X016677Y-008541
X017825Y-005475
X009425Y-018150
X015987Y-018150
X001950Y-006375
X001950Y-011975
X001950Y-017525
X001950Y-023075
X010625Y-006525
X010900Y-006775
X017435Y-006401
M30
