M48
INCH,LZ
;FILE_FORMAT=2:4
;TYPE=PLATED
;Layer: PTH_Through
;EasyEDA v6.5.22, 2023-04-15 17:34:24
;819af3526855441081df4c6eebb6a90a,5a628b76fac64d3cb101ae6d552a3bac,10
;Gerber Generator version 0.2
;Holesize 1 = 0.0240 inch
T01C0.0240
;Holesize 2 = 0.0430 inch
T02C0.0430
;Holesize 3 = 0.0470 inch
T03C0.0470
;Holesize 4 = 0.0550 inch
T04C0.0550
;Holesize 5 = 0.0600 inch
T05C0.0600
%
G05
G90
T01
X023308Y-007149G85X022993Y-007149
X023308Y-010551G85X022993Y-010551
X021733Y-007149G85X021300Y-007149
X021733Y-010551G85X021300Y-010551
T02
X017775Y-001200
X016775Y-001200
X015775Y-001200
X014775Y-001200
X013775Y-001200
X012775Y-001200
X011775Y-001200
X010775Y-001200
T03
X007231Y-014263
X001168Y-014263
X005184Y-025837
X003216Y-025837
X017948Y-030023
X018948Y-030023
X019948Y-030023
X020948Y-030023
X017948Y-032023
X018948Y-032023
X019948Y-032023
X020948Y-032023
T04
X007919Y-029586
X005950Y-029586
X003981Y-029586
X003981Y-032814
X005950Y-032814
X007919Y-032814
X014816Y-029586
X012848Y-029586
X010879Y-029586
X010879Y-032814
X012848Y-032814
X014816Y-032814
T05
X015869Y-020646
X020594Y-020646
X018231Y-019858
X015869Y-025449
X009319Y-020646
X014044Y-020646
X011681Y-019858
X009319Y-025449
M30
