G04 Layer: BottomLayer*
G04 EasyEDA v6.5.22, 2023-04-15 17:34:24*
G04 819af3526855441081df4c6eebb6a90a,5a628b76fac64d3cb101ae6d552a3bac,10*
G04 Gerber Generator version 0.2*
G04 Scale: 100 percent, Rotated: No, Reflected: No *
G04 Dimensions in inches *
G04 leading zeros omitted , absolute positions ,3 integer and 6 decimal *
%FSLAX36Y36*%
%MOIN*%

%AMMACRO1*21,1,$1,$2,0,0,$3*%
%ADD10C,0.1500*%
%ADD11C,0.0150*%
%ADD12C,0.0080*%
%ADD13C,0.0120*%
%ADD14C,0.0100*%
%ADD15C,0.0200*%
%ADD16MACRO1,0.0945X0.0709X0.0000*%
%ADD17MACRO1,0.0669X0.0669X0.0000*%
%ADD18C,0.0669*%
%ADD19C,0.1100*%
%ADD20O,0.070866X0.039369999999999995*%
%ADD21O,0.082677X0.039369999999999995*%
%ADD22C,0.0787*%
%ADD23C,0.0866*%
%ADD24C,0.0240*%
%ADD25C,0.0187*%

%LPD*%
G36*
X1741500Y-3403420D02*
G01*
X1739960Y-3403120D01*
X1738680Y-3402240D01*
X1737800Y-3400940D01*
X1737500Y-3399420D01*
X1737500Y-2869160D01*
X1737800Y-2867620D01*
X1738680Y-2866320D01*
X2059100Y-2545900D01*
X2059379Y-2545240D01*
X2059379Y-2133640D01*
X2059640Y-2132220D01*
X2060400Y-2130980D01*
X2061540Y-2130080D01*
X2062940Y-2129660D01*
X2069740Y-2128940D01*
X2076519Y-2127480D01*
X2083100Y-2125300D01*
X2089420Y-2122420D01*
X2095400Y-2118900D01*
X2100980Y-2114760D01*
X2106080Y-2110060D01*
X2110640Y-2104840D01*
X2114640Y-2099160D01*
X2118000Y-2093080D01*
X2120700Y-2086699D01*
X2122700Y-2080060D01*
X2123980Y-2073240D01*
X2124540Y-2066320D01*
X2124360Y-2059379D01*
X2123440Y-2052500D01*
X2121780Y-2045760D01*
X2119440Y-2039220D01*
X2116400Y-2032980D01*
X2112720Y-2027100D01*
X2108440Y-2021639D01*
X2103600Y-2016680D01*
X2098240Y-2012240D01*
X2092460Y-2008400D01*
X2086300Y-2005200D01*
X2079840Y-2002680D01*
X2073140Y-2000860D01*
X2066300Y-1999760D01*
X2063160Y-1999580D01*
X2061699Y-1999220D01*
X2060460Y-1998340D01*
X2059660Y-1997080D01*
X2059379Y-1995600D01*
X2059379Y-1977840D01*
X2059100Y-1977160D01*
X1889720Y-1807780D01*
X1889040Y-1807500D01*
X1755960Y-1807500D01*
X1755300Y-1807780D01*
X1586800Y-1976279D01*
X1585500Y-1977140D01*
X1583980Y-1977440D01*
X1406020Y-1977440D01*
X1404500Y-1977140D01*
X1403200Y-1976279D01*
X1234720Y-1807780D01*
X1234040Y-1807500D01*
X1100960Y-1807500D01*
X1100300Y-1807780D01*
X930280Y-1977800D01*
X930000Y-1978480D01*
X930000Y-1995700D01*
X929720Y-1997180D01*
X928900Y-1998440D01*
X927680Y-1999319D01*
X926220Y-1999680D01*
X925000Y-1999760D01*
X918139Y-2000860D01*
X911460Y-2002680D01*
X904980Y-2005200D01*
X898840Y-2008400D01*
X893040Y-2012240D01*
X887700Y-2016680D01*
X882860Y-2021639D01*
X878580Y-2027100D01*
X874900Y-2032980D01*
X871860Y-2039220D01*
X869500Y-2045760D01*
X867860Y-2052500D01*
X866940Y-2059379D01*
X866760Y-2066320D01*
X867300Y-2073240D01*
X868600Y-2080060D01*
X870600Y-2086699D01*
X873300Y-2093080D01*
X876660Y-2099160D01*
X880639Y-2104840D01*
X885220Y-2110060D01*
X890320Y-2114760D01*
X895879Y-2118900D01*
X901860Y-2122420D01*
X908180Y-2125300D01*
X914780Y-2127480D01*
X921560Y-2128940D01*
X926420Y-2129460D01*
X927820Y-2129880D01*
X928980Y-2130760D01*
X929740Y-2132000D01*
X930000Y-2133440D01*
X930000Y-2290840D01*
X929700Y-2292380D01*
X928820Y-2293680D01*
X873680Y-2348820D01*
X872380Y-2349700D01*
X870840Y-2350000D01*
X770580Y-2350000D01*
X768940Y-2349660D01*
X767600Y-2348660D01*
X766760Y-2347220D01*
X766600Y-2345560D01*
X766820Y-2343620D01*
X766820Y-2273220D01*
X766540Y-2270720D01*
X765780Y-2268580D01*
X764560Y-2266640D01*
X762960Y-2265040D01*
X761020Y-2263820D01*
X758880Y-2263060D01*
X756400Y-2262780D01*
X662360Y-2262780D01*
X659860Y-2263060D01*
X657720Y-2263820D01*
X655780Y-2265040D01*
X654180Y-2266640D01*
X652960Y-2268580D01*
X652200Y-2270720D01*
X651919Y-2273220D01*
X651919Y-2343620D01*
X652140Y-2345560D01*
X651979Y-2347220D01*
X651160Y-2348660D01*
X649800Y-2349660D01*
X648160Y-2350000D01*
X457260Y-2350000D01*
X455920Y-2349760D01*
X454739Y-2349100D01*
X450040Y-2345300D01*
X444880Y-2342040D01*
X439360Y-2339420D01*
X433579Y-2337460D01*
X427600Y-2336200D01*
X421520Y-2335660D01*
X415420Y-2335840D01*
X409380Y-2336740D01*
X403500Y-2338360D01*
X397840Y-2340640D01*
X392500Y-2343600D01*
X387540Y-2347160D01*
X385560Y-2348960D01*
X384320Y-2349720D01*
X382860Y-2350000D01*
X191840Y-2350000D01*
X190200Y-2349660D01*
X188840Y-2348660D01*
X188020Y-2347220D01*
X187860Y-2345560D01*
X188080Y-2343620D01*
X188080Y-2328640D01*
X156760Y-2328640D01*
X156760Y-2346000D01*
X156440Y-2347540D01*
X155580Y-2348820D01*
X154280Y-2349700D01*
X152760Y-2350000D01*
X108500Y-2350000D01*
X106980Y-2349700D01*
X105680Y-2348820D01*
X104820Y-2347540D01*
X104500Y-2346000D01*
X104500Y-2328640D01*
X73180Y-2328640D01*
X73180Y-2343620D01*
X73400Y-2345560D01*
X73240Y-2347220D01*
X72400Y-2348660D01*
X71060Y-2349660D01*
X69420Y-2350000D01*
X14200Y-2350000D01*
X12660Y-2349700D01*
X11379Y-2348820D01*
X10500Y-2347540D01*
X10200Y-2346000D01*
X10200Y-118379D01*
X10560Y-109480D01*
X11560Y-101080D01*
X13240Y-92760D01*
X15540Y-84620D01*
X18480Y-76680D01*
X22040Y-68980D01*
X26200Y-61600D01*
X30920Y-54560D01*
X36160Y-47920D01*
X41920Y-41700D01*
X48160Y-35960D01*
X54820Y-30720D01*
X61860Y-26040D01*
X69260Y-21900D01*
X76960Y-18360D01*
X84920Y-15440D01*
X93080Y-13160D01*
X101380Y-11520D01*
X109800Y-10540D01*
X118379Y-10200D01*
X2243820Y-10200D01*
X2252720Y-10560D01*
X2261120Y-11560D01*
X2269440Y-13240D01*
X2277580Y-15540D01*
X2285520Y-18480D01*
X2293220Y-22040D01*
X2300600Y-26200D01*
X2307640Y-30920D01*
X2314280Y-36160D01*
X2320500Y-41920D01*
X2326240Y-48160D01*
X2331480Y-54820D01*
X2336160Y-61860D01*
X2340300Y-69260D01*
X2343840Y-76960D01*
X2346760Y-84920D01*
X2349040Y-93080D01*
X2350680Y-101380D01*
X2351660Y-109800D01*
X2352000Y-118379D01*
X2352000Y-685819D01*
X2351660Y-687460D01*
X2350680Y-688800D01*
X2349240Y-689640D01*
X2347580Y-689800D01*
X2346000Y-689300D01*
X2343780Y-688000D01*
X2339620Y-686380D01*
X2335280Y-685380D01*
X2335280Y-702580D01*
X2348000Y-702580D01*
X2349540Y-702880D01*
X2350820Y-703760D01*
X2351700Y-705060D01*
X2352000Y-706580D01*
X2352000Y-723259D01*
X2351700Y-724800D01*
X2350820Y-726100D01*
X2349540Y-726960D01*
X2348000Y-727260D01*
X2335280Y-727260D01*
X2335280Y-744460D01*
X2339620Y-743480D01*
X2343780Y-741840D01*
X2346000Y-740560D01*
X2347580Y-740040D01*
X2349240Y-740220D01*
X2350680Y-741040D01*
X2351660Y-742400D01*
X2352000Y-744020D01*
X2352000Y-1025980D01*
X2351660Y-1027620D01*
X2350680Y-1028960D01*
X2349240Y-1029800D01*
X2347580Y-1029960D01*
X2346000Y-1029460D01*
X2343780Y-1028160D01*
X2339620Y-1026540D01*
X2335280Y-1025540D01*
X2335280Y-1042740D01*
X2348000Y-1042740D01*
X2349540Y-1043040D01*
X2350820Y-1043920D01*
X2351700Y-1045220D01*
X2352000Y-1046740D01*
X2352000Y-1063420D01*
X2351700Y-1064960D01*
X2350820Y-1066260D01*
X2349540Y-1067120D01*
X2348000Y-1067420D01*
X2335280Y-1067420D01*
X2335280Y-1084620D01*
X2339620Y-1083640D01*
X2343780Y-1082000D01*
X2346000Y-1080720D01*
X2347580Y-1080200D01*
X2349240Y-1080380D01*
X2350680Y-1081200D01*
X2351660Y-1082560D01*
X2352000Y-1084180D01*
X2352000Y-3295240D01*
X2351640Y-3304120D01*
X2350640Y-3312540D01*
X2348960Y-3320840D01*
X2346660Y-3329000D01*
X2343720Y-3336940D01*
X2340160Y-3344620D01*
X2336000Y-3352020D01*
X2331280Y-3359060D01*
X2326040Y-3365700D01*
X2320280Y-3371920D01*
X2314040Y-3377660D01*
X2307380Y-3382880D01*
X2300340Y-3387580D01*
X2292940Y-3391720D01*
X2285240Y-3395240D01*
X2277280Y-3398159D01*
X2269120Y-3400460D01*
X2260820Y-3402100D01*
X2252400Y-3403080D01*
X2243820Y-3403420D01*
G37*

%LPC*%
G36*
X2245880Y-3364720D02*
G01*
X2252980Y-3364160D01*
X2260000Y-3362880D01*
X2266840Y-3360899D01*
X2273440Y-3358200D01*
X2279740Y-3354860D01*
X2285660Y-3350880D01*
X2291120Y-3346320D01*
X2296100Y-3341200D01*
X2300540Y-3335620D01*
X2304360Y-3329600D01*
X2307540Y-3323220D01*
X2310060Y-3316540D01*
X2311880Y-3309660D01*
X2312980Y-3302620D01*
X2313340Y-3295500D01*
X2312980Y-3288360D01*
X2311880Y-3281320D01*
X2310060Y-3274440D01*
X2307540Y-3267760D01*
X2304360Y-3261380D01*
X2300540Y-3255360D01*
X2296100Y-3249780D01*
X2291120Y-3244660D01*
X2285660Y-3240100D01*
X2279740Y-3236120D01*
X2273440Y-3232780D01*
X2266840Y-3230080D01*
X2260000Y-3228100D01*
X2252980Y-3226820D01*
X2245880Y-3226259D01*
X2238740Y-3226440D01*
X2231680Y-3227360D01*
X2224740Y-3229000D01*
X2218000Y-3231340D01*
X2211540Y-3234360D01*
X2205440Y-3238039D01*
X2199720Y-3242320D01*
X2194500Y-3247160D01*
X2189780Y-3252520D01*
X2185660Y-3258320D01*
X2182140Y-3264520D01*
X2179300Y-3271060D01*
X2177120Y-3277860D01*
X2175660Y-3284840D01*
X2174940Y-3291920D01*
X2174940Y-3299060D01*
X2175660Y-3306139D01*
X2177120Y-3313120D01*
X2179300Y-3319920D01*
X2182140Y-3326460D01*
X2185660Y-3332660D01*
X2189780Y-3338460D01*
X2194500Y-3343820D01*
X2199720Y-3348660D01*
X2205440Y-3352940D01*
X2211540Y-3356620D01*
X2218000Y-3359640D01*
X2224740Y-3361980D01*
X2231680Y-3363620D01*
X2238740Y-3364540D01*
G37*
G36*
X1893380Y-3245920D02*
G01*
X1898980Y-3245740D01*
X1904500Y-3244840D01*
X1909860Y-3243260D01*
X1914980Y-3241000D01*
X1919760Y-3238100D01*
X1924139Y-3234600D01*
X1928020Y-3230580D01*
X1931360Y-3226100D01*
X1934120Y-3221220D01*
X1936220Y-3216040D01*
X1937640Y-3210640D01*
X1938340Y-3205080D01*
X1938340Y-3199480D01*
X1937640Y-3193940D01*
X1936220Y-3188540D01*
X1934120Y-3183340D01*
X1931360Y-3178480D01*
X1928020Y-3173980D01*
X1924139Y-3169960D01*
X1919760Y-3166480D01*
X1914980Y-3163580D01*
X1912360Y-3162420D01*
X1911100Y-3161560D01*
X1910280Y-3160260D01*
X1909980Y-3158759D01*
X1909980Y-3045800D01*
X1910280Y-3044300D01*
X1911100Y-3043020D01*
X1912360Y-3042140D01*
X1914980Y-3041000D01*
X1919760Y-3038100D01*
X1924139Y-3034600D01*
X1928020Y-3030580D01*
X1931360Y-3026100D01*
X1934120Y-3021220D01*
X1936220Y-3016040D01*
X1937640Y-3010640D01*
X1938340Y-3005080D01*
X1938340Y-2999480D01*
X1937640Y-2993940D01*
X1936220Y-2988540D01*
X1934120Y-2983340D01*
X1931360Y-2978480D01*
X1928020Y-2973980D01*
X1924139Y-2969960D01*
X1919760Y-2966480D01*
X1914980Y-2963580D01*
X1912380Y-2962440D01*
X1911120Y-2961560D01*
X1910300Y-2960280D01*
X1910000Y-2958780D01*
X1910000Y-2948159D01*
X1910300Y-2946620D01*
X1911180Y-2945320D01*
X1940120Y-2916380D01*
X1941420Y-2915500D01*
X1942960Y-2915200D01*
X2084800Y-2915200D01*
X2087960Y-2914880D01*
X2090800Y-2914020D01*
X2093440Y-2912620D01*
X2095880Y-2910600D01*
X2238100Y-2768380D01*
X2240120Y-2765940D01*
X2241520Y-2763300D01*
X2242380Y-2760460D01*
X2242700Y-2757300D01*
X2242700Y-1457700D01*
X2242380Y-1454540D01*
X2241520Y-1451699D01*
X2240120Y-1449060D01*
X2238100Y-1446620D01*
X2125880Y-1334400D01*
X2123440Y-1332380D01*
X2120800Y-1330980D01*
X2117980Y-1330120D01*
X2114560Y-1329800D01*
X1787520Y-1334540D01*
X1785960Y-1334259D01*
X1781100Y-1330780D01*
X1777580Y-1329160D01*
X1773860Y-1328160D01*
X1770000Y-1327820D01*
X1766140Y-1328160D01*
X1762420Y-1329160D01*
X1758899Y-1330780D01*
X1755740Y-1333000D01*
X1753000Y-1335740D01*
X1750780Y-1338899D01*
X1749160Y-1342420D01*
X1748160Y-1346140D01*
X1747820Y-1350000D01*
X1748160Y-1353860D01*
X1749160Y-1357580D01*
X1750780Y-1361100D01*
X1753000Y-1364259D01*
X1755740Y-1367000D01*
X1758899Y-1369220D01*
X1762420Y-1370840D01*
X1766140Y-1371840D01*
X1770000Y-1372180D01*
X1773860Y-1371840D01*
X1777580Y-1370840D01*
X1781100Y-1369220D01*
X1784259Y-1367000D01*
X1785140Y-1366120D01*
X1786420Y-1365260D01*
X1787920Y-1364940D01*
X2107100Y-1360320D01*
X2108660Y-1360600D01*
X2110000Y-1361480D01*
X2211120Y-1462620D01*
X2212000Y-1463920D01*
X2212300Y-1465460D01*
X2212300Y-2749540D01*
X2212000Y-2751080D01*
X2211120Y-2752380D01*
X2079880Y-2883620D01*
X2078580Y-2884500D01*
X2077040Y-2884800D01*
X1935200Y-2884800D01*
X1932040Y-2885120D01*
X1929199Y-2885980D01*
X1926560Y-2887380D01*
X1924120Y-2889400D01*
X1884199Y-2929320D01*
X1882180Y-2931760D01*
X1880780Y-2934400D01*
X1879920Y-2937240D01*
X1879600Y-2940400D01*
X1879600Y-2958660D01*
X1879340Y-2960080D01*
X1878580Y-2961320D01*
X1877440Y-2962220D01*
X1872140Y-2964960D01*
X1867560Y-2968159D01*
X1863420Y-2971920D01*
X1859800Y-2976180D01*
X1856740Y-2980860D01*
X1854319Y-2985899D01*
X1852560Y-2991220D01*
X1851480Y-2996700D01*
X1851120Y-3002280D01*
X1851480Y-3007860D01*
X1852560Y-3013360D01*
X1854319Y-3018660D01*
X1856740Y-3023700D01*
X1859800Y-3028399D01*
X1863420Y-3032660D01*
X1867560Y-3036420D01*
X1872140Y-3039620D01*
X1877420Y-3042360D01*
X1878560Y-3043240D01*
X1879319Y-3044480D01*
X1879580Y-3045899D01*
X1879580Y-3158660D01*
X1879319Y-3160100D01*
X1878560Y-3161320D01*
X1877420Y-3162220D01*
X1872140Y-3164960D01*
X1867560Y-3168159D01*
X1863420Y-3171920D01*
X1859800Y-3176180D01*
X1856740Y-3180860D01*
X1854319Y-3185899D01*
X1852560Y-3191220D01*
X1851480Y-3196700D01*
X1851120Y-3202280D01*
X1851480Y-3207860D01*
X1852560Y-3213360D01*
X1854319Y-3218660D01*
X1856740Y-3223700D01*
X1859800Y-3228399D01*
X1863420Y-3232660D01*
X1867560Y-3236420D01*
X1872140Y-3239620D01*
X1877100Y-3242200D01*
X1882360Y-3244140D01*
X1887820Y-3245380D01*
G37*
G36*
X2093380Y-3245920D02*
G01*
X2098980Y-3245740D01*
X2104500Y-3244840D01*
X2109860Y-3243260D01*
X2114980Y-3241000D01*
X2119760Y-3238100D01*
X2124140Y-3234600D01*
X2128020Y-3230580D01*
X2131360Y-3226100D01*
X2134120Y-3221220D01*
X2136220Y-3216040D01*
X2137640Y-3210640D01*
X2138340Y-3205080D01*
X2138340Y-3199480D01*
X2137640Y-3193940D01*
X2136220Y-3188540D01*
X2134120Y-3183340D01*
X2131360Y-3178480D01*
X2128020Y-3173980D01*
X2124140Y-3169960D01*
X2119760Y-3166480D01*
X2114980Y-3163580D01*
X2112360Y-3162420D01*
X2111100Y-3161560D01*
X2110280Y-3160260D01*
X2109980Y-3158759D01*
X2109980Y-3045800D01*
X2110280Y-3044300D01*
X2111100Y-3043020D01*
X2112360Y-3042140D01*
X2114980Y-3041000D01*
X2119760Y-3038100D01*
X2124140Y-3034600D01*
X2128020Y-3030580D01*
X2131360Y-3026100D01*
X2134120Y-3021220D01*
X2136220Y-3016040D01*
X2137640Y-3010640D01*
X2138340Y-3005080D01*
X2138340Y-2999480D01*
X2137640Y-2993940D01*
X2136260Y-2988680D01*
X2136140Y-2987300D01*
X2136500Y-2985980D01*
X2137300Y-2984840D01*
X2290480Y-2831620D01*
X2292540Y-2828900D01*
X2293980Y-2825980D01*
X2294880Y-2822840D01*
X2295200Y-2819420D01*
X2295180Y-1424319D01*
X2294720Y-1420960D01*
X2293680Y-1417860D01*
X2292080Y-1415000D01*
X2289880Y-1412360D01*
X2172860Y-1295320D01*
X2172220Y-1294500D01*
X2171820Y-1293520D01*
X2170840Y-1289920D01*
X2169220Y-1286399D01*
X2167000Y-1283240D01*
X2164260Y-1280500D01*
X2161100Y-1278280D01*
X2157580Y-1276660D01*
X2153860Y-1275660D01*
X2150000Y-1275320D01*
X2146140Y-1275660D01*
X2142420Y-1276660D01*
X2138900Y-1278280D01*
X2137900Y-1278980D01*
X2136800Y-1279540D01*
X2135580Y-1279720D01*
X1749620Y-1277380D01*
X1748420Y-1277200D01*
X1747340Y-1276660D01*
X1746100Y-1275780D01*
X1742580Y-1274160D01*
X1738860Y-1273160D01*
X1735000Y-1272820D01*
X1731140Y-1273160D01*
X1727420Y-1274160D01*
X1723899Y-1275780D01*
X1720740Y-1278000D01*
X1718000Y-1280740D01*
X1715780Y-1283899D01*
X1714160Y-1287420D01*
X1713160Y-1291140D01*
X1712820Y-1295000D01*
X1713160Y-1298860D01*
X1714160Y-1302580D01*
X1715780Y-1306100D01*
X1718000Y-1309259D01*
X1720740Y-1312000D01*
X1723899Y-1314220D01*
X1727420Y-1315840D01*
X1731140Y-1316840D01*
X1735000Y-1317180D01*
X1738860Y-1316840D01*
X1742580Y-1315840D01*
X1746100Y-1314220D01*
X1747100Y-1313520D01*
X1748200Y-1312960D01*
X1749420Y-1312780D01*
X2135380Y-1315120D01*
X2136580Y-1315300D01*
X2137660Y-1315840D01*
X2138900Y-1316720D01*
X2142420Y-1318340D01*
X2146020Y-1319319D01*
X2147000Y-1319720D01*
X2147820Y-1320360D01*
X2258620Y-1431160D01*
X2259500Y-1432460D01*
X2259800Y-1433980D01*
X2259800Y-2810620D01*
X2259500Y-2812140D01*
X2258620Y-2813440D01*
X2112240Y-2959840D01*
X2111060Y-2960640D01*
X2109680Y-2961000D01*
X2108260Y-2960840D01*
X2104500Y-2959720D01*
X2098980Y-2958840D01*
X2093380Y-2958660D01*
X2087820Y-2959200D01*
X2082360Y-2960440D01*
X2077100Y-2962360D01*
X2072140Y-2964960D01*
X2067560Y-2968159D01*
X2063420Y-2971920D01*
X2059800Y-2976180D01*
X2056740Y-2980860D01*
X2054319Y-2985899D01*
X2052560Y-2991220D01*
X2051480Y-2996700D01*
X2051120Y-3002280D01*
X2051480Y-3007860D01*
X2052560Y-3013360D01*
X2054319Y-3018660D01*
X2056740Y-3023700D01*
X2059800Y-3028399D01*
X2063420Y-3032660D01*
X2067560Y-3036420D01*
X2072140Y-3039620D01*
X2077420Y-3042360D01*
X2078560Y-3043240D01*
X2079319Y-3044480D01*
X2079580Y-3045899D01*
X2079580Y-3158660D01*
X2079319Y-3160100D01*
X2078560Y-3161320D01*
X2077420Y-3162220D01*
X2072140Y-3164960D01*
X2067560Y-3168159D01*
X2063420Y-3171920D01*
X2059800Y-3176180D01*
X2056740Y-3180860D01*
X2054319Y-3185899D01*
X2052560Y-3191220D01*
X2051480Y-3196700D01*
X2051120Y-3202280D01*
X2051480Y-3207860D01*
X2052560Y-3213360D01*
X2054319Y-3218660D01*
X2056740Y-3223700D01*
X2059800Y-3228399D01*
X2063420Y-3232660D01*
X2067560Y-3236420D01*
X2072140Y-3239620D01*
X2077100Y-3242200D01*
X2082360Y-3244140D01*
X2087820Y-3245380D01*
G37*
G36*
X1793380Y-3245920D02*
G01*
X1798980Y-3245740D01*
X1804500Y-3244840D01*
X1809860Y-3243260D01*
X1814980Y-3241000D01*
X1819760Y-3238100D01*
X1824139Y-3234600D01*
X1828020Y-3230580D01*
X1831360Y-3226100D01*
X1834120Y-3221220D01*
X1836220Y-3216040D01*
X1837640Y-3210640D01*
X1838340Y-3205080D01*
X1838340Y-3199480D01*
X1837640Y-3193940D01*
X1836220Y-3188540D01*
X1834120Y-3183340D01*
X1831360Y-3178480D01*
X1828020Y-3173980D01*
X1824139Y-3169960D01*
X1819760Y-3166480D01*
X1814980Y-3163580D01*
X1812360Y-3162420D01*
X1811100Y-3161560D01*
X1810280Y-3160260D01*
X1809980Y-3158759D01*
X1809980Y-3045800D01*
X1810280Y-3044300D01*
X1811100Y-3043020D01*
X1812360Y-3042140D01*
X1814980Y-3041000D01*
X1819760Y-3038100D01*
X1824139Y-3034600D01*
X1828020Y-3030580D01*
X1831360Y-3026100D01*
X1834120Y-3021220D01*
X1836220Y-3016040D01*
X1837640Y-3010640D01*
X1838340Y-3005080D01*
X1838340Y-2999480D01*
X1837640Y-2993940D01*
X1836220Y-2988540D01*
X1834120Y-2983340D01*
X1831360Y-2978480D01*
X1828020Y-2973980D01*
X1824139Y-2969960D01*
X1819760Y-2966480D01*
X1814980Y-2963580D01*
X1811380Y-2962000D01*
X1810120Y-2961120D01*
X1809300Y-2959840D01*
X1809000Y-2958340D01*
X1809000Y-2892740D01*
X1809300Y-2891200D01*
X1810180Y-2889920D01*
X1854720Y-2845380D01*
X1856000Y-2844500D01*
X1857540Y-2844200D01*
X2072300Y-2844200D01*
X2075440Y-2843860D01*
X2078260Y-2842960D01*
X2080880Y-2841440D01*
X2082660Y-2839920D01*
X2192400Y-2730179D01*
X2194400Y-2727720D01*
X2195740Y-2725080D01*
X2196520Y-2722160D01*
X2196700Y-2719840D01*
X2196700Y-1485200D01*
X2196360Y-1482060D01*
X2195460Y-1479240D01*
X2193940Y-1476620D01*
X2192420Y-1474840D01*
X2112680Y-1395100D01*
X2110220Y-1393100D01*
X2107580Y-1391759D01*
X2104660Y-1390980D01*
X2102340Y-1390800D01*
X1180040Y-1390800D01*
X1178500Y-1390500D01*
X1177220Y-1389620D01*
X1077880Y-1290280D01*
X1077000Y-1289000D01*
X1076700Y-1287460D01*
X1076700Y-934340D01*
X1077080Y-932660D01*
X1078120Y-931280D01*
X1079660Y-930480D01*
X1081400Y-930420D01*
X1083000Y-931080D01*
X1083900Y-931720D01*
X1087420Y-933340D01*
X1091140Y-934340D01*
X1095000Y-934680D01*
X1098860Y-934340D01*
X1102580Y-933340D01*
X1106100Y-931720D01*
X1107020Y-931060D01*
X1108320Y-930460D01*
X1109760Y-930360D01*
X1111140Y-930780D01*
X1112280Y-931640D01*
X1113360Y-932840D01*
X1114140Y-934080D01*
X1114400Y-935540D01*
X1114400Y-964400D01*
X1114720Y-967560D01*
X1115580Y-970400D01*
X1116980Y-973040D01*
X1119000Y-975480D01*
X1154120Y-1010600D01*
X1156560Y-1012620D01*
X1159200Y-1014020D01*
X1162040Y-1014880D01*
X1165200Y-1015200D01*
X1504700Y-1015200D01*
X1507840Y-1014900D01*
X1510700Y-1014040D01*
X1513320Y-1012640D01*
X1515780Y-1010620D01*
X1543240Y-983220D01*
X1544379Y-982420D01*
X1545720Y-982060D01*
X1548800Y-981800D01*
X1552540Y-980800D01*
X1556040Y-979160D01*
X1559220Y-976940D01*
X1561940Y-974220D01*
X1564160Y-971040D01*
X1565800Y-967540D01*
X1566800Y-963800D01*
X1567140Y-959960D01*
X1566800Y-956100D01*
X1565800Y-952360D01*
X1564160Y-948860D01*
X1561940Y-945680D01*
X1559220Y-942960D01*
X1556040Y-940740D01*
X1552540Y-939100D01*
X1548800Y-938100D01*
X1544960Y-937760D01*
X1541100Y-938100D01*
X1537360Y-939100D01*
X1533860Y-940740D01*
X1530680Y-942960D01*
X1527960Y-945680D01*
X1525740Y-948860D01*
X1524100Y-952360D01*
X1523100Y-956100D01*
X1522820Y-959320D01*
X1522460Y-960680D01*
X1521660Y-961820D01*
X1499780Y-983640D01*
X1498480Y-984500D01*
X1496960Y-984800D01*
X1172960Y-984800D01*
X1171420Y-984500D01*
X1170120Y-983620D01*
X1145980Y-959479D01*
X1145100Y-958180D01*
X1144800Y-956640D01*
X1144800Y-935620D01*
X1145100Y-934080D01*
X1145980Y-932780D01*
X1146640Y-932120D01*
X1148860Y-928960D01*
X1150480Y-925440D01*
X1151480Y-921720D01*
X1151820Y-917860D01*
X1151480Y-914000D01*
X1150480Y-910280D01*
X1148860Y-906760D01*
X1146640Y-903600D01*
X1143900Y-900860D01*
X1140740Y-898640D01*
X1137220Y-897020D01*
X1133500Y-896020D01*
X1129640Y-895680D01*
X1125780Y-896020D01*
X1122060Y-897020D01*
X1118540Y-898640D01*
X1117620Y-899300D01*
X1116180Y-899920D01*
X1114620Y-899960D01*
X1113180Y-899400D01*
X1111920Y-898139D01*
X1111380Y-897039D01*
X1111200Y-895840D01*
X1111200Y-805860D01*
X1111500Y-804340D01*
X1112380Y-803040D01*
X1140540Y-774880D01*
X1141840Y-774000D01*
X1143360Y-773700D01*
X1387300Y-773700D01*
X1390660Y-773360D01*
X1393700Y-772440D01*
X1396480Y-770960D01*
X1399100Y-768820D01*
X1429620Y-738300D01*
X1431759Y-735680D01*
X1433240Y-732900D01*
X1434160Y-729860D01*
X1434500Y-726500D01*
X1434500Y-713080D01*
X1434680Y-711880D01*
X1435220Y-710800D01*
X1437520Y-707520D01*
X1439139Y-704020D01*
X1440140Y-700280D01*
X1440480Y-696440D01*
X1440140Y-692580D01*
X1439139Y-688840D01*
X1437520Y-685340D01*
X1435300Y-682159D01*
X1432560Y-679440D01*
X1429400Y-677220D01*
X1425880Y-675580D01*
X1422160Y-674580D01*
X1418300Y-674240D01*
X1414440Y-674580D01*
X1410720Y-675580D01*
X1407200Y-677220D01*
X1404040Y-679440D01*
X1401260Y-682220D01*
X1399800Y-683139D01*
X1398080Y-683379D01*
X1396440Y-682860D01*
X1395160Y-681680D01*
X1394500Y-680740D01*
X1391759Y-678000D01*
X1388600Y-675780D01*
X1385080Y-674160D01*
X1381360Y-673160D01*
X1377500Y-672820D01*
X1373640Y-673160D01*
X1369920Y-674160D01*
X1366399Y-675780D01*
X1363240Y-678000D01*
X1360500Y-680740D01*
X1358280Y-683900D01*
X1355740Y-689380D01*
X1354360Y-690420D01*
X1352680Y-690800D01*
X1117700Y-690800D01*
X1114720Y-691120D01*
X1113060Y-690939D01*
X1111600Y-690080D01*
X1110640Y-688720D01*
X1110300Y-687080D01*
X1111840Y-681360D01*
X1112180Y-677500D01*
X1111840Y-673640D01*
X1110840Y-669920D01*
X1109220Y-666400D01*
X1107000Y-663240D01*
X1104260Y-660500D01*
X1101100Y-658280D01*
X1097580Y-656660D01*
X1093860Y-655660D01*
X1090000Y-655320D01*
X1088960Y-655400D01*
X1087400Y-655240D01*
X1086040Y-654479D01*
X1085060Y-653259D01*
X1084620Y-651780D01*
X1084340Y-648640D01*
X1083340Y-644920D01*
X1081720Y-641400D01*
X1079500Y-638240D01*
X1076760Y-635500D01*
X1073600Y-633280D01*
X1070080Y-631660D01*
X1066360Y-630660D01*
X1062500Y-630320D01*
X1058640Y-630660D01*
X1054920Y-631660D01*
X1051400Y-633280D01*
X1048240Y-635500D01*
X1045500Y-638240D01*
X1043280Y-641400D01*
X1041660Y-644920D01*
X1040660Y-648640D01*
X1040100Y-654300D01*
X1039160Y-655759D01*
X990100Y-704820D01*
X988100Y-707280D01*
X986760Y-709920D01*
X985980Y-712840D01*
X985800Y-715160D01*
X985800Y-1327300D01*
X986140Y-1330440D01*
X987039Y-1333260D01*
X988560Y-1335880D01*
X990080Y-1337660D01*
X1271660Y-1619240D01*
X1272600Y-1620700D01*
X1273160Y-1626360D01*
X1274160Y-1630080D01*
X1275780Y-1633600D01*
X1278000Y-1636759D01*
X1280740Y-1639500D01*
X1283899Y-1641720D01*
X1287420Y-1643340D01*
X1291140Y-1644340D01*
X1295000Y-1644680D01*
X1298860Y-1644340D01*
X1302580Y-1643340D01*
X1306100Y-1641720D01*
X1309259Y-1639500D01*
X1312000Y-1636759D01*
X1314220Y-1633600D01*
X1315840Y-1630080D01*
X1316840Y-1626360D01*
X1317180Y-1622500D01*
X1316840Y-1618640D01*
X1315840Y-1614920D01*
X1314220Y-1611399D01*
X1312000Y-1608240D01*
X1309259Y-1605500D01*
X1306100Y-1603280D01*
X1302580Y-1601660D01*
X1298860Y-1600660D01*
X1293200Y-1600100D01*
X1291740Y-1599160D01*
X1164120Y-1471540D01*
X1163240Y-1470200D01*
X1162960Y-1468620D01*
X1163320Y-1467060D01*
X1164260Y-1465760D01*
X1165640Y-1464940D01*
X1167220Y-1464720D01*
X1168760Y-1465160D01*
X1169920Y-1465740D01*
X1172840Y-1466519D01*
X1175160Y-1466699D01*
X1769960Y-1466699D01*
X1771500Y-1467000D01*
X1772780Y-1467880D01*
X1926660Y-1621740D01*
X1927600Y-1623200D01*
X1928160Y-1628860D01*
X1929160Y-1632580D01*
X1930780Y-1636100D01*
X1933000Y-1639259D01*
X1935740Y-1642000D01*
X1938899Y-1644220D01*
X1942420Y-1645840D01*
X1946140Y-1646840D01*
X1950000Y-1647180D01*
X1953860Y-1646840D01*
X1957580Y-1645840D01*
X1961100Y-1644220D01*
X1964259Y-1642000D01*
X1967000Y-1639259D01*
X1969220Y-1636100D01*
X1970840Y-1632580D01*
X1971840Y-1628860D01*
X1972180Y-1625000D01*
X1971840Y-1621140D01*
X1970840Y-1617420D01*
X1969220Y-1613899D01*
X1967000Y-1610740D01*
X1964259Y-1608000D01*
X1961100Y-1605780D01*
X1957580Y-1604160D01*
X1953860Y-1603160D01*
X1948200Y-1602600D01*
X1946740Y-1601660D01*
X1787680Y-1442600D01*
X1785220Y-1440600D01*
X1782580Y-1439259D01*
X1779660Y-1438480D01*
X1777340Y-1438300D01*
X1182540Y-1438300D01*
X1181000Y-1438000D01*
X1179720Y-1437120D01*
X1168520Y-1425940D01*
X1167640Y-1424600D01*
X1167340Y-1423000D01*
X1167720Y-1421440D01*
X1168680Y-1420140D01*
X1170060Y-1419319D01*
X1171660Y-1419120D01*
X1172660Y-1419199D01*
X2094960Y-1419199D01*
X2096500Y-1419500D01*
X2097780Y-1420380D01*
X2167120Y-1489720D01*
X2168000Y-1491000D01*
X2168300Y-1492540D01*
X2168300Y-2712460D01*
X2168000Y-2714000D01*
X2167120Y-2715280D01*
X2067780Y-2814620D01*
X2066500Y-2815500D01*
X2064960Y-2815800D01*
X1850200Y-2815800D01*
X1847060Y-2816139D01*
X1844240Y-2817040D01*
X1841620Y-2818560D01*
X1839840Y-2820080D01*
X1784900Y-2875020D01*
X1782900Y-2877480D01*
X1781560Y-2880120D01*
X1780780Y-2883039D01*
X1780600Y-2885360D01*
X1780600Y-2958300D01*
X1780280Y-2959880D01*
X1779360Y-2961200D01*
X1777980Y-2962040D01*
X1777100Y-2962360D01*
X1772140Y-2964960D01*
X1767560Y-2968159D01*
X1763420Y-2971920D01*
X1759800Y-2976180D01*
X1756740Y-2980860D01*
X1754319Y-2985899D01*
X1752560Y-2991220D01*
X1751480Y-2996700D01*
X1751120Y-3002280D01*
X1751480Y-3007860D01*
X1752560Y-3013360D01*
X1754319Y-3018660D01*
X1756740Y-3023700D01*
X1759800Y-3028399D01*
X1763420Y-3032660D01*
X1767560Y-3036420D01*
X1772140Y-3039620D01*
X1777420Y-3042360D01*
X1778560Y-3043240D01*
X1779319Y-3044480D01*
X1779580Y-3045899D01*
X1779580Y-3158660D01*
X1779319Y-3160100D01*
X1778560Y-3161320D01*
X1777420Y-3162220D01*
X1772140Y-3164960D01*
X1767560Y-3168159D01*
X1763420Y-3171920D01*
X1759800Y-3176180D01*
X1756740Y-3180860D01*
X1754319Y-3185899D01*
X1752560Y-3191220D01*
X1751480Y-3196700D01*
X1751120Y-3202280D01*
X1751480Y-3207860D01*
X1752560Y-3213360D01*
X1754319Y-3218660D01*
X1756740Y-3223700D01*
X1759800Y-3228399D01*
X1763420Y-3232660D01*
X1767560Y-3236420D01*
X1772140Y-3239620D01*
X1777100Y-3242200D01*
X1782360Y-3244140D01*
X1787820Y-3245380D01*
G37*
G36*
X2014019Y-3241420D02*
G01*
X2014980Y-3241000D01*
X2019760Y-3238100D01*
X2024139Y-3234600D01*
X2028020Y-3230580D01*
X2031360Y-3226100D01*
X2033940Y-3221520D01*
X2014019Y-3221520D01*
G37*
G36*
X1975540Y-3241400D02*
G01*
X1975540Y-3221520D01*
X1955680Y-3221520D01*
X1956740Y-3223700D01*
X1959800Y-3228399D01*
X1963420Y-3232660D01*
X1967560Y-3236420D01*
X1972140Y-3239620D01*
G37*
G36*
X1955680Y-3183060D02*
G01*
X1975540Y-3183060D01*
X1975540Y-3163180D01*
X1972140Y-3164960D01*
X1967560Y-3168159D01*
X1963420Y-3171920D01*
X1959800Y-3176180D01*
X1956740Y-3180860D01*
G37*
G36*
X2014019Y-3183060D02*
G01*
X2033940Y-3183060D01*
X2031360Y-3178480D01*
X2028020Y-3173980D01*
X2024139Y-3169960D01*
X2019760Y-3166480D01*
X2014980Y-3163580D01*
X2014019Y-3163159D01*
G37*
G36*
X2014019Y-3041420D02*
G01*
X2014980Y-3041000D01*
X2019760Y-3038100D01*
X2024139Y-3034600D01*
X2028020Y-3030580D01*
X2031360Y-3026100D01*
X2033940Y-3021520D01*
X2014019Y-3021520D01*
G37*
G36*
X1975540Y-3041400D02*
G01*
X1975540Y-3021520D01*
X1955680Y-3021520D01*
X1956740Y-3023700D01*
X1959800Y-3028399D01*
X1963420Y-3032660D01*
X1967560Y-3036420D01*
X1972140Y-3039620D01*
G37*
G36*
X1955680Y-2983060D02*
G01*
X1975540Y-2983060D01*
X1975540Y-2963180D01*
X1972140Y-2964960D01*
X1967560Y-2968159D01*
X1963420Y-2971920D01*
X1959800Y-2976180D01*
X1956740Y-2980860D01*
G37*
G36*
X2014019Y-2983060D02*
G01*
X2033940Y-2983060D01*
X2031360Y-2978480D01*
X2028020Y-2973980D01*
X2024139Y-2969960D01*
X2019760Y-2966480D01*
X2014980Y-2963580D01*
X2014019Y-2963159D01*
G37*
G36*
X73180Y-2288200D02*
G01*
X104500Y-2288200D01*
X104500Y-2262780D01*
X83600Y-2262780D01*
X81120Y-2263060D01*
X78980Y-2263820D01*
X77040Y-2265040D01*
X75440Y-2266640D01*
X74220Y-2268580D01*
X73460Y-2270720D01*
X73180Y-2273220D01*
G37*
G36*
X156760Y-2288200D02*
G01*
X188080Y-2288200D01*
X188080Y-2273220D01*
X187800Y-2270720D01*
X187040Y-2268580D01*
X185820Y-2266640D01*
X184220Y-2265040D01*
X182280Y-2263820D01*
X180140Y-2263060D01*
X177640Y-2262780D01*
X156760Y-2262780D01*
G37*
G36*
X83600Y-2157200D02*
G01*
X177640Y-2157200D01*
X180140Y-2156920D01*
X182280Y-2156180D01*
X184220Y-2154960D01*
X185820Y-2153340D01*
X187040Y-2151420D01*
X187800Y-2149260D01*
X188080Y-2146780D01*
X188080Y-2076360D01*
X187800Y-2073880D01*
X187040Y-2071720D01*
X185820Y-2069800D01*
X184220Y-2068180D01*
X182280Y-2066960D01*
X180140Y-2066220D01*
X177640Y-2065940D01*
X83600Y-2065940D01*
X81120Y-2066220D01*
X78980Y-2066960D01*
X77040Y-2068180D01*
X75440Y-2069800D01*
X74220Y-2071720D01*
X73460Y-2073880D01*
X73180Y-2076360D01*
X73180Y-2146780D01*
X73460Y-2149260D01*
X74220Y-2151420D01*
X75440Y-2153340D01*
X77040Y-2154960D01*
X78980Y-2156180D01*
X81120Y-2156920D01*
G37*
G36*
X662360Y-2157200D02*
G01*
X756400Y-2157200D01*
X758880Y-2156920D01*
X761020Y-2156180D01*
X762960Y-2154960D01*
X764560Y-2153340D01*
X765780Y-2151420D01*
X766540Y-2149260D01*
X766820Y-2146780D01*
X766820Y-2076360D01*
X766540Y-2073880D01*
X765780Y-2071720D01*
X764560Y-2069800D01*
X762960Y-2068180D01*
X761020Y-2066960D01*
X758880Y-2066220D01*
X756400Y-2065940D01*
X662360Y-2065940D01*
X659860Y-2066220D01*
X657720Y-2066960D01*
X655780Y-2068180D01*
X654180Y-2069800D01*
X652960Y-2071720D01*
X652200Y-2073880D01*
X651919Y-2076360D01*
X651919Y-2087600D01*
X651660Y-2089040D01*
X650900Y-2090280D01*
X649740Y-2091160D01*
X648340Y-2091579D01*
X646900Y-2091459D01*
X643860Y-2090660D01*
X640000Y-2090320D01*
X636140Y-2090660D01*
X632420Y-2091660D01*
X628900Y-2093280D01*
X625740Y-2095500D01*
X623000Y-2098240D01*
X620780Y-2101400D01*
X619160Y-2104920D01*
X618160Y-2108640D01*
X617820Y-2112500D01*
X618160Y-2116360D01*
X619160Y-2120080D01*
X620780Y-2123600D01*
X623000Y-2126760D01*
X625740Y-2129500D01*
X628900Y-2131720D01*
X632420Y-2133340D01*
X636140Y-2134340D01*
X640000Y-2134680D01*
X643860Y-2134340D01*
X646900Y-2133540D01*
X648340Y-2133420D01*
X649740Y-2133840D01*
X650900Y-2134720D01*
X651660Y-2135960D01*
X651919Y-2137400D01*
X651919Y-2146780D01*
X652200Y-2149260D01*
X652960Y-2151420D01*
X654180Y-2153340D01*
X655780Y-2154960D01*
X657720Y-2156180D01*
X659860Y-2156920D01*
G37*
G36*
X421520Y-2084340D02*
G01*
X427600Y-2083800D01*
X433579Y-2082540D01*
X439360Y-2080600D01*
X444880Y-2077960D01*
X450040Y-2074700D01*
X454780Y-2070860D01*
X459040Y-2066480D01*
X462740Y-2061620D01*
X465840Y-2056380D01*
X468300Y-2050780D01*
X470100Y-2044940D01*
X471180Y-2038940D01*
X471540Y-2032840D01*
X471180Y-2026740D01*
X470100Y-2020740D01*
X468300Y-2014900D01*
X465840Y-2009300D01*
X462740Y-2004060D01*
X459040Y-1999199D01*
X454780Y-1994820D01*
X450040Y-1990980D01*
X444880Y-1987720D01*
X439360Y-1985080D01*
X433579Y-1983140D01*
X427600Y-1981879D01*
X421520Y-1981339D01*
X415420Y-1981519D01*
X409380Y-1982420D01*
X403500Y-1984019D01*
X397840Y-1986320D01*
X392500Y-1989259D01*
X387540Y-1992820D01*
X383020Y-1996940D01*
X379040Y-2001579D01*
X375620Y-2006639D01*
X372840Y-2012060D01*
X370720Y-2017780D01*
X369280Y-2023720D01*
X368560Y-2029780D01*
X368560Y-2035900D01*
X369280Y-2041960D01*
X370720Y-2047900D01*
X372840Y-2053620D01*
X375620Y-2059040D01*
X379040Y-2064100D01*
X383020Y-2068740D01*
X387540Y-2072860D01*
X392500Y-2076420D01*
X397840Y-2079360D01*
X403500Y-2081660D01*
X409380Y-2083260D01*
X415420Y-2084160D01*
G37*
G36*
X421520Y-1883680D02*
G01*
X427600Y-1883140D01*
X433579Y-1881879D01*
X439360Y-1879920D01*
X444880Y-1877300D01*
X450040Y-1874040D01*
X454780Y-1870200D01*
X459040Y-1865820D01*
X462740Y-1860960D01*
X465840Y-1855700D01*
X468300Y-1850120D01*
X470100Y-1844280D01*
X471180Y-1838260D01*
X471540Y-1832180D01*
X471180Y-1826080D01*
X470100Y-1820060D01*
X468300Y-1814220D01*
X465840Y-1808640D01*
X462740Y-1803380D01*
X459040Y-1798520D01*
X454780Y-1794139D01*
X450040Y-1790300D01*
X444880Y-1787040D01*
X439360Y-1784420D01*
X433579Y-1782460D01*
X427600Y-1781200D01*
X421520Y-1780660D01*
X415420Y-1780840D01*
X409380Y-1781740D01*
X403500Y-1783360D01*
X397840Y-1785640D01*
X392500Y-1788600D01*
X387540Y-1792160D01*
X383020Y-1796279D01*
X379040Y-1800900D01*
X375620Y-1805960D01*
X372840Y-1811399D01*
X370720Y-1817120D01*
X369280Y-1823060D01*
X368560Y-1829120D01*
X368560Y-1835220D01*
X369280Y-1841279D01*
X370720Y-1847220D01*
X372840Y-1852940D01*
X375620Y-1858380D01*
X379040Y-1863440D01*
X383020Y-1868060D01*
X387540Y-1872180D01*
X392500Y-1875740D01*
X397840Y-1878700D01*
X403500Y-1880980D01*
X409380Y-1882600D01*
X415420Y-1883500D01*
G37*
G36*
X83600Y-1799060D02*
G01*
X104500Y-1799060D01*
X104500Y-1773640D01*
X73180Y-1773640D01*
X73180Y-1788620D01*
X73460Y-1791120D01*
X74220Y-1793260D01*
X75420Y-1795200D01*
X77040Y-1796800D01*
X78960Y-1798020D01*
X81120Y-1798779D01*
G37*
G36*
X156760Y-1799060D02*
G01*
X177640Y-1799060D01*
X180140Y-1798779D01*
X182280Y-1798020D01*
X184220Y-1796800D01*
X185820Y-1795200D01*
X187040Y-1793260D01*
X187800Y-1791120D01*
X188080Y-1788620D01*
X188080Y-1773640D01*
X156760Y-1773640D01*
G37*
G36*
X662360Y-1799060D02*
G01*
X756380Y-1799060D01*
X758880Y-1798779D01*
X761020Y-1798020D01*
X762960Y-1796800D01*
X764560Y-1795200D01*
X765780Y-1793260D01*
X766540Y-1791120D01*
X766820Y-1788620D01*
X766820Y-1718220D01*
X766540Y-1715720D01*
X765780Y-1713580D01*
X764560Y-1711639D01*
X762960Y-1710040D01*
X761020Y-1708820D01*
X758880Y-1708060D01*
X756380Y-1707780D01*
X662360Y-1707780D01*
X659860Y-1708060D01*
X657720Y-1708820D01*
X655780Y-1710040D01*
X654180Y-1711639D01*
X652960Y-1713580D01*
X652200Y-1715720D01*
X651919Y-1718220D01*
X651919Y-1788620D01*
X652200Y-1791120D01*
X652960Y-1793260D01*
X654180Y-1795200D01*
X655780Y-1796800D01*
X657720Y-1798020D01*
X659860Y-1798779D01*
G37*
G36*
X156760Y-1733200D02*
G01*
X188080Y-1733200D01*
X188080Y-1718220D01*
X187800Y-1715720D01*
X187040Y-1713580D01*
X185820Y-1711639D01*
X184220Y-1710040D01*
X182280Y-1708820D01*
X180140Y-1708060D01*
X177640Y-1707780D01*
X156760Y-1707780D01*
G37*
G36*
X73180Y-1733200D02*
G01*
X104500Y-1733200D01*
X104500Y-1707780D01*
X83600Y-1707780D01*
X81120Y-1708060D01*
X78960Y-1708820D01*
X77040Y-1710040D01*
X75420Y-1711639D01*
X74220Y-1713580D01*
X73460Y-1715720D01*
X73180Y-1718220D01*
G37*
G36*
X83600Y-1602200D02*
G01*
X177640Y-1602200D01*
X180140Y-1601920D01*
X182280Y-1601180D01*
X184220Y-1599960D01*
X185820Y-1598340D01*
X187040Y-1596420D01*
X187800Y-1594259D01*
X188080Y-1591780D01*
X188080Y-1521360D01*
X187800Y-1518880D01*
X187040Y-1516720D01*
X185820Y-1514800D01*
X184220Y-1513180D01*
X182280Y-1511960D01*
X180140Y-1511220D01*
X177640Y-1510940D01*
X83600Y-1510940D01*
X81120Y-1511220D01*
X78960Y-1511960D01*
X77040Y-1513180D01*
X75420Y-1514800D01*
X74220Y-1516720D01*
X73460Y-1518880D01*
X73180Y-1521360D01*
X73180Y-1591780D01*
X73460Y-1594259D01*
X74220Y-1596420D01*
X75420Y-1598340D01*
X77040Y-1599960D01*
X78960Y-1601180D01*
X81120Y-1601920D01*
G37*
G36*
X662360Y-1602200D02*
G01*
X756380Y-1602200D01*
X758880Y-1601920D01*
X761020Y-1601180D01*
X762960Y-1599960D01*
X764560Y-1598340D01*
X765780Y-1596420D01*
X766540Y-1594259D01*
X766820Y-1591780D01*
X766820Y-1521360D01*
X766540Y-1518880D01*
X765780Y-1516720D01*
X764560Y-1514800D01*
X762960Y-1513180D01*
X761020Y-1511960D01*
X758880Y-1511220D01*
X756380Y-1510940D01*
X662360Y-1510940D01*
X659860Y-1511220D01*
X657720Y-1511960D01*
X655780Y-1513180D01*
X654180Y-1514800D01*
X652960Y-1516720D01*
X652200Y-1518880D01*
X651919Y-1521360D01*
X651919Y-1538380D01*
X651620Y-1539920D01*
X650759Y-1541200D01*
X649460Y-1542080D01*
X647920Y-1542380D01*
X549120Y-1542380D01*
X547580Y-1542080D01*
X546300Y-1541200D01*
X543340Y-1538260D01*
X542400Y-1536800D01*
X541840Y-1531140D01*
X540840Y-1527420D01*
X539220Y-1523899D01*
X537000Y-1520740D01*
X534260Y-1518000D01*
X531100Y-1515780D01*
X527580Y-1514160D01*
X523860Y-1513160D01*
X520000Y-1512820D01*
X516140Y-1513160D01*
X512420Y-1514160D01*
X508900Y-1515780D01*
X505740Y-1518000D01*
X503000Y-1520740D01*
X500780Y-1523899D01*
X499159Y-1527420D01*
X498160Y-1531140D01*
X497819Y-1535000D01*
X498160Y-1538860D01*
X499159Y-1542580D01*
X500780Y-1546100D01*
X503000Y-1549259D01*
X505740Y-1552000D01*
X508900Y-1554220D01*
X512420Y-1555840D01*
X516140Y-1556840D01*
X521800Y-1557400D01*
X523260Y-1558340D01*
X531400Y-1566480D01*
X533860Y-1568480D01*
X536500Y-1569820D01*
X539420Y-1570600D01*
X541740Y-1570780D01*
X647920Y-1570780D01*
X649460Y-1571080D01*
X650759Y-1571960D01*
X651620Y-1573260D01*
X651919Y-1574780D01*
X651919Y-1591780D01*
X652200Y-1594259D01*
X652960Y-1596420D01*
X654180Y-1598340D01*
X655780Y-1599960D01*
X657720Y-1601180D01*
X659860Y-1601920D01*
G37*
G36*
X421520Y-1529340D02*
G01*
X427600Y-1528800D01*
X433579Y-1527540D01*
X439360Y-1525600D01*
X444880Y-1522960D01*
X450040Y-1519700D01*
X454780Y-1515860D01*
X459040Y-1511480D01*
X462740Y-1506620D01*
X465840Y-1501380D01*
X468300Y-1495780D01*
X470100Y-1489940D01*
X471180Y-1483940D01*
X471540Y-1477840D01*
X471180Y-1471740D01*
X470100Y-1465740D01*
X468300Y-1459900D01*
X465840Y-1454300D01*
X462740Y-1449060D01*
X459040Y-1444199D01*
X454780Y-1439820D01*
X450040Y-1435980D01*
X444880Y-1432720D01*
X439360Y-1430080D01*
X433579Y-1428140D01*
X427600Y-1426879D01*
X421520Y-1426339D01*
X415420Y-1426519D01*
X409380Y-1427420D01*
X403500Y-1429019D01*
X397840Y-1431320D01*
X392500Y-1434259D01*
X387540Y-1437820D01*
X383020Y-1441940D01*
X379040Y-1446579D01*
X375620Y-1451639D01*
X372840Y-1457060D01*
X370720Y-1462780D01*
X369280Y-1468720D01*
X368560Y-1474780D01*
X368560Y-1480900D01*
X369280Y-1486960D01*
X370720Y-1492900D01*
X372840Y-1498620D01*
X375620Y-1504040D01*
X379040Y-1509100D01*
X383020Y-1513740D01*
X387540Y-1517860D01*
X392500Y-1521420D01*
X397840Y-1524360D01*
X403500Y-1526660D01*
X409380Y-1528260D01*
X415420Y-1529160D01*
G37*
G36*
X723139Y-1475820D02*
G01*
X729120Y-1475460D01*
X735000Y-1474379D01*
X740720Y-1472600D01*
X746180Y-1470140D01*
X751300Y-1467040D01*
X756020Y-1463360D01*
X760240Y-1459120D01*
X763940Y-1454420D01*
X767039Y-1449300D01*
X769479Y-1443839D01*
X771260Y-1438120D01*
X772340Y-1432240D01*
X772700Y-1426260D01*
X772340Y-1420280D01*
X771260Y-1414400D01*
X769479Y-1408680D01*
X767039Y-1403220D01*
X763940Y-1398100D01*
X760240Y-1393400D01*
X756020Y-1389160D01*
X751300Y-1385480D01*
X746180Y-1382380D01*
X740720Y-1379920D01*
X735000Y-1378140D01*
X729120Y-1377060D01*
X723139Y-1376699D01*
X717180Y-1377060D01*
X711280Y-1378140D01*
X705560Y-1379920D01*
X700120Y-1382380D01*
X695000Y-1385480D01*
X690280Y-1389160D01*
X686040Y-1393400D01*
X682360Y-1398100D01*
X679260Y-1403220D01*
X676800Y-1408680D01*
X675020Y-1414400D01*
X673940Y-1420280D01*
X673580Y-1426260D01*
X673940Y-1432240D01*
X675020Y-1438120D01*
X676800Y-1443839D01*
X679260Y-1449300D01*
X682360Y-1454420D01*
X686040Y-1459120D01*
X690280Y-1463360D01*
X695000Y-1467040D01*
X700120Y-1470140D01*
X705560Y-1472600D01*
X711280Y-1474379D01*
X717180Y-1475460D01*
G37*
G36*
X139040Y-1470520D02*
G01*
X139880Y-1470140D01*
X145000Y-1467040D01*
X149720Y-1463360D01*
X153940Y-1459120D01*
X157640Y-1454420D01*
X160740Y-1449300D01*
X161119Y-1448440D01*
X139040Y-1448440D01*
G37*
G36*
X94660Y-1470520D02*
G01*
X94660Y-1448440D01*
X72580Y-1448440D01*
X72960Y-1449300D01*
X76060Y-1454420D01*
X79740Y-1459120D01*
X83980Y-1463360D01*
X88699Y-1467040D01*
X93820Y-1470140D01*
G37*
G36*
X139040Y-1404079D02*
G01*
X161119Y-1404079D01*
X160740Y-1403220D01*
X157640Y-1398100D01*
X153940Y-1393400D01*
X149720Y-1389160D01*
X145000Y-1385480D01*
X139880Y-1382380D01*
X139040Y-1382000D01*
G37*
G36*
X72580Y-1404079D02*
G01*
X94660Y-1404079D01*
X94660Y-1382000D01*
X93820Y-1382380D01*
X88699Y-1385480D01*
X83980Y-1389160D01*
X79740Y-1393400D01*
X76060Y-1398100D01*
X72960Y-1403220D01*
G37*
G36*
X421520Y-1328680D02*
G01*
X427600Y-1328140D01*
X433579Y-1326879D01*
X439360Y-1324920D01*
X444880Y-1322300D01*
X450040Y-1319040D01*
X454780Y-1315200D01*
X459040Y-1310820D01*
X462740Y-1305960D01*
X465840Y-1300700D01*
X468300Y-1295120D01*
X470100Y-1289280D01*
X471180Y-1283260D01*
X471540Y-1277180D01*
X471180Y-1271080D01*
X470100Y-1265060D01*
X468300Y-1259220D01*
X465840Y-1253640D01*
X462740Y-1248380D01*
X459040Y-1243520D01*
X454780Y-1239140D01*
X450040Y-1235300D01*
X444880Y-1232040D01*
X439360Y-1229420D01*
X433579Y-1227460D01*
X427600Y-1226200D01*
X421520Y-1225660D01*
X415420Y-1225840D01*
X409380Y-1226740D01*
X403500Y-1228360D01*
X397840Y-1230640D01*
X392500Y-1233600D01*
X387540Y-1237160D01*
X383020Y-1241280D01*
X379040Y-1245900D01*
X375620Y-1250960D01*
X372840Y-1256400D01*
X370720Y-1262120D01*
X369280Y-1268060D01*
X368560Y-1274120D01*
X368560Y-1280220D01*
X369280Y-1286279D01*
X370720Y-1292220D01*
X372840Y-1297940D01*
X375620Y-1303380D01*
X379040Y-1308440D01*
X383020Y-1313060D01*
X387540Y-1317180D01*
X392500Y-1320740D01*
X397840Y-1323700D01*
X403500Y-1325980D01*
X409380Y-1327600D01*
X415420Y-1328500D01*
G37*
G36*
X156760Y-1244060D02*
G01*
X177640Y-1244060D01*
X180140Y-1243780D01*
X182280Y-1243020D01*
X184220Y-1241800D01*
X185820Y-1240200D01*
X187040Y-1238260D01*
X187800Y-1236120D01*
X188080Y-1233620D01*
X188080Y-1218640D01*
X156760Y-1218640D01*
G37*
G36*
X83620Y-1244060D02*
G01*
X104500Y-1244060D01*
X104500Y-1218640D01*
X73180Y-1218640D01*
X73180Y-1233620D01*
X73460Y-1236120D01*
X74220Y-1238260D01*
X75440Y-1240200D01*
X77040Y-1241800D01*
X78980Y-1243020D01*
X81120Y-1243780D01*
G37*
G36*
X662360Y-1244060D02*
G01*
X756400Y-1244060D01*
X758880Y-1243780D01*
X761040Y-1243020D01*
X762960Y-1241800D01*
X764580Y-1240200D01*
X765780Y-1238260D01*
X766540Y-1236120D01*
X766820Y-1233620D01*
X766820Y-1163220D01*
X766540Y-1160720D01*
X765780Y-1158580D01*
X764580Y-1156640D01*
X762960Y-1155040D01*
X761040Y-1153820D01*
X758880Y-1153060D01*
X756400Y-1152780D01*
X662360Y-1152780D01*
X659860Y-1153060D01*
X657720Y-1153820D01*
X655780Y-1155040D01*
X654180Y-1156640D01*
X652960Y-1158580D01*
X652200Y-1160720D01*
X651919Y-1163220D01*
X651919Y-1233620D01*
X652200Y-1236120D01*
X652960Y-1238260D01*
X654180Y-1240200D01*
X655780Y-1241800D01*
X657720Y-1243020D01*
X659860Y-1243780D01*
G37*
G36*
X1172660Y-1241700D02*
G01*
X1554800Y-1241700D01*
X1557940Y-1241360D01*
X1560760Y-1240460D01*
X1563380Y-1238940D01*
X1565160Y-1237420D01*
X1662220Y-1140380D01*
X1663500Y-1139500D01*
X1665040Y-1139200D01*
X2051279Y-1139200D01*
X2052820Y-1139500D01*
X2054120Y-1140380D01*
X2055740Y-1142000D01*
X2058899Y-1144220D01*
X2062420Y-1145840D01*
X2066140Y-1146840D01*
X2070000Y-1147180D01*
X2073860Y-1146840D01*
X2077580Y-1145840D01*
X2081100Y-1144220D01*
X2084259Y-1142000D01*
X2087000Y-1139260D01*
X2089220Y-1136100D01*
X2090840Y-1132580D01*
X2091840Y-1128860D01*
X2092180Y-1125000D01*
X2091840Y-1121140D01*
X2090840Y-1117420D01*
X2089220Y-1113900D01*
X2087000Y-1110740D01*
X2084259Y-1108000D01*
X2081100Y-1105780D01*
X2077580Y-1104160D01*
X2073860Y-1103160D01*
X2070000Y-1102820D01*
X2066140Y-1103160D01*
X2062420Y-1104160D01*
X2058899Y-1105780D01*
X2055740Y-1108000D01*
X2054120Y-1109620D01*
X2052820Y-1110500D01*
X2051279Y-1110800D01*
X1657700Y-1110800D01*
X1654560Y-1111140D01*
X1651740Y-1112040D01*
X1649120Y-1113560D01*
X1647340Y-1115080D01*
X1550280Y-1212120D01*
X1549000Y-1213000D01*
X1547460Y-1213300D01*
X1180040Y-1213300D01*
X1178500Y-1213000D01*
X1177220Y-1212120D01*
X1142880Y-1177780D01*
X1142000Y-1176500D01*
X1141700Y-1174960D01*
X1141700Y-1060420D01*
X1142000Y-1058900D01*
X1142880Y-1057600D01*
X1144500Y-1055980D01*
X1146720Y-1052800D01*
X1148340Y-1049300D01*
X1149340Y-1045560D01*
X1149680Y-1041720D01*
X1149340Y-1037860D01*
X1148340Y-1034120D01*
X1146720Y-1030620D01*
X1144500Y-1027440D01*
X1141760Y-1024720D01*
X1138600Y-1022500D01*
X1135080Y-1020860D01*
X1131360Y-1019860D01*
X1127500Y-1019520D01*
X1123640Y-1019860D01*
X1119920Y-1020860D01*
X1116400Y-1022500D01*
X1113240Y-1024720D01*
X1110500Y-1027440D01*
X1108280Y-1030620D01*
X1106660Y-1034120D01*
X1105660Y-1037860D01*
X1105320Y-1041720D01*
X1105660Y-1045560D01*
X1106660Y-1049300D01*
X1108280Y-1052800D01*
X1110500Y-1055980D01*
X1112120Y-1057600D01*
X1113000Y-1058900D01*
X1113300Y-1060420D01*
X1113300Y-1182300D01*
X1113640Y-1185440D01*
X1114540Y-1188260D01*
X1116060Y-1190880D01*
X1117580Y-1192660D01*
X1162320Y-1237400D01*
X1164780Y-1239400D01*
X1167420Y-1240740D01*
X1170340Y-1241520D01*
G37*
G36*
X156760Y-1178200D02*
G01*
X188080Y-1178200D01*
X188080Y-1163220D01*
X187800Y-1160720D01*
X187040Y-1158580D01*
X185820Y-1156640D01*
X184220Y-1155040D01*
X182280Y-1153820D01*
X180140Y-1153060D01*
X177640Y-1152780D01*
X156760Y-1152780D01*
G37*
G36*
X73180Y-1178200D02*
G01*
X104500Y-1178200D01*
X104500Y-1152780D01*
X83620Y-1152780D01*
X81120Y-1153060D01*
X78980Y-1153820D01*
X77040Y-1155040D01*
X75440Y-1156640D01*
X74220Y-1158580D01*
X73460Y-1160720D01*
X73180Y-1163220D01*
G37*
G36*
X1577440Y-1129140D02*
G01*
X1581300Y-1128800D01*
X1585020Y-1127800D01*
X1588540Y-1126160D01*
X1591699Y-1123940D01*
X1594440Y-1121220D01*
X1596660Y-1118040D01*
X1598280Y-1114540D01*
X1599280Y-1110840D01*
X1599680Y-1109880D01*
X1600320Y-1109060D01*
X1620480Y-1088920D01*
X1622540Y-1086200D01*
X1623980Y-1083280D01*
X1624880Y-1080140D01*
X1625200Y-1076720D01*
X1625200Y-968980D01*
X1625500Y-967460D01*
X1626380Y-966160D01*
X1715480Y-877020D01*
X1717540Y-874300D01*
X1718980Y-871380D01*
X1719880Y-868240D01*
X1720200Y-864820D01*
X1720180Y-771820D01*
X1719720Y-768460D01*
X1718680Y-765360D01*
X1717080Y-762500D01*
X1714880Y-759860D01*
X1702860Y-747820D01*
X1702220Y-747000D01*
X1701819Y-746020D01*
X1700840Y-742420D01*
X1699220Y-738900D01*
X1697000Y-735740D01*
X1694259Y-733000D01*
X1691100Y-730780D01*
X1687580Y-729160D01*
X1683860Y-728160D01*
X1680000Y-727820D01*
X1676140Y-728160D01*
X1672420Y-729160D01*
X1668899Y-730780D01*
X1665740Y-733000D01*
X1663000Y-735740D01*
X1660780Y-738900D01*
X1659160Y-742420D01*
X1658160Y-746140D01*
X1657820Y-750000D01*
X1658160Y-753860D01*
X1659160Y-757580D01*
X1660780Y-761100D01*
X1663000Y-764260D01*
X1665740Y-767000D01*
X1668899Y-769220D01*
X1672420Y-770840D01*
X1676020Y-771820D01*
X1677000Y-772220D01*
X1677820Y-772860D01*
X1683620Y-778660D01*
X1684500Y-779960D01*
X1684800Y-781480D01*
X1684800Y-856020D01*
X1684500Y-857540D01*
X1683620Y-858840D01*
X1617740Y-924720D01*
X1616459Y-925580D01*
X1614920Y-925900D01*
X1613380Y-925580D01*
X1612100Y-924720D01*
X1573300Y-885920D01*
X1572660Y-885100D01*
X1572260Y-884120D01*
X1571279Y-880520D01*
X1569660Y-877000D01*
X1567440Y-873840D01*
X1564700Y-871100D01*
X1561540Y-868880D01*
X1558020Y-867260D01*
X1554300Y-866260D01*
X1550440Y-865920D01*
X1546579Y-866260D01*
X1542860Y-867260D01*
X1539340Y-868880D01*
X1536180Y-871100D01*
X1533440Y-873840D01*
X1531220Y-877000D01*
X1529600Y-880520D01*
X1528600Y-884240D01*
X1528260Y-888100D01*
X1528600Y-891960D01*
X1529600Y-895680D01*
X1531220Y-899200D01*
X1533440Y-902360D01*
X1536180Y-905100D01*
X1539340Y-907320D01*
X1542860Y-908940D01*
X1546459Y-909920D01*
X1547440Y-910320D01*
X1548260Y-910960D01*
X1588620Y-951320D01*
X1589500Y-952620D01*
X1589800Y-954140D01*
X1589800Y-1067900D01*
X1589500Y-1069420D01*
X1588620Y-1070720D01*
X1575180Y-1084120D01*
X1574360Y-1084760D01*
X1573380Y-1085160D01*
X1569860Y-1086100D01*
X1566339Y-1087740D01*
X1563180Y-1089960D01*
X1560440Y-1092680D01*
X1558220Y-1095860D01*
X1556600Y-1099360D01*
X1555600Y-1103100D01*
X1555260Y-1106960D01*
X1555600Y-1110800D01*
X1556600Y-1114540D01*
X1558220Y-1118040D01*
X1560440Y-1121220D01*
X1563180Y-1123940D01*
X1566339Y-1126160D01*
X1569860Y-1127800D01*
X1573580Y-1128800D01*
G37*
G36*
X2128520Y-1084840D02*
G01*
X2128520Y-1067420D01*
X2102920Y-1067420D01*
X2104160Y-1070020D01*
X2106680Y-1073700D01*
X2109720Y-1076980D01*
X2113200Y-1079760D01*
X2117080Y-1082000D01*
X2121240Y-1083620D01*
X2125580Y-1084620D01*
G37*
G36*
X2174860Y-1084840D02*
G01*
X2177800Y-1084620D01*
X2182140Y-1083620D01*
X2186300Y-1082000D01*
X2190180Y-1079760D01*
X2193660Y-1076980D01*
X2196700Y-1073700D01*
X2199220Y-1070020D01*
X2200460Y-1067420D01*
X2174860Y-1067420D01*
G37*
G36*
X2294860Y-1084620D02*
G01*
X2294860Y-1067420D01*
X2272200Y-1067420D01*
X2273440Y-1070020D01*
X2275960Y-1073720D01*
X2279000Y-1076980D01*
X2282500Y-1079760D01*
X2286360Y-1082000D01*
X2290520Y-1083640D01*
G37*
G36*
X83620Y-1047200D02*
G01*
X177640Y-1047200D01*
X180140Y-1046919D01*
X182280Y-1046180D01*
X184220Y-1044960D01*
X185820Y-1043340D01*
X187040Y-1041420D01*
X187800Y-1039260D01*
X188080Y-1036780D01*
X188080Y-966360D01*
X187800Y-963880D01*
X187040Y-961720D01*
X185820Y-959800D01*
X184220Y-958180D01*
X182280Y-956960D01*
X180140Y-956220D01*
X177640Y-955939D01*
X83620Y-955939D01*
X81120Y-956220D01*
X78980Y-956960D01*
X77040Y-958180D01*
X75440Y-959800D01*
X74220Y-961720D01*
X73460Y-963880D01*
X73180Y-966360D01*
X73180Y-1036780D01*
X73460Y-1039260D01*
X74220Y-1041420D01*
X75440Y-1043340D01*
X77040Y-1044960D01*
X78980Y-1046180D01*
X81120Y-1046919D01*
G37*
G36*
X662360Y-1047200D02*
G01*
X756400Y-1047200D01*
X758880Y-1046919D01*
X761040Y-1046180D01*
X762960Y-1044960D01*
X764580Y-1043340D01*
X765780Y-1041420D01*
X766540Y-1039260D01*
X766820Y-1036780D01*
X766820Y-966360D01*
X766540Y-963880D01*
X765780Y-961720D01*
X764580Y-959800D01*
X762960Y-958180D01*
X761040Y-956960D01*
X758880Y-956220D01*
X756400Y-955939D01*
X662380Y-955939D01*
X659260Y-956340D01*
X657840Y-956260D01*
X656520Y-955680D01*
X655480Y-954659D01*
X654500Y-953240D01*
X651760Y-950500D01*
X648600Y-948280D01*
X645080Y-946660D01*
X641360Y-945660D01*
X637500Y-945320D01*
X633640Y-945660D01*
X629920Y-946660D01*
X626400Y-948280D01*
X623240Y-950500D01*
X620500Y-953240D01*
X618280Y-956400D01*
X616660Y-959920D01*
X615660Y-963640D01*
X615320Y-967500D01*
X615660Y-971360D01*
X616660Y-975080D01*
X618280Y-978600D01*
X620500Y-981760D01*
X623240Y-984500D01*
X626400Y-986720D01*
X629920Y-988340D01*
X633640Y-989340D01*
X639300Y-989900D01*
X640759Y-990840D01*
X650759Y-1000840D01*
X651620Y-1002140D01*
X651919Y-1003660D01*
X651919Y-1036780D01*
X652200Y-1039260D01*
X652960Y-1041420D01*
X654180Y-1043340D01*
X655780Y-1044960D01*
X657720Y-1046180D01*
X659860Y-1046919D01*
G37*
G36*
X2272200Y-1042740D02*
G01*
X2294860Y-1042740D01*
X2294860Y-1025540D01*
X2290520Y-1026540D01*
X2286360Y-1028160D01*
X2282500Y-1030400D01*
X2279000Y-1033180D01*
X2275960Y-1036460D01*
X2273440Y-1040140D01*
G37*
G36*
X2102920Y-1042740D02*
G01*
X2128520Y-1042740D01*
X2128520Y-1025320D01*
X2125580Y-1025540D01*
X2121240Y-1026540D01*
X2117080Y-1028160D01*
X2113200Y-1030400D01*
X2109720Y-1033180D01*
X2106680Y-1036460D01*
X2104160Y-1040140D01*
G37*
G36*
X2174860Y-1042740D02*
G01*
X2200460Y-1042740D01*
X2199220Y-1040140D01*
X2196700Y-1036460D01*
X2193660Y-1033180D01*
X2190180Y-1030400D01*
X2186300Y-1028160D01*
X2182060Y-1026500D01*
X2180760Y-1025680D01*
X2179880Y-1024440D01*
X2179520Y-1022960D01*
X2179740Y-1021440D01*
X2180500Y-1020140D01*
X2181720Y-1019200D01*
X2183400Y-1018340D01*
X2186540Y-1016040D01*
X2189220Y-1013220D01*
X2191420Y-1009980D01*
X2193020Y-1006440D01*
X2194000Y-1002660D01*
X2194340Y-998780D01*
X2194000Y-994900D01*
X2193020Y-991120D01*
X2191420Y-987580D01*
X2189220Y-984340D01*
X2186540Y-981520D01*
X2183400Y-979220D01*
X2179920Y-977460D01*
X2176200Y-976320D01*
X2172320Y-975819D01*
X2168440Y-975980D01*
X2164620Y-976800D01*
X2161000Y-978259D01*
X2157680Y-980300D01*
X2154760Y-982880D01*
X2152320Y-985920D01*
X2150400Y-989320D01*
X2149120Y-992980D01*
X2148460Y-996840D01*
X2148460Y-1000720D01*
X2149120Y-1004580D01*
X2150400Y-1008240D01*
X2152320Y-1011640D01*
X2154760Y-1014680D01*
X2157680Y-1017260D01*
X2161000Y-1019300D01*
X2164620Y-1020759D01*
X2168440Y-1021580D01*
X2171020Y-1021680D01*
X2172500Y-1022039D01*
X2173740Y-1022920D01*
X2174560Y-1024180D01*
X2174860Y-1025680D01*
G37*
G36*
X2067500Y-1002180D02*
G01*
X2071360Y-1001840D01*
X2075080Y-1000840D01*
X2078600Y-999220D01*
X2081759Y-997000D01*
X2084500Y-994260D01*
X2086720Y-991100D01*
X2088340Y-987580D01*
X2089340Y-983860D01*
X2089680Y-980000D01*
X2089340Y-976140D01*
X2088340Y-972420D01*
X2088080Y-971820D01*
X2087700Y-970120D01*
X2087700Y-799880D01*
X2088080Y-798180D01*
X2088340Y-797580D01*
X2089340Y-793860D01*
X2089680Y-790000D01*
X2089340Y-786140D01*
X2088340Y-782420D01*
X2086720Y-778900D01*
X2084500Y-775740D01*
X2081759Y-773000D01*
X2078600Y-770780D01*
X2075080Y-769160D01*
X2071360Y-768160D01*
X2067500Y-767820D01*
X2063640Y-768160D01*
X2059920Y-769160D01*
X2056399Y-770780D01*
X2053240Y-773000D01*
X2050500Y-775740D01*
X2048280Y-778900D01*
X2046660Y-782420D01*
X2045660Y-786140D01*
X2045320Y-790000D01*
X2045660Y-793860D01*
X2046660Y-797580D01*
X2046920Y-798160D01*
X2047300Y-799860D01*
X2047300Y-970140D01*
X2046920Y-971840D01*
X2046660Y-972420D01*
X2045660Y-976140D01*
X2045320Y-980000D01*
X2045660Y-983860D01*
X2046660Y-987580D01*
X2048280Y-991100D01*
X2050500Y-994260D01*
X2053240Y-997000D01*
X2056399Y-999220D01*
X2059920Y-1000840D01*
X2063640Y-1001840D01*
G37*
G36*
X421520Y-974340D02*
G01*
X427600Y-973800D01*
X433579Y-972540D01*
X439360Y-970600D01*
X444880Y-967960D01*
X450040Y-964700D01*
X454780Y-960860D01*
X459040Y-956480D01*
X462740Y-951620D01*
X465840Y-946380D01*
X468300Y-940780D01*
X470100Y-934940D01*
X471180Y-928940D01*
X471540Y-922840D01*
X471180Y-916740D01*
X470100Y-910740D01*
X468300Y-904900D01*
X465840Y-899300D01*
X462740Y-894060D01*
X459040Y-889200D01*
X454780Y-884820D01*
X450040Y-880980D01*
X444880Y-877720D01*
X439360Y-875080D01*
X433579Y-873139D01*
X427600Y-871880D01*
X421520Y-871340D01*
X415420Y-871520D01*
X409380Y-872420D01*
X403500Y-874020D01*
X397840Y-876320D01*
X392500Y-879260D01*
X387540Y-882820D01*
X383020Y-886940D01*
X379040Y-891580D01*
X375620Y-896640D01*
X372840Y-902060D01*
X370720Y-907780D01*
X369280Y-913720D01*
X368560Y-919780D01*
X368560Y-925900D01*
X369280Y-931960D01*
X370720Y-937900D01*
X372840Y-943620D01*
X375620Y-949040D01*
X379040Y-954100D01*
X383020Y-958740D01*
X387540Y-962860D01*
X392500Y-966420D01*
X397840Y-969360D01*
X403500Y-971660D01*
X409380Y-973259D01*
X415420Y-974160D01*
G37*
G36*
X2172340Y-794180D02*
G01*
X2176220Y-793680D01*
X2179940Y-792540D01*
X2183420Y-790780D01*
X2186560Y-788480D01*
X2189240Y-785660D01*
X2191440Y-782420D01*
X2193040Y-778880D01*
X2194020Y-775100D01*
X2194360Y-771220D01*
X2194020Y-767340D01*
X2193040Y-763560D01*
X2191440Y-760020D01*
X2189240Y-756780D01*
X2186560Y-753960D01*
X2183420Y-751660D01*
X2181720Y-750800D01*
X2180520Y-749860D01*
X2179740Y-748540D01*
X2179520Y-747039D01*
X2179880Y-745560D01*
X2180780Y-744320D01*
X2182060Y-743500D01*
X2186300Y-741840D01*
X2190160Y-739599D01*
X2193660Y-736820D01*
X2196700Y-733540D01*
X2199220Y-729860D01*
X2200460Y-727260D01*
X2174860Y-727260D01*
X2174860Y-744320D01*
X2174560Y-745819D01*
X2173740Y-747080D01*
X2172500Y-747960D01*
X2171020Y-748319D01*
X2168460Y-748420D01*
X2164640Y-749240D01*
X2161020Y-750699D01*
X2157700Y-752740D01*
X2154780Y-755320D01*
X2152340Y-758360D01*
X2150420Y-761760D01*
X2149140Y-765420D01*
X2148480Y-769280D01*
X2148480Y-773160D01*
X2149140Y-777020D01*
X2150420Y-780680D01*
X2152340Y-784080D01*
X2154780Y-787120D01*
X2157700Y-789700D01*
X2161020Y-791740D01*
X2164640Y-793199D01*
X2168460Y-794020D01*
G37*
G36*
X421520Y-768680D02*
G01*
X427600Y-768139D01*
X433579Y-766880D01*
X439360Y-764920D01*
X444880Y-762300D01*
X450040Y-759040D01*
X454780Y-755200D01*
X459040Y-750819D01*
X462740Y-745960D01*
X465840Y-740699D01*
X468300Y-735120D01*
X470100Y-729280D01*
X471180Y-723259D01*
X471540Y-717180D01*
X471180Y-711080D01*
X470100Y-705060D01*
X468300Y-699220D01*
X465840Y-693640D01*
X462740Y-688379D01*
X459040Y-683520D01*
X454780Y-679140D01*
X450040Y-675300D01*
X444880Y-672039D01*
X439360Y-669419D01*
X433579Y-667460D01*
X427600Y-666200D01*
X421520Y-665660D01*
X415420Y-665840D01*
X409380Y-666740D01*
X403500Y-668360D01*
X397840Y-670639D01*
X392500Y-673600D01*
X387540Y-677159D01*
X383020Y-681280D01*
X379040Y-685900D01*
X375620Y-690960D01*
X372840Y-696400D01*
X370720Y-702120D01*
X369280Y-708060D01*
X368560Y-714120D01*
X368560Y-720220D01*
X369280Y-726280D01*
X370720Y-732220D01*
X372840Y-737940D01*
X375620Y-743379D01*
X379040Y-748439D01*
X383020Y-753060D01*
X387540Y-757180D01*
X392500Y-760740D01*
X397840Y-763700D01*
X403500Y-765980D01*
X409380Y-767600D01*
X415420Y-768500D01*
G37*
G36*
X2128520Y-744680D02*
G01*
X2128520Y-727260D01*
X2102920Y-727260D01*
X2104160Y-729860D01*
X2106680Y-733540D01*
X2109720Y-736820D01*
X2113200Y-739599D01*
X2117080Y-741840D01*
X2121220Y-743460D01*
X2125580Y-744460D01*
G37*
G36*
X2294860Y-744460D02*
G01*
X2294860Y-727260D01*
X2272200Y-727260D01*
X2273440Y-729860D01*
X2275960Y-733560D01*
X2279000Y-736820D01*
X2282500Y-739599D01*
X2286360Y-741840D01*
X2290520Y-743480D01*
G37*
G36*
X2272200Y-702580D02*
G01*
X2294860Y-702580D01*
X2294860Y-685380D01*
X2290520Y-686380D01*
X2286360Y-688000D01*
X2282500Y-690240D01*
X2279000Y-693020D01*
X2275960Y-696300D01*
X2273440Y-699980D01*
G37*
G36*
X2102920Y-702580D02*
G01*
X2128520Y-702580D01*
X2128520Y-685160D01*
X2125580Y-685380D01*
X2121220Y-686380D01*
X2117080Y-688000D01*
X2113200Y-690240D01*
X2109720Y-693020D01*
X2106680Y-696300D01*
X2104160Y-699980D01*
G37*
G36*
X2174860Y-702580D02*
G01*
X2200460Y-702580D01*
X2199220Y-699980D01*
X2196700Y-696300D01*
X2193660Y-693020D01*
X2190160Y-690240D01*
X2186300Y-688000D01*
X2182140Y-686380D01*
X2177800Y-685380D01*
X2174860Y-685160D01*
G37*
G36*
X83600Y-684060D02*
G01*
X104500Y-684060D01*
X104500Y-658640D01*
X73180Y-658640D01*
X73180Y-673620D01*
X73460Y-676120D01*
X74220Y-678259D01*
X75440Y-680200D01*
X77040Y-681800D01*
X78980Y-683020D01*
X81120Y-683780D01*
G37*
G36*
X156760Y-684060D02*
G01*
X177640Y-684060D01*
X180140Y-683780D01*
X182280Y-683020D01*
X184220Y-681800D01*
X185820Y-680200D01*
X187040Y-678259D01*
X187800Y-676120D01*
X188080Y-673620D01*
X188080Y-658640D01*
X156760Y-658640D01*
G37*
G36*
X662360Y-684060D02*
G01*
X756400Y-684060D01*
X758880Y-683780D01*
X761020Y-683020D01*
X762960Y-681800D01*
X764560Y-680200D01*
X765780Y-678259D01*
X766540Y-676120D01*
X766820Y-673620D01*
X766820Y-603220D01*
X766540Y-600720D01*
X765780Y-598580D01*
X764560Y-596640D01*
X762960Y-595040D01*
X761020Y-593820D01*
X758880Y-593060D01*
X756400Y-592780D01*
X662360Y-592780D01*
X659860Y-593060D01*
X657720Y-593820D01*
X655780Y-595040D01*
X654180Y-596640D01*
X652960Y-598580D01*
X652200Y-600720D01*
X651919Y-603220D01*
X651919Y-673620D01*
X652200Y-676120D01*
X652960Y-678259D01*
X654180Y-680200D01*
X655780Y-681800D01*
X657720Y-683020D01*
X659860Y-683780D01*
G37*
G36*
X1743540Y-662260D02*
G01*
X1747400Y-661919D01*
X1751120Y-660920D01*
X1754640Y-659280D01*
X1757800Y-657060D01*
X1760540Y-654340D01*
X1762760Y-651160D01*
X1764379Y-647660D01*
X1765380Y-643920D01*
X1765720Y-640080D01*
X1765380Y-636220D01*
X1764379Y-632480D01*
X1762760Y-628980D01*
X1761920Y-627800D01*
X1761380Y-626700D01*
X1761200Y-625500D01*
X1761180Y-252820D01*
X1760720Y-249460D01*
X1759680Y-246360D01*
X1758080Y-243500D01*
X1755880Y-240859D01*
X1696360Y-181340D01*
X1695500Y-180040D01*
X1695200Y-178500D01*
X1695200Y-162340D01*
X1695460Y-160900D01*
X1696200Y-159680D01*
X1697340Y-158780D01*
X1700140Y-157340D01*
X1704720Y-154140D01*
X1708860Y-150380D01*
X1712480Y-146120D01*
X1715540Y-141420D01*
X1717960Y-136380D01*
X1719720Y-131080D01*
X1720800Y-125580D01*
X1721160Y-120000D01*
X1720800Y-114420D01*
X1719720Y-108920D01*
X1717960Y-103620D01*
X1715540Y-98580D01*
X1712480Y-93880D01*
X1708860Y-89620D01*
X1704720Y-85860D01*
X1700140Y-82660D01*
X1695180Y-80079D01*
X1689920Y-78140D01*
X1684460Y-76900D01*
X1678899Y-76360D01*
X1673300Y-76540D01*
X1667780Y-77440D01*
X1662420Y-79040D01*
X1657300Y-81300D01*
X1652520Y-84200D01*
X1648140Y-87680D01*
X1644259Y-91700D01*
X1640920Y-96180D01*
X1638160Y-101060D01*
X1636060Y-106240D01*
X1634640Y-111660D01*
X1633940Y-117200D01*
X1633940Y-122800D01*
X1634640Y-128340D01*
X1636060Y-133760D01*
X1638160Y-138940D01*
X1640920Y-143820D01*
X1644259Y-148300D01*
X1648140Y-152320D01*
X1652520Y-155800D01*
X1657420Y-158760D01*
X1658680Y-159620D01*
X1659500Y-160920D01*
X1659800Y-162420D01*
X1659820Y-188180D01*
X1660280Y-191540D01*
X1661320Y-194640D01*
X1662900Y-197500D01*
X1665120Y-200140D01*
X1724620Y-259660D01*
X1725500Y-260960D01*
X1725800Y-262480D01*
X1725800Y-625620D01*
X1725620Y-626820D01*
X1725080Y-627900D01*
X1724319Y-628980D01*
X1722700Y-632480D01*
X1721699Y-636220D01*
X1721360Y-640080D01*
X1721699Y-643920D01*
X1722700Y-647660D01*
X1724319Y-651160D01*
X1726540Y-654340D01*
X1729280Y-657060D01*
X1732440Y-659280D01*
X1735960Y-660920D01*
X1739680Y-661919D01*
G37*
G36*
X73180Y-618200D02*
G01*
X104500Y-618200D01*
X104500Y-592780D01*
X83600Y-592780D01*
X81120Y-593060D01*
X78980Y-593820D01*
X77040Y-595040D01*
X75440Y-596640D01*
X74220Y-598580D01*
X73460Y-600720D01*
X73180Y-603220D01*
G37*
G36*
X156760Y-618200D02*
G01*
X188080Y-618200D01*
X188080Y-603220D01*
X187800Y-600720D01*
X187040Y-598580D01*
X185820Y-596640D01*
X184220Y-595040D01*
X182280Y-593820D01*
X180140Y-593060D01*
X177640Y-592780D01*
X156760Y-592780D01*
G37*
G36*
X83600Y-487200D02*
G01*
X177640Y-487200D01*
X180140Y-486920D01*
X182280Y-486180D01*
X184220Y-484960D01*
X185820Y-483340D01*
X187040Y-481420D01*
X187800Y-479260D01*
X188080Y-476780D01*
X188080Y-406360D01*
X187800Y-403880D01*
X187040Y-401719D01*
X185820Y-399799D01*
X184220Y-398180D01*
X182280Y-396960D01*
X180140Y-396220D01*
X177640Y-395940D01*
X83600Y-395940D01*
X81120Y-396220D01*
X78980Y-396960D01*
X77040Y-398180D01*
X75440Y-399799D01*
X74220Y-401719D01*
X73460Y-403880D01*
X73180Y-406360D01*
X73180Y-476780D01*
X73460Y-479260D01*
X74220Y-481420D01*
X75440Y-483340D01*
X77040Y-484960D01*
X78980Y-486180D01*
X81120Y-486920D01*
G37*
G36*
X662360Y-487200D02*
G01*
X756400Y-487200D01*
X758880Y-486920D01*
X761020Y-486180D01*
X762960Y-484960D01*
X764560Y-483340D01*
X765780Y-481420D01*
X766540Y-479260D01*
X766820Y-476780D01*
X766820Y-406360D01*
X766540Y-403880D01*
X765780Y-401719D01*
X764560Y-399799D01*
X762960Y-398180D01*
X761020Y-396960D01*
X758880Y-396220D01*
X756400Y-395940D01*
X662360Y-395940D01*
X659860Y-396220D01*
X657720Y-396960D01*
X655780Y-398180D01*
X654180Y-399799D01*
X652960Y-401719D01*
X652200Y-403880D01*
X651919Y-406360D01*
X651919Y-417600D01*
X651660Y-419040D01*
X650900Y-420280D01*
X649740Y-421160D01*
X648340Y-421580D01*
X646900Y-421460D01*
X643860Y-420660D01*
X640000Y-420319D01*
X636140Y-420660D01*
X632420Y-421659D01*
X628900Y-423280D01*
X625740Y-425500D01*
X623000Y-428240D01*
X620780Y-431400D01*
X619160Y-434920D01*
X618160Y-438640D01*
X617820Y-442500D01*
X618160Y-446360D01*
X619160Y-450080D01*
X620780Y-453600D01*
X623000Y-456760D01*
X625740Y-459500D01*
X628900Y-461719D01*
X632420Y-463340D01*
X636140Y-464340D01*
X640000Y-464680D01*
X643860Y-464340D01*
X646900Y-463540D01*
X648340Y-463420D01*
X649740Y-463840D01*
X650900Y-464720D01*
X651660Y-465959D01*
X651919Y-467400D01*
X651919Y-476780D01*
X652200Y-479260D01*
X652960Y-481420D01*
X654180Y-483340D01*
X655780Y-484960D01*
X657720Y-486180D01*
X659860Y-486920D01*
G37*
G36*
X421520Y-414340D02*
G01*
X427600Y-413800D01*
X433579Y-412540D01*
X439360Y-410600D01*
X444880Y-407960D01*
X450040Y-404700D01*
X454780Y-400860D01*
X459040Y-396480D01*
X462740Y-391620D01*
X465840Y-386380D01*
X468300Y-380780D01*
X470100Y-374940D01*
X471180Y-368940D01*
X471540Y-362840D01*
X471180Y-356740D01*
X470100Y-350740D01*
X468300Y-344900D01*
X465840Y-339300D01*
X462740Y-334060D01*
X459040Y-329200D01*
X454780Y-324820D01*
X450040Y-320980D01*
X444880Y-317720D01*
X439360Y-315080D01*
X433579Y-313140D01*
X427600Y-311880D01*
X421520Y-311340D01*
X415420Y-311520D01*
X409380Y-312420D01*
X403500Y-314020D01*
X397840Y-316320D01*
X392500Y-319260D01*
X387540Y-322819D01*
X383020Y-326940D01*
X379040Y-331580D01*
X375620Y-336640D01*
X372840Y-342060D01*
X370720Y-347780D01*
X369280Y-353720D01*
X368560Y-359780D01*
X368560Y-365900D01*
X369280Y-371960D01*
X370720Y-377900D01*
X372840Y-383620D01*
X375620Y-389040D01*
X379040Y-394099D01*
X383020Y-398740D01*
X387540Y-402860D01*
X392500Y-406420D01*
X397840Y-409360D01*
X403500Y-411659D01*
X409380Y-413260D01*
X415420Y-414159D01*
G37*
G36*
X119900Y-187340D02*
G01*
X127000Y-186780D01*
X134020Y-185500D01*
X140860Y-183520D01*
X147460Y-180820D01*
X153760Y-177480D01*
X159680Y-173500D01*
X165140Y-168939D01*
X170120Y-163820D01*
X174560Y-158240D01*
X178380Y-152220D01*
X181560Y-145840D01*
X184080Y-139160D01*
X185900Y-132280D01*
X187000Y-125239D01*
X187360Y-118120D01*
X187000Y-110980D01*
X185900Y-103940D01*
X184080Y-97060D01*
X181560Y-90380D01*
X178380Y-84000D01*
X174560Y-77980D01*
X170120Y-72400D01*
X165140Y-67280D01*
X159680Y-62720D01*
X153760Y-58740D01*
X147460Y-55400D01*
X140860Y-52699D01*
X134020Y-50720D01*
X127000Y-49440D01*
X119900Y-48880D01*
X112760Y-49060D01*
X105700Y-49980D01*
X98760Y-51620D01*
X92020Y-53960D01*
X85559Y-56980D01*
X79460Y-60660D01*
X73740Y-64940D01*
X68520Y-69780D01*
X63800Y-75140D01*
X59680Y-80940D01*
X56160Y-87140D01*
X53320Y-93680D01*
X51140Y-100480D01*
X49680Y-107460D01*
X48960Y-114540D01*
X48960Y-121679D01*
X49680Y-128760D01*
X51140Y-135740D01*
X53320Y-142540D01*
X56160Y-149080D01*
X59680Y-155280D01*
X63800Y-161080D01*
X68520Y-166439D01*
X73740Y-171280D01*
X79460Y-175560D01*
X85559Y-179240D01*
X92020Y-182260D01*
X98760Y-184600D01*
X105700Y-186240D01*
X112760Y-187160D01*
G37*
G36*
X2245880Y-187340D02*
G01*
X2252980Y-186780D01*
X2260000Y-185500D01*
X2266840Y-183520D01*
X2273440Y-180820D01*
X2279740Y-177480D01*
X2285660Y-173500D01*
X2291120Y-168939D01*
X2296100Y-163820D01*
X2300540Y-158240D01*
X2304360Y-152220D01*
X2307540Y-145840D01*
X2310060Y-139160D01*
X2311880Y-132280D01*
X2312980Y-125239D01*
X2313340Y-118120D01*
X2312980Y-110980D01*
X2311880Y-103940D01*
X2310060Y-97060D01*
X2307540Y-90380D01*
X2304360Y-84000D01*
X2300540Y-77980D01*
X2296100Y-72400D01*
X2291120Y-67280D01*
X2285660Y-62720D01*
X2279740Y-58740D01*
X2273440Y-55400D01*
X2266840Y-52699D01*
X2260000Y-50720D01*
X2252980Y-49440D01*
X2245880Y-48880D01*
X2238740Y-49060D01*
X2231680Y-49980D01*
X2224740Y-51620D01*
X2218000Y-53960D01*
X2211540Y-56980D01*
X2205440Y-60660D01*
X2199720Y-64940D01*
X2194500Y-69780D01*
X2189780Y-75140D01*
X2185660Y-80940D01*
X2182140Y-87140D01*
X2179300Y-93680D01*
X2177120Y-100480D01*
X2175660Y-107460D01*
X2174940Y-114540D01*
X2174940Y-121679D01*
X2175660Y-128760D01*
X2177120Y-135740D01*
X2179300Y-142540D01*
X2182140Y-149080D01*
X2185660Y-155280D01*
X2189780Y-161080D01*
X2194500Y-166439D01*
X2199720Y-171280D01*
X2205440Y-175560D01*
X2211540Y-179240D01*
X2218000Y-182260D01*
X2224740Y-184600D01*
X2231680Y-186240D01*
X2238740Y-187160D01*
G37*
G36*
X1744259Y-163660D02*
G01*
X1758260Y-163660D01*
X1758260Y-139240D01*
X1733839Y-139240D01*
X1733839Y-153240D01*
X1734120Y-155720D01*
X1734860Y-157880D01*
X1736080Y-159800D01*
X1737700Y-161420D01*
X1739620Y-162640D01*
X1741780Y-163380D01*
G37*
G36*
X1796740Y-163660D02*
G01*
X1810740Y-163660D01*
X1813220Y-163380D01*
X1815380Y-162640D01*
X1817300Y-161420D01*
X1818920Y-159800D01*
X1820140Y-157880D01*
X1820880Y-155720D01*
X1821160Y-153240D01*
X1821160Y-139240D01*
X1796740Y-139240D01*
G37*
G36*
X1578899Y-163640D02*
G01*
X1584460Y-163100D01*
X1589920Y-161860D01*
X1595180Y-159920D01*
X1600140Y-157340D01*
X1604720Y-154140D01*
X1608860Y-150380D01*
X1612480Y-146120D01*
X1615540Y-141420D01*
X1617960Y-136380D01*
X1619720Y-131080D01*
X1620800Y-125580D01*
X1621160Y-120000D01*
X1620800Y-114420D01*
X1619720Y-108920D01*
X1617960Y-103620D01*
X1615540Y-98580D01*
X1612480Y-93880D01*
X1608860Y-89620D01*
X1604720Y-85860D01*
X1600140Y-82660D01*
X1595180Y-80079D01*
X1589920Y-78140D01*
X1584460Y-76900D01*
X1578899Y-76360D01*
X1573300Y-76540D01*
X1567780Y-77440D01*
X1562420Y-79040D01*
X1557300Y-81300D01*
X1552520Y-84200D01*
X1548140Y-87680D01*
X1544259Y-91700D01*
X1540920Y-96180D01*
X1538160Y-101060D01*
X1536060Y-106240D01*
X1534640Y-111660D01*
X1533940Y-117200D01*
X1533940Y-122800D01*
X1534640Y-128340D01*
X1536060Y-133760D01*
X1538160Y-138940D01*
X1540920Y-143820D01*
X1544259Y-148300D01*
X1548140Y-152320D01*
X1552520Y-155800D01*
X1557300Y-158700D01*
X1562420Y-160980D01*
X1567780Y-162560D01*
X1573300Y-163460D01*
G37*
G36*
X1078900Y-163640D02*
G01*
X1084460Y-163100D01*
X1089920Y-161860D01*
X1095180Y-159920D01*
X1100140Y-157340D01*
X1104720Y-154140D01*
X1108860Y-150380D01*
X1112480Y-146120D01*
X1115540Y-141420D01*
X1117960Y-136380D01*
X1119720Y-131080D01*
X1120800Y-125580D01*
X1121160Y-120000D01*
X1120800Y-114420D01*
X1119720Y-108920D01*
X1117960Y-103620D01*
X1115540Y-98580D01*
X1112480Y-93880D01*
X1108860Y-89620D01*
X1104720Y-85860D01*
X1100140Y-82660D01*
X1095180Y-80079D01*
X1089920Y-78140D01*
X1084460Y-76900D01*
X1078900Y-76360D01*
X1073300Y-76540D01*
X1067780Y-77440D01*
X1062420Y-79040D01*
X1057300Y-81300D01*
X1052520Y-84200D01*
X1048139Y-87680D01*
X1044260Y-91700D01*
X1040920Y-96180D01*
X1038160Y-101060D01*
X1036060Y-106240D01*
X1034640Y-111660D01*
X1033940Y-117200D01*
X1033940Y-122800D01*
X1034640Y-128340D01*
X1036060Y-133760D01*
X1038160Y-138940D01*
X1040920Y-143820D01*
X1044260Y-148300D01*
X1048139Y-152320D01*
X1052520Y-155800D01*
X1057300Y-158700D01*
X1062420Y-160980D01*
X1067780Y-162560D01*
X1073300Y-163460D01*
G37*
G36*
X1478899Y-163640D02*
G01*
X1484460Y-163100D01*
X1489920Y-161860D01*
X1495180Y-159920D01*
X1500140Y-157340D01*
X1504720Y-154140D01*
X1508860Y-150380D01*
X1512480Y-146120D01*
X1515540Y-141420D01*
X1517960Y-136380D01*
X1519720Y-131080D01*
X1520800Y-125580D01*
X1521160Y-120000D01*
X1520800Y-114420D01*
X1519720Y-108920D01*
X1517960Y-103620D01*
X1515540Y-98580D01*
X1512480Y-93880D01*
X1508860Y-89620D01*
X1504720Y-85860D01*
X1500140Y-82660D01*
X1495180Y-80079D01*
X1489920Y-78140D01*
X1484460Y-76900D01*
X1478899Y-76360D01*
X1473300Y-76540D01*
X1467780Y-77440D01*
X1462420Y-79040D01*
X1457300Y-81300D01*
X1452520Y-84200D01*
X1448140Y-87680D01*
X1444259Y-91700D01*
X1440920Y-96180D01*
X1438160Y-101060D01*
X1436060Y-106240D01*
X1434640Y-111660D01*
X1433940Y-117200D01*
X1433940Y-122800D01*
X1434640Y-128340D01*
X1436060Y-133760D01*
X1438160Y-138940D01*
X1440920Y-143820D01*
X1444259Y-148300D01*
X1448140Y-152320D01*
X1452520Y-155800D01*
X1457300Y-158700D01*
X1462420Y-160980D01*
X1467780Y-162560D01*
X1473300Y-163460D01*
G37*
G36*
X1178900Y-163640D02*
G01*
X1184460Y-163100D01*
X1189920Y-161860D01*
X1195180Y-159920D01*
X1200140Y-157340D01*
X1204720Y-154140D01*
X1208860Y-150380D01*
X1212480Y-146120D01*
X1215540Y-141420D01*
X1217960Y-136380D01*
X1219720Y-131080D01*
X1220800Y-125580D01*
X1221160Y-120000D01*
X1220800Y-114420D01*
X1219720Y-108920D01*
X1217960Y-103620D01*
X1215540Y-98580D01*
X1212480Y-93880D01*
X1208860Y-89620D01*
X1204720Y-85860D01*
X1200140Y-82660D01*
X1195180Y-80079D01*
X1189920Y-78140D01*
X1184460Y-76900D01*
X1178900Y-76360D01*
X1173300Y-76540D01*
X1167780Y-77440D01*
X1162420Y-79040D01*
X1157300Y-81300D01*
X1152520Y-84200D01*
X1148140Y-87680D01*
X1144260Y-91700D01*
X1140920Y-96180D01*
X1138160Y-101060D01*
X1136060Y-106240D01*
X1134640Y-111660D01*
X1133940Y-117200D01*
X1133940Y-122800D01*
X1134640Y-128340D01*
X1136060Y-133760D01*
X1138160Y-138940D01*
X1140920Y-143820D01*
X1144260Y-148300D01*
X1148140Y-152320D01*
X1152520Y-155800D01*
X1157300Y-158700D01*
X1162420Y-160980D01*
X1167780Y-162560D01*
X1173300Y-163460D01*
G37*
G36*
X1378899Y-163640D02*
G01*
X1384460Y-163100D01*
X1389920Y-161860D01*
X1395180Y-159920D01*
X1400140Y-157340D01*
X1404720Y-154140D01*
X1408860Y-150380D01*
X1412480Y-146120D01*
X1415540Y-141420D01*
X1417960Y-136380D01*
X1419720Y-131080D01*
X1420800Y-125580D01*
X1421160Y-120000D01*
X1420800Y-114420D01*
X1419720Y-108920D01*
X1417960Y-103620D01*
X1415540Y-98580D01*
X1412480Y-93880D01*
X1408860Y-89620D01*
X1404720Y-85860D01*
X1400140Y-82660D01*
X1395180Y-80079D01*
X1389920Y-78140D01*
X1384460Y-76900D01*
X1378899Y-76360D01*
X1373300Y-76540D01*
X1367780Y-77440D01*
X1362420Y-79040D01*
X1357300Y-81300D01*
X1352520Y-84200D01*
X1348140Y-87680D01*
X1344259Y-91700D01*
X1340920Y-96180D01*
X1338160Y-101060D01*
X1336060Y-106240D01*
X1334640Y-111660D01*
X1333940Y-117200D01*
X1333940Y-122800D01*
X1334640Y-128340D01*
X1336060Y-133760D01*
X1338160Y-138940D01*
X1340920Y-143820D01*
X1344259Y-148300D01*
X1348140Y-152320D01*
X1352520Y-155800D01*
X1357300Y-158700D01*
X1362420Y-160980D01*
X1367780Y-162560D01*
X1373300Y-163460D01*
G37*
G36*
X1278900Y-163640D02*
G01*
X1284460Y-163100D01*
X1289920Y-161860D01*
X1295180Y-159920D01*
X1300140Y-157340D01*
X1304720Y-154140D01*
X1308860Y-150380D01*
X1312480Y-146120D01*
X1315540Y-141420D01*
X1317960Y-136380D01*
X1319720Y-131080D01*
X1320800Y-125580D01*
X1321160Y-120000D01*
X1320800Y-114420D01*
X1319720Y-108920D01*
X1317960Y-103620D01*
X1315540Y-98580D01*
X1312480Y-93880D01*
X1308860Y-89620D01*
X1304720Y-85860D01*
X1300140Y-82660D01*
X1295180Y-80079D01*
X1289920Y-78140D01*
X1284460Y-76900D01*
X1278900Y-76360D01*
X1273300Y-76540D01*
X1267780Y-77440D01*
X1262420Y-79040D01*
X1257300Y-81300D01*
X1252520Y-84200D01*
X1248140Y-87680D01*
X1244260Y-91700D01*
X1240920Y-96180D01*
X1238160Y-101060D01*
X1236060Y-106240D01*
X1234640Y-111660D01*
X1233940Y-117200D01*
X1233940Y-122800D01*
X1234640Y-128340D01*
X1236060Y-133760D01*
X1238160Y-138940D01*
X1240920Y-143820D01*
X1244260Y-148300D01*
X1248140Y-152320D01*
X1252520Y-155800D01*
X1257300Y-158700D01*
X1262420Y-160980D01*
X1267780Y-162560D01*
X1273300Y-163460D01*
G37*
G36*
X1796740Y-100760D02*
G01*
X1821160Y-100760D01*
X1821160Y-86760D01*
X1820880Y-84280D01*
X1820140Y-82120D01*
X1818920Y-80200D01*
X1817300Y-78580D01*
X1815380Y-77360D01*
X1813220Y-76620D01*
X1810740Y-76340D01*
X1796740Y-76340D01*
G37*
G36*
X1733839Y-100760D02*
G01*
X1758260Y-100760D01*
X1758260Y-76340D01*
X1744259Y-76340D01*
X1741780Y-76620D01*
X1739620Y-77360D01*
X1737700Y-78580D01*
X1736080Y-80200D01*
X1734860Y-82120D01*
X1734120Y-84280D01*
X1733839Y-86760D01*
G37*

%LPD*%
D10*
X1087930Y-3281420D02*
G01*
X1087930Y-3122500D01*
X1481630Y-3281420D02*
G01*
X1481630Y-2958589D01*
X1087930Y-3281420D02*
G01*
X1087930Y-2958589D01*
X595000Y-3281420D02*
G01*
X595000Y-2958589D01*
X595000Y-3281400D02*
G01*
X595000Y-3195000D01*
X667500Y-3122500D01*
X1405000Y-3122500D01*
X1481600Y-3199100D01*
X1481600Y-3281400D01*
X1481630Y-2958610D02*
G01*
X1481630Y-3045010D01*
X1409130Y-3117510D01*
X671630Y-3117510D01*
X595030Y-3040910D01*
X595030Y-2958610D01*
X1168100Y-2611900D02*
G01*
X1455000Y-2325000D01*
X1745000Y-2325000D01*
X1168100Y-2611900D02*
G01*
X1037500Y-2742500D01*
X382500Y-2742500D01*
X321600Y-2681600D01*
X321600Y-2583700D01*
X1168100Y-2265599D02*
G01*
X1168100Y-2611900D01*
X1037500Y-2742500D01*
X1168100Y-2611900D02*
G01*
X1168100Y-2484155D01*
X1327255Y-2325000D01*
X1168100Y-1985799D02*
G01*
X1168100Y-2248099D01*
X1245000Y-2325000D01*
X1745000Y-2325000D01*
X1823100Y-2246900D01*
X1823100Y-1985799D01*
D11*
X1743500Y-640100D02*
G01*
X1743500Y-253500D01*
X1677498Y-187498D01*
X1677498Y-120005D01*
D12*
X2070000Y-1125000D02*
G01*
X1657500Y-1125000D01*
X1555000Y-1227500D01*
X1172500Y-1227500D01*
X1127500Y-1182500D01*
X1127500Y-1041700D01*
D11*
X1550440Y-888099D02*
G01*
X1607500Y-945160D01*
X1607500Y-972500D01*
X1680000Y-750000D02*
G01*
X1702500Y-772500D01*
X1702500Y-865000D01*
X1607500Y-960000D01*
X1607500Y-1076900D01*
X1577400Y-1106900D01*
D13*
X1095000Y-912500D02*
G01*
X1095000Y-797500D01*
X1135000Y-757500D01*
X1387500Y-757500D01*
X1418299Y-726700D01*
X1418299Y-696400D01*
D12*
X1377500Y-695000D02*
G01*
X1367500Y-705000D01*
X1117500Y-705000D01*
X1062500Y-760000D01*
X1062500Y-1295000D01*
X1172500Y-1405000D01*
X2102500Y-1405000D01*
X2182500Y-1485000D01*
X2182500Y-2720000D01*
X2072500Y-2830000D01*
X1850000Y-2830000D01*
X1794800Y-2885200D01*
X1794800Y-3002300D01*
D11*
X2150000Y-1297500D02*
G01*
X2277500Y-1425000D01*
X2277500Y-2819600D01*
X2094800Y-3002300D01*
D14*
X1770000Y-1350000D02*
G01*
X2115000Y-1345000D01*
X2227500Y-1457500D01*
X2227500Y-2757500D01*
X2085000Y-2900000D01*
X1935000Y-2900000D01*
X1894800Y-2940200D01*
X1894800Y-3002300D01*
D15*
X2067496Y-980003D02*
G01*
X2067496Y-790003D01*
D12*
X640000Y-442500D02*
G01*
X709400Y-441600D01*
X640000Y-2112500D02*
G01*
X709400Y-2111600D01*
X520000Y-1535000D02*
G01*
X541581Y-1556581D01*
X709369Y-1556581D01*
X709369Y-1001581D02*
G01*
X671581Y-1001581D01*
X637500Y-967500D01*
X1295000Y-1622500D02*
G01*
X1000000Y-1327500D01*
X1000000Y-715000D01*
X1062500Y-652500D01*
D14*
X1129600Y-917899D02*
G01*
X1129600Y-964600D01*
X1165000Y-1000000D01*
X1504900Y-1000000D01*
X1545000Y-960000D01*
D12*
X1950000Y-1625000D02*
G01*
X1777500Y-1452500D01*
X1175000Y-1452500D01*
X1032500Y-1310000D01*
X1032500Y-735000D01*
X1090000Y-677500D01*
D14*
X2094780Y-3002292D02*
G01*
X2094780Y-3202292D01*
X1894780Y-3002292D02*
G01*
X1894780Y-3202292D01*
X1794780Y-3002292D02*
G01*
X1794780Y-3202292D01*
D11*
X1735000Y-1295000D02*
G01*
X2150000Y-1297500D01*
D16*
G01*
X130626Y-638424D03*
G01*
X709374Y-638424D03*
G01*
X130626Y-441575D03*
G01*
X709374Y-441575D03*
G01*
X130626Y-1198424D03*
G01*
X709374Y-1198424D03*
G01*
X130626Y-1001575D03*
G01*
X709374Y-1001575D03*
G01*
X130626Y-1753424D03*
G01*
X709374Y-1753424D03*
G01*
X130626Y-1556575D03*
G01*
X709374Y-1556575D03*
G01*
X130626Y-2308424D03*
G01*
X709374Y-2308424D03*
G01*
X130626Y-2111575D03*
G01*
X709374Y-2111575D03*
D17*
G01*
X1777499Y-120000D03*
D18*
G01*
X1677498Y-120005D03*
G01*
X1577498Y-120005D03*
G01*
X1477498Y-120005D03*
G01*
X1377498Y-120005D03*
G01*
X1277498Y-120005D03*
G01*
X1177498Y-120005D03*
G01*
X1077498Y-120005D03*
D19*
G01*
X1586930Y-2064580D03*
G01*
X2059369Y-2064580D03*
G01*
X1823130Y-1985840D03*
G01*
X1586930Y-2544900D03*
G01*
X931930Y-2064580D03*
G01*
X1404369Y-2064580D03*
G01*
X1168130Y-1985840D03*
G01*
X931930Y-2544900D03*
D20*
G01*
X2315070Y-714920D03*
G01*
X2315070Y-1055080D03*
D21*
G01*
X2151690Y-714920D03*
G01*
X2151690Y-1055080D03*
D22*
G01*
X723150Y-1426260D03*
G01*
X116850Y-1426260D03*
G01*
X518420Y-2583740D03*
G01*
X321570Y-2583740D03*
D23*
G01*
X791850Y-2958589D03*
G01*
X595000Y-2958589D03*
G01*
X398150Y-2958589D03*
G01*
X398150Y-3281420D03*
G01*
X595000Y-3281420D03*
G01*
X791850Y-3281420D03*
G01*
X1481630Y-2958589D03*
G01*
X1284780Y-2958589D03*
G01*
X1087930Y-2958589D03*
G01*
X1087930Y-3281420D03*
G01*
X1284780Y-3281420D03*
G01*
X1481630Y-3281420D03*
D18*
G01*
X1794780Y-3002290D03*
G01*
X1894780Y-3002290D03*
G01*
X1994780Y-3002290D03*
G01*
X2094780Y-3002290D03*
G01*
X1794780Y-3202290D03*
G01*
X1894780Y-3202290D03*
G01*
X1994780Y-3202290D03*
G01*
X2094780Y-3202290D03*
D24*
G01*
X1355170Y-919600D03*
G01*
X1276430Y-919600D03*
G01*
X1276430Y-840860D03*
G01*
X1355170Y-840860D03*
G01*
X2067500Y-790000D03*
G01*
X2067500Y-980000D03*
G01*
X640000Y-442500D03*
G01*
X640000Y-2112500D03*
G01*
X637500Y-967500D03*
G01*
X520000Y-1535000D03*
G01*
X2070000Y-1125000D03*
G01*
X1127500Y-1041710D03*
G01*
X1550440Y-888099D03*
G01*
X1680000Y-750000D03*
G01*
X1577440Y-1106950D03*
G01*
X1735000Y-1295000D03*
G01*
X1295000Y-1622500D03*
G01*
X1950000Y-1625000D03*
G01*
X1377500Y-695000D03*
G01*
X1095000Y-912500D03*
G01*
X1129639Y-917860D03*
G01*
X1544949Y-959950D03*
G01*
X1418299Y-696430D03*
G01*
X2150000Y-1297500D03*
G01*
X1770000Y-1350000D03*
G01*
X1605000Y-585000D03*
G01*
X1417500Y-565000D03*
G01*
X1149770Y-523369D03*
G01*
X1130000Y-817500D03*
G01*
X947270Y-970869D03*
G01*
X947270Y-1020869D03*
G01*
X947270Y-1060870D03*
G01*
X1680000Y-990000D03*
G01*
X1680000Y-1060000D03*
G01*
X1667500Y-1155000D03*
G01*
X1890000Y-1155000D03*
G01*
X1419239Y-1197960D03*
G01*
X1276739Y-1197960D03*
G01*
X1667730Y-815590D03*
G01*
X1667730Y-854130D03*
G01*
X1782500Y-547500D03*
G01*
X942500Y-1815000D03*
G01*
X1598670Y-1815000D03*
G01*
X195000Y-637500D03*
G01*
X195000Y-1197500D03*
G01*
X195000Y-1752500D03*
G01*
X195000Y-2307500D03*
G01*
X1062500Y-652500D03*
G01*
X1090000Y-677500D03*
G01*
X1743540Y-640070D03*
M02*
