G04 Layer: TopSolderMaskLayer*
G04 EasyEDA v6.5.22, 2023-04-15 17:34:24*
G04 819af3526855441081df4c6eebb6a90a,5a628b76fac64d3cb101ae6d552a3bac,10*
G04 Gerber Generator version 0.2*
G04 Scale: 100 percent, Rotated: No, Reflected: No *
G04 Dimensions in inches *
G04 leading zeros omitted , absolute positions ,3 integer and 6 decimal *
%FSLAX36Y36*%
%MOIN*%

%AMMACRO1*1,1,$1,$2,$3*1,1,$1,$4,$5*1,1,$1,0-$2,0-$3*1,1,$1,0-$4,0-$5*20,1,$1,$2,$3,$4,$5,0*20,1,$1,$4,$5,0-$2,0-$3,0*20,1,$1,0-$2,0-$3,0-$4,0-$5,0*20,1,$1,0-$4,0-$5,$2,$3,0*4,1,4,$2,$3,$4,$5,0-$2,0-$3,0-$4,0-$5,$2,$3,0*%
%ADD10C,0.0539*%
%ADD11MACRO1,0.004X0.0335X0.0335X-0.0335X0.0335*%
%ADD12C,0.0709*%
%ADD13MACRO1,0.004X0.0106X-0.0156X-0.0106X-0.0156*%
%ADD14MACRO1,0.004X0.0106X0.0156X-0.0106X0.0156*%
%ADD15MACRO1,0.004X-0.0106X0.0111X0.0106X0.0111*%
%ADD16MACRO1,0.004X-0.0106X-0.0111X0.0106X-0.0111*%
%ADD17MACRO1,0.004X-0.0157X0.0335X0.0157X0.0335*%
%ADD18MACRO1,0.004X0.0157X-0.0335X-0.0157X-0.0335*%
%ADD19MACRO1,0.004X0.0177X0.0157X0.0177X-0.0157*%
%ADD20MACRO1,0.004X-0.0156X-0.0106X-0.0156X0.0106*%
%ADD21MACRO1,0.004X0.0156X-0.0106X0.0156X0.0106*%
%ADD22MACRO1,0.004X0.0156X0.0106X0.0156X-0.0106*%
%ADD23MACRO1,0.004X-0.0156X0.0106X-0.0156X-0.0106*%
%ADD24MACRO1,0.004X-0.0106X0.0156X0.0106X0.0156*%
%ADD25MACRO1,0.004X-0.0106X-0.0156X0.0106X-0.0156*%
%ADD26MACRO1,0.004X0.0157X-0.0177X-0.0157X-0.0177*%
%ADD27MACRO1,0.004X-0.0187X-0.0236X-0.0187X0.0236*%
%ADD28R,0.0414X0.0512*%
%ADD29MACRO1,0.004X-0.0217X0.0335X0.0217X0.0335*%
%ADD30MACRO1,0.004X0.0246X-0.0138X-0.0246X-0.0138*%
%ADD31MACRO1,0.004X-0.017X0.0159X0.017X0.0159*%
%ADD32MACRO1,0.004X-0.017X-0.0159X0.017X-0.0159*%
%ADD33MACRO1,0.004X0.0106X-0.0111X-0.0106X-0.0111*%
%ADD34MACRO1,0.004X0.0106X0.0111X-0.0106X0.0111*%
%ADD35MACRO1,0.004X-0.0111X-0.0106X-0.0111X0.0106*%
%ADD36MACRO1,0.004X0.0111X-0.0106X0.0111X0.0106*%
%ADD37C,0.1140*%
%ADD38MACRO1,0.0039X0.0039X0.0217X0.0039X-0.0217*%
%ADD39MACRO1,0.0039X-0.0217X0.0039X0.0217X0.0039*%
%ADD40MACRO1,0.0039X-0.0039X-0.0217X-0.0039X0.0217*%
%ADD41MACRO1,0.0039X0.0217X-0.0039X-0.0217X-0.0039*%
%ADD42MACRO1,0.0039X0.061X0.061X0.061X-0.061*%
%ADD43O,0.026874X0.054216999999999994*%
%ADD44MACRO1,0.004X0.0846X0.0669X0.0846X-0.0669*%
%ADD45MACRO1,0.004X0.0591X0.0295X0.0591X-0.0295*%
%ADD46MACRO1,0.004X-0.0228X-0.0096X-0.0228X0.0096*%
%ADD47MACRO1,0.004X-0.0231X-0.0096X-0.0231X0.0096*%
%ADD48MACRO1,0.0039X-0.0256X-0.0118X-0.0256X0.0118*%
%ADD49MACRO1,0.0039X-0.0256X-0.0059X-0.0256X0.0059*%
%ADD50O,0.074804X0.043308*%
%ADD51O,0.086615X0.043308*%
%ADD52C,0.0827*%
%ADD53MACRO1,0.004X-0.0236X-0.0276X-0.0236X0.0276*%
%ADD54C,0.0906*%
%ADD55C,0.0709*%
%ADD56C,0.0135*%

%LPD*%
D10*
G01*
X1127500Y-1102500D03*
G01*
X1195000Y-1150000D03*
D11*
G01*
X1777499Y-120000D03*
D12*
G01*
X1677498Y-120005D03*
G01*
X1577498Y-120005D03*
G01*
X1477498Y-120005D03*
G01*
X1377498Y-120005D03*
G01*
X1277498Y-120005D03*
G01*
X1177498Y-120005D03*
G01*
X1077498Y-120005D03*
D13*
G01*
X2182500Y-3023541D03*
D14*
G01*
X2182500Y-3066459D03*
D15*
G01*
X2182500Y-3164540D03*
D16*
G01*
X2182500Y-3130459D03*
D17*
G01*
X2325018Y-569999D03*
G01*
X2191158Y-569999D03*
D18*
G01*
X2191158Y-1199998D03*
G01*
X2325018Y-1199998D03*
D19*
G01*
X1667500Y-1257559D03*
G01*
X1667500Y-1202441D03*
G01*
X1890000Y-1257559D03*
G01*
X1890000Y-1202441D03*
D20*
G01*
X1031459Y-1060000D03*
D21*
G01*
X988541Y-1060000D03*
D22*
G01*
X1583541Y-816460D03*
D23*
G01*
X1626459Y-816460D03*
D20*
G01*
X1031459Y-1020000D03*
D21*
G01*
X988541Y-1020000D03*
D22*
G01*
X1583541Y-855000D03*
D23*
G01*
X1626459Y-855000D03*
D24*
G01*
X1743540Y-592863D03*
D25*
G01*
X1743540Y-549945D03*
D24*
G01*
X1418370Y-649189D03*
D25*
G01*
X1418370Y-606271D03*
D13*
G01*
X1418370Y-1113771D03*
D14*
G01*
X1418370Y-1156689D03*
D13*
G01*
X1275870Y-1113771D03*
D14*
G01*
X1275870Y-1156689D03*
D26*
G01*
X1577441Y-1062560D03*
G01*
X1632559Y-1062560D03*
G01*
X1577441Y-992440D03*
G01*
X1632559Y-992440D03*
D27*
G01*
X2032500Y-1078070D03*
D28*
G01*
X2032500Y-1211930D03*
D29*
G01*
X1755571Y-1807499D03*
G01*
X1889429Y-1807499D03*
G01*
X1100571Y-1807499D03*
G01*
X1234429Y-1807499D03*
D30*
G01*
X1605630Y-1770100D03*
G01*
X1605630Y-1844899D03*
G01*
X1684370Y-1807499D03*
G01*
X949468Y-1770100D03*
G01*
X949468Y-1844899D03*
G01*
X1028208Y-1807499D03*
D31*
G01*
X2119995Y-599654D03*
D32*
G01*
X2119995Y-540343D03*
D31*
G01*
X1540644Y-1632336D03*
D32*
G01*
X1540644Y-1573025D03*
D31*
G01*
X885647Y-1632521D03*
D32*
G01*
X885647Y-1573210D03*
D33*
G01*
X2017500Y-757959D03*
D34*
G01*
X2017500Y-792040D03*
D15*
G01*
X2017500Y-1012040D03*
D16*
G01*
X2017500Y-977959D03*
D35*
G01*
X1622040Y-895000D03*
D36*
G01*
X1587959Y-895000D03*
D35*
G01*
X1622040Y-935000D03*
D36*
G01*
X1587959Y-935000D03*
D31*
G01*
X1540647Y-1836271D03*
D32*
G01*
X1540647Y-1776960D03*
D31*
G01*
X885647Y-1836271D03*
D32*
G01*
X885647Y-1776960D03*
D31*
G01*
X2119995Y-1229654D03*
D32*
G01*
X2119995Y-1170343D03*
D31*
G01*
X1355870Y-1157385D03*
D32*
G01*
X1355870Y-1098074D03*
D37*
G01*
X1586930Y-2064580D03*
G01*
X2059369Y-2064580D03*
G01*
X1823130Y-1985840D03*
G01*
X1586930Y-2544900D03*
G01*
X931930Y-2064580D03*
G01*
X1404369Y-2064580D03*
G01*
X1168130Y-1985840D03*
G01*
X931930Y-2544900D03*
D38*
G01*
X1418230Y-740462D03*
G01*
X1402480Y-740462D03*
G01*
X1386730Y-740462D03*
G01*
X1370980Y-740462D03*
G01*
X1355240Y-740462D03*
G01*
X1339490Y-740462D03*
G01*
X1323740Y-740462D03*
G01*
X1307990Y-740462D03*
G01*
X1292240Y-740462D03*
G01*
X1276500Y-740462D03*
G01*
X1260750Y-740462D03*
G01*
X1245000Y-740462D03*
G01*
X1229250Y-740462D03*
G01*
X1213500Y-740462D03*
D39*
G01*
X1176103Y-777870D03*
G01*
X1176103Y-793610D03*
G01*
X1176103Y-809360D03*
G01*
X1176103Y-825110D03*
G01*
X1176103Y-840860D03*
G01*
X1176103Y-856610D03*
G01*
X1176103Y-872350D03*
G01*
X1176103Y-888100D03*
G01*
X1176103Y-903850D03*
G01*
X1176103Y-919600D03*
G01*
X1176103Y-935350D03*
G01*
X1176103Y-951090D03*
G01*
X1176103Y-966840D03*
G01*
X1176103Y-982590D03*
D40*
G01*
X1213500Y-1019997D03*
G01*
X1229250Y-1019997D03*
G01*
X1245000Y-1019997D03*
G01*
X1260750Y-1019997D03*
G01*
X1276500Y-1019997D03*
G01*
X1292240Y-1019997D03*
G01*
X1307990Y-1019997D03*
G01*
X1323740Y-1019997D03*
G01*
X1339490Y-1019997D03*
G01*
X1355240Y-1019997D03*
G01*
X1370980Y-1019997D03*
G01*
X1386730Y-1019997D03*
G01*
X1402480Y-1019997D03*
G01*
X1418230Y-1019997D03*
D41*
G01*
X1455627Y-982590D03*
G01*
X1455627Y-966840D03*
G01*
X1455627Y-951090D03*
G01*
X1455627Y-935350D03*
G01*
X1455627Y-919600D03*
G01*
X1455627Y-903850D03*
G01*
X1455627Y-888100D03*
G01*
X1455627Y-872350D03*
G01*
X1455627Y-856610D03*
G01*
X1455627Y-840860D03*
G01*
X1455627Y-825110D03*
G01*
X1455627Y-809360D03*
G01*
X1455627Y-793610D03*
G01*
X1455627Y-777870D03*
D42*
G01*
X1315867Y-880227D03*
D43*
G01*
X1680000Y-466390D03*
G01*
X1630000Y-466390D03*
G01*
X1580000Y-466390D03*
G01*
X1530000Y-466390D03*
G01*
X1680000Y-703610D03*
G01*
X1630000Y-703610D03*
G01*
X1580000Y-703610D03*
G01*
X1530000Y-703610D03*
D44*
G01*
X1605000Y-585000D03*
D45*
G01*
X1646943Y-1645005D03*
G01*
X1646943Y-1545005D03*
G01*
X2040643Y-1545005D03*
G01*
X2040643Y-1645005D03*
G01*
X993149Y-1645005D03*
G01*
X993149Y-1545005D03*
G01*
X1386849Y-1545005D03*
G01*
X1386849Y-1645005D03*
D46*
G01*
X1825420Y-1267400D03*
G01*
X1825420Y-1230000D03*
G01*
X1825420Y-1192600D03*
D47*
G01*
X1734580Y-1192600D03*
G01*
X1734580Y-1267400D03*
D48*
G01*
X2124929Y-1010990D03*
G01*
X2124929Y-979490D03*
G01*
X2124929Y-759020D03*
G01*
X2124929Y-790510D03*
D49*
G01*
X2124929Y-816099D03*
G01*
X2124929Y-835789D03*
G01*
X2124929Y-855469D03*
G01*
X2124929Y-875159D03*
G01*
X2124929Y-894839D03*
G01*
X2124929Y-914529D03*
G01*
X2124929Y-934209D03*
G01*
X2124929Y-953899D03*
D50*
G01*
X2315070Y-714920D03*
G01*
X2315070Y-1055080D03*
D51*
G01*
X2151690Y-714920D03*
G01*
X2151690Y-1055080D03*
D52*
G01*
X723150Y-1426260D03*
G01*
X116850Y-1426260D03*
G01*
X518420Y-2583740D03*
G01*
X321570Y-2583740D03*
D53*
G01*
X1043895Y-901617D03*
G01*
X1043895Y-815003D03*
G01*
X974995Y-815003D03*
G01*
X974997Y-901617D03*
D22*
G01*
X988541Y-745000D03*
D23*
G01*
X1031459Y-745000D03*
D22*
G01*
X988541Y-970000D03*
D23*
G01*
X1031459Y-970000D03*
D54*
G01*
X791850Y-2958589D03*
G01*
X595000Y-2958589D03*
G01*
X398150Y-2958589D03*
G01*
X398150Y-3281420D03*
G01*
X595000Y-3281420D03*
G01*
X791850Y-3281420D03*
G01*
X1481630Y-2958589D03*
G01*
X1284780Y-2958589D03*
G01*
X1087930Y-2958589D03*
G01*
X1087930Y-3281420D03*
G01*
X1284780Y-3281420D03*
G01*
X1481630Y-3281420D03*
D55*
G01*
X1794780Y-3002290D03*
G01*
X1894780Y-3002290D03*
G01*
X1994780Y-3002290D03*
G01*
X2094780Y-3002290D03*
G01*
X1794780Y-3202290D03*
G01*
X1894780Y-3202290D03*
G01*
X1994780Y-3202290D03*
G01*
X2094780Y-3202290D03*
D20*
G01*
X1233959Y-522500D03*
D21*
G01*
X1191041Y-522500D03*
M02*
