G04 Layer: TopLayer*
G04 EasyEDA v6.5.22, 2023-04-15 17:34:24*
G04 819af3526855441081df4c6eebb6a90a,5a628b76fac64d3cb101ae6d552a3bac,10*
G04 Gerber Generator version 0.2*
G04 Scale: 100 percent, Rotated: No, Reflected: No *
G04 Dimensions in inches *
G04 leading zeros omitted , absolute positions ,3 integer and 6 decimal *
%FSLAX36Y36*%
%MOIN*%

%AMMACRO1*21,1,$1,$2,0,0,$3*%
%ADD10C,0.0080*%
%ADD11C,0.0100*%
%ADD12C,0.0150*%
%ADD13C,0.1500*%
%ADD14C,0.0200*%
%ADD15C,0.0500*%
%ADD16MACRO1,0.0213X0.0311X0.0000*%
%ADD17R,0.0213X0.0311*%
%ADD18MACRO1,0.0213X0.0223X0.0000*%
%ADD19R,0.0213X0.0223*%
%ADD20R,0.0315X0.0669*%
%ADD21R,0.0354X0.0315*%
%ADD22MACRO1,0.0213X0.0311X90.0000*%
%ADD23MACRO1,0.0213X0.0311X-90.0000*%
%ADD24R,0.0315X0.0354*%
%ADD25R,0.0374X0.0472*%
%ADD26R,0.0433X0.0669*%
%ADD27R,0.0492X0.0276*%
%ADD28MACRO1,0.034X0.0318X0.0000*%
%ADD29R,0.0340X0.0318*%
%ADD30MACRO1,0.0213X0.0223X90.0000*%
%ADD31R,0.0079X0.0433*%
%ADD32R,0.0433X0.0079*%
%ADD33R,0.1220X0.1220*%
%ADD34O,0.022874X0.050217*%
%ADD35MACRO1,0.1339X0.1693X-90.0000*%
%ADD36R,0.1181X0.0591*%
%ADD37R,0.0456X0.0193*%
%ADD38R,0.0463X0.0193*%
%ADD39R,0.0512X0.0236*%
%ADD40R,0.0512X0.0118*%
%ADD41R,0.0472X0.0551*%
%ADD42MACRO1,0.0669X0.0669X0.0000*%
%ADD43C,0.0669*%
%ADD44C,0.1100*%
%ADD45O,0.070866X0.039369999999999995*%
%ADD46O,0.082677X0.039369999999999995*%
%ADD47C,0.0787*%
%ADD48C,0.0866*%
%ADD49C,0.0240*%
%ADD50C,0.0126*%

%LPD*%
G36*
X1741500Y-3403420D02*
G01*
X1739960Y-3403120D01*
X1738680Y-3402240D01*
X1737800Y-3400940D01*
X1737500Y-3399420D01*
X1737500Y-2869160D01*
X1737800Y-2867620D01*
X1738680Y-2866320D01*
X2059100Y-2545900D01*
X2059379Y-2545240D01*
X2059379Y-2133640D01*
X2059640Y-2132220D01*
X2060400Y-2130980D01*
X2061540Y-2130080D01*
X2062940Y-2129660D01*
X2069740Y-2128940D01*
X2076519Y-2127480D01*
X2083100Y-2125300D01*
X2089420Y-2122420D01*
X2095400Y-2118900D01*
X2100980Y-2114760D01*
X2106080Y-2110060D01*
X2110640Y-2104840D01*
X2114640Y-2099160D01*
X2118000Y-2093080D01*
X2120700Y-2086699D01*
X2122700Y-2080060D01*
X2123980Y-2073240D01*
X2124540Y-2066320D01*
X2124360Y-2059379D01*
X2123440Y-2052500D01*
X2121780Y-2045760D01*
X2119440Y-2039220D01*
X2116400Y-2032980D01*
X2112720Y-2027100D01*
X2108440Y-2021639D01*
X2103600Y-2016680D01*
X2098240Y-2012240D01*
X2092460Y-2008400D01*
X2086300Y-2005220D01*
X2079620Y-2002600D01*
X2078280Y-2001740D01*
X2077380Y-2000420D01*
X2077080Y-1998880D01*
X2077060Y-1976759D01*
X2076579Y-1973400D01*
X2075540Y-1970300D01*
X2073959Y-1967440D01*
X2071759Y-1964800D01*
X1922460Y-1815500D01*
X1921579Y-1814199D01*
X1921279Y-1812660D01*
X1921279Y-1774259D01*
X1921000Y-1771780D01*
X1920260Y-1769620D01*
X1919040Y-1767700D01*
X1917420Y-1766080D01*
X1915500Y-1764860D01*
X1913340Y-1764120D01*
X1910860Y-1763839D01*
X1872460Y-1763839D01*
X1870920Y-1763540D01*
X1869620Y-1762660D01*
X1738959Y-1632020D01*
X1736240Y-1629980D01*
X1733320Y-1628520D01*
X1730180Y-1627620D01*
X1726759Y-1627320D01*
X1720200Y-1627320D01*
X1718660Y-1627000D01*
X1717360Y-1626140D01*
X1716500Y-1624840D01*
X1716200Y-1623320D01*
X1716200Y-1615700D01*
X1715920Y-1613220D01*
X1715160Y-1611060D01*
X1713959Y-1609139D01*
X1712340Y-1607520D01*
X1710420Y-1606320D01*
X1708260Y-1605560D01*
X1705780Y-1605280D01*
X1588120Y-1605280D01*
X1585620Y-1605560D01*
X1583480Y-1606320D01*
X1581540Y-1607520D01*
X1579940Y-1609139D01*
X1578720Y-1611060D01*
X1577960Y-1613220D01*
X1577680Y-1615700D01*
X1577680Y-1674300D01*
X1577960Y-1676800D01*
X1578720Y-1678940D01*
X1579940Y-1680880D01*
X1581540Y-1682480D01*
X1583480Y-1683700D01*
X1585620Y-1684460D01*
X1588120Y-1684740D01*
X1705780Y-1684740D01*
X1708260Y-1684460D01*
X1710420Y-1683700D01*
X1712340Y-1682480D01*
X1713959Y-1680880D01*
X1715160Y-1678940D01*
X1715920Y-1676800D01*
X1716200Y-1674300D01*
X1716200Y-1668959D01*
X1716500Y-1667420D01*
X1717360Y-1666140D01*
X1718660Y-1665260D01*
X1720200Y-1664960D01*
X1721720Y-1665260D01*
X1723020Y-1666140D01*
X1856399Y-1799500D01*
X1857280Y-1800800D01*
X1857580Y-1802340D01*
X1857580Y-1803500D01*
X1857280Y-1805040D01*
X1856399Y-1806339D01*
X1855100Y-1807200D01*
X1853580Y-1807500D01*
X1791420Y-1807500D01*
X1789900Y-1807200D01*
X1788600Y-1806339D01*
X1787720Y-1805040D01*
X1787420Y-1803500D01*
X1787420Y-1774259D01*
X1787140Y-1771780D01*
X1786380Y-1769620D01*
X1785180Y-1767700D01*
X1783560Y-1766080D01*
X1781639Y-1764860D01*
X1779480Y-1764120D01*
X1777000Y-1763839D01*
X1734139Y-1763839D01*
X1731660Y-1764120D01*
X1729500Y-1764860D01*
X1727580Y-1766080D01*
X1725960Y-1767700D01*
X1724740Y-1769620D01*
X1724000Y-1771780D01*
X1723720Y-1774259D01*
X1723720Y-1784500D01*
X1723420Y-1786040D01*
X1722540Y-1787340D01*
X1721240Y-1788200D01*
X1719720Y-1788500D01*
X1718180Y-1788200D01*
X1716879Y-1787340D01*
X1715320Y-1785760D01*
X1713380Y-1784560D01*
X1711240Y-1783800D01*
X1708740Y-1783520D01*
X1659980Y-1783520D01*
X1657500Y-1783800D01*
X1655340Y-1784560D01*
X1653420Y-1785760D01*
X1651800Y-1787380D01*
X1650600Y-1789300D01*
X1649840Y-1791459D01*
X1649560Y-1793940D01*
X1649560Y-1821060D01*
X1649840Y-1823540D01*
X1650600Y-1825700D01*
X1651800Y-1827620D01*
X1653420Y-1829240D01*
X1655340Y-1830440D01*
X1657500Y-1831200D01*
X1659980Y-1831480D01*
X1696900Y-1831480D01*
X1698440Y-1831780D01*
X1699740Y-1832660D01*
X1700600Y-1833940D01*
X1700900Y-1835480D01*
X1700600Y-1837020D01*
X1699740Y-1838300D01*
X1573940Y-1964120D01*
X1571900Y-1966840D01*
X1570440Y-1969760D01*
X1569540Y-1972900D01*
X1569460Y-1973820D01*
X1569060Y-1975220D01*
X1568180Y-1976399D01*
X1566920Y-1977180D01*
X1565480Y-1977440D01*
X1425620Y-1977440D01*
X1424220Y-1977180D01*
X1423000Y-1976459D01*
X1422120Y-1975340D01*
X1421579Y-1973400D01*
X1420540Y-1970300D01*
X1418959Y-1967440D01*
X1416759Y-1964800D01*
X1267460Y-1815500D01*
X1266580Y-1814199D01*
X1266280Y-1812660D01*
X1266280Y-1774259D01*
X1266000Y-1771780D01*
X1265260Y-1769620D01*
X1264040Y-1767700D01*
X1262420Y-1766080D01*
X1260500Y-1764860D01*
X1258340Y-1764120D01*
X1255860Y-1763839D01*
X1217460Y-1763839D01*
X1215920Y-1763540D01*
X1214620Y-1762660D01*
X1083960Y-1632020D01*
X1081240Y-1629980D01*
X1078320Y-1628520D01*
X1075180Y-1627620D01*
X1071760Y-1627320D01*
X1066400Y-1627320D01*
X1064880Y-1627000D01*
X1063580Y-1626140D01*
X1062700Y-1624840D01*
X1062400Y-1623320D01*
X1062400Y-1615700D01*
X1062120Y-1613220D01*
X1061380Y-1611060D01*
X1060160Y-1609139D01*
X1058540Y-1607520D01*
X1056620Y-1606320D01*
X1054460Y-1605560D01*
X1051980Y-1605280D01*
X934320Y-1605280D01*
X931820Y-1605560D01*
X929680Y-1606320D01*
X927760Y-1607520D01*
X926140Y-1609139D01*
X924920Y-1611060D01*
X924180Y-1613220D01*
X923900Y-1615700D01*
X923900Y-1674300D01*
X924180Y-1676800D01*
X924920Y-1678940D01*
X926140Y-1680880D01*
X927760Y-1682480D01*
X929680Y-1683700D01*
X931820Y-1684460D01*
X934320Y-1684740D01*
X1051980Y-1684740D01*
X1054460Y-1684460D01*
X1056620Y-1683700D01*
X1058540Y-1682480D01*
X1060160Y-1680880D01*
X1061380Y-1678940D01*
X1062120Y-1676800D01*
X1062400Y-1674300D01*
X1062400Y-1670160D01*
X1062700Y-1668640D01*
X1063580Y-1667340D01*
X1064880Y-1666459D01*
X1066400Y-1666160D01*
X1067940Y-1666459D01*
X1069240Y-1667340D01*
X1201400Y-1799500D01*
X1202280Y-1800800D01*
X1202580Y-1802340D01*
X1202580Y-1803500D01*
X1202280Y-1805040D01*
X1201400Y-1806339D01*
X1200100Y-1807200D01*
X1198580Y-1807500D01*
X1136420Y-1807500D01*
X1134900Y-1807200D01*
X1133600Y-1806339D01*
X1132720Y-1805040D01*
X1132420Y-1803500D01*
X1132420Y-1774259D01*
X1132140Y-1771780D01*
X1131380Y-1769620D01*
X1130180Y-1767700D01*
X1128560Y-1766080D01*
X1126640Y-1764860D01*
X1124480Y-1764120D01*
X1122000Y-1763839D01*
X1079140Y-1763839D01*
X1076660Y-1764120D01*
X1074500Y-1764860D01*
X1072580Y-1766080D01*
X1070960Y-1767700D01*
X1069740Y-1769620D01*
X1069000Y-1771780D01*
X1068720Y-1774259D01*
X1068720Y-1785800D01*
X1068420Y-1787340D01*
X1067540Y-1788620D01*
X1066240Y-1789500D01*
X1064500Y-1789800D01*
X1063180Y-1789580D01*
X1062000Y-1788920D01*
X1060760Y-1787380D01*
X1059160Y-1785760D01*
X1057220Y-1784560D01*
X1055080Y-1783800D01*
X1052580Y-1783520D01*
X1003820Y-1783520D01*
X1001340Y-1783800D01*
X999180Y-1784560D01*
X997260Y-1785760D01*
X995639Y-1787380D01*
X994440Y-1789300D01*
X993680Y-1791459D01*
X993400Y-1793940D01*
X993400Y-1821060D01*
X993680Y-1823540D01*
X994440Y-1825700D01*
X995639Y-1827620D01*
X997260Y-1829240D01*
X999180Y-1830440D01*
X1001340Y-1831200D01*
X1003820Y-1831480D01*
X1041900Y-1831480D01*
X1043439Y-1831780D01*
X1044740Y-1832660D01*
X1045600Y-1833940D01*
X1045900Y-1835480D01*
X1045600Y-1837020D01*
X1044740Y-1838300D01*
X918940Y-1964120D01*
X916900Y-1966840D01*
X915440Y-1969760D01*
X914539Y-1972900D01*
X914240Y-1976339D01*
X914240Y-1998860D01*
X913920Y-2000420D01*
X913020Y-2001740D01*
X911680Y-2002600D01*
X904980Y-2005220D01*
X898840Y-2008400D01*
X893040Y-2012240D01*
X887700Y-2016680D01*
X882860Y-2021639D01*
X878580Y-2027100D01*
X874900Y-2032980D01*
X871860Y-2039220D01*
X869500Y-2045760D01*
X867860Y-2052500D01*
X866940Y-2059379D01*
X866760Y-2066320D01*
X867300Y-2073240D01*
X868600Y-2080060D01*
X870600Y-2086699D01*
X873300Y-2093080D01*
X876660Y-2099160D01*
X880639Y-2104840D01*
X885220Y-2110060D01*
X890320Y-2114760D01*
X895879Y-2118900D01*
X901860Y-2122420D01*
X908180Y-2125300D01*
X914780Y-2127480D01*
X921560Y-2128940D01*
X926420Y-2129460D01*
X927820Y-2129880D01*
X928980Y-2130760D01*
X929740Y-2132000D01*
X930000Y-2133440D01*
X930000Y-2290840D01*
X929700Y-2292380D01*
X928820Y-2293680D01*
X873680Y-2348820D01*
X872380Y-2349700D01*
X870840Y-2350000D01*
X457260Y-2350000D01*
X455920Y-2349760D01*
X454739Y-2349100D01*
X450040Y-2345300D01*
X444880Y-2342040D01*
X439360Y-2339420D01*
X433579Y-2337460D01*
X427600Y-2336200D01*
X421520Y-2335660D01*
X415420Y-2335840D01*
X409380Y-2336740D01*
X403500Y-2338360D01*
X397840Y-2340640D01*
X392500Y-2343600D01*
X387540Y-2347160D01*
X385560Y-2348960D01*
X384320Y-2349720D01*
X382860Y-2350000D01*
X14200Y-2350000D01*
X12660Y-2349700D01*
X11379Y-2348820D01*
X10500Y-2347540D01*
X10200Y-2346000D01*
X10200Y-118379D01*
X10560Y-109480D01*
X11560Y-101080D01*
X13240Y-92760D01*
X15540Y-84620D01*
X18480Y-76680D01*
X22040Y-68980D01*
X26200Y-61600D01*
X30920Y-54560D01*
X36160Y-47920D01*
X41920Y-41700D01*
X48160Y-35960D01*
X54820Y-30720D01*
X61860Y-26040D01*
X69260Y-21900D01*
X76960Y-18360D01*
X84920Y-15440D01*
X93080Y-13160D01*
X101380Y-11520D01*
X109800Y-10540D01*
X118379Y-10200D01*
X2243820Y-10200D01*
X2252720Y-10560D01*
X2261120Y-11560D01*
X2269440Y-13240D01*
X2277580Y-15540D01*
X2285520Y-18480D01*
X2293220Y-22040D01*
X2300600Y-26200D01*
X2307640Y-30920D01*
X2314280Y-36160D01*
X2320500Y-41920D01*
X2326240Y-48160D01*
X2331480Y-54820D01*
X2336160Y-61860D01*
X2340300Y-69260D01*
X2343840Y-76960D01*
X2346760Y-84920D01*
X2349040Y-93080D01*
X2350680Y-101380D01*
X2351660Y-109800D01*
X2352000Y-118379D01*
X2352000Y-524420D01*
X2351640Y-526060D01*
X2350640Y-527420D01*
X2349160Y-528240D01*
X2347460Y-528380D01*
X2345880Y-527800D01*
X2345180Y-527360D01*
X2343040Y-526620D01*
X2340540Y-526340D01*
X2335400Y-526340D01*
X2335400Y-550760D01*
X2348000Y-550760D01*
X2349540Y-551080D01*
X2350820Y-551940D01*
X2351700Y-553240D01*
X2352000Y-554760D01*
X2352000Y-585240D01*
X2351700Y-586760D01*
X2350820Y-588060D01*
X2349540Y-588920D01*
X2348000Y-589240D01*
X2335400Y-589240D01*
X2335400Y-613660D01*
X2340540Y-613660D01*
X2343040Y-613380D01*
X2345180Y-612640D01*
X2345880Y-612200D01*
X2347460Y-611620D01*
X2349160Y-611760D01*
X2350640Y-612580D01*
X2351640Y-613920D01*
X2352000Y-615580D01*
X2352000Y-685819D01*
X2351660Y-687460D01*
X2350680Y-688800D01*
X2349240Y-689640D01*
X2347580Y-689800D01*
X2346000Y-689300D01*
X2343780Y-688000D01*
X2339620Y-686380D01*
X2335280Y-685380D01*
X2335280Y-702580D01*
X2348000Y-702580D01*
X2349540Y-702880D01*
X2350820Y-703760D01*
X2351700Y-705060D01*
X2352000Y-706580D01*
X2352000Y-723259D01*
X2351700Y-724800D01*
X2350820Y-726100D01*
X2349540Y-726960D01*
X2348000Y-727260D01*
X2335280Y-727260D01*
X2335280Y-744460D01*
X2339620Y-743480D01*
X2343780Y-741840D01*
X2346000Y-740560D01*
X2347580Y-740040D01*
X2349240Y-740220D01*
X2350680Y-741040D01*
X2351660Y-742400D01*
X2352000Y-744020D01*
X2352000Y-1025980D01*
X2351660Y-1027620D01*
X2350680Y-1028960D01*
X2349240Y-1029800D01*
X2347580Y-1029960D01*
X2346000Y-1029460D01*
X2343780Y-1028160D01*
X2339620Y-1026540D01*
X2335280Y-1025540D01*
X2335280Y-1042740D01*
X2348000Y-1042740D01*
X2349540Y-1043040D01*
X2350820Y-1043920D01*
X2351700Y-1045220D01*
X2352000Y-1046740D01*
X2352000Y-1063420D01*
X2351700Y-1064960D01*
X2350820Y-1066260D01*
X2349540Y-1067120D01*
X2348000Y-1067420D01*
X2335280Y-1067420D01*
X2335280Y-1084620D01*
X2339620Y-1083640D01*
X2343780Y-1082000D01*
X2346000Y-1080720D01*
X2347580Y-1080200D01*
X2349240Y-1080380D01*
X2350680Y-1081200D01*
X2351660Y-1082560D01*
X2352000Y-1084180D01*
X2352000Y-1154420D01*
X2351640Y-1156060D01*
X2350640Y-1157420D01*
X2349160Y-1158240D01*
X2347460Y-1158380D01*
X2345880Y-1157800D01*
X2345180Y-1157360D01*
X2343040Y-1156620D01*
X2340540Y-1156340D01*
X2335400Y-1156340D01*
X2335400Y-1180760D01*
X2348000Y-1180760D01*
X2349540Y-1181080D01*
X2350820Y-1181940D01*
X2351700Y-1183240D01*
X2352000Y-1184760D01*
X2352000Y-1215240D01*
X2351700Y-1216760D01*
X2350820Y-1218060D01*
X2349540Y-1218920D01*
X2348000Y-1219240D01*
X2335400Y-1219240D01*
X2335400Y-1243660D01*
X2340540Y-1243660D01*
X2343040Y-1243380D01*
X2345180Y-1242640D01*
X2345880Y-1242200D01*
X2347460Y-1241620D01*
X2349160Y-1241760D01*
X2350640Y-1242580D01*
X2351640Y-1243920D01*
X2352000Y-1245580D01*
X2352000Y-3295240D01*
X2351640Y-3304120D01*
X2350640Y-3312540D01*
X2348960Y-3320840D01*
X2346660Y-3329000D01*
X2343720Y-3336940D01*
X2340160Y-3344620D01*
X2336000Y-3352020D01*
X2331280Y-3359060D01*
X2326040Y-3365700D01*
X2320280Y-3371920D01*
X2314040Y-3377660D01*
X2307380Y-3382880D01*
X2300340Y-3387580D01*
X2292940Y-3391720D01*
X2285240Y-3395240D01*
X2277280Y-3398159D01*
X2269120Y-3400460D01*
X2260820Y-3402100D01*
X2252400Y-3403080D01*
X2243820Y-3403420D01*
G37*

%LPC*%
G36*
X2245880Y-3364720D02*
G01*
X2252980Y-3364160D01*
X2260000Y-3362880D01*
X2266840Y-3360899D01*
X2273440Y-3358200D01*
X2279740Y-3354860D01*
X2285660Y-3350880D01*
X2291120Y-3346320D01*
X2296100Y-3341200D01*
X2300540Y-3335620D01*
X2304360Y-3329600D01*
X2307540Y-3323220D01*
X2310060Y-3316540D01*
X2311880Y-3309660D01*
X2312980Y-3302620D01*
X2313340Y-3295500D01*
X2312980Y-3288360D01*
X2311880Y-3281320D01*
X2310060Y-3274440D01*
X2307540Y-3267760D01*
X2304360Y-3261380D01*
X2300540Y-3255360D01*
X2296100Y-3249780D01*
X2291120Y-3244660D01*
X2285660Y-3240100D01*
X2279740Y-3236120D01*
X2273440Y-3232780D01*
X2266840Y-3230080D01*
X2260000Y-3228100D01*
X2252980Y-3226820D01*
X2245880Y-3226259D01*
X2238740Y-3226440D01*
X2231680Y-3227360D01*
X2224740Y-3229000D01*
X2218000Y-3231340D01*
X2211540Y-3234360D01*
X2205440Y-3238039D01*
X2199720Y-3242320D01*
X2194500Y-3247160D01*
X2189780Y-3252520D01*
X2185660Y-3258320D01*
X2182140Y-3264520D01*
X2179300Y-3271060D01*
X2177120Y-3277860D01*
X2175660Y-3284840D01*
X2174940Y-3291920D01*
X2174940Y-3299060D01*
X2175660Y-3306139D01*
X2177120Y-3313120D01*
X2179300Y-3319920D01*
X2182140Y-3326460D01*
X2185660Y-3332660D01*
X2189780Y-3338460D01*
X2194500Y-3343820D01*
X2199720Y-3348660D01*
X2205440Y-3352940D01*
X2211540Y-3356620D01*
X2218000Y-3359640D01*
X2224740Y-3361980D01*
X2231680Y-3363620D01*
X2238740Y-3364540D01*
G37*
G36*
X1893380Y-3245920D02*
G01*
X1898980Y-3245740D01*
X1904500Y-3244840D01*
X1909860Y-3243260D01*
X1914980Y-3241000D01*
X1919760Y-3238100D01*
X1924139Y-3234600D01*
X1928020Y-3230580D01*
X1931360Y-3226100D01*
X1934120Y-3221220D01*
X1936220Y-3216040D01*
X1937640Y-3210640D01*
X1938340Y-3205080D01*
X1938340Y-3199480D01*
X1937640Y-3193940D01*
X1936220Y-3188540D01*
X1934120Y-3183340D01*
X1931360Y-3178480D01*
X1928020Y-3173980D01*
X1924139Y-3169960D01*
X1919760Y-3166480D01*
X1914980Y-3163580D01*
X1909860Y-3161320D01*
X1904500Y-3159720D01*
X1898980Y-3158840D01*
X1893380Y-3158660D01*
X1887820Y-3159200D01*
X1882360Y-3160440D01*
X1877100Y-3162360D01*
X1872140Y-3164960D01*
X1867560Y-3168159D01*
X1863420Y-3171920D01*
X1859800Y-3176180D01*
X1856740Y-3180860D01*
X1854319Y-3185899D01*
X1852560Y-3191220D01*
X1851480Y-3196700D01*
X1851120Y-3202280D01*
X1851480Y-3207860D01*
X1852560Y-3213360D01*
X1854319Y-3218660D01*
X1856740Y-3223700D01*
X1859800Y-3228399D01*
X1863420Y-3232660D01*
X1867560Y-3236420D01*
X1872140Y-3239620D01*
X1877100Y-3242200D01*
X1882360Y-3244140D01*
X1887820Y-3245380D01*
G37*
G36*
X1793380Y-3245920D02*
G01*
X1798980Y-3245740D01*
X1804500Y-3244840D01*
X1809860Y-3243260D01*
X1814980Y-3241000D01*
X1819760Y-3238100D01*
X1824139Y-3234600D01*
X1828020Y-3230580D01*
X1831360Y-3226100D01*
X1834120Y-3221220D01*
X1836220Y-3216040D01*
X1837640Y-3210640D01*
X1838340Y-3205080D01*
X1838340Y-3199480D01*
X1837640Y-3193940D01*
X1836220Y-3188540D01*
X1835420Y-3186580D01*
X1835140Y-3185059D01*
X1835440Y-3183540D01*
X1836300Y-3182260D01*
X1871740Y-3146840D01*
X1873040Y-3145960D01*
X1874560Y-3145659D01*
X2120540Y-3145659D01*
X2122140Y-3146000D01*
X2123460Y-3146920D01*
X2124300Y-3148320D01*
X2124540Y-3149920D01*
X2124100Y-3151480D01*
X2123080Y-3152760D01*
X2121640Y-3153940D01*
X2114840Y-3160720D01*
X2113520Y-3161600D01*
X2111960Y-3161900D01*
X2104500Y-3159720D01*
X2098980Y-3158840D01*
X2093380Y-3158660D01*
X2087820Y-3159200D01*
X2082360Y-3160440D01*
X2077100Y-3162360D01*
X2072140Y-3164960D01*
X2067560Y-3168159D01*
X2063420Y-3171920D01*
X2059800Y-3176180D01*
X2056740Y-3180860D01*
X2054319Y-3185899D01*
X2052560Y-3191220D01*
X2051480Y-3196700D01*
X2051120Y-3202280D01*
X2051480Y-3207860D01*
X2052560Y-3213360D01*
X2054319Y-3218660D01*
X2056740Y-3223700D01*
X2059800Y-3228399D01*
X2063420Y-3232660D01*
X2067560Y-3236420D01*
X2072140Y-3239620D01*
X2077100Y-3242200D01*
X2082360Y-3244140D01*
X2087820Y-3245380D01*
X2093380Y-3245920D01*
X2098980Y-3245740D01*
X2104500Y-3244840D01*
X2109860Y-3243260D01*
X2114980Y-3241000D01*
X2119760Y-3238100D01*
X2124140Y-3234600D01*
X2128020Y-3230580D01*
X2131360Y-3226100D01*
X2134120Y-3221220D01*
X2136220Y-3216040D01*
X2137640Y-3210640D01*
X2138340Y-3205080D01*
X2138340Y-3199480D01*
X2137640Y-3193940D01*
X2136220Y-3188540D01*
X2135420Y-3186580D01*
X2135140Y-3185059D01*
X2135440Y-3183540D01*
X2136300Y-3182260D01*
X2137660Y-3180920D01*
X2138960Y-3180040D01*
X2140480Y-3179740D01*
X2160280Y-3179740D01*
X2161600Y-3179960D01*
X2162760Y-3180620D01*
X2163920Y-3182020D01*
X2165520Y-3183620D01*
X2167460Y-3184840D01*
X2169600Y-3185600D01*
X2172100Y-3185880D01*
X2192900Y-3185880D01*
X2195400Y-3185600D01*
X2197540Y-3184840D01*
X2199480Y-3183620D01*
X2201080Y-3182020D01*
X2202300Y-3180080D01*
X2203040Y-3177940D01*
X2203340Y-3175460D01*
X2203340Y-3153620D01*
X2203040Y-3151139D01*
X2202240Y-3148820D01*
X2202020Y-3147500D01*
X2202240Y-3146180D01*
X2203040Y-3143860D01*
X2203340Y-3141380D01*
X2203340Y-3119540D01*
X2203040Y-3117060D01*
X2202300Y-3114920D01*
X2201080Y-3112980D01*
X2199480Y-3111380D01*
X2197540Y-3110160D01*
X2195400Y-3109400D01*
X2192900Y-3109120D01*
X2172100Y-3109120D01*
X2169600Y-3109400D01*
X2167460Y-3110160D01*
X2165520Y-3111380D01*
X2163920Y-3112980D01*
X2162760Y-3114380D01*
X2161600Y-3115040D01*
X2160280Y-3115260D01*
X1866800Y-3115260D01*
X1863640Y-3115580D01*
X1860800Y-3116440D01*
X1858180Y-3117840D01*
X1855720Y-3119860D01*
X1814840Y-3160720D01*
X1813520Y-3161600D01*
X1811960Y-3161900D01*
X1804500Y-3159720D01*
X1798980Y-3158840D01*
X1793380Y-3158660D01*
X1787820Y-3159200D01*
X1782360Y-3160440D01*
X1777100Y-3162360D01*
X1772140Y-3164960D01*
X1767560Y-3168159D01*
X1763420Y-3171920D01*
X1759800Y-3176180D01*
X1756740Y-3180860D01*
X1754319Y-3185899D01*
X1752560Y-3191220D01*
X1751480Y-3196700D01*
X1751120Y-3202280D01*
X1751480Y-3207860D01*
X1752560Y-3213360D01*
X1754319Y-3218660D01*
X1756740Y-3223700D01*
X1759800Y-3228399D01*
X1763420Y-3232660D01*
X1767560Y-3236420D01*
X1772140Y-3239620D01*
X1777100Y-3242200D01*
X1782360Y-3244140D01*
X1787820Y-3245380D01*
G37*
G36*
X2014019Y-3241420D02*
G01*
X2014980Y-3241000D01*
X2019760Y-3238100D01*
X2024139Y-3234600D01*
X2028020Y-3230580D01*
X2031360Y-3226100D01*
X2033940Y-3221520D01*
X2014019Y-3221520D01*
G37*
G36*
X1975540Y-3241400D02*
G01*
X1975540Y-3221520D01*
X1955680Y-3221520D01*
X1956740Y-3223700D01*
X1959800Y-3228399D01*
X1963420Y-3232660D01*
X1967560Y-3236420D01*
X1972140Y-3239620D01*
G37*
G36*
X1955680Y-3183060D02*
G01*
X1975540Y-3183060D01*
X1975540Y-3163180D01*
X1972140Y-3164960D01*
X1967560Y-3168159D01*
X1963420Y-3171920D01*
X1959800Y-3176180D01*
X1956740Y-3180860D01*
G37*
G36*
X2014019Y-3183060D02*
G01*
X2033940Y-3183060D01*
X2031360Y-3178480D01*
X2028020Y-3173980D01*
X2024139Y-3169960D01*
X2019760Y-3166480D01*
X2014980Y-3163580D01*
X2014019Y-3163159D01*
G37*
G36*
X2172100Y-3092220D02*
G01*
X2174680Y-3092220D01*
X2174680Y-3076740D01*
X2161680Y-3076740D01*
X2161680Y-3081780D01*
X2161960Y-3084280D01*
X2162700Y-3086420D01*
X2163920Y-3088360D01*
X2165520Y-3089960D01*
X2167460Y-3091180D01*
X2169600Y-3091940D01*
G37*
G36*
X2190320Y-3092220D02*
G01*
X2192900Y-3092220D01*
X2195400Y-3091940D01*
X2197540Y-3091180D01*
X2199480Y-3089960D01*
X2201080Y-3088360D01*
X2202300Y-3086420D01*
X2203040Y-3084280D01*
X2203340Y-3081780D01*
X2203340Y-3076740D01*
X2190320Y-3076740D01*
G37*
G36*
X2161680Y-3056180D02*
G01*
X2174680Y-3056180D01*
X2174680Y-3053300D01*
X2174980Y-3051760D01*
X2175860Y-3050460D01*
X2177160Y-3049600D01*
X2178680Y-3049300D01*
X2186320Y-3049300D01*
X2187840Y-3049600D01*
X2189140Y-3050460D01*
X2190020Y-3051760D01*
X2190320Y-3053300D01*
X2190320Y-3056180D01*
X2203340Y-3056180D01*
X2203340Y-3051139D01*
X2203040Y-3048639D01*
X2202240Y-3046320D01*
X2202020Y-3045000D01*
X2202240Y-3043680D01*
X2203040Y-3041360D01*
X2203340Y-3038860D01*
X2203340Y-3008220D01*
X2203040Y-3005720D01*
X2202300Y-3003580D01*
X2201080Y-3001640D01*
X2199480Y-3000040D01*
X2197540Y-2998820D01*
X2195400Y-2998060D01*
X2192900Y-2997780D01*
X2172100Y-2997780D01*
X2169600Y-2998060D01*
X2167460Y-2998820D01*
X2165520Y-3000040D01*
X2163920Y-3001640D01*
X2162700Y-3003580D01*
X2161980Y-3005659D01*
X2161120Y-3007060D01*
X2159800Y-3008000D01*
X2158200Y-3008340D01*
X2142340Y-3008340D01*
X2140820Y-3008039D01*
X2139520Y-3007160D01*
X2138660Y-3005880D01*
X2138340Y-3004340D01*
X2138340Y-2999480D01*
X2137640Y-2993940D01*
X2136220Y-2988540D01*
X2134120Y-2983340D01*
X2131360Y-2978480D01*
X2128020Y-2973980D01*
X2124140Y-2969960D01*
X2119760Y-2966480D01*
X2114980Y-2963580D01*
X2109860Y-2961320D01*
X2104500Y-2959720D01*
X2098980Y-2958840D01*
X2093380Y-2958660D01*
X2087820Y-2959200D01*
X2082360Y-2960440D01*
X2077100Y-2962360D01*
X2072140Y-2964960D01*
X2067560Y-2968159D01*
X2063420Y-2971920D01*
X2059800Y-2976180D01*
X2056740Y-2980860D01*
X2054319Y-2985899D01*
X2052560Y-2991220D01*
X2051480Y-2996700D01*
X2051120Y-3002280D01*
X2051480Y-3007860D01*
X2052560Y-3013360D01*
X2054319Y-3018660D01*
X2056740Y-3023700D01*
X2059800Y-3028399D01*
X2063420Y-3032660D01*
X2067560Y-3036420D01*
X2072140Y-3039620D01*
X2077100Y-3042200D01*
X2082360Y-3044140D01*
X2087820Y-3045380D01*
X2093380Y-3045920D01*
X2098980Y-3045740D01*
X2104500Y-3044840D01*
X2109860Y-3043260D01*
X2114980Y-3041000D01*
X2117740Y-3039320D01*
X2118720Y-3038880D01*
X2119800Y-3038740D01*
X2158200Y-3038740D01*
X2159800Y-3039080D01*
X2161120Y-3040020D01*
X2161980Y-3041420D01*
X2162760Y-3043680D01*
X2162980Y-3045000D01*
X2162760Y-3046320D01*
X2161960Y-3048639D01*
X2161680Y-3051139D01*
G37*
G36*
X1893380Y-3045920D02*
G01*
X1898980Y-3045740D01*
X1904500Y-3044840D01*
X1909860Y-3043260D01*
X1914980Y-3041000D01*
X1919760Y-3038100D01*
X1924139Y-3034600D01*
X1928020Y-3030580D01*
X1931360Y-3026100D01*
X1934120Y-3021220D01*
X1936220Y-3016040D01*
X1937640Y-3010640D01*
X1938340Y-3005080D01*
X1938340Y-2999480D01*
X1937640Y-2993940D01*
X1936220Y-2988540D01*
X1934120Y-2983340D01*
X1931360Y-2978480D01*
X1928020Y-2973980D01*
X1924139Y-2969960D01*
X1919760Y-2966480D01*
X1914980Y-2963580D01*
X1909860Y-2961320D01*
X1904500Y-2959720D01*
X1898980Y-2958840D01*
X1893380Y-2958660D01*
X1887820Y-2959200D01*
X1882360Y-2960440D01*
X1877100Y-2962360D01*
X1872140Y-2964960D01*
X1867560Y-2968159D01*
X1863420Y-2971920D01*
X1859800Y-2976180D01*
X1856740Y-2980860D01*
X1854319Y-2985899D01*
X1852560Y-2991220D01*
X1851480Y-2996700D01*
X1851120Y-3002280D01*
X1851480Y-3007860D01*
X1852560Y-3013360D01*
X1854319Y-3018660D01*
X1856740Y-3023700D01*
X1859800Y-3028399D01*
X1863420Y-3032660D01*
X1867560Y-3036420D01*
X1872140Y-3039620D01*
X1877100Y-3042200D01*
X1882360Y-3044140D01*
X1887820Y-3045380D01*
G37*
G36*
X1793380Y-3045920D02*
G01*
X1798980Y-3045740D01*
X1804500Y-3044840D01*
X1809860Y-3043260D01*
X1814980Y-3041000D01*
X1819760Y-3038100D01*
X1824139Y-3034600D01*
X1828020Y-3030580D01*
X1831360Y-3026100D01*
X1834120Y-3021220D01*
X1836220Y-3016040D01*
X1837640Y-3010640D01*
X1838340Y-3005080D01*
X1838340Y-2999480D01*
X1837640Y-2993940D01*
X1836220Y-2988540D01*
X1834120Y-2983340D01*
X1831360Y-2978480D01*
X1828020Y-2973980D01*
X1824139Y-2969960D01*
X1819760Y-2966480D01*
X1814980Y-2963580D01*
X1809860Y-2961320D01*
X1804500Y-2959720D01*
X1798980Y-2958840D01*
X1793380Y-2958660D01*
X1787820Y-2959200D01*
X1782360Y-2960440D01*
X1777100Y-2962360D01*
X1772140Y-2964960D01*
X1767560Y-2968159D01*
X1763420Y-2971920D01*
X1759800Y-2976180D01*
X1756740Y-2980860D01*
X1754319Y-2985899D01*
X1752560Y-2991220D01*
X1751480Y-2996700D01*
X1751120Y-3002280D01*
X1751480Y-3007860D01*
X1752560Y-3013360D01*
X1754319Y-3018660D01*
X1756740Y-3023700D01*
X1759800Y-3028399D01*
X1763420Y-3032660D01*
X1767560Y-3036420D01*
X1772140Y-3039620D01*
X1777100Y-3042200D01*
X1782360Y-3044140D01*
X1787820Y-3045380D01*
G37*
G36*
X2014019Y-3041420D02*
G01*
X2014980Y-3041000D01*
X2019760Y-3038100D01*
X2024139Y-3034600D01*
X2028020Y-3030580D01*
X2031360Y-3026100D01*
X2033940Y-3021520D01*
X2014019Y-3021520D01*
G37*
G36*
X1975540Y-3041400D02*
G01*
X1975540Y-3021520D01*
X1955680Y-3021520D01*
X1956740Y-3023700D01*
X1959800Y-3028399D01*
X1963420Y-3032660D01*
X1967560Y-3036420D01*
X1972140Y-3039620D01*
G37*
G36*
X1955680Y-2983060D02*
G01*
X1975540Y-2983060D01*
X1975540Y-2963180D01*
X1972140Y-2964960D01*
X1967560Y-2968159D01*
X1963420Y-2971920D01*
X1959800Y-2976180D01*
X1956740Y-2980860D01*
G37*
G36*
X2014019Y-2983060D02*
G01*
X2033940Y-2983060D01*
X2031360Y-2978480D01*
X2028020Y-2973980D01*
X2024139Y-2969960D01*
X2019760Y-2966480D01*
X2014980Y-2963580D01*
X2014019Y-2963159D01*
G37*
G36*
X640000Y-2134680D02*
G01*
X643860Y-2134340D01*
X647580Y-2133340D01*
X651100Y-2131720D01*
X654260Y-2129500D01*
X657000Y-2126760D01*
X659220Y-2123600D01*
X660840Y-2120080D01*
X661840Y-2116360D01*
X662180Y-2112500D01*
X661840Y-2108640D01*
X660840Y-2104920D01*
X659220Y-2101400D01*
X657000Y-2098240D01*
X654260Y-2095500D01*
X651100Y-2093280D01*
X647580Y-2091660D01*
X643860Y-2090660D01*
X638200Y-2090100D01*
X636740Y-2089160D01*
X565380Y-2017780D01*
X564500Y-2016500D01*
X564200Y-2014960D01*
X564200Y-1247540D01*
X564500Y-1246000D01*
X565380Y-1244720D01*
X702400Y-1107680D01*
X704400Y-1105220D01*
X705740Y-1102580D01*
X706520Y-1099660D01*
X706700Y-1097340D01*
X706700Y-647540D01*
X707000Y-646000D01*
X707880Y-644720D01*
X717220Y-635380D01*
X718500Y-634500D01*
X720040Y-634200D01*
X1040660Y-634200D01*
X1042340Y-634580D01*
X1043720Y-635620D01*
X1044520Y-637160D01*
X1044580Y-638900D01*
X1043920Y-640500D01*
X1043280Y-641400D01*
X1041660Y-644920D01*
X1040660Y-648640D01*
X1040320Y-652500D01*
X1040660Y-656360D01*
X1041660Y-660080D01*
X1043280Y-663600D01*
X1045500Y-666760D01*
X1047120Y-668379D01*
X1048000Y-669680D01*
X1048300Y-671220D01*
X1048300Y-687300D01*
X1048640Y-690440D01*
X1049540Y-693259D01*
X1051060Y-695879D01*
X1052580Y-697660D01*
X1069820Y-714900D01*
X1072280Y-716900D01*
X1074920Y-718240D01*
X1077840Y-719020D01*
X1080160Y-719200D01*
X1099960Y-719200D01*
X1101500Y-719500D01*
X1102780Y-720380D01*
X1119620Y-737220D01*
X1120500Y-738500D01*
X1120800Y-740040D01*
X1120800Y-782300D01*
X1121140Y-785440D01*
X1122040Y-788259D01*
X1123560Y-790879D01*
X1125080Y-792660D01*
X1135920Y-803500D01*
X1138380Y-805500D01*
X1142820Y-807720D01*
X1143880Y-809080D01*
X1144240Y-810780D01*
X1144240Y-813080D01*
X1144520Y-815560D01*
X1144880Y-817240D01*
X1144520Y-818900D01*
X1144240Y-821400D01*
X1144240Y-828820D01*
X1144520Y-831320D01*
X1144880Y-832980D01*
X1144520Y-834659D01*
X1144240Y-837140D01*
X1144240Y-838420D01*
X1143940Y-839940D01*
X1143080Y-841240D01*
X1141780Y-842099D01*
X1140240Y-842420D01*
X1081720Y-842420D01*
X1080180Y-842099D01*
X1078880Y-841240D01*
X1078020Y-839940D01*
X1077720Y-838420D01*
X1077720Y-831280D01*
X1058200Y-831280D01*
X1058200Y-838420D01*
X1057900Y-839940D01*
X1057020Y-841240D01*
X1055720Y-842099D01*
X1054200Y-842420D01*
X1033580Y-842420D01*
X1032039Y-842099D01*
X1030740Y-841240D01*
X1029880Y-839940D01*
X1029580Y-838420D01*
X1029580Y-831280D01*
X1013020Y-831280D01*
X1011500Y-830980D01*
X1009980Y-829900D01*
X1009120Y-828600D01*
X1008820Y-827080D01*
X1008820Y-802720D01*
X1009120Y-801200D01*
X1009980Y-799900D01*
X1011280Y-799020D01*
X1012820Y-798720D01*
X1029580Y-798720D01*
X1029580Y-777240D01*
X1020500Y-777240D01*
X1018000Y-777520D01*
X1015860Y-778280D01*
X1013920Y-779500D01*
X1012260Y-781140D01*
X1010960Y-782020D01*
X1009440Y-782320D01*
X1007900Y-782020D01*
X1006620Y-781140D01*
X1004960Y-779500D01*
X1003020Y-778280D01*
X1000879Y-777520D01*
X998379Y-777240D01*
X993199Y-777240D01*
X991660Y-776940D01*
X990380Y-776080D01*
X989500Y-774780D01*
X989200Y-773240D01*
X989200Y-769840D01*
X989500Y-768300D01*
X990380Y-767000D01*
X991660Y-766140D01*
X993199Y-765840D01*
X1003860Y-765840D01*
X1006360Y-765540D01*
X1008680Y-764740D01*
X1010000Y-764520D01*
X1011320Y-764740D01*
X1013640Y-765540D01*
X1016140Y-765840D01*
X1021180Y-765840D01*
X1021180Y-752820D01*
X1018300Y-752820D01*
X1016760Y-752520D01*
X1015460Y-751640D01*
X1014599Y-750340D01*
X1014300Y-748820D01*
X1014300Y-741180D01*
X1014599Y-739659D01*
X1015460Y-738360D01*
X1016760Y-737480D01*
X1018300Y-737180D01*
X1021180Y-737180D01*
X1021180Y-724180D01*
X1016140Y-724180D01*
X1013640Y-724460D01*
X1011320Y-725260D01*
X1010000Y-725480D01*
X1008680Y-725260D01*
X1006360Y-724460D01*
X1003860Y-724180D01*
X973220Y-724180D01*
X970720Y-724460D01*
X968580Y-725200D01*
X966640Y-726420D01*
X965040Y-728020D01*
X963820Y-729960D01*
X963060Y-732099D01*
X962780Y-734599D01*
X962780Y-750420D01*
X962380Y-752180D01*
X961780Y-753420D01*
X960980Y-756380D01*
X960800Y-758700D01*
X960800Y-773240D01*
X960500Y-774780D01*
X959620Y-776080D01*
X958340Y-776940D01*
X956800Y-777240D01*
X951600Y-777240D01*
X949100Y-777520D01*
X946960Y-778280D01*
X945020Y-779500D01*
X943420Y-781100D01*
X942200Y-783040D01*
X941460Y-785180D01*
X941180Y-787680D01*
X941180Y-842340D01*
X941460Y-844820D01*
X942200Y-846979D01*
X943420Y-848900D01*
X945020Y-850520D01*
X946960Y-851740D01*
X949100Y-852480D01*
X951600Y-852760D01*
X991020Y-852760D01*
X992560Y-853060D01*
X993860Y-853940D01*
X996940Y-857020D01*
X997820Y-858319D01*
X998120Y-859860D01*
X997820Y-861380D01*
X996940Y-862680D01*
X995639Y-863560D01*
X994120Y-863860D01*
X989300Y-863860D01*
X989300Y-885340D01*
X1006060Y-885340D01*
X1007600Y-885639D01*
X1008900Y-886500D01*
X1009760Y-887800D01*
X1010060Y-889340D01*
X1010060Y-913900D01*
X1009760Y-915420D01*
X1008900Y-916720D01*
X1007600Y-917580D01*
X1006060Y-917900D01*
X989300Y-917900D01*
X989300Y-939380D01*
X998400Y-939380D01*
X1000879Y-939100D01*
X1003040Y-938340D01*
X1004960Y-937120D01*
X1006620Y-935480D01*
X1007900Y-934599D01*
X1009440Y-934300D01*
X1010980Y-934599D01*
X1012260Y-935480D01*
X1013920Y-937120D01*
X1015860Y-938340D01*
X1018000Y-939100D01*
X1020500Y-939380D01*
X1025699Y-939380D01*
X1027240Y-939680D01*
X1028520Y-940540D01*
X1029400Y-941840D01*
X1029700Y-943379D01*
X1029700Y-945180D01*
X1029400Y-946700D01*
X1028520Y-948000D01*
X1027240Y-948860D01*
X1025699Y-949180D01*
X1016140Y-949180D01*
X1013640Y-949460D01*
X1011320Y-950260D01*
X1010000Y-950480D01*
X1008680Y-950260D01*
X1006360Y-949460D01*
X1003860Y-949180D01*
X998820Y-949180D01*
X998820Y-962180D01*
X1001700Y-962180D01*
X1003240Y-962480D01*
X1004539Y-963360D01*
X1005400Y-964659D01*
X1005699Y-966180D01*
X1005699Y-973820D01*
X1005400Y-975340D01*
X1004539Y-976640D01*
X1003240Y-977520D01*
X1001700Y-977820D01*
X998820Y-977820D01*
X998820Y-990840D01*
X1003860Y-990840D01*
X1006360Y-990540D01*
X1008680Y-989740D01*
X1010000Y-989520D01*
X1011320Y-989740D01*
X1013640Y-990540D01*
X1016140Y-990840D01*
X1046780Y-990840D01*
X1049280Y-990540D01*
X1051420Y-989800D01*
X1053360Y-988580D01*
X1054960Y-986979D01*
X1056180Y-985040D01*
X1056940Y-982900D01*
X1057220Y-980400D01*
X1057220Y-962880D01*
X1057340Y-961840D01*
X1057920Y-959720D01*
X1058100Y-957400D01*
X1058100Y-943379D01*
X1058400Y-941840D01*
X1059280Y-940540D01*
X1060560Y-939680D01*
X1062100Y-939380D01*
X1067280Y-939380D01*
X1069780Y-939100D01*
X1071920Y-938340D01*
X1075260Y-936140D01*
X1076800Y-935840D01*
X1078340Y-936140D01*
X1079620Y-937020D01*
X1080500Y-938300D01*
X1080800Y-939840D01*
X1080800Y-977460D01*
X1080500Y-979000D01*
X1079620Y-980280D01*
X1058760Y-1001160D01*
X1057660Y-1001940D01*
X1056360Y-1002300D01*
X1055020Y-1002220D01*
X1053780Y-1001700D01*
X1051420Y-1000200D01*
X1049280Y-999460D01*
X1046780Y-999180D01*
X1016140Y-999180D01*
X1013640Y-999460D01*
X1011320Y-1000260D01*
X1010000Y-1000480D01*
X1008680Y-1000260D01*
X1006360Y-999460D01*
X1003860Y-999180D01*
X998820Y-999180D01*
X998820Y-1012180D01*
X1001700Y-1012180D01*
X1003240Y-1012480D01*
X1004539Y-1013360D01*
X1005400Y-1014659D01*
X1005699Y-1016180D01*
X1005699Y-1023820D01*
X1005400Y-1025340D01*
X1004539Y-1026640D01*
X1003240Y-1027520D01*
X1001700Y-1027820D01*
X998820Y-1027820D01*
X998820Y-1052180D01*
X1001700Y-1052180D01*
X1003240Y-1052480D01*
X1004539Y-1053360D01*
X1005400Y-1054660D01*
X1005699Y-1056180D01*
X1005699Y-1063820D01*
X1005400Y-1065340D01*
X1004539Y-1066640D01*
X1003240Y-1067520D01*
X1001700Y-1067820D01*
X998820Y-1067820D01*
X998820Y-1080840D01*
X1003860Y-1080840D01*
X1006360Y-1080540D01*
X1008680Y-1079740D01*
X1010000Y-1079520D01*
X1011320Y-1079740D01*
X1013640Y-1080540D01*
X1016140Y-1080840D01*
X1046780Y-1080840D01*
X1049280Y-1080540D01*
X1051420Y-1079800D01*
X1053360Y-1078580D01*
X1054960Y-1076980D01*
X1055540Y-1076080D01*
X1056420Y-1075080D01*
X1057600Y-1074420D01*
X1062940Y-1073860D01*
X1065760Y-1072960D01*
X1068380Y-1071440D01*
X1070160Y-1069920D01*
X1098700Y-1041400D01*
X1099940Y-1040540D01*
X1101400Y-1040220D01*
X1102880Y-1040460D01*
X1104180Y-1041240D01*
X1105100Y-1042420D01*
X1105500Y-1043880D01*
X1105660Y-1045560D01*
X1106660Y-1049300D01*
X1108280Y-1052800D01*
X1110500Y-1055980D01*
X1113240Y-1058700D01*
X1116400Y-1060920D01*
X1117580Y-1061480D01*
X1118840Y-1062400D01*
X1119660Y-1063720D01*
X1119900Y-1065260D01*
X1119520Y-1066760D01*
X1118620Y-1068020D01*
X1117300Y-1068840D01*
X1112880Y-1070500D01*
X1108480Y-1072900D01*
X1104460Y-1075900D01*
X1100900Y-1079460D01*
X1097900Y-1083480D01*
X1095500Y-1087880D01*
X1093740Y-1092580D01*
X1092660Y-1097500D01*
X1092320Y-1102500D01*
X1092660Y-1107500D01*
X1093740Y-1112420D01*
X1095500Y-1117120D01*
X1097900Y-1121520D01*
X1100900Y-1125540D01*
X1104460Y-1129100D01*
X1108480Y-1132100D01*
X1112880Y-1134500D01*
X1117580Y-1136260D01*
X1122500Y-1137340D01*
X1127500Y-1137680D01*
X1132500Y-1137340D01*
X1137420Y-1136260D01*
X1142120Y-1134500D01*
X1146520Y-1132100D01*
X1150540Y-1129100D01*
X1154100Y-1125540D01*
X1157100Y-1121520D01*
X1158600Y-1118780D01*
X1159400Y-1117760D01*
X1160480Y-1117040D01*
X1161740Y-1116720D01*
X1165460Y-1116360D01*
X1168260Y-1115460D01*
X1170880Y-1113940D01*
X1172660Y-1112420D01*
X1208220Y-1076860D01*
X1209520Y-1076000D01*
X1211060Y-1075680D01*
X1212580Y-1076000D01*
X1213880Y-1076860D01*
X1214740Y-1078160D01*
X1215060Y-1079680D01*
X1215060Y-1108220D01*
X1214740Y-1109740D01*
X1213880Y-1111040D01*
X1209480Y-1115440D01*
X1208220Y-1116300D01*
X1206740Y-1116620D01*
X1200000Y-1115160D01*
X1195000Y-1114820D01*
X1190000Y-1115160D01*
X1185080Y-1116240D01*
X1180380Y-1118000D01*
X1175980Y-1120400D01*
X1171960Y-1123400D01*
X1168400Y-1126960D01*
X1165400Y-1130980D01*
X1163000Y-1135380D01*
X1161240Y-1140080D01*
X1160160Y-1145000D01*
X1159820Y-1150000D01*
X1160160Y-1155000D01*
X1161240Y-1159920D01*
X1163000Y-1164620D01*
X1165400Y-1169020D01*
X1168400Y-1173040D01*
X1171960Y-1176600D01*
X1175980Y-1179600D01*
X1180380Y-1182000D01*
X1185080Y-1183760D01*
X1190000Y-1184840D01*
X1195000Y-1185180D01*
X1200000Y-1184840D01*
X1204920Y-1183760D01*
X1209620Y-1182000D01*
X1214020Y-1179600D01*
X1218040Y-1176600D01*
X1221600Y-1173040D01*
X1224600Y-1169020D01*
X1227000Y-1164620D01*
X1228760Y-1159920D01*
X1229840Y-1155000D01*
X1230180Y-1150000D01*
X1229840Y-1145000D01*
X1228380Y-1138260D01*
X1228700Y-1136780D01*
X1229560Y-1135520D01*
X1239140Y-1125940D01*
X1241140Y-1123480D01*
X1242480Y-1120840D01*
X1243260Y-1117920D01*
X1243460Y-1115600D01*
X1243460Y-1055840D01*
X1243760Y-1054320D01*
X1244620Y-1053020D01*
X1245920Y-1052160D01*
X1247460Y-1051840D01*
X1248720Y-1051840D01*
X1251200Y-1051560D01*
X1252880Y-1051220D01*
X1254540Y-1051560D01*
X1257040Y-1051840D01*
X1258080Y-1051840D01*
X1259600Y-1052160D01*
X1260900Y-1053020D01*
X1261780Y-1054340D01*
X1262080Y-1055880D01*
X1261880Y-1086200D01*
X1261640Y-1087520D01*
X1261000Y-1088680D01*
X1260000Y-1089560D01*
X1258900Y-1090260D01*
X1257280Y-1091880D01*
X1256080Y-1093800D01*
X1255320Y-1095960D01*
X1255040Y-1098440D01*
X1255040Y-1129100D01*
X1255320Y-1131580D01*
X1256140Y-1133900D01*
X1256360Y-1135240D01*
X1256140Y-1136560D01*
X1255320Y-1138880D01*
X1255040Y-1141360D01*
X1255040Y-1146420D01*
X1268060Y-1146420D01*
X1268060Y-1143520D01*
X1268360Y-1142000D01*
X1269220Y-1140700D01*
X1270520Y-1139820D01*
X1272060Y-1139520D01*
X1279680Y-1139520D01*
X1281220Y-1139820D01*
X1282520Y-1140700D01*
X1283380Y-1142000D01*
X1283680Y-1143520D01*
X1283680Y-1146420D01*
X1296699Y-1146420D01*
X1296699Y-1141360D01*
X1296420Y-1138880D01*
X1295600Y-1136560D01*
X1295380Y-1135240D01*
X1295600Y-1133900D01*
X1296420Y-1131580D01*
X1296699Y-1129100D01*
X1296699Y-1098440D01*
X1296420Y-1095960D01*
X1295660Y-1093800D01*
X1294460Y-1091880D01*
X1292840Y-1090260D01*
X1291140Y-1088920D01*
X1290500Y-1087740D01*
X1290280Y-1086420D01*
X1290480Y-1055820D01*
X1290780Y-1054300D01*
X1291660Y-1053000D01*
X1292940Y-1052140D01*
X1294480Y-1051840D01*
X1295960Y-1051840D01*
X1298440Y-1051560D01*
X1300120Y-1051220D01*
X1301800Y-1051560D01*
X1304280Y-1051840D01*
X1311699Y-1051840D01*
X1314199Y-1051560D01*
X1315860Y-1051220D01*
X1317540Y-1051560D01*
X1320020Y-1051840D01*
X1327460Y-1051840D01*
X1329940Y-1051560D01*
X1331620Y-1051220D01*
X1333280Y-1051560D01*
X1335780Y-1051840D01*
X1337320Y-1051840D01*
X1338839Y-1052140D01*
X1340140Y-1053000D01*
X1341000Y-1054300D01*
X1341320Y-1055800D01*
X1341440Y-1068120D01*
X1341180Y-1069560D01*
X1340420Y-1070820D01*
X1339280Y-1071720D01*
X1337880Y-1072140D01*
X1336600Y-1072280D01*
X1334440Y-1073040D01*
X1332520Y-1074240D01*
X1330900Y-1075860D01*
X1329700Y-1077780D01*
X1328940Y-1079940D01*
X1328660Y-1082420D01*
X1328660Y-1093180D01*
X1328360Y-1094720D01*
X1327500Y-1096020D01*
X1314400Y-1109120D01*
X1312380Y-1111560D01*
X1310980Y-1114200D01*
X1310120Y-1117040D01*
X1309800Y-1120200D01*
X1309800Y-1282300D01*
X1310120Y-1285460D01*
X1310980Y-1288300D01*
X1312380Y-1290940D01*
X1314400Y-1293380D01*
X1376620Y-1355620D01*
X1378899Y-1357500D01*
X1381500Y-1358940D01*
X1384340Y-1359840D01*
X1387500Y-1360200D01*
X1752100Y-1364960D01*
X1753620Y-1365280D01*
X1754880Y-1366140D01*
X1755740Y-1367000D01*
X1758899Y-1369220D01*
X1762420Y-1370840D01*
X1766140Y-1371840D01*
X1770000Y-1372180D01*
X1773860Y-1371840D01*
X1777580Y-1370840D01*
X1781100Y-1369220D01*
X1784259Y-1367000D01*
X1787000Y-1364259D01*
X1789220Y-1361100D01*
X1790840Y-1357580D01*
X1791840Y-1353860D01*
X1792180Y-1350000D01*
X1791840Y-1346140D01*
X1790840Y-1342420D01*
X1789220Y-1338899D01*
X1787000Y-1335740D01*
X1784259Y-1333000D01*
X1781100Y-1330780D01*
X1777580Y-1329160D01*
X1773860Y-1328160D01*
X1770000Y-1327820D01*
X1766140Y-1328160D01*
X1762420Y-1329160D01*
X1758899Y-1330780D01*
X1754019Y-1334280D01*
X1752460Y-1334560D01*
X1395500Y-1329900D01*
X1394000Y-1329580D01*
X1392720Y-1328740D01*
X1341380Y-1277380D01*
X1340500Y-1276080D01*
X1340200Y-1274540D01*
X1340200Y-1187460D01*
X1340500Y-1185920D01*
X1341380Y-1184640D01*
X1342660Y-1183760D01*
X1344199Y-1183460D01*
X1344860Y-1183460D01*
X1344860Y-1167820D01*
X1344199Y-1167820D01*
X1342660Y-1167520D01*
X1341380Y-1166660D01*
X1340500Y-1165360D01*
X1340200Y-1163820D01*
X1340200Y-1150940D01*
X1340500Y-1149420D01*
X1341380Y-1148120D01*
X1342660Y-1147260D01*
X1344199Y-1146940D01*
X1344860Y-1146940D01*
X1344860Y-1128160D01*
X1345180Y-1126620D01*
X1346040Y-1125320D01*
X1347340Y-1124460D01*
X1348860Y-1124160D01*
X1362880Y-1124160D01*
X1364400Y-1124460D01*
X1365700Y-1125320D01*
X1366560Y-1126620D01*
X1366879Y-1128160D01*
X1366879Y-1146940D01*
X1383080Y-1146940D01*
X1383080Y-1141740D01*
X1382800Y-1139240D01*
X1382040Y-1137100D01*
X1380840Y-1135160D01*
X1379220Y-1133560D01*
X1377300Y-1132340D01*
X1374900Y-1131500D01*
X1373500Y-1130660D01*
X1372560Y-1129320D01*
X1372220Y-1127740D01*
X1372560Y-1126140D01*
X1373500Y-1124800D01*
X1374900Y-1123960D01*
X1377300Y-1123120D01*
X1379220Y-1121900D01*
X1380840Y-1120300D01*
X1382040Y-1118360D01*
X1382800Y-1116220D01*
X1383080Y-1113720D01*
X1383080Y-1082420D01*
X1382800Y-1079940D01*
X1382040Y-1077780D01*
X1380840Y-1075860D01*
X1379220Y-1074240D01*
X1377300Y-1073040D01*
X1375140Y-1072280D01*
X1373380Y-1072080D01*
X1372000Y-1071660D01*
X1370860Y-1070780D01*
X1370100Y-1069560D01*
X1369840Y-1068140D01*
X1369720Y-1055880D01*
X1370020Y-1054340D01*
X1370880Y-1053020D01*
X1372180Y-1052160D01*
X1373720Y-1051840D01*
X1374700Y-1051840D01*
X1377180Y-1051560D01*
X1378860Y-1051220D01*
X1380540Y-1051560D01*
X1383020Y-1051840D01*
X1390440Y-1051840D01*
X1392940Y-1051560D01*
X1394600Y-1051220D01*
X1396279Y-1051560D01*
X1398760Y-1051840D01*
X1400080Y-1051840D01*
X1401600Y-1052140D01*
X1402900Y-1053020D01*
X1403760Y-1054300D01*
X1404079Y-1055840D01*
X1404139Y-1086320D01*
X1403920Y-1087640D01*
X1403280Y-1088820D01*
X1402260Y-1089720D01*
X1401399Y-1090260D01*
X1399780Y-1091880D01*
X1398580Y-1093800D01*
X1397820Y-1095960D01*
X1397540Y-1098440D01*
X1397540Y-1129100D01*
X1397820Y-1131580D01*
X1398640Y-1133900D01*
X1398860Y-1135240D01*
X1398640Y-1136560D01*
X1397820Y-1138880D01*
X1397540Y-1141360D01*
X1397540Y-1146420D01*
X1410560Y-1146420D01*
X1410560Y-1143520D01*
X1410860Y-1142000D01*
X1411720Y-1140700D01*
X1413020Y-1139820D01*
X1414560Y-1139520D01*
X1422180Y-1139520D01*
X1423720Y-1139820D01*
X1425020Y-1140700D01*
X1425880Y-1142000D01*
X1426180Y-1143520D01*
X1426180Y-1146420D01*
X1439199Y-1146420D01*
X1439199Y-1141360D01*
X1438920Y-1138880D01*
X1438100Y-1136560D01*
X1437880Y-1135240D01*
X1438100Y-1133900D01*
X1438920Y-1131580D01*
X1439199Y-1129100D01*
X1439199Y-1098440D01*
X1438920Y-1095960D01*
X1438160Y-1093800D01*
X1436960Y-1091880D01*
X1435340Y-1090260D01*
X1434420Y-1089680D01*
X1433420Y-1088780D01*
X1432760Y-1087620D01*
X1432540Y-1086300D01*
X1432400Y-1020699D01*
X1432480Y-1019820D01*
X1432480Y-1000800D01*
X1432780Y-999260D01*
X1433640Y-997960D01*
X1434940Y-997099D01*
X1436480Y-996800D01*
X1482240Y-996800D01*
X1484540Y-996600D01*
X1486260Y-996840D01*
X1487700Y-997760D01*
X1550320Y-1060520D01*
X1551200Y-1061820D01*
X1551500Y-1063360D01*
X1551500Y-1080060D01*
X1551780Y-1082540D01*
X1552520Y-1084700D01*
X1553740Y-1086620D01*
X1555360Y-1088240D01*
X1557500Y-1089580D01*
X1558660Y-1090700D01*
X1559300Y-1092180D01*
X1559280Y-1093780D01*
X1558640Y-1095260D01*
X1558220Y-1095860D01*
X1556600Y-1099360D01*
X1555600Y-1103100D01*
X1555260Y-1106960D01*
X1555600Y-1110800D01*
X1556600Y-1114540D01*
X1558220Y-1118040D01*
X1559019Y-1119160D01*
X1559560Y-1120260D01*
X1559740Y-1121460D01*
X1559760Y-1230620D01*
X1560220Y-1233980D01*
X1561260Y-1237080D01*
X1562860Y-1239940D01*
X1565060Y-1242580D01*
X1593040Y-1270540D01*
X1595760Y-1272600D01*
X1598680Y-1274040D01*
X1601819Y-1274940D01*
X1605240Y-1275260D01*
X1636920Y-1275260D01*
X1638260Y-1275500D01*
X1639440Y-1276160D01*
X1640340Y-1277180D01*
X1641840Y-1279660D01*
X1643440Y-1281260D01*
X1645360Y-1282480D01*
X1647520Y-1283220D01*
X1650000Y-1283500D01*
X1669240Y-1283500D01*
X1670940Y-1283880D01*
X1674100Y-1284780D01*
X1677520Y-1285100D01*
X1704100Y-1285100D01*
X1705220Y-1285260D01*
X1707040Y-1286220D01*
X1709180Y-1286960D01*
X1711060Y-1287480D01*
X1712240Y-1288460D01*
X1712980Y-1289800D01*
X1713140Y-1291339D01*
X1712820Y-1295000D01*
X1713160Y-1298860D01*
X1714160Y-1302580D01*
X1715780Y-1306100D01*
X1718000Y-1309259D01*
X1720740Y-1312000D01*
X1723899Y-1314220D01*
X1727420Y-1315840D01*
X1731140Y-1316840D01*
X1735000Y-1317180D01*
X1738860Y-1316840D01*
X1742580Y-1315840D01*
X1746100Y-1314220D01*
X1749259Y-1312000D01*
X1752000Y-1309259D01*
X1754220Y-1306100D01*
X1755840Y-1302580D01*
X1756840Y-1298860D01*
X1757180Y-1295000D01*
X1756860Y-1291240D01*
X1757080Y-1289500D01*
X1758040Y-1288040D01*
X1759520Y-1287120D01*
X1762120Y-1286220D01*
X1764060Y-1285000D01*
X1765660Y-1283400D01*
X1766879Y-1281459D01*
X1767620Y-1279320D01*
X1767900Y-1276820D01*
X1767900Y-1275100D01*
X1768220Y-1273560D01*
X1769079Y-1272260D01*
X1770380Y-1271400D01*
X1771900Y-1271100D01*
X1773440Y-1271400D01*
X1774740Y-1272260D01*
X1782880Y-1280380D01*
X1785600Y-1282440D01*
X1788520Y-1283880D01*
X1791699Y-1284800D01*
X1796440Y-1285260D01*
X1798240Y-1286220D01*
X1800380Y-1286960D01*
X1801639Y-1287100D01*
X1803040Y-1287540D01*
X1804180Y-1288420D01*
X1804940Y-1289660D01*
X1805200Y-1291080D01*
X1805200Y-1369580D01*
X1804900Y-1371100D01*
X1804019Y-1372400D01*
X1771500Y-1404920D01*
X1770200Y-1405800D01*
X1768680Y-1406100D01*
X770900Y-1406100D01*
X769419Y-1405820D01*
X768139Y-1404980D01*
X763940Y-1398100D01*
X760240Y-1393400D01*
X756020Y-1389160D01*
X751300Y-1385480D01*
X746180Y-1382380D01*
X740720Y-1379920D01*
X735000Y-1378140D01*
X729120Y-1377060D01*
X723139Y-1376699D01*
X717180Y-1377060D01*
X711280Y-1378140D01*
X705560Y-1379920D01*
X700120Y-1382380D01*
X695000Y-1385480D01*
X690280Y-1389160D01*
X686040Y-1393400D01*
X682360Y-1398100D01*
X679260Y-1403220D01*
X676800Y-1408680D01*
X675020Y-1414400D01*
X673940Y-1420280D01*
X673580Y-1426260D01*
X673940Y-1432240D01*
X675020Y-1438120D01*
X676800Y-1443839D01*
X679260Y-1449300D01*
X682360Y-1454420D01*
X686040Y-1459120D01*
X690280Y-1463360D01*
X695000Y-1467040D01*
X700120Y-1470140D01*
X705560Y-1472600D01*
X711280Y-1474379D01*
X717180Y-1475460D01*
X723139Y-1475820D01*
X729120Y-1475460D01*
X735000Y-1474379D01*
X740720Y-1472600D01*
X746180Y-1470140D01*
X751300Y-1467040D01*
X756020Y-1463360D01*
X760240Y-1459120D01*
X763940Y-1454420D01*
X768100Y-1447620D01*
X769380Y-1446780D01*
X770879Y-1446500D01*
X1778620Y-1446500D01*
X1780460Y-1446420D01*
X1782200Y-1446180D01*
X1783920Y-1445800D01*
X1785600Y-1445280D01*
X1787240Y-1444600D01*
X1788800Y-1443800D01*
X1790280Y-1442840D01*
X1791680Y-1441780D01*
X1793040Y-1440520D01*
X1839620Y-1393940D01*
X1840880Y-1392580D01*
X1841940Y-1391180D01*
X1842900Y-1389700D01*
X1843700Y-1388140D01*
X1844379Y-1386500D01*
X1844900Y-1384820D01*
X1845280Y-1383100D01*
X1845520Y-1381360D01*
X1845600Y-1379520D01*
X1845600Y-1291080D01*
X1845860Y-1289660D01*
X1846620Y-1288420D01*
X1847760Y-1287540D01*
X1849160Y-1287120D01*
X1850460Y-1286960D01*
X1852620Y-1286220D01*
X1854440Y-1285260D01*
X1855540Y-1285100D01*
X1880840Y-1285080D01*
X1884220Y-1284620D01*
X1887020Y-1283700D01*
X1888260Y-1283500D01*
X1907500Y-1283500D01*
X1909980Y-1283220D01*
X1912140Y-1282480D01*
X1914060Y-1281260D01*
X1915660Y-1279660D01*
X1917160Y-1277220D01*
X1918040Y-1276200D01*
X1919240Y-1275520D01*
X1920560Y-1275300D01*
X2003080Y-1275280D01*
X2006440Y-1274820D01*
X2009540Y-1273780D01*
X2012400Y-1272180D01*
X2015040Y-1269980D01*
X2038100Y-1246920D01*
X2039400Y-1246060D01*
X2040940Y-1245760D01*
X2050980Y-1245760D01*
X2053460Y-1245480D01*
X2055620Y-1244720D01*
X2057540Y-1243500D01*
X2059160Y-1241900D01*
X2060360Y-1239960D01*
X2061120Y-1237820D01*
X2061399Y-1235320D01*
X2061399Y-1188540D01*
X2061120Y-1186040D01*
X2060360Y-1183900D01*
X2059160Y-1181960D01*
X2057540Y-1180360D01*
X2055620Y-1179140D01*
X2053460Y-1178380D01*
X2050980Y-1178100D01*
X2014019Y-1178100D01*
X2011540Y-1178380D01*
X2009379Y-1179140D01*
X2007460Y-1180360D01*
X2005840Y-1181960D01*
X2004640Y-1183900D01*
X2003880Y-1186040D01*
X2003600Y-1188540D01*
X2003600Y-1229720D01*
X2003300Y-1231240D01*
X2002420Y-1232540D01*
X1996240Y-1238720D01*
X1994940Y-1239600D01*
X1993420Y-1239900D01*
X1920600Y-1239900D01*
X1919259Y-1239660D01*
X1918060Y-1239000D01*
X1917180Y-1237960D01*
X1915640Y-1235440D01*
X1914060Y-1233860D01*
X1913320Y-1233380D01*
X1912160Y-1232280D01*
X1911519Y-1230800D01*
X1911519Y-1229200D01*
X1912160Y-1227720D01*
X1913320Y-1226620D01*
X1914060Y-1226140D01*
X1915680Y-1224540D01*
X1916879Y-1222600D01*
X1917640Y-1220460D01*
X1917920Y-1217960D01*
X1917920Y-1212820D01*
X1901360Y-1212820D01*
X1901360Y-1227600D01*
X1901060Y-1229140D01*
X1900180Y-1230440D01*
X1898880Y-1231300D01*
X1897360Y-1231600D01*
X1882640Y-1231600D01*
X1881120Y-1231300D01*
X1879820Y-1230440D01*
X1878940Y-1229140D01*
X1878640Y-1227600D01*
X1878640Y-1212820D01*
X1860740Y-1212820D01*
X1859079Y-1212460D01*
X1857720Y-1211460D01*
X1856900Y-1209960D01*
X1856759Y-1208280D01*
X1858120Y-1204500D01*
X1858400Y-1202020D01*
X1858400Y-1196080D01*
X1858700Y-1194540D01*
X1859580Y-1193240D01*
X1860860Y-1192380D01*
X1862400Y-1192080D01*
X1878640Y-1192080D01*
X1878640Y-1176500D01*
X1872500Y-1176500D01*
X1870020Y-1176780D01*
X1867860Y-1177520D01*
X1865940Y-1178740D01*
X1864139Y-1180540D01*
X1862800Y-1181420D01*
X1861220Y-1181700D01*
X1859660Y-1181360D01*
X1858360Y-1180400D01*
X1857360Y-1178540D01*
X1856160Y-1176600D01*
X1854540Y-1175000D01*
X1852620Y-1173780D01*
X1850460Y-1173040D01*
X1847980Y-1172760D01*
X1802880Y-1172760D01*
X1800380Y-1173040D01*
X1798240Y-1173780D01*
X1796440Y-1174740D01*
X1794199Y-1174920D01*
X1790860Y-1175380D01*
X1787760Y-1176420D01*
X1784900Y-1178020D01*
X1782260Y-1180220D01*
X1774740Y-1187740D01*
X1773440Y-1188600D01*
X1771900Y-1188900D01*
X1770380Y-1188600D01*
X1769079Y-1187740D01*
X1768220Y-1186440D01*
X1767900Y-1184900D01*
X1767900Y-1183180D01*
X1767620Y-1180680D01*
X1766879Y-1178540D01*
X1765660Y-1176600D01*
X1764060Y-1175000D01*
X1762120Y-1173780D01*
X1759980Y-1173040D01*
X1757480Y-1172760D01*
X1711680Y-1172760D01*
X1709180Y-1173040D01*
X1707040Y-1173780D01*
X1705100Y-1175000D01*
X1703500Y-1176600D01*
X1702280Y-1178520D01*
X1701380Y-1181180D01*
X1700640Y-1182460D01*
X1699480Y-1183400D01*
X1698060Y-1183840D01*
X1696560Y-1183740D01*
X1695220Y-1183100D01*
X1694199Y-1182000D01*
X1693180Y-1180360D01*
X1691560Y-1178740D01*
X1689640Y-1177520D01*
X1687480Y-1176780D01*
X1685000Y-1176500D01*
X1678860Y-1176500D01*
X1678860Y-1192080D01*
X1697240Y-1192080D01*
X1698779Y-1192380D01*
X1700080Y-1193240D01*
X1700940Y-1194540D01*
X1701240Y-1196080D01*
X1701240Y-1202020D01*
X1701519Y-1204500D01*
X1702460Y-1207140D01*
X1703500Y-1208580D01*
X1705100Y-1210200D01*
X1707040Y-1211420D01*
X1709180Y-1212160D01*
X1711680Y-1212440D01*
X1757480Y-1212440D01*
X1760360Y-1212120D01*
X1762020Y-1212280D01*
X1763460Y-1213120D01*
X1764460Y-1214460D01*
X1764800Y-1216100D01*
X1764800Y-1243900D01*
X1764460Y-1245540D01*
X1763460Y-1246880D01*
X1762020Y-1247720D01*
X1760360Y-1247880D01*
X1757480Y-1247560D01*
X1711680Y-1247560D01*
X1709180Y-1247840D01*
X1707040Y-1248580D01*
X1705220Y-1249540D01*
X1704120Y-1249700D01*
X1699420Y-1249700D01*
X1697880Y-1249400D01*
X1696579Y-1248520D01*
X1695720Y-1247240D01*
X1695420Y-1245700D01*
X1695420Y-1242040D01*
X1695140Y-1239540D01*
X1694379Y-1237400D01*
X1693180Y-1235460D01*
X1691560Y-1233860D01*
X1690820Y-1233380D01*
X1689660Y-1232280D01*
X1689019Y-1230800D01*
X1689019Y-1229200D01*
X1689660Y-1227720D01*
X1690820Y-1226620D01*
X1691560Y-1226140D01*
X1693180Y-1224540D01*
X1694379Y-1222600D01*
X1695140Y-1220460D01*
X1695420Y-1217960D01*
X1695420Y-1212820D01*
X1678860Y-1212820D01*
X1678860Y-1227600D01*
X1678560Y-1229140D01*
X1677680Y-1230440D01*
X1676380Y-1231300D01*
X1674860Y-1231600D01*
X1660140Y-1231600D01*
X1658620Y-1231300D01*
X1657320Y-1230440D01*
X1656440Y-1229140D01*
X1656140Y-1227600D01*
X1656140Y-1212820D01*
X1639580Y-1212820D01*
X1639580Y-1217960D01*
X1639860Y-1220460D01*
X1640620Y-1222600D01*
X1641819Y-1224540D01*
X1643440Y-1226140D01*
X1644180Y-1226620D01*
X1645340Y-1227720D01*
X1645980Y-1229200D01*
X1645980Y-1230800D01*
X1645340Y-1232280D01*
X1644180Y-1233380D01*
X1643440Y-1233860D01*
X1641840Y-1235440D01*
X1640340Y-1237940D01*
X1639440Y-1238960D01*
X1638260Y-1239620D01*
X1636920Y-1239860D01*
X1614040Y-1239860D01*
X1612520Y-1239560D01*
X1611220Y-1238680D01*
X1596320Y-1223780D01*
X1595440Y-1222480D01*
X1595140Y-1220960D01*
X1595140Y-1121460D01*
X1595320Y-1120260D01*
X1595860Y-1119160D01*
X1596660Y-1118040D01*
X1598280Y-1114540D01*
X1599280Y-1110800D01*
X1599620Y-1106960D01*
X1599280Y-1103100D01*
X1598280Y-1099360D01*
X1596660Y-1095860D01*
X1596240Y-1095260D01*
X1595600Y-1093780D01*
X1595600Y-1092180D01*
X1596220Y-1090700D01*
X1597380Y-1089580D01*
X1599540Y-1088240D01*
X1601140Y-1086620D01*
X1601620Y-1085880D01*
X1602720Y-1084720D01*
X1604199Y-1084080D01*
X1605800Y-1084080D01*
X1607280Y-1084720D01*
X1608380Y-1085880D01*
X1608860Y-1086620D01*
X1610460Y-1088240D01*
X1612400Y-1089440D01*
X1614540Y-1090200D01*
X1617040Y-1090480D01*
X1622180Y-1090480D01*
X1622180Y-1073920D01*
X1607400Y-1073920D01*
X1605860Y-1073620D01*
X1604560Y-1072740D01*
X1603700Y-1071440D01*
X1603400Y-1069920D01*
X1603400Y-1055200D01*
X1603700Y-1053680D01*
X1604560Y-1052380D01*
X1605860Y-1051500D01*
X1607400Y-1051200D01*
X1622180Y-1051200D01*
X1622180Y-1034640D01*
X1617040Y-1034640D01*
X1614540Y-1034920D01*
X1612400Y-1035680D01*
X1610460Y-1036880D01*
X1608860Y-1038500D01*
X1608380Y-1039240D01*
X1607280Y-1040400D01*
X1605800Y-1041040D01*
X1604199Y-1041040D01*
X1602720Y-1040400D01*
X1601620Y-1039240D01*
X1601140Y-1038500D01*
X1599540Y-1036880D01*
X1597600Y-1035680D01*
X1595460Y-1034920D01*
X1592960Y-1034640D01*
X1576160Y-1034640D01*
X1574640Y-1034340D01*
X1573340Y-1033460D01*
X1567060Y-1027180D01*
X1566200Y-1025879D01*
X1565900Y-1024360D01*
X1566200Y-1022820D01*
X1567060Y-1021520D01*
X1568360Y-1020660D01*
X1569900Y-1020360D01*
X1592960Y-1020360D01*
X1595460Y-1020080D01*
X1597600Y-1019320D01*
X1599540Y-1018120D01*
X1601140Y-1016500D01*
X1601620Y-1015759D01*
X1602720Y-1014599D01*
X1604199Y-1013960D01*
X1605800Y-1013960D01*
X1607280Y-1014599D01*
X1608380Y-1015759D01*
X1608860Y-1016500D01*
X1610460Y-1018120D01*
X1612400Y-1019320D01*
X1614540Y-1020080D01*
X1617040Y-1020360D01*
X1622180Y-1020360D01*
X1622180Y-1003800D01*
X1607400Y-1003800D01*
X1605860Y-1003500D01*
X1604560Y-1002620D01*
X1603700Y-1001320D01*
X1603400Y-999800D01*
X1603400Y-985080D01*
X1603700Y-983560D01*
X1604560Y-982260D01*
X1605860Y-981380D01*
X1607400Y-981080D01*
X1622180Y-981080D01*
X1622180Y-964520D01*
X1617040Y-964520D01*
X1614540Y-964800D01*
X1612400Y-965560D01*
X1610460Y-966760D01*
X1608860Y-968379D01*
X1608380Y-969120D01*
X1607280Y-970280D01*
X1605800Y-970920D01*
X1604199Y-970920D01*
X1602720Y-970280D01*
X1601620Y-969120D01*
X1601140Y-968379D01*
X1599540Y-966760D01*
X1597600Y-965560D01*
X1595460Y-964800D01*
X1592960Y-964520D01*
X1571260Y-964520D01*
X1569840Y-964260D01*
X1568600Y-963520D01*
X1567720Y-962380D01*
X1567300Y-961000D01*
X1567060Y-959020D01*
X1567200Y-957420D01*
X1567940Y-956000D01*
X1569199Y-955000D01*
X1570760Y-954560D01*
X1572340Y-954780D01*
X1574560Y-955540D01*
X1577040Y-955840D01*
X1598880Y-955840D01*
X1601360Y-955540D01*
X1603680Y-954740D01*
X1605000Y-954520D01*
X1606320Y-954740D01*
X1608640Y-955540D01*
X1611120Y-955840D01*
X1632960Y-955840D01*
X1635440Y-955540D01*
X1637580Y-954800D01*
X1639520Y-953580D01*
X1641120Y-951979D01*
X1642340Y-950040D01*
X1643100Y-947900D01*
X1643380Y-945400D01*
X1643380Y-936820D01*
X1643680Y-935280D01*
X1644540Y-933980D01*
X1647640Y-930900D01*
X1648940Y-930040D01*
X1650460Y-929740D01*
X2036000Y-929740D01*
X2037520Y-930040D01*
X2038820Y-930900D01*
X2039680Y-932200D01*
X2040000Y-933740D01*
X2039680Y-935260D01*
X2038820Y-936560D01*
X2019920Y-955460D01*
X2018620Y-956320D01*
X2017100Y-956620D01*
X2007100Y-956620D01*
X2004600Y-956900D01*
X2002460Y-957660D01*
X2000520Y-958880D01*
X1998920Y-960480D01*
X1997700Y-962420D01*
X1996960Y-964560D01*
X1996680Y-967039D01*
X1996680Y-988880D01*
X1996960Y-991360D01*
X1997760Y-993680D01*
X1997980Y-995000D01*
X1997760Y-996320D01*
X1996960Y-998640D01*
X1996680Y-1001120D01*
X1996680Y-1003980D01*
X2009680Y-1003980D01*
X2009680Y-1003300D01*
X2009980Y-1001760D01*
X2010860Y-1000460D01*
X2012160Y-999599D01*
X2013680Y-999300D01*
X2021320Y-999300D01*
X2022840Y-999599D01*
X2024139Y-1000460D01*
X2025020Y-1001760D01*
X2025320Y-1003300D01*
X2025320Y-1003980D01*
X2030800Y-1003980D01*
X2032340Y-1004280D01*
X2033620Y-1005140D01*
X2034500Y-1006440D01*
X2034800Y-1007980D01*
X2034800Y-1016100D01*
X2034500Y-1017640D01*
X2033620Y-1018940D01*
X2032340Y-1019800D01*
X2030800Y-1020100D01*
X2025320Y-1020100D01*
X2025320Y-1033379D01*
X2027900Y-1033379D01*
X2030360Y-1033100D01*
X2032020Y-1033259D01*
X2033460Y-1034100D01*
X2034460Y-1035440D01*
X2034800Y-1037080D01*
X2034800Y-1040240D01*
X2034500Y-1041780D01*
X2033620Y-1043080D01*
X2032340Y-1043940D01*
X2030800Y-1044240D01*
X2014019Y-1044240D01*
X2011540Y-1044520D01*
X2009379Y-1045280D01*
X2007460Y-1046500D01*
X2005840Y-1048100D01*
X2004640Y-1050040D01*
X2003880Y-1052180D01*
X2003600Y-1054680D01*
X2003600Y-1101460D01*
X2003880Y-1103960D01*
X2004640Y-1106100D01*
X2005840Y-1108040D01*
X2007460Y-1109640D01*
X2009379Y-1110860D01*
X2011540Y-1111620D01*
X2014019Y-1111900D01*
X2045440Y-1111900D01*
X2046879Y-1112160D01*
X2048140Y-1112920D01*
X2049019Y-1114080D01*
X2049420Y-1115500D01*
X2049300Y-1116960D01*
X2048160Y-1121160D01*
X2047820Y-1125000D01*
X2048160Y-1128860D01*
X2049160Y-1132580D01*
X2050780Y-1136100D01*
X2053000Y-1139260D01*
X2055740Y-1142000D01*
X2058899Y-1144220D01*
X2062420Y-1145840D01*
X2066140Y-1146840D01*
X2069980Y-1147180D01*
X2074340Y-1146780D01*
X2076080Y-1147000D01*
X2077540Y-1147920D01*
X2091620Y-1162000D01*
X2092480Y-1163300D01*
X2092780Y-1164820D01*
X2092780Y-1186000D01*
X2093060Y-1188480D01*
X2093820Y-1190640D01*
X2095040Y-1192560D01*
X2096639Y-1194180D01*
X2098580Y-1195380D01*
X2100960Y-1196220D01*
X2102360Y-1197060D01*
X2103300Y-1198400D01*
X2103640Y-1200000D01*
X2103300Y-1201600D01*
X2102360Y-1202940D01*
X2100960Y-1203780D01*
X2098580Y-1204620D01*
X2096639Y-1205820D01*
X2095040Y-1207440D01*
X2093820Y-1209360D01*
X2093060Y-1211520D01*
X2092780Y-1214000D01*
X2092780Y-1245300D01*
X2093060Y-1247800D01*
X2093820Y-1249940D01*
X2095040Y-1251880D01*
X2096639Y-1253480D01*
X2098580Y-1254700D01*
X2100720Y-1255440D01*
X2102640Y-1255920D01*
X2103780Y-1256820D01*
X2104540Y-1258060D01*
X2104800Y-1259480D01*
X2104800Y-1267300D01*
X2105120Y-1270460D01*
X2105980Y-1273300D01*
X2107380Y-1275940D01*
X2109400Y-1278380D01*
X2126720Y-1295720D01*
X2127520Y-1296860D01*
X2127880Y-1298200D01*
X2128160Y-1301360D01*
X2129160Y-1305080D01*
X2130780Y-1308600D01*
X2133000Y-1311759D01*
X2135740Y-1314500D01*
X2138900Y-1316720D01*
X2142420Y-1318340D01*
X2146140Y-1319340D01*
X2150000Y-1319680D01*
X2153860Y-1319340D01*
X2157580Y-1318340D01*
X2161100Y-1316720D01*
X2164260Y-1314500D01*
X2167000Y-1311759D01*
X2169220Y-1308600D01*
X2170840Y-1305080D01*
X2171840Y-1301360D01*
X2172180Y-1297500D01*
X2171840Y-1293640D01*
X2170840Y-1289920D01*
X2169220Y-1286399D01*
X2167000Y-1283240D01*
X2164260Y-1280500D01*
X2161100Y-1278280D01*
X2157580Y-1276660D01*
X2153860Y-1275660D01*
X2150700Y-1275380D01*
X2149360Y-1275020D01*
X2148220Y-1274220D01*
X2136380Y-1262380D01*
X2135440Y-1260920D01*
X2135220Y-1259200D01*
X2135740Y-1257560D01*
X2136900Y-1256280D01*
X2138500Y-1255620D01*
X2139140Y-1255500D01*
X2141420Y-1254700D01*
X2143340Y-1253480D01*
X2144960Y-1251880D01*
X2146180Y-1249940D01*
X2146920Y-1247800D01*
X2147200Y-1245300D01*
X2147200Y-1214000D01*
X2146920Y-1211520D01*
X2146180Y-1209360D01*
X2144960Y-1207440D01*
X2143340Y-1205820D01*
X2141420Y-1204620D01*
X2139020Y-1203780D01*
X2137620Y-1202940D01*
X2136680Y-1201600D01*
X2136340Y-1200000D01*
X2136680Y-1198400D01*
X2137620Y-1197060D01*
X2139020Y-1196220D01*
X2141420Y-1195380D01*
X2143340Y-1194180D01*
X2144960Y-1192560D01*
X2146180Y-1190640D01*
X2147020Y-1188220D01*
X2147860Y-1186820D01*
X2149200Y-1185880D01*
X2150800Y-1185540D01*
X2153540Y-1185540D01*
X2155080Y-1185840D01*
X2156380Y-1186720D01*
X2164040Y-1194380D01*
X2164900Y-1195680D01*
X2165220Y-1197200D01*
X2165220Y-1233240D01*
X2165500Y-1235720D01*
X2166240Y-1237880D01*
X2167460Y-1239800D01*
X2169060Y-1241420D01*
X2171000Y-1242640D01*
X2173140Y-1243380D01*
X2175640Y-1243660D01*
X2206680Y-1243660D01*
X2209180Y-1243380D01*
X2211320Y-1242640D01*
X2213240Y-1241420D01*
X2214860Y-1239800D01*
X2216080Y-1237880D01*
X2216820Y-1235720D01*
X2217100Y-1233240D01*
X2217100Y-1166760D01*
X2216820Y-1164280D01*
X2216080Y-1162120D01*
X2214860Y-1160200D01*
X2213240Y-1158580D01*
X2211320Y-1157360D01*
X2209180Y-1156620D01*
X2206680Y-1156340D01*
X2175640Y-1156340D01*
X2173140Y-1156620D01*
X2171620Y-1157160D01*
X2169980Y-1157360D01*
X2168400Y-1156900D01*
X2167300Y-1156320D01*
X2164460Y-1155460D01*
X2161300Y-1155140D01*
X2150780Y-1155140D01*
X2149180Y-1154800D01*
X2147860Y-1153860D01*
X2147020Y-1152460D01*
X2146180Y-1150060D01*
X2144960Y-1148120D01*
X2143340Y-1146520D01*
X2141420Y-1145300D01*
X2139260Y-1144540D01*
X2136780Y-1144260D01*
X2115700Y-1144260D01*
X2114180Y-1143960D01*
X2112880Y-1143100D01*
X2092940Y-1123160D01*
X2092300Y-1122340D01*
X2091900Y-1121360D01*
X2090840Y-1117420D01*
X2089220Y-1113900D01*
X2087000Y-1110740D01*
X2084259Y-1108000D01*
X2081100Y-1105780D01*
X2077580Y-1104160D01*
X2073860Y-1103160D01*
X2070000Y-1102820D01*
X2065760Y-1103200D01*
X2064120Y-1103000D01*
X2062700Y-1102160D01*
X2061740Y-1100820D01*
X2061399Y-1099220D01*
X2061399Y-1079420D01*
X2061699Y-1077900D01*
X2062580Y-1076600D01*
X2069220Y-1069940D01*
X2070480Y-1068580D01*
X2071540Y-1067180D01*
X2072500Y-1065700D01*
X2073300Y-1064140D01*
X2073980Y-1062500D01*
X2074500Y-1060820D01*
X2074880Y-1059100D01*
X2075120Y-1057360D01*
X2075200Y-1055520D01*
X2075200Y-1004100D01*
X2075500Y-1002580D01*
X2076360Y-1001280D01*
X2077640Y-1000420D01*
X2079160Y-1000100D01*
X2085100Y-1000040D01*
X2086680Y-1000360D01*
X2088000Y-1001240D01*
X2088860Y-1002580D01*
X2110900Y-1002580D01*
X2112160Y-1001780D01*
X2113640Y-1001500D01*
X2136220Y-1001500D01*
X2137700Y-1001780D01*
X2138960Y-1002580D01*
X2145580Y-1002580D01*
X2147180Y-1002920D01*
X2148500Y-1003860D01*
X2149360Y-1005240D01*
X2150400Y-1008240D01*
X2152320Y-1011640D01*
X2153300Y-1012880D01*
X2154000Y-1014200D01*
X2154180Y-1015680D01*
X2153740Y-1017200D01*
X2156440Y-1017200D01*
X2157540Y-1017340D01*
X2158540Y-1017780D01*
X2161000Y-1019300D01*
X2164620Y-1020759D01*
X2168440Y-1021580D01*
X2171020Y-1021680D01*
X2172500Y-1022039D01*
X2173740Y-1022920D01*
X2174560Y-1024180D01*
X2174860Y-1025680D01*
X2174860Y-1042740D01*
X2200460Y-1042740D01*
X2199220Y-1040140D01*
X2196700Y-1036460D01*
X2193660Y-1033180D01*
X2190180Y-1030400D01*
X2186300Y-1028160D01*
X2182060Y-1026500D01*
X2180760Y-1025680D01*
X2179880Y-1024440D01*
X2179520Y-1022960D01*
X2179740Y-1021440D01*
X2180500Y-1020140D01*
X2181720Y-1019200D01*
X2183400Y-1018340D01*
X2186540Y-1016040D01*
X2189220Y-1013220D01*
X2191420Y-1009980D01*
X2193020Y-1006440D01*
X2194000Y-1002660D01*
X2194340Y-998780D01*
X2194000Y-994900D01*
X2193020Y-991120D01*
X2191420Y-987580D01*
X2189220Y-984340D01*
X2186540Y-981520D01*
X2183400Y-979220D01*
X2179920Y-977460D01*
X2176200Y-976320D01*
X2172320Y-975819D01*
X2168440Y-975980D01*
X2165560Y-976600D01*
X2163800Y-976580D01*
X2162220Y-975800D01*
X2161120Y-974419D01*
X2160720Y-972700D01*
X2160720Y-967900D01*
X2160440Y-965420D01*
X2160100Y-963740D01*
X2160440Y-962060D01*
X2160720Y-959580D01*
X2160720Y-948220D01*
X2160440Y-945740D01*
X2160100Y-944060D01*
X2160440Y-942380D01*
X2160720Y-939900D01*
X2160720Y-933700D01*
X2161020Y-932159D01*
X2161900Y-930879D01*
X2163200Y-930000D01*
X2164720Y-929700D01*
X2177800Y-929700D01*
X2180960Y-929380D01*
X2183800Y-928520D01*
X2186440Y-927120D01*
X2188880Y-925100D01*
X2198100Y-915879D01*
X2200120Y-913439D01*
X2201520Y-910800D01*
X2202380Y-907960D01*
X2202700Y-904800D01*
X2202700Y-885200D01*
X2202380Y-882039D01*
X2201520Y-879200D01*
X2200120Y-876560D01*
X2198100Y-874120D01*
X2188580Y-864599D01*
X2186140Y-862580D01*
X2183500Y-861180D01*
X2180660Y-860320D01*
X2177500Y-860000D01*
X2164720Y-860000D01*
X2163200Y-859700D01*
X2161900Y-858820D01*
X2161020Y-857540D01*
X2160720Y-856000D01*
X2160720Y-849800D01*
X2160440Y-847300D01*
X2160100Y-845639D01*
X2160440Y-843960D01*
X2160720Y-841480D01*
X2160720Y-830100D01*
X2160440Y-827620D01*
X2160100Y-825939D01*
X2160440Y-824280D01*
X2160720Y-821780D01*
X2160720Y-810420D01*
X2160440Y-807940D01*
X2160100Y-806260D01*
X2160440Y-804580D01*
X2160720Y-802099D01*
X2160720Y-797300D01*
X2161120Y-795580D01*
X2162220Y-794200D01*
X2163800Y-793420D01*
X2165560Y-793400D01*
X2168460Y-794020D01*
X2172340Y-794180D01*
X2176220Y-793680D01*
X2179940Y-792540D01*
X2183420Y-790780D01*
X2186560Y-788480D01*
X2189240Y-785660D01*
X2191440Y-782420D01*
X2193040Y-778880D01*
X2194020Y-775100D01*
X2194360Y-771220D01*
X2194020Y-767340D01*
X2193040Y-763560D01*
X2191440Y-760020D01*
X2189240Y-756780D01*
X2186560Y-753960D01*
X2183420Y-751660D01*
X2181720Y-750800D01*
X2180520Y-749860D01*
X2179740Y-748540D01*
X2179520Y-747039D01*
X2179880Y-745560D01*
X2180780Y-744320D01*
X2182060Y-743500D01*
X2186300Y-741840D01*
X2190160Y-739599D01*
X2193660Y-736820D01*
X2196700Y-733540D01*
X2199220Y-729860D01*
X2200460Y-727260D01*
X2174860Y-727260D01*
X2174860Y-744320D01*
X2174560Y-745819D01*
X2173740Y-747080D01*
X2172500Y-747960D01*
X2171020Y-748319D01*
X2168460Y-748420D01*
X2164640Y-749240D01*
X2161020Y-750699D01*
X2158580Y-752200D01*
X2157560Y-752660D01*
X2156480Y-752800D01*
X2153780Y-752800D01*
X2154200Y-754260D01*
X2154040Y-755780D01*
X2153320Y-757120D01*
X2152340Y-758360D01*
X2150420Y-761760D01*
X2149360Y-764760D01*
X2148520Y-766160D01*
X2147200Y-767099D01*
X2145600Y-767420D01*
X2138960Y-767420D01*
X2137700Y-768220D01*
X2136220Y-768500D01*
X2113640Y-768500D01*
X2112160Y-768220D01*
X2110900Y-767420D01*
X2088860Y-767420D01*
X2088000Y-768760D01*
X2086680Y-769640D01*
X2085100Y-769960D01*
X2077520Y-769880D01*
X2075860Y-769520D01*
X2075080Y-769160D01*
X2071360Y-768160D01*
X2067500Y-767820D01*
X2063640Y-768160D01*
X2059920Y-769160D01*
X2056399Y-770780D01*
X2053240Y-773000D01*
X2050500Y-775740D01*
X2048280Y-778900D01*
X2046660Y-782420D01*
X2046200Y-784120D01*
X2045460Y-785580D01*
X2044199Y-786620D01*
X2042620Y-787080D01*
X2041000Y-786860D01*
X2039600Y-786020D01*
X2038660Y-784700D01*
X2038340Y-783100D01*
X2038340Y-781120D01*
X2038040Y-778640D01*
X2037240Y-776320D01*
X2037020Y-775000D01*
X2037240Y-773680D01*
X2038040Y-771360D01*
X2038340Y-768880D01*
X2038340Y-766020D01*
X2025320Y-766020D01*
X2025320Y-766700D01*
X2025020Y-768240D01*
X2024139Y-769539D01*
X2022840Y-770400D01*
X2021320Y-770699D01*
X2013680Y-770699D01*
X2012160Y-770400D01*
X2010860Y-769539D01*
X2009980Y-768240D01*
X2009680Y-766700D01*
X2009680Y-766020D01*
X1996680Y-766020D01*
X1996680Y-768880D01*
X1996960Y-771360D01*
X1997760Y-773680D01*
X1997980Y-775000D01*
X1997760Y-776320D01*
X1996960Y-778640D01*
X1996680Y-781120D01*
X1996680Y-802960D01*
X1996960Y-805440D01*
X1997700Y-807580D01*
X1998920Y-809520D01*
X2000520Y-811120D01*
X2002460Y-812340D01*
X2004600Y-813100D01*
X2007100Y-813379D01*
X2017100Y-813379D01*
X2018620Y-813680D01*
X2019920Y-814539D01*
X2031380Y-826000D01*
X2033839Y-828000D01*
X2036480Y-829340D01*
X2039400Y-830120D01*
X2041720Y-830300D01*
X2085140Y-830300D01*
X2086680Y-830600D01*
X2087980Y-831480D01*
X2088839Y-832760D01*
X2089139Y-834300D01*
X2089139Y-836280D01*
X2088839Y-837800D01*
X2087980Y-839100D01*
X2086680Y-839960D01*
X2085140Y-840280D01*
X2062220Y-840280D01*
X2059060Y-840580D01*
X2056220Y-841440D01*
X2053600Y-842840D01*
X2051140Y-844860D01*
X2042740Y-853259D01*
X2040720Y-855720D01*
X2039319Y-858340D01*
X2038460Y-861180D01*
X2038140Y-864340D01*
X2038140Y-875639D01*
X2037840Y-877159D01*
X2036980Y-878460D01*
X2035680Y-879340D01*
X2034160Y-879640D01*
X1651819Y-879780D01*
X1650280Y-879479D01*
X1648980Y-878620D01*
X1648120Y-877320D01*
X1647800Y-875780D01*
X1648120Y-874260D01*
X1648980Y-872960D01*
X1649960Y-871979D01*
X1651180Y-870040D01*
X1651940Y-867900D01*
X1652220Y-865400D01*
X1652220Y-862820D01*
X1636740Y-862820D01*
X1636740Y-870180D01*
X1636440Y-871700D01*
X1635560Y-873000D01*
X1634259Y-873860D01*
X1632740Y-874180D01*
X1620180Y-874180D01*
X1618660Y-873860D01*
X1617360Y-873000D01*
X1616480Y-871700D01*
X1616180Y-870180D01*
X1616180Y-862820D01*
X1613300Y-862820D01*
X1611759Y-862520D01*
X1610460Y-861640D01*
X1609600Y-860340D01*
X1609300Y-858820D01*
X1609300Y-851180D01*
X1609600Y-849659D01*
X1610460Y-848360D01*
X1611759Y-847480D01*
X1613300Y-847180D01*
X1616180Y-847180D01*
X1616180Y-824280D01*
X1613300Y-824280D01*
X1611759Y-823980D01*
X1610460Y-823100D01*
X1609600Y-821800D01*
X1609300Y-820280D01*
X1609300Y-812640D01*
X1609600Y-811120D01*
X1610460Y-809820D01*
X1611759Y-808940D01*
X1613300Y-808640D01*
X1616180Y-808640D01*
X1616180Y-795639D01*
X1611140Y-795639D01*
X1608640Y-795920D01*
X1606320Y-796720D01*
X1605000Y-796940D01*
X1603680Y-796720D01*
X1601360Y-795920D01*
X1598860Y-795639D01*
X1589100Y-795639D01*
X1587580Y-795320D01*
X1586279Y-794460D01*
X1585420Y-793160D01*
X1585100Y-791640D01*
X1585420Y-790100D01*
X1586279Y-788800D01*
X1637060Y-738020D01*
X1638200Y-737220D01*
X1640820Y-736000D01*
X1643899Y-733840D01*
X1646560Y-731180D01*
X1648720Y-728100D01*
X1650320Y-724680D01*
X1651140Y-721620D01*
X1651940Y-720080D01*
X1653300Y-719040D01*
X1655000Y-718660D01*
X1656699Y-719040D01*
X1658060Y-720080D01*
X1658860Y-721620D01*
X1659680Y-724680D01*
X1661279Y-728100D01*
X1662120Y-729620D01*
X1662300Y-730819D01*
X1662300Y-735480D01*
X1662120Y-736680D01*
X1661579Y-737780D01*
X1660780Y-738900D01*
X1659160Y-742420D01*
X1658160Y-746140D01*
X1657820Y-750000D01*
X1658160Y-753860D01*
X1659160Y-757580D01*
X1660780Y-761100D01*
X1663000Y-764260D01*
X1665740Y-767000D01*
X1668899Y-769220D01*
X1672420Y-770840D01*
X1676140Y-771840D01*
X1680000Y-772180D01*
X1683860Y-771840D01*
X1687580Y-770840D01*
X1691100Y-769220D01*
X1694259Y-767000D01*
X1697000Y-764260D01*
X1699220Y-761100D01*
X1700840Y-757580D01*
X1701840Y-753860D01*
X1702180Y-750000D01*
X1701840Y-746140D01*
X1700840Y-742420D01*
X1699220Y-738900D01*
X1698420Y-737780D01*
X1697880Y-736680D01*
X1697700Y-735480D01*
X1697700Y-730819D01*
X1697880Y-729620D01*
X1698720Y-728100D01*
X1700320Y-724680D01*
X1701300Y-721040D01*
X1701639Y-717099D01*
X1701639Y-708660D01*
X1701940Y-707140D01*
X1702800Y-705840D01*
X1745720Y-662920D01*
X1746540Y-662280D01*
X1747520Y-661880D01*
X1751120Y-660920D01*
X1754640Y-659280D01*
X1757800Y-657060D01*
X1760540Y-654340D01*
X1762760Y-651160D01*
X1764379Y-647660D01*
X1765380Y-643920D01*
X1765720Y-640080D01*
X1765380Y-636220D01*
X1764379Y-632480D01*
X1762760Y-628980D01*
X1761960Y-627860D01*
X1761420Y-626760D01*
X1761240Y-625560D01*
X1761240Y-617300D01*
X1761399Y-616180D01*
X1761860Y-615160D01*
X1763340Y-612820D01*
X1764079Y-610680D01*
X1764379Y-608200D01*
X1764379Y-577540D01*
X1764079Y-575040D01*
X1763280Y-572720D01*
X1763060Y-571400D01*
X1763280Y-570080D01*
X1764079Y-567760D01*
X1764379Y-565280D01*
X1764379Y-560220D01*
X1751360Y-560220D01*
X1751360Y-563120D01*
X1751060Y-564640D01*
X1750180Y-565940D01*
X1748880Y-566800D01*
X1747360Y-567120D01*
X1739720Y-567120D01*
X1738200Y-566800D01*
X1736900Y-565940D01*
X1736020Y-564640D01*
X1735720Y-563120D01*
X1735720Y-560220D01*
X1722720Y-560220D01*
X1722720Y-565280D01*
X1723000Y-567760D01*
X1723800Y-570080D01*
X1724019Y-571400D01*
X1723800Y-572720D01*
X1723000Y-575040D01*
X1722720Y-577540D01*
X1722720Y-608200D01*
X1723000Y-610680D01*
X1723740Y-612820D01*
X1725220Y-615160D01*
X1725680Y-616180D01*
X1725840Y-617300D01*
X1725840Y-625560D01*
X1725660Y-626760D01*
X1725120Y-627860D01*
X1724319Y-628980D01*
X1722700Y-632480D01*
X1721720Y-636100D01*
X1721320Y-637060D01*
X1720680Y-637880D01*
X1706680Y-651900D01*
X1705380Y-652780D01*
X1703839Y-653080D01*
X1702320Y-652780D01*
X1701020Y-651900D01*
X1700160Y-650600D01*
X1699840Y-649080D01*
X1699840Y-620960D01*
X1649820Y-620960D01*
X1649820Y-662120D01*
X1670640Y-662120D01*
X1672140Y-662420D01*
X1673420Y-663259D01*
X1674300Y-664520D01*
X1674640Y-666020D01*
X1674379Y-667540D01*
X1673560Y-668840D01*
X1672320Y-669760D01*
X1669180Y-671220D01*
X1666100Y-673379D01*
X1663440Y-676040D01*
X1661279Y-679120D01*
X1659680Y-682540D01*
X1658860Y-685600D01*
X1658060Y-687140D01*
X1656699Y-688199D01*
X1655000Y-688560D01*
X1653300Y-688199D01*
X1651940Y-687140D01*
X1651140Y-685600D01*
X1650320Y-682540D01*
X1648720Y-679120D01*
X1646560Y-676040D01*
X1643899Y-673379D01*
X1640820Y-671220D01*
X1637400Y-669620D01*
X1633760Y-668640D01*
X1630000Y-668319D01*
X1626240Y-668640D01*
X1622600Y-669620D01*
X1619180Y-671220D01*
X1616100Y-673379D01*
X1613440Y-676040D01*
X1611279Y-679120D01*
X1609680Y-682540D01*
X1608860Y-685600D01*
X1608060Y-687140D01*
X1606699Y-688199D01*
X1605000Y-688560D01*
X1603300Y-688199D01*
X1601940Y-687140D01*
X1601140Y-685600D01*
X1600320Y-682540D01*
X1598720Y-679120D01*
X1596560Y-676040D01*
X1593899Y-673379D01*
X1590820Y-671220D01*
X1587400Y-669620D01*
X1583760Y-668640D01*
X1580000Y-668319D01*
X1576240Y-668640D01*
X1572600Y-669620D01*
X1569180Y-671220D01*
X1566100Y-673379D01*
X1563440Y-676040D01*
X1561279Y-679120D01*
X1559680Y-682540D01*
X1558860Y-685600D01*
X1558060Y-687140D01*
X1556699Y-688199D01*
X1555000Y-688560D01*
X1553300Y-688199D01*
X1551940Y-687140D01*
X1551140Y-685600D01*
X1550320Y-682540D01*
X1548720Y-679120D01*
X1546560Y-676040D01*
X1543899Y-673379D01*
X1540820Y-671220D01*
X1537680Y-669760D01*
X1536440Y-668840D01*
X1535620Y-667540D01*
X1535360Y-666020D01*
X1535700Y-664520D01*
X1536579Y-663259D01*
X1537860Y-662420D01*
X1539360Y-662120D01*
X1560180Y-662120D01*
X1560180Y-620960D01*
X1523200Y-620960D01*
X1521660Y-620660D01*
X1520380Y-619800D01*
X1519500Y-618500D01*
X1519199Y-616960D01*
X1519199Y-553040D01*
X1519500Y-551500D01*
X1520380Y-550200D01*
X1521660Y-549340D01*
X1523200Y-549040D01*
X1560180Y-549040D01*
X1560180Y-507879D01*
X1539360Y-507879D01*
X1537860Y-507580D01*
X1537560Y-507380D01*
X1537160Y-508020D01*
X1535980Y-508920D01*
X1534560Y-509320D01*
X1529660Y-509680D01*
X1525440Y-509320D01*
X1524019Y-508920D01*
X1522840Y-508020D01*
X1522060Y-506780D01*
X1521780Y-505319D01*
X1521780Y-481180D01*
X1520420Y-480319D01*
X1519520Y-479020D01*
X1519199Y-477440D01*
X1519199Y-455340D01*
X1519520Y-453760D01*
X1520420Y-452440D01*
X1521780Y-451599D01*
X1521780Y-443200D01*
X1522080Y-441659D01*
X1522960Y-440379D01*
X1524259Y-439500D01*
X1525780Y-439200D01*
X1534220Y-439200D01*
X1535740Y-439500D01*
X1537040Y-440379D01*
X1537920Y-441659D01*
X1538220Y-443200D01*
X1538220Y-451340D01*
X1554360Y-451340D01*
X1555900Y-451640D01*
X1557200Y-452500D01*
X1558060Y-453800D01*
X1558360Y-455340D01*
X1558360Y-477440D01*
X1558060Y-478980D01*
X1557200Y-480280D01*
X1555900Y-481140D01*
X1554360Y-481440D01*
X1538220Y-481440D01*
X1538220Y-500000D01*
X1540820Y-498780D01*
X1543899Y-496620D01*
X1546560Y-493960D01*
X1548720Y-490880D01*
X1550320Y-487460D01*
X1551140Y-484400D01*
X1551940Y-482860D01*
X1553300Y-481800D01*
X1555000Y-481440D01*
X1556699Y-481800D01*
X1558060Y-482860D01*
X1558860Y-484400D01*
X1559680Y-487460D01*
X1561279Y-490880D01*
X1563440Y-493960D01*
X1566100Y-496620D01*
X1569180Y-498780D01*
X1572600Y-500379D01*
X1576240Y-501360D01*
X1580000Y-501680D01*
X1583760Y-501360D01*
X1587400Y-500379D01*
X1590820Y-498780D01*
X1593899Y-496620D01*
X1596560Y-493960D01*
X1598720Y-490880D01*
X1600320Y-487460D01*
X1601140Y-484400D01*
X1601940Y-482860D01*
X1603300Y-481800D01*
X1605000Y-481440D01*
X1606699Y-481800D01*
X1608060Y-482860D01*
X1608860Y-484400D01*
X1609680Y-487460D01*
X1611279Y-490880D01*
X1613440Y-493960D01*
X1616100Y-496620D01*
X1619180Y-498780D01*
X1622600Y-500379D01*
X1626240Y-501360D01*
X1630000Y-501680D01*
X1633760Y-501360D01*
X1637400Y-500379D01*
X1640820Y-498780D01*
X1643899Y-496620D01*
X1646560Y-493960D01*
X1648720Y-490880D01*
X1650320Y-487460D01*
X1651140Y-484400D01*
X1651940Y-482860D01*
X1653300Y-481800D01*
X1655000Y-481440D01*
X1656699Y-481800D01*
X1658060Y-482860D01*
X1658860Y-484400D01*
X1659680Y-487460D01*
X1661279Y-490880D01*
X1663440Y-493960D01*
X1666100Y-496620D01*
X1669180Y-498780D01*
X1672320Y-500240D01*
X1673560Y-501160D01*
X1674379Y-502460D01*
X1674640Y-503980D01*
X1674300Y-505480D01*
X1673420Y-506740D01*
X1672140Y-507580D01*
X1670640Y-507879D01*
X1649820Y-507879D01*
X1649820Y-549040D01*
X1699840Y-549040D01*
X1699840Y-518300D01*
X1699560Y-515800D01*
X1698820Y-513660D01*
X1697600Y-511719D01*
X1695980Y-510120D01*
X1694060Y-508900D01*
X1691920Y-508160D01*
X1688959Y-507840D01*
X1687320Y-507299D01*
X1686060Y-506140D01*
X1685420Y-504540D01*
X1685500Y-502819D01*
X1686320Y-501300D01*
X1687680Y-500240D01*
X1690820Y-498780D01*
X1693899Y-496620D01*
X1696560Y-493960D01*
X1698720Y-490880D01*
X1700320Y-487460D01*
X1701360Y-483560D01*
X1702160Y-482020D01*
X1703540Y-480959D01*
X1705220Y-480600D01*
X2038520Y-480600D01*
X2040040Y-480900D01*
X2041339Y-481760D01*
X2091620Y-532040D01*
X2092480Y-533340D01*
X2092780Y-534860D01*
X2092780Y-556000D01*
X2093060Y-558480D01*
X2093820Y-560640D01*
X2095040Y-562560D01*
X2096639Y-564180D01*
X2098580Y-565380D01*
X2100960Y-566220D01*
X2102360Y-567060D01*
X2103300Y-568400D01*
X2103640Y-570000D01*
X2103300Y-571600D01*
X2102360Y-572940D01*
X2100960Y-573780D01*
X2098580Y-574620D01*
X2096639Y-575820D01*
X2095040Y-577440D01*
X2093820Y-579360D01*
X2093060Y-581520D01*
X2092780Y-584000D01*
X2092780Y-615300D01*
X2093060Y-617800D01*
X2093820Y-619940D01*
X2095040Y-621880D01*
X2096639Y-623480D01*
X2098580Y-624700D01*
X2100720Y-625440D01*
X2103220Y-625720D01*
X2136780Y-625720D01*
X2139260Y-625440D01*
X2141420Y-624700D01*
X2143340Y-623480D01*
X2144960Y-621880D01*
X2146180Y-619940D01*
X2147380Y-616020D01*
X2148280Y-614860D01*
X2149520Y-614120D01*
X2150940Y-613860D01*
X2161300Y-613860D01*
X2164520Y-613520D01*
X2166640Y-612880D01*
X2167480Y-612500D01*
X2168960Y-612160D01*
X2170460Y-612400D01*
X2173160Y-613380D01*
X2175640Y-613660D01*
X2206680Y-613660D01*
X2209180Y-613380D01*
X2211320Y-612640D01*
X2213240Y-611420D01*
X2214860Y-609800D01*
X2216080Y-607880D01*
X2216820Y-605720D01*
X2217100Y-603240D01*
X2217100Y-536760D01*
X2216820Y-534280D01*
X2216080Y-532120D01*
X2214860Y-530200D01*
X2213240Y-528580D01*
X2211320Y-527360D01*
X2209180Y-526620D01*
X2206680Y-526340D01*
X2175640Y-526340D01*
X2173140Y-526620D01*
X2171000Y-527360D01*
X2169060Y-528580D01*
X2167460Y-530200D01*
X2166240Y-532120D01*
X2165500Y-534280D01*
X2165220Y-536760D01*
X2165220Y-574220D01*
X2164900Y-575740D01*
X2164040Y-577040D01*
X2156800Y-584280D01*
X2155500Y-585140D01*
X2153980Y-585460D01*
X2150940Y-585460D01*
X2149520Y-585180D01*
X2148280Y-584440D01*
X2147380Y-583280D01*
X2146920Y-581520D01*
X2146180Y-579360D01*
X2144960Y-577440D01*
X2143340Y-575820D01*
X2141420Y-574620D01*
X2139020Y-573780D01*
X2137620Y-572940D01*
X2136680Y-571600D01*
X2136340Y-570000D01*
X2136680Y-568400D01*
X2137620Y-567060D01*
X2139020Y-566220D01*
X2141420Y-565380D01*
X2143340Y-564180D01*
X2144960Y-562560D01*
X2146180Y-560640D01*
X2146920Y-558480D01*
X2147200Y-556000D01*
X2147200Y-524700D01*
X2146920Y-522200D01*
X2146180Y-520060D01*
X2144960Y-518120D01*
X2143340Y-516520D01*
X2141420Y-515300D01*
X2139260Y-514540D01*
X2136780Y-514260D01*
X2115660Y-514260D01*
X2114140Y-513960D01*
X2112840Y-513100D01*
X2056240Y-456500D01*
X2053779Y-454500D01*
X2051140Y-453160D01*
X2048220Y-452380D01*
X2045900Y-452200D01*
X1705220Y-452200D01*
X1703540Y-451820D01*
X1702160Y-450760D01*
X1701360Y-449219D01*
X1700320Y-445319D01*
X1698720Y-441900D01*
X1696560Y-438820D01*
X1695380Y-437620D01*
X1694500Y-436320D01*
X1694199Y-434799D01*
X1694199Y-420200D01*
X1693860Y-417060D01*
X1692960Y-414240D01*
X1691440Y-411620D01*
X1689920Y-409840D01*
X1655180Y-375100D01*
X1652720Y-373100D01*
X1650080Y-371760D01*
X1647160Y-370980D01*
X1644840Y-370800D01*
X1505200Y-370800D01*
X1502060Y-371140D01*
X1499240Y-372040D01*
X1496620Y-373560D01*
X1494840Y-375080D01*
X1465100Y-404820D01*
X1463100Y-407280D01*
X1461759Y-409920D01*
X1460980Y-412840D01*
X1460800Y-415160D01*
X1460800Y-759700D01*
X1460500Y-761220D01*
X1459660Y-762500D01*
X1458380Y-763379D01*
X1456879Y-763700D01*
X1436480Y-763720D01*
X1434940Y-763420D01*
X1433640Y-762560D01*
X1432780Y-761260D01*
X1432480Y-759720D01*
X1432480Y-740639D01*
X1432400Y-739780D01*
X1432460Y-715180D01*
X1432760Y-713660D01*
X1433620Y-712360D01*
X1435300Y-710699D01*
X1437520Y-707520D01*
X1439139Y-704020D01*
X1440140Y-700280D01*
X1440480Y-696440D01*
X1440140Y-692580D01*
X1439139Y-688840D01*
X1437520Y-685340D01*
X1435300Y-682159D01*
X1433700Y-680580D01*
X1432840Y-679280D01*
X1432540Y-677740D01*
X1432540Y-676660D01*
X1432760Y-675340D01*
X1433420Y-674180D01*
X1434420Y-673280D01*
X1435340Y-672700D01*
X1436960Y-671080D01*
X1438160Y-669160D01*
X1438920Y-667000D01*
X1439199Y-664520D01*
X1439199Y-633860D01*
X1438920Y-631380D01*
X1438100Y-629060D01*
X1437880Y-627740D01*
X1438100Y-626400D01*
X1438920Y-624080D01*
X1439199Y-621600D01*
X1439199Y-616540D01*
X1426180Y-616540D01*
X1426180Y-619440D01*
X1425880Y-620960D01*
X1425020Y-622260D01*
X1423720Y-623140D01*
X1422180Y-623440D01*
X1414560Y-623440D01*
X1413020Y-623140D01*
X1411720Y-622260D01*
X1410860Y-620960D01*
X1410560Y-619440D01*
X1410560Y-616540D01*
X1397540Y-616540D01*
X1397540Y-621600D01*
X1397820Y-624080D01*
X1398640Y-626400D01*
X1398860Y-627740D01*
X1398640Y-629060D01*
X1397820Y-631380D01*
X1397540Y-633860D01*
X1397540Y-664520D01*
X1397820Y-667000D01*
X1398580Y-669160D01*
X1399780Y-671080D01*
X1401399Y-672700D01*
X1402260Y-673240D01*
X1403260Y-674140D01*
X1403920Y-675320D01*
X1404139Y-676640D01*
X1404139Y-677680D01*
X1403839Y-679220D01*
X1402960Y-680500D01*
X1401260Y-682220D01*
X1399800Y-683139D01*
X1398080Y-683379D01*
X1396440Y-682860D01*
X1395160Y-681680D01*
X1394500Y-680740D01*
X1391759Y-678000D01*
X1388600Y-675780D01*
X1385080Y-674160D01*
X1381360Y-673160D01*
X1377500Y-672820D01*
X1373640Y-673160D01*
X1369920Y-674160D01*
X1366399Y-675780D01*
X1363240Y-678000D01*
X1360520Y-680720D01*
X1359240Y-681580D01*
X1357700Y-681880D01*
X1356160Y-681580D01*
X1354880Y-680720D01*
X1354000Y-679419D01*
X1353700Y-677880D01*
X1353700Y-365540D01*
X1354000Y-364020D01*
X1354880Y-362720D01*
X1556459Y-161119D01*
X1557780Y-160240D01*
X1559360Y-159960D01*
X1560900Y-160300D01*
X1562420Y-160980D01*
X1567780Y-162560D01*
X1573300Y-163460D01*
X1578899Y-163640D01*
X1584460Y-163100D01*
X1589920Y-161860D01*
X1595180Y-159920D01*
X1600140Y-157340D01*
X1604720Y-154140D01*
X1608860Y-150380D01*
X1612480Y-146120D01*
X1615540Y-141420D01*
X1617960Y-136380D01*
X1619720Y-131080D01*
X1620800Y-125580D01*
X1621160Y-120000D01*
X1620800Y-114420D01*
X1619720Y-108920D01*
X1617960Y-103620D01*
X1615540Y-98580D01*
X1612480Y-93880D01*
X1608860Y-89620D01*
X1604720Y-85860D01*
X1600140Y-82660D01*
X1595180Y-80079D01*
X1589920Y-78140D01*
X1584460Y-76900D01*
X1578899Y-76360D01*
X1573300Y-76540D01*
X1567780Y-77440D01*
X1562420Y-79040D01*
X1557300Y-81300D01*
X1552520Y-84200D01*
X1548140Y-87680D01*
X1544259Y-91700D01*
X1540920Y-96180D01*
X1538160Y-101060D01*
X1536060Y-106240D01*
X1534640Y-111660D01*
X1533940Y-117200D01*
X1533940Y-122800D01*
X1534640Y-128340D01*
X1536060Y-133760D01*
X1537260Y-136700D01*
X1537560Y-138240D01*
X1537240Y-139740D01*
X1536380Y-141040D01*
X1344720Y-332700D01*
X1343440Y-333560D01*
X1341900Y-333860D01*
X1340360Y-333560D01*
X1339079Y-332700D01*
X1338200Y-331400D01*
X1337900Y-329860D01*
X1337900Y-281340D01*
X1338200Y-279820D01*
X1339079Y-278520D01*
X1456459Y-161119D01*
X1457780Y-160240D01*
X1459360Y-159960D01*
X1460900Y-160300D01*
X1462420Y-160980D01*
X1467780Y-162560D01*
X1473300Y-163460D01*
X1478899Y-163640D01*
X1484460Y-163100D01*
X1489920Y-161860D01*
X1495180Y-159920D01*
X1500140Y-157340D01*
X1504720Y-154140D01*
X1508860Y-150380D01*
X1512480Y-146120D01*
X1515540Y-141420D01*
X1517960Y-136380D01*
X1519720Y-131080D01*
X1520800Y-125580D01*
X1521160Y-120000D01*
X1520800Y-114420D01*
X1519720Y-108920D01*
X1517960Y-103620D01*
X1515540Y-98580D01*
X1512480Y-93880D01*
X1508860Y-89620D01*
X1504720Y-85860D01*
X1500140Y-82660D01*
X1495180Y-80079D01*
X1489920Y-78140D01*
X1484460Y-76900D01*
X1478899Y-76360D01*
X1473300Y-76540D01*
X1467780Y-77440D01*
X1462420Y-79040D01*
X1457300Y-81300D01*
X1452520Y-84200D01*
X1448140Y-87680D01*
X1444259Y-91700D01*
X1440920Y-96180D01*
X1438160Y-101060D01*
X1436060Y-106240D01*
X1434640Y-111660D01*
X1433940Y-117200D01*
X1433940Y-122800D01*
X1434640Y-128340D01*
X1436060Y-133760D01*
X1437260Y-136700D01*
X1437560Y-138240D01*
X1437240Y-139740D01*
X1436380Y-141040D01*
X1329019Y-248400D01*
X1327740Y-249259D01*
X1326200Y-249560D01*
X1324660Y-249259D01*
X1323380Y-248400D01*
X1322500Y-247100D01*
X1322200Y-245560D01*
X1322200Y-197040D01*
X1322500Y-195520D01*
X1323380Y-194220D01*
X1356459Y-161119D01*
X1357780Y-160240D01*
X1359360Y-159960D01*
X1360900Y-160300D01*
X1362420Y-160980D01*
X1367780Y-162560D01*
X1373300Y-163460D01*
X1378899Y-163640D01*
X1384460Y-163100D01*
X1389920Y-161860D01*
X1395180Y-159920D01*
X1400140Y-157340D01*
X1404720Y-154140D01*
X1408860Y-150380D01*
X1412480Y-146120D01*
X1415540Y-141420D01*
X1417960Y-136380D01*
X1419720Y-131080D01*
X1420800Y-125580D01*
X1421160Y-120000D01*
X1420800Y-114420D01*
X1419720Y-108920D01*
X1417960Y-103620D01*
X1415540Y-98580D01*
X1412480Y-93880D01*
X1408860Y-89620D01*
X1404720Y-85860D01*
X1400140Y-82660D01*
X1395180Y-80079D01*
X1389920Y-78140D01*
X1384460Y-76900D01*
X1378899Y-76360D01*
X1373300Y-76540D01*
X1367780Y-77440D01*
X1362420Y-79040D01*
X1357300Y-81300D01*
X1352520Y-84200D01*
X1348140Y-87680D01*
X1344259Y-91700D01*
X1340920Y-96180D01*
X1338160Y-101060D01*
X1336060Y-106240D01*
X1334640Y-111660D01*
X1333940Y-117200D01*
X1333940Y-122800D01*
X1334640Y-128340D01*
X1336060Y-133760D01*
X1337260Y-136700D01*
X1337560Y-138240D01*
X1337240Y-139740D01*
X1336380Y-141040D01*
X1313220Y-164200D01*
X1311940Y-165060D01*
X1310400Y-165360D01*
X1308860Y-165060D01*
X1307580Y-164200D01*
X1306699Y-162900D01*
X1306399Y-161360D01*
X1306399Y-154380D01*
X1306740Y-152760D01*
X1307720Y-151420D01*
X1308860Y-150380D01*
X1312480Y-146120D01*
X1315540Y-141420D01*
X1317960Y-136380D01*
X1319720Y-131080D01*
X1320800Y-125580D01*
X1321160Y-120000D01*
X1320800Y-114420D01*
X1319720Y-108920D01*
X1317960Y-103620D01*
X1315540Y-98580D01*
X1312480Y-93880D01*
X1308860Y-89620D01*
X1304720Y-85860D01*
X1300140Y-82660D01*
X1295180Y-80079D01*
X1289920Y-78140D01*
X1284460Y-76900D01*
X1278900Y-76360D01*
X1273300Y-76540D01*
X1267780Y-77440D01*
X1262420Y-79040D01*
X1257300Y-81300D01*
X1252520Y-84200D01*
X1248140Y-87680D01*
X1244260Y-91700D01*
X1240920Y-96180D01*
X1238160Y-101060D01*
X1236060Y-106240D01*
X1234640Y-111660D01*
X1233940Y-117200D01*
X1233940Y-122800D01*
X1234640Y-128340D01*
X1236060Y-133760D01*
X1238160Y-138940D01*
X1240920Y-143820D01*
X1244260Y-148300D01*
X1248140Y-152320D01*
X1252520Y-155800D01*
X1257300Y-158700D01*
X1262420Y-160980D01*
X1267780Y-162560D01*
X1273300Y-163460D01*
X1274120Y-163480D01*
X1275620Y-163820D01*
X1276880Y-164700D01*
X1277700Y-165980D01*
X1278000Y-167480D01*
X1278000Y-536800D01*
X1277700Y-538340D01*
X1276820Y-539620D01*
X1275540Y-540500D01*
X1274000Y-540800D01*
X1272460Y-540500D01*
X1271180Y-539620D01*
X1260880Y-529340D01*
X1260020Y-528040D01*
X1259720Y-526520D01*
X1259720Y-512100D01*
X1259440Y-509600D01*
X1258680Y-507460D01*
X1257460Y-505520D01*
X1255860Y-503920D01*
X1253920Y-502700D01*
X1251780Y-501960D01*
X1249280Y-501680D01*
X1218640Y-501680D01*
X1216140Y-501960D01*
X1213820Y-502760D01*
X1212500Y-502980D01*
X1211180Y-502760D01*
X1208860Y-501960D01*
X1206360Y-501680D01*
X1201320Y-501680D01*
X1201320Y-514680D01*
X1204200Y-514680D01*
X1205740Y-514980D01*
X1207040Y-515860D01*
X1207900Y-517160D01*
X1208200Y-518680D01*
X1208200Y-526320D01*
X1207900Y-527840D01*
X1207040Y-529140D01*
X1205740Y-530020D01*
X1204200Y-530320D01*
X1201320Y-530320D01*
X1201320Y-541800D01*
X1201020Y-543340D01*
X1200140Y-544620D01*
X1198840Y-545500D01*
X1197320Y-545800D01*
X1184760Y-545800D01*
X1183240Y-545500D01*
X1181940Y-544620D01*
X1181060Y-543340D01*
X1180760Y-541800D01*
X1180760Y-530320D01*
X1165280Y-530320D01*
X1165280Y-532900D01*
X1165560Y-535400D01*
X1166320Y-537540D01*
X1167660Y-539680D01*
X1168240Y-541260D01*
X1168100Y-542960D01*
X1167280Y-544440D01*
X1165920Y-545440D01*
X1164280Y-545800D01*
X687540Y-545800D01*
X686000Y-545500D01*
X684720Y-544620D01*
X655380Y-515280D01*
X654500Y-514000D01*
X654200Y-512460D01*
X654200Y-461220D01*
X654500Y-459680D01*
X655380Y-458380D01*
X657000Y-456760D01*
X659220Y-453600D01*
X660840Y-450080D01*
X661840Y-446360D01*
X662180Y-442500D01*
X661840Y-438640D01*
X660840Y-434920D01*
X659220Y-431400D01*
X657000Y-428240D01*
X654260Y-425500D01*
X651100Y-423280D01*
X647580Y-421659D01*
X643860Y-420660D01*
X640000Y-420319D01*
X636140Y-420660D01*
X632420Y-421659D01*
X628900Y-423280D01*
X625740Y-425500D01*
X623000Y-428240D01*
X620780Y-431400D01*
X619160Y-434920D01*
X618160Y-438640D01*
X617820Y-442500D01*
X618160Y-446360D01*
X619160Y-450080D01*
X620780Y-453600D01*
X623000Y-456760D01*
X624620Y-458380D01*
X625500Y-459680D01*
X625800Y-461220D01*
X625800Y-519799D01*
X626140Y-522939D01*
X627040Y-525760D01*
X628560Y-528380D01*
X630080Y-530160D01*
X664580Y-564680D01*
X665460Y-565960D01*
X665759Y-567500D01*
X665460Y-569040D01*
X664580Y-570320D01*
X627600Y-607320D01*
X625600Y-609780D01*
X624260Y-612420D01*
X623480Y-615340D01*
X623300Y-617660D01*
X623300Y-948780D01*
X623000Y-950320D01*
X622120Y-951620D01*
X620500Y-953240D01*
X618280Y-956400D01*
X616660Y-959920D01*
X615660Y-963640D01*
X615320Y-967500D01*
X615660Y-971360D01*
X616660Y-975080D01*
X618280Y-978600D01*
X620500Y-981760D01*
X623240Y-984500D01*
X626400Y-986720D01*
X629920Y-988340D01*
X633640Y-989340D01*
X637500Y-989680D01*
X641360Y-989340D01*
X646660Y-987960D01*
X648240Y-988220D01*
X649580Y-989080D01*
X650480Y-990400D01*
X650800Y-991960D01*
X650800Y-1067460D01*
X650500Y-1069000D01*
X649620Y-1070280D01*
X510100Y-1209820D01*
X508100Y-1212280D01*
X506760Y-1214920D01*
X505980Y-1217840D01*
X505800Y-1220160D01*
X505800Y-1516279D01*
X505500Y-1517820D01*
X504620Y-1519120D01*
X503000Y-1520740D01*
X500780Y-1523899D01*
X499159Y-1527420D01*
X498160Y-1531140D01*
X497819Y-1535000D01*
X498160Y-1538860D01*
X499159Y-1542580D01*
X500780Y-1546100D01*
X503000Y-1549259D01*
X505740Y-1552000D01*
X508900Y-1554220D01*
X512420Y-1555840D01*
X516140Y-1556840D01*
X520000Y-1557180D01*
X523860Y-1556840D01*
X527580Y-1555840D01*
X530100Y-1554680D01*
X531660Y-1554300D01*
X533240Y-1554560D01*
X534580Y-1555420D01*
X535480Y-1556740D01*
X535800Y-1558300D01*
X535800Y-2022300D01*
X536140Y-2025440D01*
X537040Y-2028260D01*
X538560Y-2030880D01*
X540080Y-2032660D01*
X616660Y-2109240D01*
X617600Y-2110700D01*
X618160Y-2116360D01*
X619160Y-2120080D01*
X620780Y-2123600D01*
X623000Y-2126760D01*
X625740Y-2129500D01*
X628900Y-2131720D01*
X632420Y-2133340D01*
X636140Y-2134340D01*
G37*
G36*
X421520Y-2084340D02*
G01*
X427600Y-2083800D01*
X433579Y-2082540D01*
X439360Y-2080600D01*
X444880Y-2077960D01*
X450040Y-2074700D01*
X454780Y-2070860D01*
X459040Y-2066480D01*
X462740Y-2061620D01*
X465840Y-2056380D01*
X468300Y-2050780D01*
X470100Y-2044940D01*
X471180Y-2038940D01*
X471540Y-2032840D01*
X471180Y-2026740D01*
X470100Y-2020740D01*
X468300Y-2014900D01*
X465840Y-2009300D01*
X462740Y-2004060D01*
X459040Y-1999199D01*
X454780Y-1994820D01*
X450040Y-1990980D01*
X444880Y-1987720D01*
X439360Y-1985080D01*
X433579Y-1983140D01*
X427600Y-1981879D01*
X421520Y-1981339D01*
X415420Y-1981519D01*
X409380Y-1982420D01*
X403500Y-1984019D01*
X397840Y-1986320D01*
X392500Y-1989259D01*
X387540Y-1992820D01*
X383020Y-1996940D01*
X379040Y-2001579D01*
X375620Y-2006639D01*
X372840Y-2012060D01*
X370720Y-2017780D01*
X369280Y-2023720D01*
X368560Y-2029780D01*
X368560Y-2035900D01*
X369280Y-2041960D01*
X370720Y-2047900D01*
X372840Y-2053620D01*
X375620Y-2059040D01*
X379040Y-2064100D01*
X383020Y-2068740D01*
X387540Y-2072860D01*
X392500Y-2076420D01*
X397840Y-2079360D01*
X403500Y-2081660D01*
X409380Y-2083260D01*
X415420Y-2084160D01*
G37*
G36*
X421520Y-1883680D02*
G01*
X427600Y-1883140D01*
X433579Y-1881879D01*
X439360Y-1879920D01*
X444880Y-1877300D01*
X450040Y-1874040D01*
X454780Y-1870200D01*
X459040Y-1865820D01*
X462740Y-1860960D01*
X465840Y-1855700D01*
X468300Y-1850120D01*
X470100Y-1844280D01*
X471180Y-1838260D01*
X471540Y-1832180D01*
X471180Y-1826080D01*
X470100Y-1820060D01*
X468300Y-1814220D01*
X465840Y-1808640D01*
X462740Y-1803380D01*
X459040Y-1798520D01*
X454780Y-1794139D01*
X450040Y-1790300D01*
X444880Y-1787040D01*
X439360Y-1784420D01*
X433579Y-1782460D01*
X427600Y-1781200D01*
X421520Y-1780660D01*
X415420Y-1780840D01*
X409380Y-1781740D01*
X403500Y-1783360D01*
X397840Y-1785640D01*
X392500Y-1788600D01*
X387540Y-1792160D01*
X383020Y-1796279D01*
X379040Y-1800900D01*
X375620Y-1805960D01*
X372840Y-1811399D01*
X370720Y-1817120D01*
X369280Y-1823060D01*
X368560Y-1829120D01*
X368560Y-1835220D01*
X369280Y-1841279D01*
X370720Y-1847220D01*
X372840Y-1852940D01*
X375620Y-1858380D01*
X379040Y-1863440D01*
X383020Y-1868060D01*
X387540Y-1872180D01*
X392500Y-1875740D01*
X397840Y-1878700D01*
X403500Y-1880980D01*
X409380Y-1882600D01*
X415420Y-1883500D01*
G37*
G36*
X964280Y-1868880D02*
G01*
X973860Y-1868880D01*
X976340Y-1868600D01*
X978500Y-1867840D01*
X980420Y-1866639D01*
X982039Y-1865020D01*
X983240Y-1863100D01*
X984000Y-1860940D01*
X984280Y-1858460D01*
X984280Y-1854300D01*
X964280Y-1854300D01*
G37*
G36*
X1620440Y-1868880D02*
G01*
X1630020Y-1868880D01*
X1632500Y-1868600D01*
X1634660Y-1867840D01*
X1636579Y-1866639D01*
X1638200Y-1865020D01*
X1639400Y-1863100D01*
X1640160Y-1860940D01*
X1640440Y-1858460D01*
X1640440Y-1854300D01*
X1620440Y-1854300D01*
G37*
G36*
X925080Y-1868880D02*
G01*
X934659Y-1868880D01*
X934659Y-1854300D01*
X910660Y-1854300D01*
X909140Y-1853980D01*
X907840Y-1853120D01*
X906960Y-1851819D01*
X906660Y-1850300D01*
X906660Y-1846699D01*
X896660Y-1846699D01*
X896660Y-1862340D01*
X902440Y-1862340D01*
X904920Y-1862060D01*
X907060Y-1861320D01*
X909380Y-1859860D01*
X910699Y-1859319D01*
X912140Y-1859300D01*
X913480Y-1859760D01*
X914580Y-1860680D01*
X915280Y-1861920D01*
X915699Y-1863100D01*
X916900Y-1865020D01*
X918520Y-1866639D01*
X920440Y-1867840D01*
X922600Y-1868600D01*
G37*
G36*
X1581260Y-1868880D02*
G01*
X1590820Y-1868880D01*
X1590820Y-1854300D01*
X1566819Y-1854300D01*
X1565300Y-1853980D01*
X1564000Y-1853120D01*
X1563140Y-1851819D01*
X1562820Y-1850300D01*
X1562820Y-1846699D01*
X1551660Y-1846699D01*
X1551660Y-1862340D01*
X1557440Y-1862340D01*
X1559920Y-1862060D01*
X1562060Y-1861320D01*
X1564000Y-1860100D01*
X1564540Y-1859560D01*
X1565880Y-1858680D01*
X1567460Y-1858380D01*
X1569019Y-1858740D01*
X1570320Y-1859680D01*
X1571140Y-1861060D01*
X1571860Y-1863100D01*
X1573080Y-1865020D01*
X1574680Y-1866639D01*
X1576620Y-1867840D01*
X1578760Y-1868600D01*
G37*
G36*
X868860Y-1862340D02*
G01*
X874640Y-1862340D01*
X874640Y-1846699D01*
X858439Y-1846699D01*
X858439Y-1851920D01*
X858720Y-1854420D01*
X859479Y-1856560D01*
X860680Y-1858500D01*
X862300Y-1860100D01*
X864220Y-1861320D01*
X866380Y-1862060D01*
G37*
G36*
X1523860Y-1862340D02*
G01*
X1529640Y-1862340D01*
X1529640Y-1846699D01*
X1513440Y-1846699D01*
X1513440Y-1851920D01*
X1513720Y-1854420D01*
X1514480Y-1856560D01*
X1515680Y-1858500D01*
X1517300Y-1860100D01*
X1519220Y-1861320D01*
X1521380Y-1862060D01*
G37*
G36*
X1620440Y-1835520D02*
G01*
X1640440Y-1835520D01*
X1640440Y-1831339D01*
X1640160Y-1828860D01*
X1639400Y-1826699D01*
X1638200Y-1824780D01*
X1636579Y-1823160D01*
X1634660Y-1821960D01*
X1632500Y-1821200D01*
X1630020Y-1820920D01*
X1620440Y-1820920D01*
G37*
G36*
X964280Y-1835520D02*
G01*
X984280Y-1835520D01*
X984280Y-1831339D01*
X984000Y-1828860D01*
X983240Y-1826699D01*
X982039Y-1824780D01*
X980420Y-1823160D01*
X978500Y-1821960D01*
X976340Y-1821200D01*
X973860Y-1820920D01*
X964280Y-1820920D01*
G37*
G36*
X1575860Y-1835520D02*
G01*
X1590820Y-1835520D01*
X1590820Y-1820920D01*
X1581260Y-1820920D01*
X1578760Y-1821200D01*
X1576620Y-1821960D01*
X1573440Y-1824000D01*
X1572000Y-1824340D01*
X1570520Y-1824120D01*
X1569240Y-1823380D01*
X1568320Y-1822220D01*
X1567880Y-1820800D01*
X1567580Y-1818140D01*
X1566819Y-1815980D01*
X1565600Y-1814060D01*
X1564000Y-1812440D01*
X1562060Y-1811220D01*
X1559680Y-1810400D01*
X1558280Y-1809540D01*
X1557340Y-1808220D01*
X1557000Y-1806620D01*
X1557340Y-1805020D01*
X1558280Y-1803680D01*
X1559680Y-1802840D01*
X1562060Y-1802000D01*
X1564000Y-1800800D01*
X1565600Y-1799180D01*
X1566819Y-1797260D01*
X1567580Y-1795100D01*
X1567700Y-1794019D01*
X1568140Y-1792600D01*
X1569060Y-1791440D01*
X1570340Y-1790700D01*
X1571819Y-1790480D01*
X1573260Y-1790820D01*
X1574680Y-1791840D01*
X1576620Y-1793040D01*
X1578760Y-1793800D01*
X1581260Y-1794079D01*
X1630020Y-1794079D01*
X1632500Y-1793800D01*
X1634660Y-1793040D01*
X1636579Y-1791840D01*
X1638200Y-1790220D01*
X1639400Y-1788300D01*
X1640160Y-1786140D01*
X1640440Y-1783660D01*
X1640440Y-1756540D01*
X1640160Y-1754060D01*
X1639400Y-1751900D01*
X1638200Y-1749980D01*
X1636579Y-1748360D01*
X1634660Y-1747160D01*
X1632500Y-1746399D01*
X1630020Y-1746120D01*
X1608340Y-1746120D01*
X1606800Y-1745820D01*
X1605500Y-1744940D01*
X1559520Y-1698959D01*
X1558640Y-1697660D01*
X1558340Y-1696120D01*
X1558340Y-1661519D01*
X1558680Y-1659920D01*
X1559620Y-1658580D01*
X1561020Y-1657740D01*
X1562060Y-1657380D01*
X1564000Y-1656160D01*
X1565600Y-1654560D01*
X1566819Y-1652620D01*
X1567580Y-1650480D01*
X1567860Y-1647980D01*
X1567860Y-1616680D01*
X1567580Y-1614199D01*
X1566819Y-1612040D01*
X1565600Y-1610120D01*
X1564000Y-1608500D01*
X1562060Y-1607300D01*
X1559680Y-1606459D01*
X1558280Y-1605620D01*
X1557340Y-1604280D01*
X1557000Y-1602680D01*
X1557340Y-1601080D01*
X1558280Y-1599740D01*
X1559680Y-1598899D01*
X1562060Y-1598060D01*
X1564000Y-1596860D01*
X1565600Y-1595240D01*
X1566819Y-1593320D01*
X1567580Y-1591160D01*
X1567860Y-1588680D01*
X1567860Y-1572500D01*
X1568160Y-1570980D01*
X1569019Y-1569680D01*
X1570860Y-1567840D01*
X1572160Y-1566980D01*
X1573680Y-1566680D01*
X1575220Y-1566980D01*
X1576519Y-1567840D01*
X1577380Y-1569139D01*
X1577680Y-1570680D01*
X1577680Y-1574300D01*
X1577960Y-1576800D01*
X1578720Y-1578940D01*
X1579940Y-1580880D01*
X1581540Y-1582480D01*
X1583480Y-1583700D01*
X1585620Y-1584460D01*
X1588120Y-1584740D01*
X1705780Y-1584740D01*
X1708260Y-1584460D01*
X1710420Y-1583700D01*
X1712340Y-1582480D01*
X1713959Y-1580880D01*
X1715160Y-1578940D01*
X1715920Y-1576800D01*
X1716200Y-1574300D01*
X1716200Y-1515700D01*
X1715620Y-1511519D01*
X1715980Y-1510040D01*
X1716860Y-1508800D01*
X1718140Y-1507980D01*
X1719620Y-1507700D01*
X1944540Y-1507700D01*
X1946080Y-1508000D01*
X1947380Y-1508880D01*
X1970220Y-1531720D01*
X1971080Y-1533020D01*
X1971380Y-1534540D01*
X1971380Y-1574300D01*
X1971660Y-1576800D01*
X1972420Y-1578940D01*
X1973640Y-1580880D01*
X1975240Y-1582480D01*
X1977180Y-1583700D01*
X1979319Y-1584460D01*
X1981819Y-1584740D01*
X2099480Y-1584740D01*
X2101960Y-1584460D01*
X2104120Y-1583700D01*
X2106040Y-1582480D01*
X2107660Y-1580880D01*
X2108860Y-1578940D01*
X2109620Y-1576800D01*
X2109900Y-1574300D01*
X2109900Y-1515700D01*
X2109620Y-1513220D01*
X2108860Y-1511060D01*
X2107660Y-1509139D01*
X2106040Y-1507520D01*
X2104120Y-1506320D01*
X2101960Y-1505560D01*
X2099480Y-1505280D01*
X1988440Y-1505280D01*
X1986900Y-1504980D01*
X1985600Y-1504100D01*
X1963380Y-1481900D01*
X1960940Y-1479880D01*
X1958300Y-1478480D01*
X1955460Y-1477620D01*
X1952300Y-1477300D01*
X1527700Y-1477300D01*
X1524540Y-1477620D01*
X1521699Y-1478480D01*
X1519060Y-1479880D01*
X1516620Y-1481900D01*
X1486900Y-1511620D01*
X1484880Y-1514060D01*
X1483480Y-1516699D01*
X1482620Y-1519540D01*
X1482300Y-1522700D01*
X1482300Y-1733600D01*
X1482600Y-1736740D01*
X1483460Y-1739600D01*
X1484860Y-1742220D01*
X1486879Y-1744680D01*
X1512280Y-1770120D01*
X1513140Y-1771420D01*
X1513440Y-1772960D01*
X1513440Y-1792620D01*
X1513720Y-1795100D01*
X1514480Y-1797260D01*
X1515680Y-1799180D01*
X1517300Y-1800800D01*
X1519220Y-1802000D01*
X1521620Y-1802840D01*
X1523020Y-1803680D01*
X1523959Y-1805020D01*
X1524300Y-1806620D01*
X1523959Y-1808220D01*
X1523020Y-1809540D01*
X1521620Y-1810400D01*
X1519220Y-1811220D01*
X1517300Y-1812440D01*
X1515680Y-1814060D01*
X1514480Y-1815980D01*
X1513720Y-1818140D01*
X1513440Y-1820620D01*
X1513440Y-1825840D01*
X1529640Y-1825840D01*
X1529640Y-1807040D01*
X1529940Y-1805500D01*
X1530820Y-1804199D01*
X1532120Y-1803340D01*
X1533640Y-1803040D01*
X1547660Y-1803040D01*
X1549180Y-1803340D01*
X1550480Y-1804199D01*
X1551339Y-1805500D01*
X1551660Y-1807040D01*
X1551660Y-1825840D01*
X1571860Y-1825840D01*
X1573380Y-1826140D01*
X1574680Y-1827000D01*
X1575560Y-1828300D01*
X1575860Y-1829840D01*
G37*
G36*
X920860Y-1835520D02*
G01*
X934659Y-1835520D01*
X934659Y-1820920D01*
X925080Y-1820920D01*
X922600Y-1821200D01*
X920440Y-1821960D01*
X918880Y-1822940D01*
X917380Y-1823500D01*
X915780Y-1823420D01*
X914340Y-1822740D01*
X913280Y-1821519D01*
X912780Y-1820000D01*
X912580Y-1818140D01*
X911820Y-1815980D01*
X910600Y-1814060D01*
X909000Y-1812440D01*
X907060Y-1811220D01*
X904680Y-1810400D01*
X903280Y-1809540D01*
X902340Y-1808220D01*
X902000Y-1806620D01*
X902340Y-1805020D01*
X903280Y-1803680D01*
X904680Y-1802840D01*
X907060Y-1802000D01*
X909000Y-1800800D01*
X910600Y-1799180D01*
X911820Y-1797260D01*
X913100Y-1793360D01*
X914160Y-1792160D01*
X915600Y-1791459D01*
X917200Y-1791380D01*
X918700Y-1791940D01*
X920440Y-1793040D01*
X922600Y-1793800D01*
X925080Y-1794079D01*
X973860Y-1794079D01*
X976340Y-1793800D01*
X978500Y-1793040D01*
X980420Y-1791840D01*
X982039Y-1790220D01*
X983240Y-1788300D01*
X984000Y-1786140D01*
X984280Y-1783660D01*
X984280Y-1756540D01*
X984000Y-1754060D01*
X983240Y-1751900D01*
X982039Y-1749980D01*
X980420Y-1748360D01*
X978500Y-1747160D01*
X976340Y-1746399D01*
X973860Y-1746120D01*
X952159Y-1746120D01*
X950639Y-1745820D01*
X949340Y-1744940D01*
X904520Y-1700140D01*
X903660Y-1698839D01*
X903360Y-1697300D01*
X903360Y-1661699D01*
X903680Y-1660100D01*
X904620Y-1658779D01*
X906020Y-1657920D01*
X907060Y-1657560D01*
X909000Y-1656360D01*
X910600Y-1654740D01*
X911820Y-1652820D01*
X912580Y-1650660D01*
X912860Y-1648180D01*
X912860Y-1616879D01*
X912580Y-1614379D01*
X911820Y-1612240D01*
X910600Y-1610300D01*
X909000Y-1608700D01*
X907060Y-1607480D01*
X904680Y-1606639D01*
X903280Y-1605800D01*
X902340Y-1604460D01*
X902000Y-1602860D01*
X902340Y-1601260D01*
X903280Y-1599940D01*
X904680Y-1599100D01*
X907060Y-1598260D01*
X909000Y-1597040D01*
X910600Y-1595440D01*
X911820Y-1593500D01*
X912580Y-1591360D01*
X912860Y-1588860D01*
X912860Y-1572700D01*
X913160Y-1571160D01*
X914020Y-1569860D01*
X917060Y-1566819D01*
X918360Y-1565960D01*
X919900Y-1565660D01*
X921420Y-1565960D01*
X922720Y-1566819D01*
X923580Y-1568120D01*
X923900Y-1569660D01*
X923900Y-1574300D01*
X924180Y-1576800D01*
X924920Y-1578940D01*
X926140Y-1580880D01*
X927760Y-1582480D01*
X929680Y-1583700D01*
X931820Y-1584460D01*
X934320Y-1584740D01*
X1051980Y-1584740D01*
X1054460Y-1584460D01*
X1056620Y-1583700D01*
X1058540Y-1582480D01*
X1060160Y-1580880D01*
X1061380Y-1578940D01*
X1062120Y-1576800D01*
X1062400Y-1574300D01*
X1062400Y-1515700D01*
X1062120Y-1513240D01*
X1061160Y-1510560D01*
X1060920Y-1509060D01*
X1061280Y-1507560D01*
X1062140Y-1506320D01*
X1063420Y-1505500D01*
X1064920Y-1505200D01*
X1287040Y-1505200D01*
X1288580Y-1505500D01*
X1289880Y-1506380D01*
X1316420Y-1532920D01*
X1317280Y-1534220D01*
X1317600Y-1535740D01*
X1317600Y-1574300D01*
X1317880Y-1576800D01*
X1318620Y-1578940D01*
X1319840Y-1580880D01*
X1321459Y-1582480D01*
X1323380Y-1583700D01*
X1325520Y-1584460D01*
X1328020Y-1584740D01*
X1445680Y-1584740D01*
X1448160Y-1584460D01*
X1450320Y-1583700D01*
X1452240Y-1582480D01*
X1453860Y-1580880D01*
X1455080Y-1578940D01*
X1455820Y-1576800D01*
X1456100Y-1574300D01*
X1456100Y-1515700D01*
X1455820Y-1513220D01*
X1455080Y-1511060D01*
X1453860Y-1509139D01*
X1452240Y-1507520D01*
X1450320Y-1506320D01*
X1448160Y-1505560D01*
X1445680Y-1505280D01*
X1333440Y-1505280D01*
X1331900Y-1504980D01*
X1330600Y-1504100D01*
X1305880Y-1479400D01*
X1303440Y-1477380D01*
X1300800Y-1475980D01*
X1297960Y-1475120D01*
X1294800Y-1474800D01*
X870200Y-1474800D01*
X867039Y-1475120D01*
X864200Y-1475980D01*
X861560Y-1477380D01*
X859120Y-1479400D01*
X826900Y-1511620D01*
X824880Y-1514060D01*
X823480Y-1516699D01*
X822620Y-1519540D01*
X822300Y-1522700D01*
X822300Y-1728600D01*
X822600Y-1731740D01*
X823460Y-1734600D01*
X824860Y-1737220D01*
X826880Y-1739680D01*
X857280Y-1770120D01*
X858139Y-1771420D01*
X858439Y-1772960D01*
X858439Y-1792620D01*
X858720Y-1795100D01*
X859479Y-1797260D01*
X860680Y-1799180D01*
X862300Y-1800800D01*
X864220Y-1802000D01*
X866620Y-1802840D01*
X868020Y-1803680D01*
X868960Y-1805020D01*
X869300Y-1806620D01*
X868960Y-1808220D01*
X868020Y-1809540D01*
X866620Y-1810400D01*
X864220Y-1811220D01*
X862300Y-1812440D01*
X860680Y-1814060D01*
X859479Y-1815980D01*
X858720Y-1818140D01*
X858439Y-1820620D01*
X858439Y-1825840D01*
X874640Y-1825840D01*
X874640Y-1807040D01*
X874940Y-1805500D01*
X875819Y-1804199D01*
X877120Y-1803340D01*
X878640Y-1803040D01*
X892660Y-1803040D01*
X894180Y-1803340D01*
X895480Y-1804199D01*
X896340Y-1805500D01*
X896660Y-1807040D01*
X896660Y-1825840D01*
X916860Y-1825840D01*
X918379Y-1826140D01*
X919680Y-1827000D01*
X920560Y-1828300D01*
X920860Y-1829840D01*
G37*
G36*
X1981819Y-1684740D02*
G01*
X2099480Y-1684740D01*
X2101960Y-1684460D01*
X2104120Y-1683700D01*
X2106040Y-1682480D01*
X2107660Y-1680880D01*
X2108860Y-1678940D01*
X2109620Y-1676800D01*
X2109900Y-1674300D01*
X2109900Y-1615700D01*
X2109620Y-1613220D01*
X2108860Y-1611060D01*
X2107660Y-1609139D01*
X2106040Y-1607520D01*
X2104120Y-1606320D01*
X2101960Y-1605560D01*
X2099480Y-1605280D01*
X1981819Y-1605280D01*
X1979319Y-1605560D01*
X1977180Y-1606320D01*
X1975240Y-1607520D01*
X1973640Y-1609139D01*
X1973120Y-1609960D01*
X1972160Y-1611000D01*
X1970880Y-1611660D01*
X1969460Y-1611819D01*
X1968080Y-1611459D01*
X1966900Y-1610660D01*
X1964259Y-1608000D01*
X1961100Y-1605780D01*
X1957580Y-1604160D01*
X1953860Y-1603160D01*
X1950000Y-1602820D01*
X1946140Y-1603160D01*
X1942420Y-1604160D01*
X1938899Y-1605780D01*
X1935740Y-1608000D01*
X1933000Y-1610740D01*
X1930780Y-1613899D01*
X1929160Y-1617420D01*
X1928160Y-1621140D01*
X1927820Y-1625000D01*
X1928160Y-1628860D01*
X1929160Y-1632580D01*
X1930780Y-1636100D01*
X1933000Y-1639259D01*
X1935740Y-1642000D01*
X1938899Y-1644220D01*
X1942420Y-1645840D01*
X1946140Y-1646840D01*
X1951800Y-1647400D01*
X1953260Y-1648340D01*
X1959820Y-1654900D01*
X1962280Y-1656900D01*
X1964980Y-1658260D01*
X1967120Y-1658899D01*
X1968020Y-1659040D01*
X1969340Y-1659500D01*
X1970440Y-1660400D01*
X1971140Y-1661620D01*
X1971380Y-1663000D01*
X1971380Y-1674300D01*
X1971660Y-1676800D01*
X1972420Y-1678940D01*
X1973640Y-1680880D01*
X1975240Y-1682480D01*
X1977180Y-1683700D01*
X1979319Y-1684460D01*
G37*
G36*
X1328020Y-1684740D02*
G01*
X1445680Y-1684740D01*
X1448160Y-1684460D01*
X1450320Y-1683700D01*
X1452240Y-1682480D01*
X1453860Y-1680880D01*
X1455080Y-1678940D01*
X1455820Y-1676800D01*
X1456100Y-1674300D01*
X1456100Y-1615700D01*
X1455820Y-1613220D01*
X1455080Y-1611060D01*
X1453860Y-1609139D01*
X1452240Y-1607520D01*
X1450320Y-1606320D01*
X1448160Y-1605560D01*
X1445680Y-1605280D01*
X1328020Y-1605280D01*
X1325520Y-1605560D01*
X1323380Y-1606320D01*
X1321459Y-1607520D01*
X1318560Y-1610600D01*
X1317120Y-1611240D01*
X1315560Y-1611279D01*
X1314100Y-1610720D01*
X1312960Y-1609640D01*
X1312000Y-1608240D01*
X1309259Y-1605500D01*
X1306100Y-1603280D01*
X1302580Y-1601660D01*
X1298860Y-1600660D01*
X1295000Y-1600320D01*
X1291140Y-1600660D01*
X1287420Y-1601660D01*
X1283899Y-1603280D01*
X1280740Y-1605500D01*
X1278000Y-1608240D01*
X1275780Y-1611399D01*
X1274160Y-1614920D01*
X1273160Y-1618640D01*
X1272820Y-1622500D01*
X1273160Y-1626360D01*
X1274160Y-1630080D01*
X1275780Y-1633600D01*
X1278000Y-1636759D01*
X1280740Y-1639500D01*
X1283899Y-1641720D01*
X1287420Y-1643340D01*
X1291140Y-1644340D01*
X1296800Y-1644900D01*
X1298260Y-1645840D01*
X1307320Y-1654900D01*
X1309780Y-1656900D01*
X1312480Y-1658260D01*
X1314720Y-1658940D01*
X1316220Y-1659740D01*
X1317240Y-1661100D01*
X1317600Y-1662760D01*
X1317600Y-1674300D01*
X1317880Y-1676800D01*
X1318620Y-1678940D01*
X1319840Y-1680880D01*
X1321459Y-1682480D01*
X1323380Y-1683700D01*
X1325520Y-1684460D01*
G37*
G36*
X421520Y-1529340D02*
G01*
X427600Y-1528800D01*
X433579Y-1527540D01*
X439360Y-1525600D01*
X444880Y-1522960D01*
X450040Y-1519700D01*
X454780Y-1515860D01*
X459040Y-1511480D01*
X462740Y-1506620D01*
X465840Y-1501380D01*
X468300Y-1495780D01*
X470100Y-1489940D01*
X471180Y-1483940D01*
X471540Y-1477840D01*
X471180Y-1471740D01*
X470100Y-1465740D01*
X468300Y-1459900D01*
X465840Y-1454300D01*
X462740Y-1449060D01*
X459040Y-1444199D01*
X454780Y-1439820D01*
X450040Y-1435980D01*
X444880Y-1432720D01*
X439360Y-1430080D01*
X433579Y-1428140D01*
X427600Y-1426879D01*
X421520Y-1426339D01*
X415420Y-1426519D01*
X409380Y-1427420D01*
X403500Y-1429019D01*
X397840Y-1431320D01*
X392500Y-1434259D01*
X387540Y-1437820D01*
X383020Y-1441940D01*
X379040Y-1446579D01*
X375620Y-1451639D01*
X372840Y-1457060D01*
X370720Y-1462780D01*
X369280Y-1468720D01*
X368560Y-1474780D01*
X368560Y-1480900D01*
X369280Y-1486960D01*
X370720Y-1492900D01*
X372840Y-1498620D01*
X375620Y-1504040D01*
X379040Y-1509100D01*
X383020Y-1513740D01*
X387540Y-1517860D01*
X392500Y-1521420D01*
X397840Y-1524360D01*
X403500Y-1526660D01*
X409380Y-1528260D01*
X415420Y-1529160D01*
G37*
G36*
X139040Y-1470520D02*
G01*
X139880Y-1470140D01*
X145000Y-1467040D01*
X149720Y-1463360D01*
X153940Y-1459120D01*
X157640Y-1454420D01*
X160740Y-1449300D01*
X161119Y-1448440D01*
X139040Y-1448440D01*
G37*
G36*
X94660Y-1470520D02*
G01*
X94660Y-1448440D01*
X72580Y-1448440D01*
X72960Y-1449300D01*
X76060Y-1454420D01*
X79740Y-1459120D01*
X83980Y-1463360D01*
X88699Y-1467040D01*
X93820Y-1470140D01*
G37*
G36*
X139040Y-1404079D02*
G01*
X161119Y-1404079D01*
X160740Y-1403220D01*
X157640Y-1398100D01*
X153940Y-1393400D01*
X149720Y-1389160D01*
X145000Y-1385480D01*
X139880Y-1382380D01*
X139040Y-1382000D01*
G37*
G36*
X72580Y-1404079D02*
G01*
X94660Y-1404079D01*
X94660Y-1382000D01*
X93820Y-1382380D01*
X88699Y-1385480D01*
X83980Y-1389160D01*
X79740Y-1393400D01*
X76060Y-1398100D01*
X72960Y-1403220D01*
G37*
G36*
X421520Y-1328680D02*
G01*
X427600Y-1328140D01*
X433579Y-1326879D01*
X439360Y-1324920D01*
X444880Y-1322300D01*
X450040Y-1319040D01*
X454780Y-1315200D01*
X459040Y-1310820D01*
X462740Y-1305960D01*
X465840Y-1300700D01*
X468300Y-1295120D01*
X470100Y-1289280D01*
X471180Y-1283260D01*
X471540Y-1277180D01*
X471180Y-1271080D01*
X470100Y-1265060D01*
X468300Y-1259220D01*
X465840Y-1253640D01*
X462740Y-1248380D01*
X459040Y-1243520D01*
X454780Y-1239140D01*
X450040Y-1235300D01*
X444880Y-1232040D01*
X439360Y-1229420D01*
X433579Y-1227460D01*
X427600Y-1226200D01*
X421520Y-1225660D01*
X415420Y-1225840D01*
X409380Y-1226740D01*
X403500Y-1228360D01*
X397840Y-1230640D01*
X392500Y-1233600D01*
X387540Y-1237160D01*
X383020Y-1241280D01*
X379040Y-1245900D01*
X375620Y-1250960D01*
X372840Y-1256400D01*
X370720Y-1262120D01*
X369280Y-1268060D01*
X368560Y-1274120D01*
X368560Y-1280220D01*
X369280Y-1286279D01*
X370720Y-1292220D01*
X372840Y-1297940D01*
X375620Y-1303380D01*
X379040Y-1308440D01*
X383020Y-1313060D01*
X387540Y-1317180D01*
X392500Y-1320740D01*
X397840Y-1323700D01*
X403500Y-1325980D01*
X409380Y-1327600D01*
X415420Y-1328500D01*
G37*
G36*
X2309500Y-1243660D02*
G01*
X2314640Y-1243660D01*
X2314640Y-1219240D01*
X2299080Y-1219240D01*
X2299080Y-1233240D01*
X2299360Y-1235720D01*
X2300100Y-1237880D01*
X2301320Y-1239800D01*
X2302920Y-1241420D01*
X2304860Y-1242640D01*
X2307000Y-1243380D01*
G37*
G36*
X1639580Y-1192080D02*
G01*
X1656140Y-1192080D01*
X1656140Y-1176500D01*
X1650000Y-1176500D01*
X1647520Y-1176780D01*
X1645360Y-1177520D01*
X1643440Y-1178740D01*
X1641819Y-1180360D01*
X1640620Y-1182280D01*
X1639860Y-1184440D01*
X1639580Y-1186920D01*
G37*
G36*
X1901360Y-1192080D02*
G01*
X1917920Y-1192080D01*
X1917920Y-1186920D01*
X1917640Y-1184440D01*
X1916879Y-1182280D01*
X1915680Y-1180360D01*
X1914060Y-1178740D01*
X1912140Y-1177520D01*
X1909980Y-1176780D01*
X1907500Y-1176500D01*
X1901360Y-1176500D01*
G37*
G36*
X1366879Y-1183460D02*
G01*
X1372660Y-1183460D01*
X1375140Y-1183180D01*
X1377300Y-1182420D01*
X1379220Y-1181220D01*
X1380840Y-1179600D01*
X1382040Y-1177680D01*
X1382800Y-1175520D01*
X1383080Y-1173040D01*
X1383080Y-1167820D01*
X1366879Y-1167820D01*
G37*
G36*
X1265460Y-1182440D02*
G01*
X1268060Y-1182440D01*
X1268060Y-1166960D01*
X1255040Y-1166960D01*
X1255040Y-1172020D01*
X1255320Y-1174500D01*
X1256080Y-1176660D01*
X1257280Y-1178580D01*
X1258900Y-1180200D01*
X1260820Y-1181400D01*
X1262980Y-1182160D01*
G37*
G36*
X1426180Y-1182440D02*
G01*
X1428779Y-1182440D01*
X1431260Y-1182160D01*
X1433420Y-1181400D01*
X1435340Y-1180200D01*
X1436960Y-1178580D01*
X1438160Y-1176660D01*
X1438920Y-1174500D01*
X1439199Y-1172020D01*
X1439199Y-1166960D01*
X1426180Y-1166960D01*
G37*
G36*
X1283680Y-1182440D02*
G01*
X1286279Y-1182440D01*
X1288760Y-1182160D01*
X1290920Y-1181400D01*
X1292840Y-1180200D01*
X1294460Y-1178580D01*
X1295660Y-1176660D01*
X1296420Y-1174500D01*
X1296699Y-1172020D01*
X1296699Y-1166960D01*
X1283680Y-1166960D01*
G37*
G36*
X1407960Y-1182440D02*
G01*
X1410560Y-1182440D01*
X1410560Y-1166960D01*
X1397540Y-1166960D01*
X1397540Y-1172020D01*
X1397820Y-1174500D01*
X1398580Y-1176660D01*
X1399780Y-1178580D01*
X1401399Y-1180200D01*
X1403320Y-1181400D01*
X1405480Y-1182160D01*
G37*
G36*
X2299080Y-1180760D02*
G01*
X2314640Y-1180760D01*
X2314640Y-1156340D01*
X2309500Y-1156340D01*
X2307000Y-1156620D01*
X2304860Y-1157360D01*
X2302920Y-1158580D01*
X2301320Y-1160200D01*
X2300100Y-1162120D01*
X2299360Y-1164280D01*
X2299080Y-1166760D01*
G37*
G36*
X1642920Y-1090480D02*
G01*
X1648080Y-1090480D01*
X1650560Y-1090200D01*
X1652720Y-1089440D01*
X1654640Y-1088240D01*
X1656260Y-1086620D01*
X1657480Y-1084700D01*
X1658220Y-1082540D01*
X1658500Y-1080060D01*
X1658500Y-1073920D01*
X1642920Y-1073920D01*
G37*
G36*
X2128520Y-1084840D02*
G01*
X2128520Y-1067420D01*
X2102920Y-1067420D01*
X2104160Y-1070020D01*
X2106680Y-1073700D01*
X2109720Y-1076980D01*
X2113200Y-1079760D01*
X2117080Y-1082000D01*
X2121240Y-1083620D01*
X2125580Y-1084620D01*
G37*
G36*
X2174860Y-1084840D02*
G01*
X2177800Y-1084620D01*
X2182140Y-1083620D01*
X2186300Y-1082000D01*
X2190180Y-1079760D01*
X2193660Y-1076980D01*
X2196700Y-1073700D01*
X2199220Y-1070020D01*
X2200460Y-1067420D01*
X2174860Y-1067420D01*
G37*
G36*
X2294860Y-1084620D02*
G01*
X2294860Y-1067420D01*
X2272200Y-1067420D01*
X2273440Y-1070020D01*
X2275960Y-1073720D01*
X2279000Y-1076980D01*
X2282500Y-1079760D01*
X2286360Y-1082000D01*
X2290520Y-1083640D01*
G37*
G36*
X973220Y-1080840D02*
G01*
X978259Y-1080840D01*
X978259Y-1067820D01*
X962780Y-1067820D01*
X962780Y-1070400D01*
X963060Y-1072900D01*
X963820Y-1075040D01*
X965040Y-1076980D01*
X966640Y-1078580D01*
X968580Y-1079800D01*
X970720Y-1080540D01*
G37*
G36*
X962780Y-1052180D02*
G01*
X978259Y-1052180D01*
X978259Y-1027820D01*
X962780Y-1027820D01*
X962780Y-1030400D01*
X963060Y-1032900D01*
X963820Y-1035040D01*
X966100Y-1038460D01*
X966400Y-1040000D01*
X966100Y-1041540D01*
X965040Y-1043020D01*
X963820Y-1044960D01*
X963060Y-1047099D01*
X962780Y-1049600D01*
G37*
G36*
X1642920Y-1051200D02*
G01*
X1658500Y-1051200D01*
X1658500Y-1045060D01*
X1658220Y-1042580D01*
X1657480Y-1040420D01*
X1656260Y-1038500D01*
X1654640Y-1036880D01*
X1652720Y-1035680D01*
X1650560Y-1034920D01*
X1648080Y-1034640D01*
X1642920Y-1034640D01*
G37*
G36*
X2272200Y-1042740D02*
G01*
X2294860Y-1042740D01*
X2294860Y-1025540D01*
X2290520Y-1026540D01*
X2286360Y-1028160D01*
X2282500Y-1030400D01*
X2279000Y-1033180D01*
X2275960Y-1036460D01*
X2273440Y-1040140D01*
G37*
G36*
X2102920Y-1042740D02*
G01*
X2128520Y-1042740D01*
X2128520Y-1041000D01*
X2113640Y-1041000D01*
X2112100Y-1040699D01*
X2110820Y-1039820D01*
X2109940Y-1038520D01*
X2109640Y-1037000D01*
X2109640Y-1019400D01*
X2089139Y-1019400D01*
X2089139Y-1022580D01*
X2089420Y-1025060D01*
X2090180Y-1027220D01*
X2091380Y-1029140D01*
X2093000Y-1030759D01*
X2094920Y-1031960D01*
X2097080Y-1032720D01*
X2099560Y-1033000D01*
X2101460Y-1033000D01*
X2103140Y-1033360D01*
X2104520Y-1034419D01*
X2105320Y-1035939D01*
X2105420Y-1037660D01*
X2104780Y-1039260D01*
X2104160Y-1040140D01*
G37*
G36*
X2007100Y-1033379D02*
G01*
X2009680Y-1033379D01*
X2009680Y-1020100D01*
X1996680Y-1020100D01*
X1996680Y-1022960D01*
X1996960Y-1025440D01*
X1997700Y-1027580D01*
X1998920Y-1029520D01*
X2000520Y-1031120D01*
X2002460Y-1032340D01*
X2004600Y-1033100D01*
G37*
G36*
X1642920Y-1020360D02*
G01*
X1648080Y-1020360D01*
X1650560Y-1020080D01*
X1652720Y-1019320D01*
X1654640Y-1018120D01*
X1656260Y-1016500D01*
X1657480Y-1014580D01*
X1658220Y-1012420D01*
X1658500Y-1009940D01*
X1658500Y-1003800D01*
X1642920Y-1003800D01*
G37*
G36*
X962780Y-1012180D02*
G01*
X978259Y-1012180D01*
X978259Y-999180D01*
X973220Y-999180D01*
X970720Y-999460D01*
X968580Y-1000200D01*
X966640Y-1001420D01*
X965040Y-1003020D01*
X963820Y-1004960D01*
X963060Y-1007099D01*
X962780Y-1009599D01*
G37*
G36*
X973220Y-990840D02*
G01*
X978259Y-990840D01*
X978259Y-977820D01*
X962780Y-977820D01*
X962780Y-980400D01*
X963060Y-982900D01*
X963820Y-985040D01*
X965040Y-986979D01*
X966640Y-988580D01*
X968580Y-989800D01*
X970720Y-990540D01*
G37*
G36*
X1642920Y-981080D02*
G01*
X1658500Y-981080D01*
X1658500Y-974940D01*
X1658220Y-972460D01*
X1657480Y-970300D01*
X1656260Y-968379D01*
X1654640Y-966760D01*
X1652720Y-965560D01*
X1650560Y-964800D01*
X1648080Y-964520D01*
X1642920Y-964520D01*
G37*
G36*
X421520Y-974340D02*
G01*
X427600Y-973800D01*
X433579Y-972540D01*
X439360Y-970600D01*
X444880Y-967960D01*
X450040Y-964700D01*
X454780Y-960860D01*
X459040Y-956480D01*
X462740Y-951620D01*
X465840Y-946380D01*
X468300Y-940780D01*
X470100Y-934940D01*
X471180Y-928940D01*
X471540Y-922840D01*
X471180Y-916740D01*
X470100Y-910740D01*
X468300Y-904900D01*
X465840Y-899300D01*
X462740Y-894060D01*
X459040Y-889200D01*
X454780Y-884820D01*
X450040Y-880980D01*
X444880Y-877720D01*
X439360Y-875080D01*
X433579Y-873139D01*
X427600Y-871880D01*
X421520Y-871340D01*
X415420Y-871520D01*
X409380Y-872420D01*
X403500Y-874020D01*
X397840Y-876320D01*
X392500Y-879260D01*
X387540Y-882820D01*
X383020Y-886940D01*
X379040Y-891580D01*
X375620Y-896640D01*
X372840Y-902060D01*
X370720Y-907780D01*
X369280Y-913720D01*
X368560Y-919780D01*
X368560Y-925900D01*
X369280Y-931960D01*
X370720Y-937900D01*
X372840Y-943620D01*
X375620Y-949040D01*
X379040Y-954100D01*
X383020Y-958740D01*
X387540Y-962860D01*
X392500Y-966420D01*
X397840Y-969360D01*
X403500Y-971660D01*
X409380Y-973259D01*
X415420Y-974160D01*
G37*
G36*
X962780Y-962180D02*
G01*
X978259Y-962180D01*
X978259Y-949180D01*
X973220Y-949180D01*
X970720Y-949460D01*
X968580Y-950200D01*
X966640Y-951420D01*
X965040Y-953020D01*
X963820Y-954960D01*
X963060Y-957099D01*
X962780Y-959599D01*
G37*
G36*
X951600Y-939380D02*
G01*
X960680Y-939380D01*
X960680Y-917900D01*
X941180Y-917900D01*
X941180Y-928940D01*
X941460Y-931440D01*
X942200Y-933580D01*
X943420Y-935520D01*
X945020Y-937120D01*
X946960Y-938340D01*
X949100Y-939100D01*
G37*
G36*
X941180Y-885340D02*
G01*
X960680Y-885340D01*
X960680Y-863860D01*
X951600Y-863860D01*
X949100Y-864140D01*
X946960Y-864880D01*
X945020Y-866100D01*
X943420Y-867720D01*
X942200Y-869640D01*
X941460Y-871800D01*
X941180Y-874280D01*
G37*
G36*
X1636740Y-847180D02*
G01*
X1652220Y-847180D01*
X1652220Y-844599D01*
X1651940Y-842099D01*
X1651180Y-839960D01*
X1649860Y-837860D01*
X1649319Y-836480D01*
X1649319Y-834980D01*
X1649860Y-833600D01*
X1651180Y-831500D01*
X1651940Y-829360D01*
X1652220Y-826860D01*
X1652220Y-824280D01*
X1636740Y-824280D01*
G37*
G36*
X1636740Y-808640D02*
G01*
X1652220Y-808640D01*
X1652220Y-806060D01*
X1651940Y-803560D01*
X1651180Y-801420D01*
X1649960Y-799479D01*
X1648360Y-797880D01*
X1646420Y-796660D01*
X1644280Y-795920D01*
X1641780Y-795639D01*
X1636740Y-795639D01*
G37*
G36*
X1058200Y-798720D02*
G01*
X1077720Y-798720D01*
X1077720Y-787660D01*
X1077420Y-785180D01*
X1076680Y-783040D01*
X1075460Y-781100D01*
X1073860Y-779500D01*
X1071920Y-778280D01*
X1069780Y-777520D01*
X1067280Y-777240D01*
X1058200Y-777240D01*
G37*
G36*
X421520Y-768680D02*
G01*
X427600Y-768139D01*
X433579Y-766880D01*
X439360Y-764920D01*
X444880Y-762300D01*
X450040Y-759040D01*
X454780Y-755200D01*
X459040Y-750819D01*
X462740Y-745960D01*
X465840Y-740699D01*
X468300Y-735120D01*
X470100Y-729280D01*
X471180Y-723259D01*
X471540Y-717180D01*
X471180Y-711080D01*
X470100Y-705060D01*
X468300Y-699220D01*
X465840Y-693640D01*
X462740Y-688379D01*
X459040Y-683520D01*
X454780Y-679140D01*
X450040Y-675300D01*
X444880Y-672039D01*
X439360Y-669419D01*
X433579Y-667460D01*
X427600Y-666200D01*
X421520Y-665660D01*
X415420Y-665840D01*
X409380Y-666740D01*
X403500Y-668360D01*
X397840Y-670639D01*
X392500Y-673600D01*
X387540Y-677159D01*
X383020Y-681280D01*
X379040Y-685900D01*
X375620Y-690960D01*
X372840Y-696400D01*
X370720Y-702120D01*
X369280Y-708060D01*
X368560Y-714120D01*
X368560Y-720220D01*
X369280Y-726280D01*
X370720Y-732220D01*
X372840Y-737940D01*
X375620Y-743379D01*
X379040Y-748439D01*
X383020Y-753060D01*
X387540Y-757180D01*
X392500Y-760740D01*
X397840Y-763700D01*
X403500Y-765980D01*
X409380Y-767600D01*
X415420Y-768500D01*
G37*
G36*
X1041740Y-765840D02*
G01*
X1046780Y-765840D01*
X1049280Y-765540D01*
X1051420Y-764800D01*
X1053360Y-763580D01*
X1054960Y-761979D01*
X1056180Y-760040D01*
X1056940Y-757900D01*
X1057220Y-755400D01*
X1057220Y-752820D01*
X1041740Y-752820D01*
G37*
G36*
X2089139Y-750620D02*
G01*
X2109640Y-750620D01*
X2109640Y-733000D01*
X2109940Y-731480D01*
X2110820Y-730180D01*
X2112100Y-729320D01*
X2113640Y-729000D01*
X2128520Y-729000D01*
X2128520Y-727260D01*
X2102920Y-727260D01*
X2104160Y-729860D01*
X2104780Y-730759D01*
X2105420Y-732360D01*
X2105320Y-734080D01*
X2104520Y-735600D01*
X2103160Y-736640D01*
X2101460Y-737000D01*
X2099560Y-737000D01*
X2097080Y-737280D01*
X2094920Y-738040D01*
X2093000Y-739260D01*
X2091380Y-740860D01*
X2090180Y-742800D01*
X2089420Y-744940D01*
X2089139Y-747440D01*
G37*
G36*
X2025320Y-749900D02*
G01*
X2038340Y-749900D01*
X2038340Y-747039D01*
X2038040Y-744560D01*
X2037300Y-742420D01*
X2036080Y-740480D01*
X2034480Y-738880D01*
X2032540Y-737660D01*
X2030400Y-736900D01*
X2027900Y-736620D01*
X2025320Y-736620D01*
G37*
G36*
X1996680Y-749900D02*
G01*
X2009680Y-749900D01*
X2009680Y-736620D01*
X2007100Y-736620D01*
X2004600Y-736900D01*
X2002460Y-737660D01*
X2000520Y-738880D01*
X1998920Y-740480D01*
X1997700Y-742420D01*
X1996960Y-744560D01*
X1996680Y-747039D01*
G37*
G36*
X2294860Y-744460D02*
G01*
X2294860Y-727260D01*
X2272200Y-727260D01*
X2273440Y-729860D01*
X2275960Y-733560D01*
X2279000Y-736820D01*
X2282500Y-739599D01*
X2286360Y-741840D01*
X2290520Y-743480D01*
G37*
G36*
X1041740Y-737180D02*
G01*
X1057220Y-737180D01*
X1057220Y-734599D01*
X1056940Y-732099D01*
X1056180Y-729960D01*
X1054960Y-728020D01*
X1053360Y-726420D01*
X1051420Y-725200D01*
X1049280Y-724460D01*
X1046780Y-724180D01*
X1041740Y-724180D01*
G37*
G36*
X2272200Y-702580D02*
G01*
X2294860Y-702580D01*
X2294860Y-685380D01*
X2290520Y-686380D01*
X2286360Y-688000D01*
X2282500Y-690240D01*
X2279000Y-693020D01*
X2275960Y-696300D01*
X2273440Y-699980D01*
G37*
G36*
X2102920Y-702580D02*
G01*
X2128520Y-702580D01*
X2128520Y-685160D01*
X2125580Y-685380D01*
X2121220Y-686380D01*
X2117080Y-688000D01*
X2113200Y-690240D01*
X2109720Y-693020D01*
X2106680Y-696300D01*
X2104160Y-699980D01*
G37*
G36*
X2174860Y-702580D02*
G01*
X2200460Y-702580D01*
X2199220Y-699980D01*
X2196700Y-696300D01*
X2193660Y-693020D01*
X2190160Y-690240D01*
X2186300Y-688000D01*
X2182140Y-686380D01*
X2177800Y-685380D01*
X2174860Y-685160D01*
G37*
G36*
X2309500Y-613660D02*
G01*
X2314640Y-613660D01*
X2314640Y-589240D01*
X2299080Y-589240D01*
X2299080Y-603240D01*
X2299360Y-605720D01*
X2300100Y-607880D01*
X2301320Y-609800D01*
X2302920Y-611420D01*
X2304860Y-612640D01*
X2307000Y-613380D01*
G37*
G36*
X1426180Y-596000D02*
G01*
X1439199Y-596000D01*
X1439199Y-590940D01*
X1438920Y-588460D01*
X1438160Y-586300D01*
X1436960Y-584380D01*
X1435340Y-582760D01*
X1433420Y-581560D01*
X1431260Y-580800D01*
X1428779Y-580520D01*
X1426180Y-580520D01*
G37*
G36*
X1397540Y-596000D02*
G01*
X1410560Y-596000D01*
X1410560Y-580520D01*
X1407960Y-580520D01*
X1405480Y-580800D01*
X1403320Y-581560D01*
X1401399Y-582760D01*
X1399780Y-584380D01*
X1398580Y-586300D01*
X1397820Y-588460D01*
X1397540Y-590940D01*
G37*
G36*
X2299080Y-550760D02*
G01*
X2314640Y-550760D01*
X2314640Y-526340D01*
X2309500Y-526340D01*
X2307000Y-526620D01*
X2304860Y-527360D01*
X2302920Y-528580D01*
X2301320Y-530200D01*
X2300100Y-532120D01*
X2299360Y-534280D01*
X2299080Y-536760D01*
G37*
G36*
X1751360Y-539660D02*
G01*
X1764379Y-539660D01*
X1764379Y-534620D01*
X1764079Y-532120D01*
X1763340Y-529980D01*
X1762120Y-528040D01*
X1760520Y-526440D01*
X1758580Y-525220D01*
X1756440Y-524480D01*
X1753940Y-524200D01*
X1751360Y-524200D01*
G37*
G36*
X1722720Y-539660D02*
G01*
X1735720Y-539660D01*
X1735720Y-524200D01*
X1733140Y-524200D01*
X1730640Y-524480D01*
X1728500Y-525220D01*
X1726560Y-526440D01*
X1724960Y-528040D01*
X1723740Y-529980D01*
X1723000Y-532120D01*
X1722720Y-534620D01*
G37*
G36*
X1165280Y-514680D02*
G01*
X1180760Y-514680D01*
X1180760Y-501680D01*
X1175720Y-501680D01*
X1173220Y-501960D01*
X1171080Y-502700D01*
X1169140Y-503920D01*
X1167540Y-505520D01*
X1166320Y-507460D01*
X1165560Y-509600D01*
X1165280Y-512100D01*
G37*
G36*
X421520Y-414340D02*
G01*
X427600Y-413800D01*
X433579Y-412540D01*
X439360Y-410600D01*
X444880Y-407960D01*
X450040Y-404700D01*
X454780Y-400860D01*
X459040Y-396480D01*
X462740Y-391620D01*
X465840Y-386380D01*
X468300Y-380780D01*
X470100Y-374940D01*
X471180Y-368940D01*
X471540Y-362840D01*
X471180Y-356740D01*
X470100Y-350740D01*
X468300Y-344900D01*
X465840Y-339300D01*
X462740Y-334060D01*
X459040Y-329200D01*
X454780Y-324820D01*
X450040Y-320980D01*
X444880Y-317720D01*
X439360Y-315080D01*
X433579Y-313140D01*
X427600Y-311880D01*
X421520Y-311340D01*
X415420Y-311520D01*
X409380Y-312420D01*
X403500Y-314020D01*
X397840Y-316320D01*
X392500Y-319260D01*
X387540Y-322819D01*
X383020Y-326940D01*
X379040Y-331580D01*
X375620Y-336640D01*
X372840Y-342060D01*
X370720Y-347780D01*
X369280Y-353720D01*
X368560Y-359780D01*
X368560Y-365900D01*
X369280Y-371960D01*
X370720Y-377900D01*
X372840Y-383620D01*
X375620Y-389040D01*
X379040Y-394099D01*
X383020Y-398740D01*
X387540Y-402860D01*
X392500Y-406420D01*
X397840Y-409360D01*
X403500Y-411659D01*
X409380Y-413260D01*
X415420Y-414159D01*
G37*
G36*
X2245880Y-187340D02*
G01*
X2252980Y-186780D01*
X2260000Y-185500D01*
X2266840Y-183520D01*
X2273440Y-180820D01*
X2279740Y-177480D01*
X2285660Y-173500D01*
X2291120Y-168939D01*
X2296100Y-163820D01*
X2300540Y-158240D01*
X2304360Y-152220D01*
X2307540Y-145840D01*
X2310060Y-139160D01*
X2311880Y-132280D01*
X2312980Y-125239D01*
X2313340Y-118120D01*
X2312980Y-110980D01*
X2311880Y-103940D01*
X2310060Y-97060D01*
X2307540Y-90380D01*
X2304360Y-84000D01*
X2300540Y-77980D01*
X2296100Y-72400D01*
X2291120Y-67280D01*
X2285660Y-62720D01*
X2279740Y-58740D01*
X2273440Y-55400D01*
X2266840Y-52699D01*
X2260000Y-50720D01*
X2252980Y-49440D01*
X2245880Y-48880D01*
X2238740Y-49060D01*
X2231680Y-49980D01*
X2224740Y-51620D01*
X2218000Y-53960D01*
X2211540Y-56980D01*
X2205440Y-60660D01*
X2199720Y-64940D01*
X2194500Y-69780D01*
X2189780Y-75140D01*
X2185660Y-80940D01*
X2182140Y-87140D01*
X2179300Y-93680D01*
X2177120Y-100480D01*
X2175660Y-107460D01*
X2174940Y-114540D01*
X2174940Y-121679D01*
X2175660Y-128760D01*
X2177120Y-135740D01*
X2179300Y-142540D01*
X2182140Y-149080D01*
X2185660Y-155280D01*
X2189780Y-161080D01*
X2194500Y-166439D01*
X2199720Y-171280D01*
X2205440Y-175560D01*
X2211540Y-179240D01*
X2218000Y-182260D01*
X2224740Y-184600D01*
X2231680Y-186240D01*
X2238740Y-187160D01*
G37*
G36*
X119900Y-187340D02*
G01*
X127000Y-186780D01*
X134020Y-185500D01*
X140860Y-183520D01*
X147460Y-180820D01*
X153760Y-177480D01*
X159680Y-173500D01*
X165140Y-168939D01*
X170120Y-163820D01*
X174560Y-158240D01*
X178380Y-152220D01*
X181560Y-145840D01*
X184080Y-139160D01*
X185900Y-132280D01*
X187000Y-125239D01*
X187360Y-118120D01*
X187000Y-110980D01*
X185900Y-103940D01*
X184080Y-97060D01*
X181560Y-90380D01*
X178380Y-84000D01*
X174560Y-77980D01*
X170120Y-72400D01*
X165140Y-67280D01*
X159680Y-62720D01*
X153760Y-58740D01*
X147460Y-55400D01*
X140860Y-52699D01*
X134020Y-50720D01*
X127000Y-49440D01*
X119900Y-48880D01*
X112760Y-49060D01*
X105700Y-49980D01*
X98760Y-51620D01*
X92020Y-53960D01*
X85559Y-56980D01*
X79460Y-60660D01*
X73740Y-64940D01*
X68520Y-69780D01*
X63800Y-75140D01*
X59680Y-80940D01*
X56160Y-87140D01*
X53320Y-93680D01*
X51140Y-100480D01*
X49680Y-107460D01*
X48960Y-114540D01*
X48960Y-121679D01*
X49680Y-128760D01*
X51140Y-135740D01*
X53320Y-142540D01*
X56160Y-149080D01*
X59680Y-155280D01*
X63800Y-161080D01*
X68520Y-166439D01*
X73740Y-171280D01*
X79460Y-175560D01*
X85559Y-179240D01*
X92020Y-182260D01*
X98760Y-184600D01*
X105700Y-186240D01*
X112760Y-187160D01*
G37*
G36*
X1744259Y-163660D02*
G01*
X1758260Y-163660D01*
X1758260Y-139240D01*
X1733839Y-139240D01*
X1733839Y-153240D01*
X1734120Y-155720D01*
X1734860Y-157880D01*
X1736080Y-159800D01*
X1737700Y-161420D01*
X1739620Y-162640D01*
X1741780Y-163380D01*
G37*
G36*
X1796740Y-163660D02*
G01*
X1810740Y-163660D01*
X1813220Y-163380D01*
X1815380Y-162640D01*
X1817300Y-161420D01*
X1818920Y-159800D01*
X1820140Y-157880D01*
X1820880Y-155720D01*
X1821160Y-153240D01*
X1821160Y-139240D01*
X1796740Y-139240D01*
G37*
G36*
X1178900Y-163640D02*
G01*
X1184460Y-163100D01*
X1189920Y-161860D01*
X1195180Y-159920D01*
X1200140Y-157340D01*
X1204720Y-154140D01*
X1208860Y-150380D01*
X1212480Y-146120D01*
X1215540Y-141420D01*
X1217960Y-136380D01*
X1219720Y-131080D01*
X1220800Y-125580D01*
X1221160Y-120000D01*
X1220800Y-114420D01*
X1219720Y-108920D01*
X1217960Y-103620D01*
X1215540Y-98580D01*
X1212480Y-93880D01*
X1208860Y-89620D01*
X1204720Y-85860D01*
X1200140Y-82660D01*
X1195180Y-80079D01*
X1189920Y-78140D01*
X1184460Y-76900D01*
X1178900Y-76360D01*
X1173300Y-76540D01*
X1167780Y-77440D01*
X1162420Y-79040D01*
X1157300Y-81300D01*
X1152520Y-84200D01*
X1148140Y-87680D01*
X1144260Y-91700D01*
X1140920Y-96180D01*
X1138160Y-101060D01*
X1136060Y-106240D01*
X1134640Y-111660D01*
X1133940Y-117200D01*
X1133940Y-122800D01*
X1134640Y-128340D01*
X1136060Y-133760D01*
X1138160Y-138940D01*
X1140920Y-143820D01*
X1144260Y-148300D01*
X1148140Y-152320D01*
X1152520Y-155800D01*
X1157300Y-158700D01*
X1162420Y-160980D01*
X1167780Y-162560D01*
X1173300Y-163460D01*
G37*
G36*
X1078900Y-163640D02*
G01*
X1084460Y-163100D01*
X1089920Y-161860D01*
X1095180Y-159920D01*
X1100140Y-157340D01*
X1104720Y-154140D01*
X1108860Y-150380D01*
X1112480Y-146120D01*
X1115540Y-141420D01*
X1117960Y-136380D01*
X1119720Y-131080D01*
X1120800Y-125580D01*
X1121160Y-120000D01*
X1120800Y-114420D01*
X1119720Y-108920D01*
X1117960Y-103620D01*
X1115540Y-98580D01*
X1112480Y-93880D01*
X1108860Y-89620D01*
X1104720Y-85860D01*
X1100140Y-82660D01*
X1095180Y-80079D01*
X1089920Y-78140D01*
X1084460Y-76900D01*
X1078900Y-76360D01*
X1073300Y-76540D01*
X1067780Y-77440D01*
X1062420Y-79040D01*
X1057300Y-81300D01*
X1052520Y-84200D01*
X1048139Y-87680D01*
X1044260Y-91700D01*
X1040920Y-96180D01*
X1038160Y-101060D01*
X1036060Y-106240D01*
X1034640Y-111660D01*
X1033940Y-117200D01*
X1033940Y-122800D01*
X1034640Y-128340D01*
X1036060Y-133760D01*
X1038160Y-138940D01*
X1040920Y-143820D01*
X1044260Y-148300D01*
X1048139Y-152320D01*
X1052520Y-155800D01*
X1057300Y-158700D01*
X1062420Y-160980D01*
X1067780Y-162560D01*
X1073300Y-163460D01*
G37*
G36*
X1678899Y-163640D02*
G01*
X1684460Y-163100D01*
X1689920Y-161860D01*
X1695180Y-159920D01*
X1700140Y-157340D01*
X1704720Y-154140D01*
X1708860Y-150380D01*
X1712480Y-146120D01*
X1715540Y-141420D01*
X1717960Y-136380D01*
X1719720Y-131080D01*
X1720800Y-125580D01*
X1721160Y-120000D01*
X1720800Y-114420D01*
X1719720Y-108920D01*
X1717960Y-103620D01*
X1715540Y-98580D01*
X1712480Y-93880D01*
X1708860Y-89620D01*
X1704720Y-85860D01*
X1700140Y-82660D01*
X1695180Y-80079D01*
X1689920Y-78140D01*
X1684460Y-76900D01*
X1678899Y-76360D01*
X1673300Y-76540D01*
X1667780Y-77440D01*
X1662420Y-79040D01*
X1657300Y-81300D01*
X1652520Y-84200D01*
X1648140Y-87680D01*
X1644259Y-91700D01*
X1640920Y-96180D01*
X1638160Y-101060D01*
X1636060Y-106240D01*
X1634640Y-111660D01*
X1633940Y-117200D01*
X1633940Y-122800D01*
X1634640Y-128340D01*
X1636060Y-133760D01*
X1638160Y-138940D01*
X1640920Y-143820D01*
X1644259Y-148300D01*
X1648140Y-152320D01*
X1652520Y-155800D01*
X1657300Y-158700D01*
X1662420Y-160980D01*
X1667780Y-162560D01*
X1673300Y-163460D01*
G37*
G36*
X1733839Y-100760D02*
G01*
X1758260Y-100760D01*
X1758260Y-76340D01*
X1744259Y-76340D01*
X1741780Y-76620D01*
X1739620Y-77360D01*
X1737700Y-78580D01*
X1736080Y-80200D01*
X1734860Y-82120D01*
X1734120Y-84280D01*
X1733839Y-86760D01*
G37*
G36*
X1796740Y-100760D02*
G01*
X1821160Y-100760D01*
X1821160Y-86760D01*
X1820880Y-84280D01*
X1820140Y-82120D01*
X1818920Y-80200D01*
X1817300Y-78580D01*
X1815380Y-77360D01*
X1813220Y-76620D01*
X1810740Y-76340D01*
X1796740Y-76340D01*
G37*

%LPD*%
G36*
X1275880Y-963660D02*
G01*
X1274660Y-963259D01*
X1272160Y-962000D01*
X1269240Y-961220D01*
X1266920Y-961040D01*
X1236580Y-961040D01*
X1235040Y-960720D01*
X1233740Y-959860D01*
X1232880Y-958560D01*
X1232580Y-957039D01*
X1232580Y-897940D01*
X1232240Y-894780D01*
X1231300Y-891919D01*
X1230280Y-890060D01*
X1229860Y-888840D01*
X1229840Y-887540D01*
X1230220Y-886320D01*
X1231600Y-883620D01*
X1232380Y-880699D01*
X1232580Y-878379D01*
X1232580Y-800939D01*
X1232880Y-799400D01*
X1233740Y-798100D01*
X1235040Y-797240D01*
X1236580Y-796940D01*
X1265660Y-796940D01*
X1268820Y-796600D01*
X1271640Y-795680D01*
X1274520Y-794020D01*
X1275940Y-793520D01*
X1277420Y-793580D01*
X1282160Y-796000D01*
X1285080Y-796760D01*
X1287320Y-796940D01*
X1408160Y-796940D01*
X1411320Y-796600D01*
X1414139Y-795680D01*
X1416740Y-794180D01*
X1418500Y-793060D01*
X1419980Y-792860D01*
X1421459Y-793220D01*
X1422680Y-794100D01*
X1423500Y-795360D01*
X1424060Y-799820D01*
X1424400Y-801480D01*
X1424060Y-803160D01*
X1423779Y-805639D01*
X1423779Y-813080D01*
X1424060Y-815560D01*
X1424400Y-817240D01*
X1424060Y-818900D01*
X1423779Y-821400D01*
X1423779Y-828820D01*
X1424060Y-831320D01*
X1424400Y-832980D01*
X1424060Y-834659D01*
X1423779Y-837140D01*
X1423779Y-844580D01*
X1424060Y-847060D01*
X1424400Y-848740D01*
X1424060Y-850400D01*
X1423779Y-852900D01*
X1423779Y-854599D01*
X1423440Y-856220D01*
X1422460Y-857560D01*
X1421020Y-858400D01*
X1418000Y-859380D01*
X1415400Y-860879D01*
X1413620Y-862400D01*
X1405980Y-870040D01*
X1403980Y-872500D01*
X1402640Y-875140D01*
X1401860Y-878060D01*
X1401680Y-880380D01*
X1401680Y-942520D01*
X1402000Y-945680D01*
X1402920Y-948500D01*
X1404420Y-951100D01*
X1405940Y-952880D01*
X1407260Y-954200D01*
X1408120Y-955500D01*
X1408440Y-957039D01*
X1408120Y-958560D01*
X1407260Y-959860D01*
X1405960Y-960720D01*
X1404440Y-961040D01*
X1286080Y-961040D01*
X1282920Y-961360D01*
X1280060Y-962300D01*
X1278400Y-963199D01*
X1277180Y-963640D01*
G37*

%LPC*%
G36*
X1255060Y-951460D02*
G01*
X1282860Y-951460D01*
X1282860Y-913240D01*
X1244640Y-913240D01*
X1244640Y-941020D01*
X1244920Y-943520D01*
X1245680Y-945660D01*
X1246880Y-947600D01*
X1248500Y-949200D01*
X1250420Y-950420D01*
X1252580Y-951180D01*
G37*
G36*
X1348880Y-951460D02*
G01*
X1376660Y-951460D01*
X1379160Y-951180D01*
X1381300Y-950420D01*
X1383240Y-949200D01*
X1384840Y-947600D01*
X1386060Y-945660D01*
X1386819Y-943520D01*
X1387100Y-941020D01*
X1387100Y-913240D01*
X1348880Y-913240D01*
G37*
G36*
X1348880Y-847220D02*
G01*
X1387100Y-847220D01*
X1387100Y-819419D01*
X1386819Y-816940D01*
X1386060Y-814780D01*
X1384840Y-812860D01*
X1383240Y-811240D01*
X1381300Y-810040D01*
X1379160Y-809280D01*
X1376660Y-809000D01*
X1348880Y-809000D01*
G37*
G36*
X1244640Y-847220D02*
G01*
X1282860Y-847220D01*
X1282860Y-809000D01*
X1255060Y-809000D01*
X1252580Y-809280D01*
X1250420Y-810040D01*
X1248500Y-811240D01*
X1246880Y-812860D01*
X1245680Y-814780D01*
X1244920Y-816940D01*
X1244640Y-819419D01*
G37*

%LPD*%
G36*
X1815540Y-1247560D02*
G01*
X1814000Y-1247260D01*
X1812700Y-1246380D01*
X1811840Y-1245080D01*
X1811540Y-1243560D01*
X1811540Y-1237320D01*
X1804199Y-1237320D01*
X1802660Y-1237020D01*
X1801380Y-1236160D01*
X1800500Y-1234860D01*
X1800200Y-1233320D01*
X1800200Y-1226680D01*
X1800500Y-1225140D01*
X1801380Y-1223840D01*
X1802660Y-1222980D01*
X1804199Y-1222680D01*
X1811540Y-1222680D01*
X1811540Y-1216440D01*
X1811840Y-1214920D01*
X1812700Y-1213620D01*
X1814000Y-1212740D01*
X1815540Y-1212440D01*
X1835320Y-1212440D01*
X1836840Y-1212740D01*
X1838140Y-1213620D01*
X1839000Y-1214920D01*
X1839319Y-1216440D01*
X1839319Y-1222680D01*
X1862400Y-1222680D01*
X1863920Y-1222980D01*
X1865200Y-1223820D01*
X1866080Y-1225100D01*
X1866360Y-1226400D01*
X1867840Y-1227720D01*
X1868480Y-1229200D01*
X1868480Y-1230800D01*
X1867840Y-1232280D01*
X1866680Y-1233380D01*
X1865940Y-1233860D01*
X1863440Y-1236460D01*
X1862260Y-1237100D01*
X1860940Y-1237320D01*
X1839319Y-1237320D01*
X1839319Y-1243560D01*
X1839000Y-1245080D01*
X1838140Y-1246380D01*
X1836840Y-1247260D01*
X1835320Y-1247560D01*
X1829120Y-1247540D01*
X1825400Y-1247220D01*
X1821320Y-1247560D01*
G37*

%LPD*%
D10*
X1229250Y-1020000D02*
G01*
X1229250Y-1115750D01*
X1195000Y-1150000D01*
X1213500Y-1020000D02*
G01*
X1213500Y-1051500D01*
X1162500Y-1102500D01*
X1127500Y-1102500D01*
X1308000Y-740500D02*
G01*
X1308000Y-189502D01*
X1377498Y-120005D01*
X1323699Y-740500D02*
G01*
X1323699Y-273803D01*
X1477498Y-120005D01*
X1339500Y-740500D02*
G01*
X1339500Y-358003D01*
X1577498Y-120005D01*
X1292200Y-740500D02*
G01*
X1292200Y-134707D01*
X1277498Y-120005D01*
D11*
X1794780Y-3202290D02*
G01*
X1866610Y-3130460D01*
X2182500Y-3130460D01*
X2094780Y-3202290D02*
G01*
X2132530Y-3164540D01*
X2182500Y-3164540D01*
X2094780Y-3002290D02*
G01*
X2116030Y-3023540D01*
X2182500Y-3023540D01*
D10*
X1260799Y-740500D02*
G01*
X1260799Y-608299D01*
X1212500Y-560000D01*
X680000Y-560000D01*
X640000Y-520000D01*
X640000Y-442500D01*
X640000Y-2112500D02*
G01*
X550000Y-2022500D01*
X550000Y-1240000D01*
X692500Y-1097500D01*
X692500Y-640000D01*
X712500Y-620000D01*
X1180000Y-620000D01*
X1213500Y-653500D01*
X1213500Y-740500D01*
X520000Y-1535000D02*
G01*
X520000Y-1220000D01*
X665000Y-1075000D01*
X665000Y-630000D01*
X695000Y-600000D01*
X1190100Y-600000D01*
X1229300Y-639200D01*
X1229300Y-740500D01*
X1245000Y-740500D02*
G01*
X1245000Y-622500D01*
X1202500Y-580000D01*
X675000Y-580000D01*
X637500Y-617500D01*
X637500Y-967500D01*
X1176100Y-777899D02*
G01*
X1176100Y-726100D01*
X1127500Y-677500D01*
X1090000Y-677500D01*
X1062500Y-652500D02*
G01*
X1062500Y-687500D01*
X1080000Y-705000D01*
X1107500Y-705000D01*
X1135000Y-732500D01*
X1135000Y-782500D01*
X1146109Y-793610D01*
X1176100Y-793610D01*
D12*
X1825399Y-1230000D02*
G01*
X1852500Y-1230000D01*
X1880100Y-1202400D01*
X1890000Y-1202400D01*
D13*
X398150Y-2958589D02*
G01*
X398150Y-2760650D01*
X320000Y-2682500D01*
X320000Y-2585309D01*
X321570Y-2583740D01*
X398150Y-2958589D02*
G01*
X398150Y-3281420D01*
X595000Y-2958589D02*
G01*
X595000Y-3281420D01*
X518420Y-2583740D02*
G01*
X595000Y-2660320D01*
X595000Y-2958589D01*
X931930Y-2544900D02*
G01*
X791850Y-2684980D01*
X791850Y-2958589D01*
X791850Y-2958589D02*
G01*
X791850Y-3281420D01*
X1284780Y-2958589D02*
G01*
X1284780Y-3281420D01*
X1586930Y-2544900D02*
G01*
X1284780Y-2847049D01*
X1284780Y-2958589D01*
D10*
X1176100Y-840860D02*
G01*
X1143360Y-840860D01*
X1130000Y-827500D01*
X1130000Y-817500D01*
D11*
X2124900Y-894800D02*
G01*
X1622000Y-895000D01*
X2124930Y-914529D02*
G01*
X1642510Y-914529D01*
X1622040Y-935000D01*
D10*
X1455600Y-935399D02*
G01*
X1588000Y-935000D01*
X1455630Y-919600D02*
G01*
X1563360Y-919600D01*
X1587960Y-895000D01*
X1550440Y-888099D02*
G01*
X1550440Y-888099D01*
X1583540Y-855000D01*
X1455630Y-888099D02*
G01*
X1550440Y-888099D01*
X1455630Y-903850D02*
G01*
X1486150Y-903850D01*
X1490000Y-900000D01*
X1490000Y-888099D01*
X1455600Y-872400D02*
G01*
X1517700Y-872400D01*
X1573500Y-816500D01*
X1583500Y-816500D01*
X1455600Y-856600D02*
G01*
X1498400Y-856600D01*
X1630000Y-725000D01*
X1630000Y-703600D01*
X1455600Y-840900D02*
G01*
X1494100Y-840900D01*
X1580000Y-755000D01*
X1580000Y-703600D01*
X1455600Y-825100D02*
G01*
X1489900Y-825100D01*
X1530000Y-785000D01*
X1530000Y-703600D01*
X1455600Y-777899D02*
G01*
X1467100Y-777899D01*
X1475000Y-770000D01*
X1475000Y-415000D01*
X1505000Y-385000D01*
X1645000Y-385000D01*
X1680000Y-420000D01*
X1680000Y-466400D01*
X1455600Y-793600D02*
G01*
X1481400Y-793600D01*
X1490000Y-785000D01*
X1490000Y-425000D01*
X1510000Y-405000D01*
X1605000Y-405000D01*
X1630000Y-430000D01*
X1630000Y-466400D01*
X1455600Y-809400D02*
G01*
X1485600Y-809400D01*
X1505000Y-790000D01*
X1505000Y-435000D01*
X1515000Y-425000D01*
X1565000Y-425000D01*
X1580000Y-440000D01*
X1580000Y-466400D01*
X1680000Y-466390D02*
G01*
X2046050Y-466390D01*
X2120000Y-540340D01*
X2120000Y-599650D02*
G01*
X2161510Y-599650D01*
X2191160Y-570000D01*
X2124930Y-816100D02*
G01*
X2041559Y-816100D01*
X2017500Y-792040D01*
X2124930Y-934210D02*
G01*
X2061250Y-934210D01*
X2017500Y-977960D01*
D11*
X2124930Y-855470D02*
G01*
X2062030Y-855470D01*
X2053349Y-864151D01*
X2053349Y-894828D01*
X2124900Y-875199D02*
G01*
X2177700Y-875199D01*
X2187500Y-885000D01*
X2187500Y-905000D01*
X2178000Y-914500D01*
X2124900Y-914500D01*
D10*
X1418297Y-696424D02*
G01*
X1418400Y-649200D01*
X1418200Y-740500D02*
G01*
X1418297Y-696424D01*
X1418200Y-1020000D02*
G01*
X1418400Y-1113800D01*
X1276500Y-1020000D02*
G01*
X1275900Y-1113800D01*
X1355200Y-1020000D02*
G01*
X1355900Y-1098099D01*
X1176100Y-856610D02*
G01*
X1016610Y-856610D01*
X975000Y-815000D01*
X975000Y-815000D02*
G01*
X975000Y-758540D01*
X988540Y-745000D01*
X1176100Y-872350D02*
G01*
X1073170Y-872350D01*
X1043900Y-901620D01*
X1043900Y-901620D02*
G01*
X1043900Y-957560D01*
X1031460Y-970000D01*
X1544953Y-959953D02*
G01*
X1577440Y-992440D01*
X1455630Y-951089D02*
G01*
X1536090Y-951089D01*
X1544953Y-959953D01*
D12*
X1577400Y-1062600D02*
G01*
X1490000Y-975000D01*
D10*
X1455630Y-966840D02*
G01*
X1481840Y-966840D01*
X1490000Y-975000D01*
X1455630Y-982590D02*
G01*
X1482409Y-982590D01*
X1490000Y-975000D01*
X1276469Y-984630D02*
G01*
X1267070Y-975230D01*
X1228370Y-975230D01*
X1218370Y-965230D01*
X1218370Y-897730D01*
X1208770Y-888130D01*
X1176069Y-888130D01*
X1276469Y-1020030D02*
G01*
X1276469Y-984630D01*
X1285870Y-975230D01*
X1408370Y-975230D01*
X1418270Y-985330D01*
X1418270Y-1020030D01*
X1208770Y-888130D02*
G01*
X1218370Y-878530D01*
X1218370Y-792730D01*
X1228370Y-782730D01*
X1265870Y-782730D01*
X1276505Y-772094D01*
X1276505Y-740460D01*
X1276469Y-772130D02*
G01*
X1287170Y-782730D01*
X1408370Y-782730D01*
X1418270Y-772830D01*
X1418270Y-740430D01*
X1455670Y-872330D02*
G01*
X1423770Y-872330D01*
X1415870Y-880230D01*
X1415870Y-942730D01*
X1424270Y-951130D01*
X1455670Y-951130D01*
X1418270Y-985330D02*
G01*
X1421010Y-982590D01*
X1455630Y-982590D01*
D12*
X1825420Y-1267400D02*
G01*
X1880160Y-1267400D01*
X1890000Y-1257560D01*
X1734580Y-1267400D02*
G01*
X1677340Y-1267400D01*
X1667500Y-1257560D01*
X1825399Y-1267400D02*
G01*
X1794900Y-1267400D01*
X1782500Y-1255000D01*
X1782500Y-1205000D01*
X1794900Y-1192600D01*
X1825399Y-1192600D01*
X1890000Y-1257600D02*
G01*
X2002400Y-1257600D01*
X2032500Y-1227500D01*
X2032500Y-1211900D01*
D14*
X2067500Y-790000D02*
G01*
X2124900Y-790500D01*
X2067500Y-980000D02*
G01*
X2124900Y-979500D01*
X2032500Y-1078099D02*
G01*
X2055000Y-1055599D01*
X2055000Y-992500D01*
X2067500Y-980000D01*
D11*
X2120000Y-1170340D02*
G01*
X2161500Y-1170340D01*
X2191160Y-1200000D01*
D10*
X1233960Y-522500D02*
G01*
X1276500Y-565040D01*
X1276500Y-740460D01*
D12*
X1234432Y-1807504D02*
G01*
X1404369Y-1977442D01*
X1404369Y-2064580D01*
X1100572Y-1807504D02*
G01*
X931930Y-1976146D01*
X931930Y-2064580D01*
X1889432Y-1807504D02*
G01*
X2059369Y-1977442D01*
X2059369Y-2064580D01*
X1755572Y-1807504D02*
G01*
X1586930Y-1976146D01*
X1586930Y-2064580D01*
X1684373Y-1807495D02*
G01*
X1755572Y-1807504D01*
X1028213Y-1807495D02*
G01*
X1100572Y-1807504D01*
X1234432Y-1807504D02*
G01*
X1071938Y-1645010D01*
X993150Y-1645010D01*
X1889432Y-1807504D02*
G01*
X1726938Y-1645010D01*
X1646940Y-1645010D01*
X885650Y-1632519D02*
G01*
X885650Y-1706292D01*
X949463Y-1770105D01*
X1540640Y-1632339D02*
G01*
X1540640Y-1705112D01*
X1605633Y-1770105D01*
X1540640Y-1573030D02*
G01*
X1568659Y-1545010D01*
X1646940Y-1545010D01*
X885650Y-1573210D02*
G01*
X913850Y-1545010D01*
X993150Y-1545010D01*
D11*
X885600Y-1777000D02*
G01*
X837500Y-1728800D01*
X837500Y-1522500D01*
X870000Y-1490000D01*
X1295000Y-1490000D01*
X1350000Y-1545000D01*
X1386800Y-1545000D01*
X1540600Y-1777000D02*
G01*
X1497500Y-1733800D01*
X1497500Y-1522500D01*
X1527500Y-1492500D01*
X1952500Y-1492500D01*
X2005000Y-1545000D01*
X2040600Y-1545000D01*
D10*
X2119999Y-1170299D02*
G01*
X2074699Y-1125000D01*
X2070000Y-1125000D01*
D14*
X1825399Y-1267400D02*
G01*
X1825399Y-1379600D01*
X1778699Y-1426300D01*
X723100Y-1426300D01*
D10*
X1127500Y-1041711D02*
G01*
X1127500Y-962500D01*
X1138900Y-951100D01*
X1176100Y-951100D01*
D12*
X1577440Y-1106946D02*
G01*
X1577440Y-1229940D01*
X1605060Y-1257560D01*
X1667500Y-1257560D01*
X1577440Y-1062560D02*
G01*
X1577440Y-1106946D01*
X1680000Y-750000D02*
G01*
X1680000Y-703611D01*
X1679999Y-703610D01*
X1743540Y-592865D02*
G01*
X1743540Y-640070D01*
X1743540Y-640070D02*
G01*
X1743540Y-640070D01*
X1680000Y-703610D01*
X1734600Y-1267400D02*
G01*
X1735000Y-1295000D01*
D10*
X1386850Y-1645010D02*
G01*
X1317510Y-1645010D01*
X1295000Y-1622500D01*
X2040637Y-1645009D02*
G01*
X1970009Y-1645009D01*
X1950000Y-1625000D01*
X1370979Y-740461D02*
G01*
X1370979Y-701520D01*
X1377500Y-695000D01*
X1129639Y-917861D02*
G01*
X1110000Y-937500D01*
X1110000Y-1010000D01*
X1060000Y-1060000D01*
X1031500Y-1060000D01*
X1176100Y-903800D02*
G01*
X1143699Y-903800D01*
X1129639Y-917861D01*
X1095000Y-912500D02*
G01*
X1095000Y-912500D01*
X1095000Y-985000D01*
X1060000Y-1020000D01*
X1031500Y-1020000D01*
X1176100Y-888099D02*
G01*
X1119400Y-888099D01*
X1095000Y-912500D01*
D11*
X2150000Y-1297500D02*
G01*
X2120000Y-1267500D01*
X2120000Y-1229650D01*
X1355900Y-1098099D02*
G01*
X1346900Y-1098099D01*
X1325000Y-1120000D01*
X1325000Y-1282500D01*
X1375000Y-1332500D01*
X1387500Y-1345000D01*
X1770000Y-1350000D01*
D13*
X1481630Y-3281420D02*
G01*
X1481630Y-2958589D01*
X1087930Y-2958589D02*
G01*
X1087930Y-3281420D01*
D15*
G01*
X1127500Y-1102500D03*
G01*
X1195000Y-1150000D03*
D16*
G01*
X2182500Y-3023541D03*
D17*
G01*
X2182500Y-3066460D03*
D18*
G01*
X2182500Y-3164540D03*
D19*
G01*
X2182500Y-3130460D03*
D20*
G01*
X2325020Y-570000D03*
G01*
X2191160Y-570000D03*
G01*
X2191160Y-1200000D03*
G01*
X2325020Y-1200000D03*
D21*
G01*
X1667500Y-1257560D03*
G01*
X1667500Y-1202440D03*
G01*
X1890000Y-1257560D03*
G01*
X1890000Y-1202440D03*
D22*
G01*
X1031459Y-1060000D03*
G01*
X988541Y-1060000D03*
D23*
G01*
X1583541Y-816460D03*
G01*
X1626459Y-816460D03*
D22*
G01*
X1031459Y-1020000D03*
G01*
X988541Y-1020000D03*
D23*
G01*
X1583541Y-855000D03*
G01*
X1626459Y-855000D03*
D16*
G01*
X1743540Y-592863D03*
D17*
G01*
X1743540Y-549950D03*
D16*
G01*
X1418370Y-649189D03*
D17*
G01*
X1418370Y-606269D03*
D16*
G01*
X1418370Y-1113771D03*
D17*
G01*
X1418370Y-1156690D03*
D16*
G01*
X1275870Y-1113771D03*
D17*
G01*
X1275870Y-1156690D03*
D24*
G01*
X1577440Y-1062560D03*
G01*
X1632560Y-1062560D03*
G01*
X1577440Y-992440D03*
G01*
X1632560Y-992440D03*
D25*
G01*
X2032500Y-1078070D03*
G01*
X2032500Y-1211930D03*
D26*
G01*
X1755570Y-1807500D03*
G01*
X1889430Y-1807500D03*
G01*
X1100570Y-1807500D03*
G01*
X1234430Y-1807500D03*
D27*
G01*
X1605630Y-1770100D03*
G01*
X1605630Y-1844900D03*
G01*
X1684369Y-1807500D03*
G01*
X949470Y-1770100D03*
G01*
X949470Y-1844900D03*
G01*
X1028209Y-1807500D03*
D28*
G01*
X2119995Y-599654D03*
D29*
G01*
X2120000Y-540340D03*
D28*
G01*
X1540644Y-1632336D03*
D29*
G01*
X1540640Y-1573030D03*
D28*
G01*
X885647Y-1632521D03*
D29*
G01*
X885650Y-1573210D03*
D18*
G01*
X2017500Y-757959D03*
D19*
G01*
X2017500Y-792040D03*
D18*
G01*
X2017500Y-1012040D03*
D19*
G01*
X2017500Y-977960D03*
D30*
G01*
X1622040Y-895000D03*
G01*
X1587959Y-895000D03*
G01*
X1622040Y-935000D03*
G01*
X1587959Y-935000D03*
D28*
G01*
X1540647Y-1836271D03*
D29*
G01*
X1540650Y-1776960D03*
D28*
G01*
X885647Y-1836271D03*
D29*
G01*
X885650Y-1776960D03*
D28*
G01*
X2119995Y-1229654D03*
D29*
G01*
X2120000Y-1170340D03*
D28*
G01*
X1355870Y-1157385D03*
D29*
G01*
X1355870Y-1098070D03*
D31*
G01*
X1418230Y-740460D03*
G01*
X1402480Y-740460D03*
G01*
X1386730Y-740460D03*
G01*
X1370979Y-740460D03*
G01*
X1355240Y-740460D03*
G01*
X1339490Y-740460D03*
G01*
X1323740Y-740460D03*
G01*
X1307989Y-740460D03*
G01*
X1292240Y-740460D03*
G01*
X1276500Y-740460D03*
G01*
X1260750Y-740460D03*
G01*
X1245000Y-740460D03*
G01*
X1229250Y-740460D03*
G01*
X1213500Y-740460D03*
D32*
G01*
X1176100Y-777870D03*
G01*
X1176100Y-793610D03*
G01*
X1176100Y-809360D03*
G01*
X1176100Y-825109D03*
G01*
X1176100Y-840860D03*
G01*
X1176100Y-856610D03*
G01*
X1176100Y-872350D03*
G01*
X1176100Y-888099D03*
G01*
X1176100Y-903850D03*
G01*
X1176100Y-919600D03*
G01*
X1176100Y-935350D03*
G01*
X1176100Y-951089D03*
G01*
X1176100Y-966840D03*
G01*
X1176100Y-982590D03*
D31*
G01*
X1213500Y-1020000D03*
G01*
X1229250Y-1020000D03*
G01*
X1245000Y-1020000D03*
G01*
X1260750Y-1020000D03*
G01*
X1276500Y-1020000D03*
G01*
X1292240Y-1020000D03*
G01*
X1307989Y-1020000D03*
G01*
X1323740Y-1020000D03*
G01*
X1339490Y-1020000D03*
G01*
X1355240Y-1020000D03*
G01*
X1370979Y-1020000D03*
G01*
X1386730Y-1020000D03*
G01*
X1402480Y-1020000D03*
G01*
X1418230Y-1020000D03*
D32*
G01*
X1455630Y-982590D03*
G01*
X1455630Y-966840D03*
G01*
X1455630Y-951089D03*
G01*
X1455630Y-935350D03*
G01*
X1455630Y-919600D03*
G01*
X1455630Y-903850D03*
G01*
X1455630Y-888099D03*
G01*
X1455630Y-872350D03*
G01*
X1455630Y-856610D03*
G01*
X1455630Y-840860D03*
G01*
X1455630Y-825109D03*
G01*
X1455630Y-809360D03*
G01*
X1455630Y-793610D03*
G01*
X1455630Y-777870D03*
D33*
G01*
X1315870Y-880230D03*
D34*
G01*
X1680000Y-466390D03*
G01*
X1630000Y-466390D03*
G01*
X1580000Y-466390D03*
G01*
X1530000Y-466390D03*
G01*
X1680000Y-703610D03*
G01*
X1630000Y-703610D03*
G01*
X1580000Y-703610D03*
G01*
X1530000Y-703610D03*
D35*
G01*
X1605000Y-585000D03*
D36*
G01*
X1646940Y-1645010D03*
G01*
X1646940Y-1545010D03*
G01*
X2040640Y-1545010D03*
G01*
X2040640Y-1645010D03*
G01*
X993150Y-1645010D03*
G01*
X993150Y-1545010D03*
G01*
X1386850Y-1545010D03*
G01*
X1386850Y-1645010D03*
D37*
G01*
X1825420Y-1267400D03*
G01*
X1825420Y-1230000D03*
G01*
X1825420Y-1192600D03*
D38*
G01*
X1734580Y-1192600D03*
G01*
X1734580Y-1267400D03*
D39*
G01*
X2124930Y-1010990D03*
G01*
X2124930Y-979490D03*
G01*
X2124930Y-759020D03*
G01*
X2124930Y-790509D03*
D40*
G01*
X2124930Y-816100D03*
G01*
X2124930Y-835790D03*
G01*
X2124930Y-855470D03*
G01*
X2124930Y-875160D03*
G01*
X2124930Y-894839D03*
G01*
X2124930Y-914529D03*
G01*
X2124930Y-934210D03*
G01*
X2124930Y-953900D03*
D41*
G01*
X1043900Y-901620D03*
G01*
X1043900Y-815000D03*
G01*
X975000Y-815000D03*
G01*
X975000Y-901620D03*
D23*
G01*
X988541Y-745000D03*
G01*
X1031459Y-745000D03*
G01*
X988541Y-970000D03*
G01*
X1031459Y-970000D03*
D22*
G01*
X1233959Y-522500D03*
G01*
X1191041Y-522500D03*
D42*
G01*
X1777499Y-120000D03*
D43*
G01*
X1677498Y-120005D03*
G01*
X1577498Y-120005D03*
G01*
X1477498Y-120005D03*
G01*
X1377498Y-120005D03*
G01*
X1277498Y-120005D03*
G01*
X1177498Y-120005D03*
G01*
X1077498Y-120005D03*
D44*
G01*
X1586930Y-2064580D03*
G01*
X2059369Y-2064580D03*
G01*
X1823130Y-1985840D03*
G01*
X1586930Y-2544900D03*
G01*
X931930Y-2064580D03*
G01*
X1404369Y-2064580D03*
G01*
X1168130Y-1985840D03*
G01*
X931930Y-2544900D03*
D45*
G01*
X2315070Y-714920D03*
G01*
X2315070Y-1055080D03*
D46*
G01*
X2151690Y-714920D03*
G01*
X2151690Y-1055080D03*
D47*
G01*
X723150Y-1426260D03*
G01*
X116850Y-1426260D03*
G01*
X518420Y-2583740D03*
G01*
X321570Y-2583740D03*
D48*
G01*
X791850Y-2958589D03*
G01*
X595000Y-2958589D03*
G01*
X398150Y-2958589D03*
G01*
X398150Y-3281420D03*
G01*
X595000Y-3281420D03*
G01*
X791850Y-3281420D03*
G01*
X1481630Y-2958589D03*
G01*
X1284780Y-2958589D03*
G01*
X1087930Y-2958589D03*
G01*
X1087930Y-3281420D03*
G01*
X1284780Y-3281420D03*
G01*
X1481630Y-3281420D03*
D43*
G01*
X1794780Y-3002290D03*
G01*
X1894780Y-3002290D03*
G01*
X1994780Y-3002290D03*
G01*
X2094780Y-3002290D03*
G01*
X1794780Y-3202290D03*
G01*
X1894780Y-3202290D03*
G01*
X1994780Y-3202290D03*
G01*
X2094780Y-3202290D03*
D49*
G01*
X1355170Y-919600D03*
G01*
X1276430Y-919600D03*
G01*
X1276430Y-840860D03*
G01*
X1355170Y-840860D03*
G01*
X2067500Y-790000D03*
G01*
X2067500Y-980000D03*
G01*
X640000Y-442500D03*
G01*
X640000Y-2112500D03*
G01*
X637500Y-967500D03*
G01*
X520000Y-1535000D03*
G01*
X2070000Y-1125000D03*
G01*
X1127500Y-1041710D03*
G01*
X1550440Y-888099D03*
G01*
X1680000Y-750000D03*
G01*
X1577440Y-1106950D03*
G01*
X1735000Y-1295000D03*
G01*
X1295000Y-1622500D03*
G01*
X1950000Y-1625000D03*
G01*
X1377500Y-695000D03*
G01*
X1095000Y-912500D03*
G01*
X1129639Y-917860D03*
G01*
X1544949Y-959950D03*
G01*
X1418299Y-696430D03*
G01*
X2150000Y-1297500D03*
G01*
X1770000Y-1350000D03*
G01*
X1605000Y-585000D03*
G01*
X1417500Y-565000D03*
G01*
X1149770Y-523369D03*
G01*
X1130000Y-817500D03*
G01*
X947270Y-970869D03*
G01*
X947270Y-1020869D03*
G01*
X947270Y-1060870D03*
G01*
X1680000Y-990000D03*
G01*
X1680000Y-1060000D03*
G01*
X1667500Y-1155000D03*
G01*
X1890000Y-1155000D03*
G01*
X1419239Y-1197960D03*
G01*
X1276739Y-1197960D03*
G01*
X1667730Y-815590D03*
G01*
X1667730Y-854130D03*
G01*
X1782500Y-547500D03*
G01*
X942500Y-1815000D03*
G01*
X1598670Y-1815000D03*
G01*
X195000Y-637500D03*
G01*
X195000Y-1197500D03*
G01*
X195000Y-1752500D03*
G01*
X195000Y-2307500D03*
G01*
X1062500Y-652500D03*
G01*
X1090000Y-677500D03*
G01*
X1743540Y-640070D03*
M02*
