G04 Layer: BottomSolderMaskLayer*
G04 EasyEDA v6.5.22, 2023-04-15 17:34:24*
G04 819af3526855441081df4c6eebb6a90a,5a628b76fac64d3cb101ae6d552a3bac,10*
G04 Gerber Generator version 0.2*
G04 Scale: 100 percent, Rotated: No, Reflected: No *
G04 Dimensions in inches *
G04 leading zeros omitted , absolute positions ,3 integer and 6 decimal *
%FSLAX36Y36*%
%MOIN*%

%AMMACRO1*1,1,$1,$2,$3*1,1,$1,$4,$5*1,1,$1,0-$2,0-$3*1,1,$1,0-$4,0-$5*20,1,$1,$2,$3,$4,$5,0*20,1,$1,$4,$5,0-$2,0-$3,0*20,1,$1,0-$2,0-$3,0-$4,0-$5,0*20,1,$1,0-$4,0-$5,$2,$3,0*4,1,4,$2,$3,$4,$5,0-$2,0-$3,0-$4,0-$5,$2,$3,0*%
%ADD10MACRO1,0.004X0.0472X0.0354X-0.0472X0.0354*%
%ADD11MACRO1,0.004X0.0335X0.0335X-0.0335X0.0335*%
%ADD12C,0.0709*%
%ADD13C,0.1140*%
%ADD14O,0.074804X0.043308*%
%ADD15O,0.086615X0.043308*%
%ADD16C,0.0827*%
%ADD17C,0.0906*%
%ADD18C,0.0709*%

%LPD*%
D10*
G01*
X130626Y-638424D03*
G01*
X709374Y-638424D03*
G01*
X130626Y-441575D03*
G01*
X709374Y-441575D03*
G01*
X130626Y-1198424D03*
G01*
X709374Y-1198424D03*
G01*
X130626Y-1001575D03*
G01*
X709374Y-1001575D03*
G01*
X130626Y-1753424D03*
G01*
X709374Y-1753424D03*
G01*
X130626Y-1556575D03*
G01*
X709374Y-1556575D03*
G01*
X130626Y-2308424D03*
G01*
X709374Y-2308424D03*
G01*
X130626Y-2111575D03*
G01*
X709374Y-2111575D03*
D11*
G01*
X1777499Y-120000D03*
D12*
G01*
X1677498Y-120005D03*
G01*
X1577498Y-120005D03*
G01*
X1477498Y-120005D03*
G01*
X1377498Y-120005D03*
G01*
X1277498Y-120005D03*
G01*
X1177498Y-120005D03*
G01*
X1077498Y-120005D03*
D13*
G01*
X1586930Y-2064580D03*
G01*
X2059369Y-2064580D03*
G01*
X1823130Y-1985840D03*
G01*
X1586930Y-2544900D03*
G01*
X931930Y-2064580D03*
G01*
X1404369Y-2064580D03*
G01*
X1168130Y-1985840D03*
G01*
X931930Y-2544900D03*
D14*
G01*
X2315070Y-714920D03*
G01*
X2315070Y-1055080D03*
D15*
G01*
X2151690Y-714920D03*
G01*
X2151690Y-1055080D03*
D16*
G01*
X723150Y-1426260D03*
G01*
X116850Y-1426260D03*
G01*
X518420Y-2583740D03*
G01*
X321570Y-2583740D03*
D17*
G01*
X791850Y-2958589D03*
G01*
X595000Y-2958589D03*
G01*
X398150Y-2958589D03*
G01*
X398150Y-3281420D03*
G01*
X595000Y-3281420D03*
G01*
X791850Y-3281420D03*
G01*
X1481630Y-2958589D03*
G01*
X1284780Y-2958589D03*
G01*
X1087930Y-2958589D03*
G01*
X1087930Y-3281420D03*
G01*
X1284780Y-3281420D03*
G01*
X1481630Y-3281420D03*
D18*
G01*
X1794780Y-3002290D03*
G01*
X1894780Y-3002290D03*
G01*
X1994780Y-3002290D03*
G01*
X2094780Y-3002290D03*
G01*
X1794780Y-3202290D03*
G01*
X1894780Y-3202290D03*
G01*
X1994780Y-3202290D03*
G01*
X2094780Y-3202290D03*
M02*
