G04 Layer: TopSilkscreenLayer*
G04 EasyEDA v6.5.22, 2023-04-15 17:34:24*
G04 819af3526855441081df4c6eebb6a90a,5a628b76fac64d3cb101ae6d552a3bac,10*
G04 Gerber Generator version 0.2*
G04 Scale: 100 percent, Rotated: No, Reflected: No *
G04 Dimensions in inches *
G04 leading zeros omitted , absolute positions ,3 integer and 6 decimal *
%FSLAX36Y36*%
%MOIN*%

%ADD10C,0.0080*%
%ADD11C,0.0060*%
%ADD12C,0.0100*%
%ADD13C,0.0079*%
%ADD14C,0.0118*%
%ADD15C,0.0060*%
%ADD16C,0.0197*%
%ADD17C,0.0199*%

%LPD*%
D10*
X386850Y-2745910D02*
G01*
X386850Y-2803110D01*
X386850Y-2803110D02*
G01*
X419549Y-2803110D01*
X570050Y-2747000D02*
G01*
X570050Y-2804200D01*
X570050Y-2747000D02*
G01*
X608150Y-2804200D01*
X608150Y-2747000D02*
G01*
X608150Y-2804200D01*
X761350Y-2747000D02*
G01*
X755950Y-2749700D01*
X750450Y-2755100D01*
X747750Y-2760599D01*
X745050Y-2768800D01*
X745050Y-2782400D01*
X747750Y-2790599D01*
X750450Y-2796000D01*
X755950Y-2801500D01*
X761350Y-2804200D01*
X772250Y-2804200D01*
X777750Y-2801500D01*
X783150Y-2796000D01*
X785950Y-2790599D01*
X788650Y-2782400D01*
X788650Y-2768800D01*
X785950Y-2760599D01*
X783150Y-2755100D01*
X777750Y-2749700D01*
X772250Y-2747000D01*
X761350Y-2747000D01*
X809350Y-2760599D02*
G01*
X809350Y-2757899D01*
X812049Y-2752400D01*
X814850Y-2749700D01*
X820250Y-2747000D01*
X831150Y-2747000D01*
X836649Y-2749700D01*
X839350Y-2752400D01*
X842049Y-2757899D01*
X842049Y-2763299D01*
X839350Y-2768800D01*
X833950Y-2777000D01*
X806649Y-2804200D01*
X844850Y-2804200D01*
X1070020Y-2747000D02*
G01*
X1070020Y-2804200D01*
X1070020Y-2747000D02*
G01*
X1108220Y-2804200D01*
X1108220Y-2747000D02*
G01*
X1108220Y-2804200D01*
X1254300Y-2747000D02*
G01*
X1248800Y-2749700D01*
X1243400Y-2755100D01*
X1240700Y-2760599D01*
X1237899Y-2768800D01*
X1237899Y-2782400D01*
X1240700Y-2790599D01*
X1243400Y-2796000D01*
X1248800Y-2801500D01*
X1254300Y-2804200D01*
X1265200Y-2804200D01*
X1270700Y-2801500D01*
X1276100Y-2796000D01*
X1278800Y-2790599D01*
X1281600Y-2782400D01*
X1281600Y-2768800D01*
X1278800Y-2760599D01*
X1276100Y-2755100D01*
X1270700Y-2749700D01*
X1265200Y-2747000D01*
X1254300Y-2747000D01*
X1299600Y-2757899D02*
G01*
X1305000Y-2755100D01*
X1313200Y-2747000D01*
X1313200Y-2804200D01*
X1463720Y-2747000D02*
G01*
X1463720Y-2804200D01*
X1463720Y-2747000D02*
G01*
X1501920Y-2804200D01*
X1501920Y-2747000D02*
G01*
X1501920Y-2804200D01*
D11*
X1778178Y-2864041D02*
G01*
X1811577Y-2864041D01*
X1778178Y-2864041D02*
G01*
X1778178Y-2852842D01*
X1779778Y-2848142D01*
X1782978Y-2844942D01*
X1786078Y-2843342D01*
X1790878Y-2841741D01*
X1798878Y-2841741D01*
X1803578Y-2843342D01*
X1806778Y-2844942D01*
X1809978Y-2848142D01*
X1811577Y-2852842D01*
X1811577Y-2864041D01*
X1778178Y-2831242D02*
G01*
X1811577Y-2831242D01*
X1778178Y-2808942D02*
G01*
X1811577Y-2808942D01*
X1794077Y-2831242D02*
G01*
X1794077Y-2808942D01*
X1778178Y-2787342D02*
G01*
X1811577Y-2787342D01*
X1778178Y-2798442D02*
G01*
X1778178Y-2776242D01*
X1786078Y-2764142D02*
G01*
X1784578Y-2764142D01*
X1781378Y-2762542D01*
X1779778Y-2760942D01*
X1778178Y-2757742D01*
X1778178Y-2751341D01*
X1779778Y-2748242D01*
X1781378Y-2746642D01*
X1784578Y-2745042D01*
X1787678Y-2745042D01*
X1790878Y-2746642D01*
X1795678Y-2749842D01*
X1811577Y-2765742D01*
X1811577Y-2743442D01*
X1786078Y-2731341D02*
G01*
X1784578Y-2731341D01*
X1781378Y-2729742D01*
X1779778Y-2728142D01*
X1778178Y-2724942D01*
X1778178Y-2718642D01*
X1779778Y-2715442D01*
X1781378Y-2713841D01*
X1784578Y-2712242D01*
X1787678Y-2712242D01*
X1790878Y-2713841D01*
X1795678Y-2717042D01*
X1811577Y-2732942D01*
X1811577Y-2710642D01*
X1878168Y-2864012D02*
G01*
X1911568Y-2864012D01*
X1911568Y-2864012D02*
G01*
X1911568Y-2844911D01*
X1878168Y-2834412D02*
G01*
X1911568Y-2834412D01*
X1886168Y-2800112D02*
G01*
X1882968Y-2801612D01*
X1879768Y-2804812D01*
X1878168Y-2808012D01*
X1878168Y-2814412D01*
X1879768Y-2817612D01*
X1882968Y-2820712D01*
X1886168Y-2822312D01*
X1890868Y-2823912D01*
X1898868Y-2823912D01*
X1903668Y-2822312D01*
X1906768Y-2820712D01*
X1909967Y-2817612D01*
X1911568Y-2814412D01*
X1911568Y-2808012D01*
X1909967Y-2804812D01*
X1906768Y-2801612D01*
X1903668Y-2800112D01*
X1898868Y-2800112D01*
X1898868Y-2808012D02*
G01*
X1898868Y-2800112D01*
X1878168Y-2789612D02*
G01*
X1911568Y-2789612D01*
X1878168Y-2767312D02*
G01*
X1911568Y-2767312D01*
X1894068Y-2789612D02*
G01*
X1894068Y-2767312D01*
X1878168Y-2745612D02*
G01*
X1911568Y-2745612D01*
X1878168Y-2756812D02*
G01*
X1878168Y-2734511D01*
X1986168Y-2840112D02*
G01*
X1982968Y-2841712D01*
X1979768Y-2844911D01*
X1978168Y-2848112D01*
X1978168Y-2854511D01*
X1979768Y-2857612D01*
X1982968Y-2860812D01*
X1986168Y-2862411D01*
X1990868Y-2864012D01*
X1998868Y-2864012D01*
X2003668Y-2862411D01*
X2006768Y-2860812D01*
X2009967Y-2857612D01*
X2011568Y-2854511D01*
X2011568Y-2848112D01*
X2009967Y-2844911D01*
X2006768Y-2841712D01*
X2003668Y-2840112D01*
X1998868Y-2840112D01*
X1998868Y-2848112D02*
G01*
X1998868Y-2840112D01*
X1978168Y-2829612D02*
G01*
X2011568Y-2829612D01*
X1978168Y-2829612D02*
G01*
X2011568Y-2807411D01*
X1978168Y-2807411D02*
G01*
X2011568Y-2807411D01*
X1978168Y-2796912D02*
G01*
X2011568Y-2796912D01*
X1978168Y-2796912D02*
G01*
X1978168Y-2785712D01*
X1979768Y-2781012D01*
X1982968Y-2777812D01*
X1986168Y-2776212D01*
X1990868Y-2774612D01*
X1998868Y-2774612D01*
X2003668Y-2776212D01*
X2006768Y-2777812D01*
X2009967Y-2781012D01*
X2011568Y-2785712D01*
X2011568Y-2796912D01*
X2078168Y-2860812D02*
G01*
X2078168Y-2843312D01*
X2090868Y-2852912D01*
X2090868Y-2848112D01*
X2092467Y-2844911D01*
X2094068Y-2843312D01*
X2098868Y-2841712D01*
X2102067Y-2841712D01*
X2106768Y-2843312D01*
X2109967Y-2846512D01*
X2111568Y-2851312D01*
X2111568Y-2856112D01*
X2109967Y-2860812D01*
X2108368Y-2862411D01*
X2105168Y-2864012D01*
X2078168Y-2831212D02*
G01*
X2111568Y-2818512D01*
X2078168Y-2805812D02*
G01*
X2111568Y-2818512D01*
X2078168Y-2792112D02*
G01*
X2078168Y-2774612D01*
X2090868Y-2784112D01*
X2090868Y-2779412D01*
X2092467Y-2776212D01*
X2094068Y-2774612D01*
X2098868Y-2773012D01*
X2102067Y-2773012D01*
X2106768Y-2774612D01*
X2109967Y-2777812D01*
X2111568Y-2782612D01*
X2111568Y-2787312D01*
X2109967Y-2792112D01*
X2108368Y-2793712D01*
X2105168Y-2795312D01*
X2172494Y-459599D02*
G01*
X2172494Y-502499D01*
X2172494Y-459599D02*
G01*
X2190895Y-459599D01*
X2196995Y-461599D01*
X2199095Y-463699D01*
X2201095Y-467799D01*
X2201095Y-471899D01*
X2199095Y-475999D01*
X2196995Y-477998D01*
X2190895Y-479999D01*
X2172494Y-479999D02*
G01*
X2190895Y-479999D01*
X2196995Y-482099D01*
X2199095Y-484099D01*
X2201095Y-488198D01*
X2201095Y-494399D01*
X2199095Y-498499D01*
X2196995Y-500498D01*
X2190895Y-502499D01*
X2172494Y-502499D01*
X2226895Y-459599D02*
G01*
X2222795Y-461599D01*
X2218695Y-465698D01*
X2216694Y-469799D01*
X2214594Y-475999D01*
X2214594Y-486199D01*
X2216694Y-492299D01*
X2218695Y-496399D01*
X2222795Y-500498D01*
X2226895Y-502499D01*
X2235095Y-502499D01*
X2239194Y-500498D01*
X2243295Y-496399D01*
X2245295Y-492299D01*
X2247395Y-486199D01*
X2247395Y-475999D01*
X2245295Y-469799D01*
X2243295Y-465698D01*
X2239194Y-461599D01*
X2235095Y-459599D01*
X2226895Y-459599D01*
X2273095Y-459599D02*
G01*
X2268995Y-461599D01*
X2264994Y-465698D01*
X2262895Y-469799D01*
X2260895Y-475999D01*
X2260895Y-486199D01*
X2262895Y-492299D01*
X2264994Y-496399D01*
X2268995Y-500498D01*
X2273095Y-502499D01*
X2281295Y-502499D01*
X2285395Y-500498D01*
X2289495Y-496399D01*
X2291495Y-492299D01*
X2293595Y-486199D01*
X2293595Y-475999D01*
X2291495Y-469799D01*
X2289495Y-465698D01*
X2285395Y-461599D01*
X2281295Y-459599D01*
X2273095Y-459599D01*
X2321395Y-459599D02*
G01*
X2321395Y-502499D01*
X2307094Y-459599D02*
G01*
X2335695Y-459599D01*
X2314994Y-1310399D02*
G01*
X2314994Y-1267499D01*
X2314994Y-1310399D02*
G01*
X2296595Y-1310399D01*
X2290495Y-1308398D01*
X2288395Y-1306299D01*
X2286395Y-1302199D01*
X2286395Y-1298099D01*
X2288395Y-1293999D01*
X2290495Y-1291999D01*
X2296595Y-1289999D01*
X2314994Y-1289999D01*
X2300695Y-1289999D02*
G01*
X2286395Y-1267499D01*
X2244194Y-1304299D02*
G01*
X2248295Y-1308398D01*
X2254495Y-1310399D01*
X2262595Y-1310399D01*
X2268795Y-1308398D01*
X2272895Y-1304299D01*
X2272895Y-1300199D01*
X2270795Y-1296098D01*
X2268795Y-1293999D01*
X2264695Y-1291999D01*
X2252395Y-1287899D01*
X2248295Y-1285898D01*
X2246295Y-1283799D01*
X2244194Y-1279699D01*
X2244194Y-1273598D01*
X2248295Y-1269499D01*
X2254495Y-1267499D01*
X2262595Y-1267499D01*
X2268795Y-1269499D01*
X2272895Y-1273598D01*
X2216395Y-1310399D02*
G01*
X2216395Y-1267499D01*
X2230695Y-1310399D02*
G01*
X2202094Y-1310399D01*
G36*
X2016500Y-1129000D02*
G01*
X2032500Y-1152000D01*
X2048500Y-1129000D01*
G37*
G36*
X1994040Y-1204120D02*
G01*
X1994040Y-1216120D01*
X2008600Y-1216120D01*
X2008600Y-1204120D01*
G37*
G36*
X2056399Y-1204120D02*
G01*
X2056399Y-1216120D01*
X2070960Y-1216120D01*
X2070960Y-1204120D01*
G37*
X2162870Y-3004988D02*
G01*
X2162870Y-3036094D01*
X2202130Y-3036094D02*
G01*
X2202130Y-3004988D01*
X2196130Y-2998987D02*
G01*
X2168870Y-2998987D01*
X2162870Y-3085012D02*
G01*
X2162870Y-3053906D01*
X2202130Y-3053906D02*
G01*
X2202130Y-3085012D01*
X2196130Y-3091012D02*
G01*
X2168870Y-3091012D01*
X2162870Y-3138594D02*
G01*
X2162870Y-3110325D01*
X2202130Y-3110325D01*
X2202130Y-3138594D01*
X2162870Y-3156406D02*
G01*
X2162870Y-3184675D01*
X2202130Y-3184675D01*
X2202130Y-3156406D01*
D12*
X2199032Y-520787D02*
G01*
X2317143Y-520788D01*
X2199032Y-619212D02*
G01*
X2317143Y-619212D01*
X2199032Y-527434D02*
G01*
X2199032Y-520787D01*
X2199032Y-520787D02*
G01*
X2317143Y-520787D01*
X2317143Y-520787D02*
G01*
X2317143Y-527435D01*
X2317143Y-612564D02*
G01*
X2317143Y-619212D01*
X2317143Y-619212D02*
G01*
X2199032Y-619212D01*
X2199032Y-619212D02*
G01*
X2199032Y-612789D01*
X2317143Y-1249211D02*
G01*
X2199032Y-1249210D01*
X2317143Y-1150785D02*
G01*
X2199032Y-1150786D01*
X2317143Y-1242564D02*
G01*
X2317143Y-1249211D01*
X2317143Y-1249211D02*
G01*
X2199032Y-1249211D01*
X2199032Y-1249211D02*
G01*
X2199032Y-1242563D01*
X2199032Y-1157434D02*
G01*
X2199032Y-1150786D01*
X2199032Y-1150786D02*
G01*
X2317143Y-1150786D01*
X2317143Y-1150786D02*
G01*
X2317143Y-1157209D01*
X1683239Y-1284725D02*
G01*
X1651742Y-1284725D01*
X1695438Y-1241033D02*
G01*
X1695438Y-1272528D01*
X1639546Y-1241033D02*
G01*
X1639546Y-1272528D01*
X1695667Y-1218360D02*
G01*
X1695667Y-1186865D01*
X1683469Y-1174666D02*
G01*
X1651974Y-1174666D01*
X1639777Y-1218360D02*
G01*
X1639777Y-1186865D01*
X1905739Y-1284725D02*
G01*
X1874242Y-1284725D01*
X1917938Y-1241033D02*
G01*
X1917938Y-1272528D01*
X1862046Y-1241033D02*
G01*
X1862046Y-1272528D01*
X1918167Y-1218360D02*
G01*
X1918167Y-1186865D01*
X1905969Y-1174666D02*
G01*
X1874474Y-1174666D01*
X1862277Y-1218360D02*
G01*
X1862277Y-1186865D01*
D11*
X1050012Y-1040370D02*
G01*
X1018906Y-1040370D01*
X1018906Y-1079630D02*
G01*
X1050012Y-1079630D01*
X1056012Y-1073630D02*
G01*
X1056012Y-1046370D01*
X969988Y-1040370D02*
G01*
X1001094Y-1040370D01*
X1001094Y-1079630D02*
G01*
X969988Y-1079630D01*
X963987Y-1073630D02*
G01*
X963987Y-1046370D01*
X1564988Y-836089D02*
G01*
X1596094Y-836089D01*
X1596094Y-796829D02*
G01*
X1564988Y-796829D01*
X1558987Y-802830D02*
G01*
X1558987Y-830090D01*
X1645012Y-836089D02*
G01*
X1613906Y-836089D01*
X1613906Y-796829D02*
G01*
X1645012Y-796829D01*
X1651012Y-802830D02*
G01*
X1651012Y-830090D01*
X1050012Y-1000370D02*
G01*
X1018906Y-1000370D01*
X1018906Y-1039630D02*
G01*
X1050012Y-1039630D01*
X1056012Y-1033630D02*
G01*
X1056012Y-1006370D01*
X969988Y-1000370D02*
G01*
X1001094Y-1000370D01*
X1001094Y-1039630D02*
G01*
X969988Y-1039630D01*
X963987Y-1033630D02*
G01*
X963987Y-1006370D01*
X1564988Y-874630D02*
G01*
X1596094Y-874630D01*
X1596094Y-835370D02*
G01*
X1564988Y-835370D01*
X1558987Y-841370D02*
G01*
X1558987Y-868630D01*
X1645012Y-874630D02*
G01*
X1613906Y-874630D01*
X1613906Y-835370D02*
G01*
X1645012Y-835370D01*
X1651012Y-841370D02*
G01*
X1651012Y-868630D01*
X1763170Y-611417D02*
G01*
X1763170Y-580311D01*
X1723910Y-580311D02*
G01*
X1723910Y-611417D01*
X1729909Y-617417D02*
G01*
X1757170Y-617417D01*
X1763170Y-531393D02*
G01*
X1763170Y-562499D01*
X1723910Y-562499D02*
G01*
X1723910Y-531393D01*
X1729909Y-525393D02*
G01*
X1757170Y-525393D01*
X1438000Y-667742D02*
G01*
X1438000Y-636636D01*
X1398740Y-636636D02*
G01*
X1398740Y-667742D01*
X1404740Y-673742D02*
G01*
X1432000Y-673742D01*
X1438000Y-587717D02*
G01*
X1438000Y-618823D01*
X1398740Y-618823D02*
G01*
X1398740Y-587717D01*
X1404740Y-581718D02*
G01*
X1432000Y-581718D01*
X1398740Y-1095217D02*
G01*
X1398740Y-1126323D01*
X1438000Y-1126323D02*
G01*
X1438000Y-1095217D01*
X1432000Y-1089218D02*
G01*
X1404740Y-1089218D01*
X1398740Y-1175242D02*
G01*
X1398740Y-1144136D01*
X1438000Y-1144136D02*
G01*
X1438000Y-1175242D01*
X1432000Y-1181242D02*
G01*
X1404740Y-1181242D01*
X1256240Y-1095217D02*
G01*
X1256240Y-1126323D01*
X1295500Y-1126323D02*
G01*
X1295500Y-1095217D01*
X1289500Y-1089218D02*
G01*
X1262240Y-1089218D01*
X1256240Y-1175242D02*
G01*
X1256240Y-1144136D01*
X1295500Y-1144136D02*
G01*
X1295500Y-1175242D01*
X1289500Y-1181242D02*
G01*
X1262240Y-1181242D01*
D12*
X1550275Y-1078299D02*
G01*
X1550275Y-1046802D01*
X1593966Y-1090498D02*
G01*
X1562471Y-1090498D01*
X1593966Y-1034606D02*
G01*
X1562471Y-1034606D01*
X1616639Y-1090727D02*
G01*
X1648135Y-1090727D01*
X1660333Y-1078529D02*
G01*
X1660333Y-1047034D01*
X1616639Y-1034837D02*
G01*
X1648135Y-1034837D01*
X1550275Y-1008179D02*
G01*
X1550275Y-976682D01*
X1593966Y-1020378D02*
G01*
X1562471Y-1020378D01*
X1593966Y-964486D02*
G01*
X1562471Y-964486D01*
X1616639Y-1020607D02*
G01*
X1648135Y-1020607D01*
X1660333Y-1008409D02*
G01*
X1660333Y-976914D01*
X1616639Y-964717D02*
G01*
X1648135Y-964717D01*
X2060300Y-1092000D02*
G01*
X2065965Y-1092000D01*
X1999035Y-1092000D02*
G01*
X2004699Y-1092000D01*
X2065965Y-1198000D02*
G01*
X2065965Y-1209487D01*
X2065925Y-1209527D01*
X1999035Y-1198000D02*
G01*
X1999035Y-1209684D01*
X1999075Y-1209724D01*
X1999035Y-1198000D02*
G01*
X1999035Y-1092000D01*
X2016500Y-1129000D02*
G01*
X2048500Y-1129000D01*
X2032490Y-1129000D02*
G01*
X2032490Y-1116649D01*
X2032500Y-1156024D02*
G01*
X2032500Y-1169016D01*
X2012500Y-1155000D02*
G01*
X2052500Y-1155000D01*
X2032500Y-1152000D02*
G01*
X2016500Y-1129000D01*
X2048500Y-1129000D02*
G01*
X2032500Y-1152000D01*
X2065965Y-1092000D02*
G01*
X2065965Y-1198000D01*
X1857933Y-1838996D02*
G01*
X1787067Y-1838996D01*
X1857071Y-1776004D02*
G01*
X1787929Y-1776004D01*
D13*
X1827500Y-1807500D02*
G01*
X1808500Y-1826500D01*
X1808500Y-1788500D01*
X1826500Y-1806500D01*
X1831500Y-1830500D02*
G01*
X1831500Y-1786500D01*
X1846500Y-1807500D02*
G01*
X1795500Y-1807500D01*
D12*
X1202933Y-1838996D02*
G01*
X1132067Y-1838996D01*
X1202071Y-1776004D02*
G01*
X1132929Y-1776004D01*
D13*
X1172500Y-1807500D02*
G01*
X1153500Y-1826500D01*
X1153500Y-1788500D01*
X1171500Y-1806500D01*
X1176500Y-1830500D02*
G01*
X1176500Y-1786500D01*
X1191500Y-1807500D02*
G01*
X1140500Y-1807500D01*
D11*
X1616409Y-1867587D02*
G01*
X1673591Y-1867587D01*
X1673591Y-1826972D01*
X1616409Y-1747413D02*
G01*
X1673591Y-1747413D01*
X1673591Y-1788027D01*
X1616409Y-1825429D02*
G01*
X1616409Y-1789571D01*
X960246Y-1867587D02*
G01*
X1017429Y-1867587D01*
X1017429Y-1826972D01*
X960246Y-1747413D02*
G01*
X1017429Y-1747413D01*
X1017429Y-1788027D01*
X960246Y-1825429D02*
G01*
X960246Y-1789571D01*
X2093987Y-586779D02*
G01*
X2093987Y-624529D01*
X2146003Y-624529D01*
X2146003Y-586779D01*
X2093987Y-553219D02*
G01*
X2093987Y-515468D01*
X2146003Y-515468D01*
X2146003Y-553219D01*
X1514637Y-1619461D02*
G01*
X1514637Y-1657211D01*
X1566653Y-1657211D01*
X1566653Y-1619461D01*
X1514637Y-1585901D02*
G01*
X1514637Y-1548150D01*
X1566653Y-1548150D01*
X1566653Y-1585901D01*
X859639Y-1619646D02*
G01*
X859639Y-1657397D01*
X911655Y-1657397D01*
X911655Y-1619646D01*
X859639Y-1586086D02*
G01*
X859639Y-1548335D01*
X911655Y-1548335D01*
X911655Y-1586086D01*
X2037130Y-783906D02*
G01*
X2037130Y-812175D01*
X1997870Y-812175D01*
X1997870Y-783906D01*
X2037130Y-766094D02*
G01*
X2037130Y-737825D01*
X1997870Y-737825D01*
X1997870Y-766094D01*
X1997870Y-986094D02*
G01*
X1997870Y-957825D01*
X2037130Y-957825D01*
X2037130Y-986094D01*
X1997870Y-1003906D02*
G01*
X1997870Y-1032175D01*
X2037130Y-1032175D01*
X2037130Y-1003906D01*
X1596094Y-914630D02*
G01*
X1567825Y-914630D01*
X1567825Y-875370D01*
X1596094Y-875370D01*
X1613906Y-914630D02*
G01*
X1642175Y-914630D01*
X1642175Y-875370D01*
X1613906Y-875370D01*
X1596094Y-954630D02*
G01*
X1567825Y-954630D01*
X1567825Y-915370D01*
X1596094Y-915370D01*
X1613906Y-954630D02*
G01*
X1642175Y-954630D01*
X1642175Y-915370D01*
X1613906Y-915370D01*
X1514639Y-1823396D02*
G01*
X1514639Y-1861147D01*
X1566655Y-1861147D01*
X1566655Y-1823396D01*
X1514639Y-1789836D02*
G01*
X1514639Y-1752085D01*
X1566655Y-1752085D01*
X1566655Y-1789836D01*
X859639Y-1823396D02*
G01*
X859639Y-1861147D01*
X911655Y-1861147D01*
X911655Y-1823396D01*
X859639Y-1789836D02*
G01*
X859639Y-1752085D01*
X911655Y-1752085D01*
X911655Y-1789836D01*
X2093987Y-1216779D02*
G01*
X2093987Y-1254529D01*
X2146003Y-1254529D01*
X2146003Y-1216779D01*
X2093987Y-1183219D02*
G01*
X2093987Y-1145468D01*
X2146003Y-1145468D01*
X2146003Y-1183219D01*
X1329862Y-1144510D02*
G01*
X1329862Y-1182261D01*
X1381878Y-1182261D01*
X1381878Y-1144510D01*
X1329862Y-1110950D02*
G01*
X1329862Y-1073198D01*
X1381878Y-1073198D01*
X1381878Y-1110950D01*
D14*
X1851477Y-2509108D02*
G01*
X1911477Y-2569108D01*
X1892526Y-1988587D02*
G01*
X1969827Y-1988587D01*
X1969827Y-2328587D01*
X1851727Y-2328587D01*
X1850826Y-2329538D01*
X1850826Y-2487647D01*
X1850826Y-2507647D01*
X1590826Y-2135488D02*
G01*
X1590826Y-2167647D01*
X1778326Y-2167647D01*
X1883227Y-2167647D02*
G01*
X1883227Y-2240088D01*
X1778326Y-2240088D01*
X1778326Y-2100088D01*
X1883227Y-2100088D01*
X1883227Y-2175208D01*
X2063227Y-2175208D01*
X2063227Y-2133058D01*
D12*
X1518009Y-2678814D02*
G01*
X2128245Y-2678814D01*
X1518027Y-1930778D02*
G01*
X1779928Y-1930778D01*
X1865227Y-1930778D02*
G01*
X2128227Y-1930778D01*
X2128245Y-2678814D02*
G01*
X2128245Y-1930783D01*
X1518009Y-2678814D02*
G01*
X1518009Y-1930783D01*
D14*
X1657926Y-2547647D02*
G01*
X1810826Y-2547647D01*
X1196477Y-2509108D02*
G01*
X1256477Y-2569108D01*
X1237526Y-1988587D02*
G01*
X1314827Y-1988587D01*
X1314827Y-2328587D01*
X1196727Y-2328587D01*
X1195826Y-2329538D01*
X1195826Y-2487647D01*
X1195826Y-2507647D01*
X935826Y-2135488D02*
G01*
X935826Y-2167647D01*
X1123326Y-2167647D01*
X1228227Y-2167647D02*
G01*
X1228227Y-2240088D01*
X1123326Y-2240088D01*
X1123326Y-2100088D01*
X1228227Y-2100088D01*
X1228227Y-2175208D01*
X1408227Y-2175208D01*
X1408227Y-2133058D01*
D12*
X863009Y-2678814D02*
G01*
X1473245Y-2678814D01*
X863027Y-1930778D02*
G01*
X1124928Y-1930778D01*
X1210227Y-1930778D02*
G01*
X1473227Y-1930778D01*
X1473245Y-2678814D02*
G01*
X1473245Y-1930783D01*
X863009Y-2678814D02*
G01*
X863009Y-1930783D01*
D14*
X1002926Y-2547647D02*
G01*
X1155826Y-2547647D01*
D12*
X1453661Y-752632D02*
G01*
X1449848Y-752632D01*
X1439648Y-742432D01*
X1431266Y-742432D02*
G01*
X1453661Y-764828D01*
X1431266Y-742432D02*
G01*
X1453661Y-742432D01*
X1178073Y-764828D02*
G01*
X1178073Y-746370D01*
X1178073Y-742432D01*
X1200468Y-742432D01*
X1200468Y-1018022D02*
G01*
X1178073Y-1018022D01*
X1178073Y-995626D01*
X1453661Y-995626D02*
G01*
X1453661Y-1018022D01*
X1431266Y-1018022D01*
X1453661Y-742432D02*
G01*
X1453661Y-764828D01*
D11*
X1706424Y-463890D02*
G01*
X1706424Y-706110D01*
X1503575Y-706110D02*
G01*
X1503575Y-463890D01*
D12*
X1713870Y-1504453D02*
G01*
X1973715Y-1504453D01*
X1713870Y-1685557D02*
G01*
X1713870Y-1504453D01*
X1973715Y-1685557D02*
G01*
X1713870Y-1685557D01*
X1973715Y-1504453D02*
G01*
X1973715Y-1685557D01*
X1060077Y-1504453D02*
G01*
X1319921Y-1504453D01*
X1060077Y-1685557D02*
G01*
X1060077Y-1504453D01*
X1319921Y-1685557D02*
G01*
X1060077Y-1685557D01*
X1319921Y-1504453D02*
G01*
X1319921Y-1685557D01*
D11*
X1813512Y-1290087D02*
G01*
X1746487Y-1290087D01*
X1813512Y-1169913D02*
G01*
X1746487Y-1169913D01*
X1746487Y-1211244D02*
G01*
X1746487Y-1248756D01*
D12*
X2271237Y-708622D02*
G01*
X2207493Y-708622D01*
X2358903Y-1061377D02*
G01*
X2414973Y-1061377D01*
X2414973Y-708622D01*
X2358903Y-708622D01*
X2201429Y-1061377D02*
G01*
X2271237Y-1061377D01*
X20000Y-2680000D02*
G01*
X20000Y-1330000D01*
X820000Y-1330000D01*
X820000Y-2680000D01*
X20000Y-2680000D01*
D15*
X1064445Y-948310D02*
G01*
X1084445Y-948310D01*
X1084445Y-928310D01*
D11*
X1075540Y-938210D02*
G01*
X944440Y-938210D01*
X944445Y-778310D01*
X1009445Y-778310D01*
X1074445Y-778310D01*
X1074445Y-778310D01*
X1075540Y-938210D01*
X969988Y-764630D02*
G01*
X1001094Y-764630D01*
X1001094Y-725370D02*
G01*
X969988Y-725370D01*
X963987Y-731370D02*
G01*
X963987Y-758630D01*
X1050012Y-764630D02*
G01*
X1018906Y-764630D01*
X1018906Y-725370D02*
G01*
X1050012Y-725370D01*
X1056012Y-731370D02*
G01*
X1056012Y-758630D01*
X969988Y-989630D02*
G01*
X1001094Y-989630D01*
X1001094Y-950370D02*
G01*
X969988Y-950370D01*
X963987Y-956370D02*
G01*
X963987Y-983630D01*
X1050012Y-989630D02*
G01*
X1018906Y-989630D01*
X1018906Y-950370D02*
G01*
X1050012Y-950370D01*
X1056012Y-956370D02*
G01*
X1056012Y-983630D01*
D12*
X349589Y-3301102D02*
G01*
X276724Y-3301102D01*
X546439Y-3301102D02*
G01*
X446711Y-3301102D01*
X743289Y-3301102D02*
G01*
X643560Y-3301102D01*
X882400Y-3301102D02*
G01*
X840411Y-3301102D01*
X276724Y-3389686D02*
G01*
X276724Y-2858189D01*
X882400Y-2858189D02*
G01*
X882400Y-3389687D01*
X236733Y-2858189D02*
G01*
X882400Y-2858189D01*
X236733Y-3389689D02*
G01*
X236733Y-2858193D01*
X882400Y-3389687D02*
G01*
X236732Y-3389686D01*
X843029Y-3210554D02*
G01*
X740670Y-3210554D01*
X740670Y-3163315D01*
X843029Y-3163315D01*
X843029Y-3210554D01*
X646180Y-3210554D02*
G01*
X543820Y-3210554D01*
X543820Y-3163315D01*
X646180Y-3163315D01*
X646180Y-3210554D01*
X449329Y-3210554D02*
G01*
X346970Y-3210554D01*
X346970Y-3163315D01*
X449329Y-3163315D01*
X449329Y-3210554D01*
X1039369Y-3301102D02*
G01*
X966504Y-3301102D01*
X1236219Y-3301102D02*
G01*
X1136491Y-3301102D01*
X1433069Y-3301102D02*
G01*
X1333341Y-3301102D01*
X1572181Y-3301102D02*
G01*
X1530191Y-3301102D01*
X966504Y-3389686D02*
G01*
X966504Y-2858189D01*
X1572181Y-2858189D02*
G01*
X1572181Y-3389687D01*
X926513Y-2858189D02*
G01*
X1572181Y-2858189D01*
X926513Y-3389689D02*
G01*
X926513Y-2858193D01*
X1572181Y-3389687D02*
G01*
X926512Y-3389686D01*
X1532809Y-3210554D02*
G01*
X1430450Y-3210554D01*
X1430450Y-3163315D01*
X1532809Y-3163315D01*
X1532809Y-3210554D01*
X1335960Y-3210554D02*
G01*
X1233600Y-3210554D01*
X1233600Y-3163315D01*
X1335960Y-3163315D01*
X1335960Y-3210554D01*
X1139110Y-3210554D02*
G01*
X1036750Y-3210554D01*
X1036750Y-3163315D01*
X1139110Y-3163315D01*
X1139110Y-3210554D01*
X1629432Y-3312524D02*
G01*
X1629819Y-3312524D01*
X1629819Y-3389689D01*
X1745568Y-3389689D01*
X1745568Y-3388114D01*
X1629432Y-3312524D02*
G01*
X1629432Y-2892052D01*
X2130213Y-2892051D02*
G01*
X1629426Y-2892051D01*
X1745568Y-3388114D02*
G01*
X1745568Y-3263960D01*
X1745568Y-3263960D02*
G01*
X1745568Y-2892052D01*
X1843993Y-3310545D02*
G01*
X1816755Y-3310545D01*
X1946355Y-3311879D02*
G01*
X1915180Y-3311879D01*
X2044459Y-3311879D02*
G01*
X2017542Y-3311879D01*
X2130213Y-3312523D02*
G01*
X2116289Y-3312523D01*
X2115646Y-3311879D01*
X1745568Y-3263960D02*
G01*
X1816755Y-3263960D01*
X1816755Y-3388114D02*
G01*
X1816755Y-3263960D01*
X1745568Y-3388114D02*
G01*
X1816755Y-3388114D01*
X1843993Y-3263960D02*
G01*
X1915180Y-3263960D01*
X1843993Y-3388114D02*
G01*
X1843993Y-3263960D01*
X1915180Y-3388114D02*
G01*
X1915180Y-3263960D01*
X1843993Y-3388114D02*
G01*
X1915180Y-3388114D01*
X1946355Y-3263960D02*
G01*
X2017542Y-3263960D01*
X1946355Y-3388114D02*
G01*
X1946355Y-3263960D01*
X2017542Y-3388114D02*
G01*
X2017542Y-3263960D01*
X1946355Y-3388114D02*
G01*
X2017542Y-3388114D01*
X2044459Y-3388113D02*
G01*
X2115646Y-3388113D01*
X2115646Y-3388113D02*
G01*
X2115646Y-3263959D01*
X2044459Y-3263959D02*
G01*
X2115646Y-3263959D01*
X2044459Y-3388113D02*
G01*
X2044459Y-3263959D01*
X2130213Y-3225790D02*
G01*
X2130213Y-3312523D01*
X2130213Y-3025790D02*
G01*
X2130213Y-3178783D01*
X2130213Y-2892051D02*
G01*
X2130213Y-2978783D01*
D11*
X1252512Y-502870D02*
G01*
X1221406Y-502870D01*
X1221406Y-542130D02*
G01*
X1252512Y-542130D01*
X1258512Y-536130D02*
G01*
X1258512Y-508870D01*
X1172488Y-502870D02*
G01*
X1203594Y-502870D01*
X1203594Y-542130D02*
G01*
X1172488Y-542130D01*
X1166487Y-536130D02*
G01*
X1166487Y-508870D01*
G75*
G01*
X2202130Y-3004988D02*
G03*
X2196130Y-2998988I-6000J0D01*
G75*
G01*
X2168870Y-2998988D02*
G03*
X2162870Y-3004988I0J-6000D01*
G75*
G01*
X2202130Y-3085012D02*
G02*
X2196130Y-3091012I-6000J0D01*
G75*
G01*
X2168870Y-3091012D02*
G02*
X2162870Y-3085012I0J6000D01*
D12*
G75*
G01*
X1683469Y-1174665D02*
G02*
X1695667Y-1186863I0J-12198D01*
G75*
G01*
X1639775Y-1186863D02*
G02*
X1651974Y-1174665I12198J0D01*
G75*
G01*
X1695438Y-1272527D02*
G02*
X1683239Y-1284725I-12198J0D01*
G75*
G01*
X1651744Y-1284725D02*
G02*
X1639546Y-1272527I0J12198D01*
G75*
G01*
X1905969Y-1174665D02*
G02*
X1918167Y-1186863I0J-12198D01*
G75*
G01*
X1862275Y-1186863D02*
G02*
X1874474Y-1174665I12198J0D01*
G75*
G01*
X1917938Y-1272527D02*
G02*
X1905739Y-1284725I-12198J0D01*
G75*
G01*
X1874244Y-1284725D02*
G02*
X1862046Y-1272527I0J12198D01*
D11*
G75*
G01*
X1050012Y-1079630D02*
G03*
X1056012Y-1073630I0J6000D01*
G75*
G01*
X1056012Y-1046370D02*
G03*
X1050012Y-1040370I-6000J0D01*
G75*
G01*
X969988Y-1079630D02*
G02*
X963988Y-1073630I0J6000D01*
G75*
G01*
X963988Y-1046370D02*
G02*
X969988Y-1040370I6000J0D01*
G75*
G01*
X1564988Y-796830D02*
G03*
X1558988Y-802830I0J-6000D01*
G75*
G01*
X1558988Y-830090D02*
G03*
X1564988Y-836090I6000J0D01*
G75*
G01*
X1645012Y-796830D02*
G02*
X1651012Y-802830I0J-6000D01*
G75*
G01*
X1651012Y-830090D02*
G02*
X1645012Y-836090I-6000J0D01*
G75*
G01*
X1050012Y-1039630D02*
G03*
X1056012Y-1033630I0J6000D01*
G75*
G01*
X1056012Y-1006370D02*
G03*
X1050012Y-1000370I-6000J0D01*
G75*
G01*
X969988Y-1039630D02*
G02*
X963988Y-1033630I0J6000D01*
G75*
G01*
X963988Y-1006370D02*
G02*
X969988Y-1000370I6000J0D01*
G75*
G01*
X1564988Y-835370D02*
G03*
X1558988Y-841370I0J-6000D01*
G75*
G01*
X1558988Y-868630D02*
G03*
X1564988Y-874630I6000J0D01*
G75*
G01*
X1645012Y-835370D02*
G02*
X1651012Y-841370I0J-6000D01*
G75*
G01*
X1651012Y-868630D02*
G02*
X1645012Y-874630I-6000J0D01*
G75*
G01*
X1723910Y-611417D02*
G03*
X1729910Y-617417I6000J0D01*
G75*
G01*
X1757170Y-617417D02*
G03*
X1763170Y-611417I0J6000D01*
G75*
G01*
X1723910Y-531393D02*
G02*
X1729910Y-525393I6000J0D01*
G75*
G01*
X1757170Y-525393D02*
G02*
X1763170Y-531393I0J-6000D01*
G75*
G01*
X1398740Y-667742D02*
G03*
X1404740Y-673742I6000J0D01*
G75*
G01*
X1432000Y-673742D02*
G03*
X1438000Y-667742I0J6000D01*
G75*
G01*
X1398740Y-587718D02*
G02*
X1404740Y-581718I6000J0D01*
G75*
G01*
X1432000Y-581718D02*
G02*
X1438000Y-587718I0J-6000D01*
G75*
G01*
X1438000Y-1095218D02*
G03*
X1432000Y-1089218I-6000J0D01*
G75*
G01*
X1404740Y-1089218D02*
G03*
X1398740Y-1095218I0J-6000D01*
G75*
G01*
X1438000Y-1175242D02*
G02*
X1432000Y-1181242I-6000J0D01*
G75*
G01*
X1404740Y-1181242D02*
G02*
X1398740Y-1175242I0J6000D01*
G75*
G01*
X1295500Y-1095218D02*
G03*
X1289500Y-1089218I-6000J0D01*
G75*
G01*
X1262240Y-1089218D02*
G03*
X1256240Y-1095218I0J-6000D01*
G75*
G01*
X1295500Y-1175242D02*
G02*
X1289500Y-1181242I-6000J0D01*
G75*
G01*
X1262240Y-1181242D02*
G02*
X1256240Y-1175242I0J6000D01*
D12*
G75*
G01*
X1660335Y-1078529D02*
G02*
X1648137Y-1090727I-12198J0D01*
G75*
G01*
X1648137Y-1034835D02*
G02*
X1660335Y-1047034I0J-12198D01*
G75*
G01*
X1562473Y-1090498D02*
G02*
X1550275Y-1078299I0J12198D01*
G75*
G01*
X1550275Y-1046804D02*
G02*
X1562473Y-1034606I12198J0D01*
G75*
G01*
X1660335Y-1008409D02*
G02*
X1648137Y-1020607I-12198J0D01*
G75*
G01*
X1648137Y-964715D02*
G02*
X1660335Y-976914I0J-12198D01*
G75*
G01*
X1562473Y-1020378D02*
G02*
X1550275Y-1008179I0J12198D01*
G75*
G01*
X1550275Y-976684D02*
G02*
X1562473Y-964486I12198J0D01*
D11*
G75*
G01*
X969988Y-725370D02*
G03*
X963988Y-731370I0J-6000D01*
G75*
G01*
X963988Y-758630D02*
G03*
X969988Y-764630I6000J0D01*
G75*
G01*
X1050012Y-725370D02*
G02*
X1056012Y-731370I0J-6000D01*
G75*
G01*
X1056012Y-758630D02*
G02*
X1050012Y-764630I-6000J0D01*
G75*
G01*
X969988Y-950370D02*
G03*
X963988Y-956370I0J-6000D01*
G75*
G01*
X963988Y-983630D02*
G03*
X969988Y-989630I6000J0D01*
G75*
G01*
X1050012Y-950370D02*
G02*
X1056012Y-956370I0J-6000D01*
G75*
G01*
X1056012Y-983630D02*
G02*
X1050012Y-989630I-6000J0D01*
G75*
G01*
X1252512Y-542130D02*
G03*
X1258512Y-536130I0J6000D01*
G75*
G01*
X1258512Y-508870D02*
G03*
X1252512Y-502870I-6000J0D01*
G75*
G01*
X1172488Y-542130D02*
G02*
X1166488Y-536130I0J6000D01*
G75*
G01*
X1166488Y-508870D02*
G02*
X1172488Y-502870I6000J0D01*
D12*
G75*
G01
X2289590Y-570000D02*
G03X2289590Y-570000I-31500J0D01*
G75*
G01
X2289590Y-1200000D02*
G03X2289590Y-1200000I-31500J0D01*
D16*
G75*
G01
X2171990Y-1992370D02*
G03X2171990Y-1992370I-9840J0D01*
G75*
G01
X1516990Y-1992370D02*
G03X1516990Y-1992370I-9840J0D01*
D12*
G75*
G01
X1466540Y-722750D02*
G03X1466540Y-722750I-5000J0D01*
D13*
G75*
G01
X1683940Y-429470D02*
G03X1683940Y-429470I-3940J0D01*
D14*
G75*
G01
X2009700Y-1695000D02*
G03X2009700Y-1695000I-5910J0D01*
G75*
G01
X1949700Y-1660000D02*
G03X1949700Y-1660000I-5910J0D01*
G75*
G01
X1355910Y-1695000D02*
G03X1355910Y-1695000I-5910J0D01*
G75*
G01
X1295910Y-1660000D02*
G03X1295910Y-1660000I-5910J0D01*
G75*
G01
X1830910Y-1295000D02*
G03X1830910Y-1295000I-5910J0D01*
D12*
G75*
G01
X848220Y-3088510D02*
G03X848220Y-3088510I-56370J0D01*
G75*
G01
X651370Y-3088510D02*
G03X651370Y-3088510I-56370J0D01*
G75*
G01
X454520Y-3088510D02*
G03X454520Y-3088510I-56370J0D01*
G75*
G01
X1538000Y-3088510D02*
G03X1538000Y-3088510I-56370J0D01*
G75*
G01
X1341150Y-3088510D02*
G03X1341150Y-3088510I-56370J0D01*
G75*
G01
X1144300Y-3088510D02*
G03X1144300Y-3088510I-56370J0D01*
M02*
