G04 Layer: BottomSilkscreenLayer*
G04 EasyEDA v6.5.22, 2023-04-15 17:34:24*
G04 819af3526855441081df4c6eebb6a90a,5a628b76fac64d3cb101ae6d552a3bac,10*
G04 Gerber Generator version 0.2*
G04 Scale: 100 percent, Rotated: No, Reflected: No *
G04 Dimensions in inches *
G04 leading zeros omitted , absolute positions ,3 integer and 6 decimal *
%FSLAX36Y36*%
%MOIN*%

%ADD10C,0.0060*%
%ADD11C,0.0100*%

%LPD*%
D10*
X391400Y-245695D02*
G01*
X395500Y-241595D01*
X401600Y-239594D01*
X409800Y-239594D01*
X415900Y-241595D01*
X420000Y-245695D01*
X420000Y-249795D01*
X418000Y-253895D01*
X415900Y-255995D01*
X411800Y-257995D01*
X399500Y-262094D01*
X395500Y-264095D01*
X393400Y-266195D01*
X391400Y-270295D01*
X391400Y-276395D01*
X395500Y-280495D01*
X401600Y-282495D01*
X409800Y-282495D01*
X415900Y-280495D01*
X420000Y-276395D01*
X377899Y-239594D02*
G01*
X367600Y-282495D01*
X357400Y-239594D02*
G01*
X367600Y-282495D01*
X357400Y-239594D02*
G01*
X347200Y-282495D01*
X337000Y-239594D02*
G01*
X347200Y-282495D01*
X323500Y-247795D02*
G01*
X319400Y-245695D01*
X313200Y-239594D01*
X313200Y-282495D01*
X391400Y-805695D02*
G01*
X395500Y-801595D01*
X401600Y-799594D01*
X409800Y-799594D01*
X415900Y-801595D01*
X420000Y-805695D01*
X420000Y-809795D01*
X418000Y-813895D01*
X415900Y-815995D01*
X411800Y-817995D01*
X399500Y-822094D01*
X395500Y-824095D01*
X393400Y-826195D01*
X391400Y-830295D01*
X391400Y-836395D01*
X395500Y-840495D01*
X401600Y-842495D01*
X409800Y-842495D01*
X415900Y-840495D01*
X420000Y-836395D01*
X377899Y-799594D02*
G01*
X367600Y-842495D01*
X357400Y-799594D02*
G01*
X367600Y-842495D01*
X357400Y-799594D02*
G01*
X347200Y-842495D01*
X337000Y-799594D02*
G01*
X347200Y-842495D01*
X321400Y-809795D02*
G01*
X321400Y-807795D01*
X319400Y-803695D01*
X317300Y-801595D01*
X313200Y-799594D01*
X305000Y-799594D01*
X301000Y-801595D01*
X298900Y-803695D01*
X296900Y-807795D01*
X296900Y-811894D01*
X298900Y-815995D01*
X303000Y-822094D01*
X323500Y-842495D01*
X294800Y-842495D01*
X391400Y-1360695D02*
G01*
X395500Y-1356595D01*
X401600Y-1354594D01*
X409800Y-1354594D01*
X415900Y-1356595D01*
X420000Y-1360695D01*
X420000Y-1364795D01*
X418000Y-1368895D01*
X415900Y-1370995D01*
X411800Y-1372995D01*
X399500Y-1377094D01*
X395500Y-1379095D01*
X393400Y-1381195D01*
X391400Y-1385295D01*
X391400Y-1391395D01*
X395500Y-1395495D01*
X401600Y-1397495D01*
X409800Y-1397495D01*
X415900Y-1395495D01*
X420000Y-1391395D01*
X377899Y-1354594D02*
G01*
X367600Y-1397495D01*
X357400Y-1354594D02*
G01*
X367600Y-1397495D01*
X357400Y-1354594D02*
G01*
X347200Y-1397495D01*
X337000Y-1354594D02*
G01*
X347200Y-1397495D01*
X319400Y-1354594D02*
G01*
X296900Y-1354594D01*
X309100Y-1370995D01*
X303000Y-1370995D01*
X298900Y-1372995D01*
X296900Y-1374995D01*
X294800Y-1381195D01*
X294800Y-1385295D01*
X296900Y-1391395D01*
X301000Y-1395495D01*
X307100Y-1397495D01*
X313200Y-1397495D01*
X319400Y-1395495D01*
X321400Y-1393495D01*
X323500Y-1389394D01*
X391400Y-1915695D02*
G01*
X395500Y-1911595D01*
X401600Y-1909594D01*
X409800Y-1909594D01*
X415900Y-1911595D01*
X420000Y-1915695D01*
X420000Y-1919795D01*
X418000Y-1923895D01*
X415900Y-1925995D01*
X411800Y-1927995D01*
X399500Y-1932094D01*
X395500Y-1934095D01*
X393400Y-1936195D01*
X391400Y-1940295D01*
X391400Y-1946395D01*
X395500Y-1950495D01*
X401600Y-1952495D01*
X409800Y-1952495D01*
X415900Y-1950495D01*
X420000Y-1946395D01*
X377899Y-1909594D02*
G01*
X367600Y-1952495D01*
X357400Y-1909594D02*
G01*
X367600Y-1952495D01*
X357400Y-1909594D02*
G01*
X347200Y-1952495D01*
X337000Y-1909594D02*
G01*
X347200Y-1952495D01*
X303000Y-1909594D02*
G01*
X323500Y-1938195D01*
X292800Y-1938195D01*
X303000Y-1909594D02*
G01*
X303000Y-1952495D01*
X1495086Y-291481D02*
G01*
X1456886Y-291481D01*
X1495086Y-291481D02*
G01*
X1456886Y-276981D01*
X1495086Y-262381D02*
G01*
X1456886Y-276981D01*
X1495086Y-262381D02*
G01*
X1456886Y-262381D01*
X1495086Y-239481D02*
G01*
X1493286Y-243081D01*
X1489686Y-246781D01*
X1485986Y-248580D01*
X1480586Y-250381D01*
X1471486Y-250381D01*
X1465986Y-248580D01*
X1462386Y-246781D01*
X1458786Y-243081D01*
X1456886Y-239481D01*
X1456886Y-232181D01*
X1458786Y-228580D01*
X1462386Y-224981D01*
X1465986Y-223081D01*
X1471486Y-221281D01*
X1480586Y-221281D01*
X1485986Y-223081D01*
X1489686Y-224981D01*
X1493286Y-228580D01*
X1495086Y-232181D01*
X1495086Y-239481D01*
X1489686Y-183881D02*
G01*
X1493286Y-187481D01*
X1495086Y-192980D01*
X1495086Y-200181D01*
X1493286Y-205680D01*
X1489686Y-209281D01*
X1485986Y-209281D01*
X1482386Y-207481D01*
X1480586Y-205680D01*
X1478786Y-201981D01*
X1475086Y-191080D01*
X1473286Y-187481D01*
X1471486Y-185680D01*
X1467886Y-183881D01*
X1462386Y-183881D01*
X1458786Y-187481D01*
X1456886Y-192980D01*
X1456886Y-200181D01*
X1458786Y-205680D01*
X1462386Y-209281D01*
X1590815Y-260576D02*
G01*
X1594414Y-264176D01*
X1596215Y-269675D01*
X1596215Y-276876D01*
X1594414Y-282375D01*
X1590815Y-285976D01*
X1587115Y-285976D01*
X1583515Y-284176D01*
X1581715Y-282375D01*
X1579815Y-278776D01*
X1576215Y-267876D01*
X1574414Y-264176D01*
X1572615Y-262375D01*
X1568915Y-260576D01*
X1563515Y-260576D01*
X1559815Y-264176D01*
X1558015Y-269675D01*
X1558015Y-276876D01*
X1559815Y-282375D01*
X1563515Y-285976D01*
X1587115Y-221276D02*
G01*
X1590815Y-223076D01*
X1594414Y-226775D01*
X1596215Y-230376D01*
X1596215Y-237676D01*
X1594414Y-241276D01*
X1590815Y-244875D01*
X1587115Y-246775D01*
X1581715Y-248576D01*
X1572615Y-248576D01*
X1567115Y-246775D01*
X1563515Y-244875D01*
X1559815Y-241276D01*
X1558015Y-237676D01*
X1558015Y-230376D01*
X1559815Y-226775D01*
X1563515Y-223076D01*
X1567115Y-221276D01*
X1596215Y-209275D02*
G01*
X1558015Y-209275D01*
X1558015Y-209275D02*
G01*
X1558015Y-187476D01*
X1697277Y-295076D02*
G01*
X1659077Y-280576D01*
X1697277Y-265976D02*
G01*
X1659077Y-280576D01*
X1688177Y-226775D02*
G01*
X1691877Y-228576D01*
X1695477Y-232175D01*
X1697277Y-235876D01*
X1697277Y-243076D01*
X1695477Y-246775D01*
X1691877Y-250376D01*
X1688177Y-252175D01*
X1682777Y-253976D01*
X1673677Y-253976D01*
X1668177Y-252175D01*
X1664576Y-250376D01*
X1660877Y-246775D01*
X1659077Y-243076D01*
X1659077Y-235876D01*
X1660877Y-232175D01*
X1664576Y-228576D01*
X1668177Y-226775D01*
X1688177Y-187476D02*
G01*
X1691877Y-189275D01*
X1695477Y-192976D01*
X1697277Y-196576D01*
X1697277Y-203876D01*
X1695477Y-207476D01*
X1691877Y-211076D01*
X1688177Y-212976D01*
X1682777Y-214776D01*
X1673677Y-214776D01*
X1668177Y-212976D01*
X1664576Y-211076D01*
X1660877Y-207476D01*
X1659077Y-203876D01*
X1659077Y-196576D01*
X1660877Y-192976D01*
X1664576Y-189275D01*
X1668177Y-187476D01*
X1789241Y-262377D02*
G01*
X1792941Y-264176D01*
X1796541Y-267777D01*
X1798341Y-271476D01*
X1798341Y-278677D01*
X1796541Y-282377D01*
X1792941Y-285977D01*
X1789241Y-287777D01*
X1783841Y-289576D01*
X1774741Y-289576D01*
X1769241Y-287777D01*
X1765641Y-285977D01*
X1761941Y-282377D01*
X1760141Y-278677D01*
X1760141Y-271476D01*
X1761941Y-267777D01*
X1765641Y-264176D01*
X1769241Y-262377D01*
X1774741Y-262377D01*
X1774741Y-271476D02*
G01*
X1774741Y-262377D01*
X1798341Y-250377D02*
G01*
X1760141Y-250377D01*
X1798341Y-250377D02*
G01*
X1760141Y-224877D01*
X1798341Y-224877D02*
G01*
X1760141Y-224877D01*
X1798341Y-212877D02*
G01*
X1760141Y-212877D01*
X1798341Y-212877D02*
G01*
X1798341Y-200177D01*
X1796541Y-194677D01*
X1792941Y-191077D01*
X1789241Y-189277D01*
X1783841Y-187477D01*
X1774741Y-187477D01*
X1769241Y-189277D01*
X1765641Y-191077D01*
X1761941Y-194677D01*
X1760141Y-200177D01*
X1760141Y-212877D01*
X1398306Y-252175D02*
G01*
X1360206Y-252175D01*
X1398306Y-252175D02*
G01*
X1398306Y-239475D01*
X1396505Y-233976D01*
X1392906Y-230376D01*
X1389306Y-228576D01*
X1383806Y-226775D01*
X1374706Y-226775D01*
X1369306Y-228576D01*
X1365606Y-230376D01*
X1362006Y-233976D01*
X1360206Y-239475D01*
X1360206Y-252175D01*
X1389306Y-187476D02*
G01*
X1392906Y-189275D01*
X1396505Y-192976D01*
X1398306Y-196576D01*
X1398306Y-203876D01*
X1396505Y-207476D01*
X1392906Y-211076D01*
X1389306Y-212976D01*
X1383806Y-214776D01*
X1374706Y-214776D01*
X1369306Y-212976D01*
X1365606Y-211076D01*
X1362006Y-207476D01*
X1360206Y-203876D01*
X1360206Y-196576D01*
X1362006Y-192976D01*
X1365606Y-189275D01*
X1369306Y-187476D01*
X1288187Y-246076D02*
G01*
X1291787Y-247876D01*
X1295487Y-251476D01*
X1297287Y-255176D01*
X1297287Y-262476D01*
X1295487Y-266076D01*
X1291787Y-269675D01*
X1288187Y-271476D01*
X1282787Y-273376D01*
X1273687Y-273376D01*
X1268187Y-271476D01*
X1264587Y-269675D01*
X1260887Y-266076D01*
X1259086Y-262476D01*
X1259086Y-255176D01*
X1260887Y-251476D01*
X1264587Y-247876D01*
X1268187Y-246076D01*
X1291787Y-208576D02*
G01*
X1295487Y-212276D01*
X1297287Y-217676D01*
X1297287Y-224976D01*
X1295487Y-230476D01*
X1291787Y-234076D01*
X1288187Y-234076D01*
X1284587Y-232276D01*
X1282787Y-230476D01*
X1280887Y-226775D01*
X1277287Y-215876D01*
X1275487Y-212276D01*
X1273687Y-210476D01*
X1269987Y-208576D01*
X1264587Y-208576D01*
X1260887Y-212276D01*
X1259086Y-217676D01*
X1259086Y-224976D01*
X1260887Y-230476D01*
X1264587Y-234076D01*
X1289987Y-196576D02*
G01*
X1291787Y-192976D01*
X1297287Y-187476D01*
X1259086Y-187476D01*
X1196223Y-285977D02*
G01*
X1158023Y-285977D01*
X1196223Y-285977D02*
G01*
X1196223Y-262377D01*
X1178023Y-285977D02*
G01*
X1178023Y-271476D01*
X1190723Y-224877D02*
G01*
X1194423Y-228477D01*
X1196223Y-233976D01*
X1196223Y-241277D01*
X1194423Y-246676D01*
X1190723Y-250377D01*
X1187123Y-250377D01*
X1183523Y-248477D01*
X1181723Y-246676D01*
X1179823Y-243077D01*
X1176223Y-232177D01*
X1174423Y-228477D01*
X1172623Y-226676D01*
X1168923Y-224877D01*
X1163523Y-224877D01*
X1159823Y-228477D01*
X1158023Y-233976D01*
X1158023Y-241277D01*
X1159823Y-246676D01*
X1163523Y-250377D01*
X1196223Y-201977D02*
G01*
X1194423Y-207477D01*
X1188923Y-211077D01*
X1179823Y-212877D01*
X1174423Y-212877D01*
X1165323Y-211077D01*
X1159823Y-207477D01*
X1158023Y-201977D01*
X1158023Y-198377D01*
X1159823Y-192877D01*
X1165323Y-189277D01*
X1174423Y-187477D01*
X1179823Y-187477D01*
X1188923Y-189277D01*
X1194423Y-192877D01*
X1196223Y-198377D01*
X1196223Y-201977D01*
X1085986Y-262377D02*
G01*
X1089686Y-264176D01*
X1093286Y-267877D01*
X1095086Y-271476D01*
X1095086Y-278777D01*
X1093286Y-282377D01*
X1089686Y-286077D01*
X1085986Y-287877D01*
X1080586Y-289677D01*
X1071486Y-289677D01*
X1065986Y-287877D01*
X1062386Y-286077D01*
X1058786Y-282377D01*
X1056886Y-278777D01*
X1056886Y-271476D01*
X1058786Y-267877D01*
X1062386Y-264176D01*
X1065986Y-262377D01*
X1089686Y-224977D02*
G01*
X1093286Y-228577D01*
X1095086Y-234077D01*
X1095086Y-241277D01*
X1093286Y-246777D01*
X1089686Y-250377D01*
X1085986Y-250377D01*
X1082386Y-248577D01*
X1080586Y-246777D01*
X1078786Y-243177D01*
X1075086Y-232177D01*
X1073286Y-228577D01*
X1071486Y-226777D01*
X1067886Y-224977D01*
X1062386Y-224977D01*
X1058786Y-228577D01*
X1056886Y-234077D01*
X1056886Y-241277D01*
X1058786Y-246777D01*
X1062386Y-250377D01*
X1085986Y-211177D02*
G01*
X1087886Y-211177D01*
X1091486Y-209277D01*
X1093286Y-207477D01*
X1095086Y-203877D01*
X1095086Y-196577D01*
X1093286Y-192977D01*
X1091486Y-191177D01*
X1087886Y-189277D01*
X1084185Y-189277D01*
X1080586Y-191177D01*
X1075086Y-194777D01*
X1056886Y-212977D01*
X1056886Y-187477D01*
D11*
X656221Y-595113D02*
G01*
X656221Y-484877D01*
X183780Y-776215D02*
G01*
X183779Y-681727D01*
X656221Y-776215D02*
G01*
X656221Y-681727D01*
X656221Y-398263D02*
G01*
X656219Y-303775D01*
X656220Y-776215D02*
G01*
X183780Y-776215D01*
X656220Y-303775D02*
G01*
X183780Y-303775D01*
X183779Y-398263D02*
G01*
X183780Y-303775D01*
X183779Y-595113D02*
G01*
X183779Y-484877D01*
X498740Y-461265D02*
G01*
X341260Y-461265D01*
X341260Y-618745D01*
X498740Y-618745D01*
X498740Y-461265D01*
X656221Y-1155113D02*
G01*
X656221Y-1044877D01*
X183780Y-1336215D02*
G01*
X183779Y-1241727D01*
X656221Y-1336215D02*
G01*
X656221Y-1241727D01*
X656221Y-958263D02*
G01*
X656219Y-863775D01*
X656220Y-1336215D02*
G01*
X183780Y-1336215D01*
X656220Y-863775D02*
G01*
X183780Y-863775D01*
X183779Y-958263D02*
G01*
X183780Y-863775D01*
X183779Y-1155113D02*
G01*
X183779Y-1044877D01*
X498740Y-1021265D02*
G01*
X341260Y-1021265D01*
X341260Y-1178745D01*
X498740Y-1178745D01*
X498740Y-1021265D01*
X656221Y-1710113D02*
G01*
X656221Y-1599877D01*
X183780Y-1891215D02*
G01*
X183779Y-1796727D01*
X656221Y-1891215D02*
G01*
X656221Y-1796727D01*
X656221Y-1513263D02*
G01*
X656219Y-1418775D01*
X656220Y-1891215D02*
G01*
X183780Y-1891215D01*
X656220Y-1418775D02*
G01*
X183780Y-1418775D01*
X183779Y-1513263D02*
G01*
X183780Y-1418775D01*
X183779Y-1710113D02*
G01*
X183779Y-1599877D01*
X498740Y-1576265D02*
G01*
X341260Y-1576265D01*
X341260Y-1733745D01*
X498740Y-1733745D01*
X498740Y-1576265D01*
X656221Y-2265113D02*
G01*
X656221Y-2154877D01*
X183780Y-2446215D02*
G01*
X183779Y-2351727D01*
X656221Y-2446215D02*
G01*
X656221Y-2351727D01*
X656221Y-2068263D02*
G01*
X656219Y-1973775D01*
X656220Y-2446215D02*
G01*
X183780Y-2446215D01*
X656220Y-1973775D02*
G01*
X183780Y-1973775D01*
X183779Y-2068263D02*
G01*
X183780Y-1973775D01*
X183779Y-2265113D02*
G01*
X183779Y-2154877D01*
X498740Y-2131265D02*
G01*
X341260Y-2131265D01*
X341260Y-2288745D01*
X498740Y-2288745D01*
X498740Y-2131265D01*
X2125057Y-39945D02*
G01*
X731358Y-39945D01*
X731358Y-1358845D01*
X2125057Y-1358845D01*
X2125057Y-39945D01*
X1836948Y-72764D02*
G01*
X1018047Y-72764D01*
X1018047Y-167255D01*
X1836948Y-167255D01*
X1836948Y-72764D01*
X2071318Y-315595D02*
G01*
X772108Y-315595D01*
X772108Y-984884D01*
X2071318Y-984884D01*
X2071318Y-315595D01*
G75*
G01
X542050Y-540000D02*
G03X542050Y-540000I-122050J0D01*
G75*
G01
X286140Y-366770D02*
G03X286140Y-366770I-39370J0D01*
G75*
G01
X632600Y-362840D02*
G03X632600Y-362840I-39370J0D01*
G75*
G01
X632600Y-717170D02*
G03X632600Y-717170I-39370J0D01*
G75*
G01
X282200Y-717170D02*
G03X282200Y-717170I-39370J0D01*
G75*
G01
X463310Y-540010D02*
G03X463310Y-540010I-43310J0D01*
G75*
G01
X542050Y-1100000D02*
G03X542050Y-1100000I-122050J0D01*
G75*
G01
X286140Y-926770D02*
G03X286140Y-926770I-39370J0D01*
G75*
G01
X632600Y-922840D02*
G03X632600Y-922840I-39370J0D01*
G75*
G01
X632600Y-1277170D02*
G03X632600Y-1277170I-39370J0D01*
G75*
G01
X282200Y-1277170D02*
G03X282200Y-1277170I-39370J0D01*
G75*
G01
X463310Y-1100010D02*
G03X463310Y-1100010I-43310J0D01*
G75*
G01
X542050Y-1655000D02*
G03X542050Y-1655000I-122050J0D01*
G75*
G01
X286140Y-1481770D02*
G03X286140Y-1481770I-39370J0D01*
G75*
G01
X632600Y-1477840D02*
G03X632600Y-1477840I-39370J0D01*
G75*
G01
X632600Y-1832170D02*
G03X632600Y-1832170I-39370J0D01*
G75*
G01
X282200Y-1832170D02*
G03X282200Y-1832170I-39370J0D01*
G75*
G01
X463310Y-1655010D02*
G03X463310Y-1655010I-43310J0D01*
G75*
G01
X542050Y-2210000D02*
G03X542050Y-2210000I-122050J0D01*
G75*
G01
X286140Y-2036770D02*
G03X286140Y-2036770I-39370J0D01*
G75*
G01
X632600Y-2032840D02*
G03X632600Y-2032840I-39370J0D01*
G75*
G01
X632600Y-2387170D02*
G03X632600Y-2387170I-39370J0D01*
G75*
G01
X282200Y-2387170D02*
G03X282200Y-2387170I-39370J0D01*
G75*
G01
X463310Y-2210010D02*
G03X463310Y-2210010I-43310J0D01*
G75*
G01
X902978Y-139605D02*
G03X902978Y-139605I-70870J0D01*
G75*
G01
X902978Y-1260395D02*
G03X902978Y-1260395I-70870J0D01*
G75*
G01
X2098768Y-139605D02*
G03X2098768Y-139605I-70870J0D01*
G75*
G01
X2098768Y-1260395D02*
G03X2098768Y-1260395I-70870J0D01*
M02*
