M48
INCH,LZ
;FILE_FORMAT=2:4
;TYPE=PLATED
;Layer: PTH_Through
;EasyEDA v6.5.23, 2023-05-02 00:31:49
;877d1f729ee14e6da983c975b027c834,5a628b76fac64d3cb101ae6d552a3bac,10
;Gerber Generator version 0.2
;Holesize 1 = 0.0240 inch
T01C0.0240
;Holesize 2 = 0.0430 inch
T02C0.0430
;Holesize 3 = 0.0470 inch
T03C0.0470
;Holesize 4 = 0.0590 inch
T04C0.0590
;Holesize 5 = 0.0600 inch
T05C0.0600
%
G05
G90
T01
X023308Y-007149G85X022993Y-007149
X023308Y-010551G85X022993Y-010551
X021733Y-007149G85X021300Y-007149
X021733Y-010551G85X021300Y-010551
T02
X002175Y-011100
X003175Y-011100
X004175Y-011100
X005175Y-011100
X006175Y-011100
X013675Y-001250
X014675Y-001250
X015675Y-001250
X016675Y-001250
T03
X007206Y-014263
X001143Y-014263
X005159Y-025837
X003191Y-025837
T04
X002717Y-032084
X004685Y-032084
X006654Y-032084
X008622Y-032084
X010591Y-032084
X012559Y-032084
X014528Y-032084
X016496Y-032084
X018465Y-032084
X020433Y-032084
X020433Y-030116
X018465Y-030116
X016496Y-030116
X014528Y-030116
X012559Y-030116
X010591Y-030116
X008622Y-030116
X006654Y-030116
X004685Y-030116
X002717Y-030116
T05
X015869Y-020646
X020594Y-020646
X018231Y-019858
X015869Y-025449
X009319Y-020646
X014044Y-020646
X011681Y-019858
X009319Y-025449
M30
