G04 Layer: TopSilkscreenLayer*
G04 EasyEDA v6.5.23, 2023-05-02 00:31:49*
G04 877d1f729ee14e6da983c975b027c834,5a628b76fac64d3cb101ae6d552a3bac,10*
G04 Gerber Generator version 0.2*
G04 Scale: 100 percent, Rotated: No, Reflected: No *
G04 Dimensions in inches *
G04 leading zeros omitted , absolute positions ,3 integer and 6 decimal *
%FSLAX36Y36*%
%MOIN*%

%ADD10C,0.0060*%
%ADD11C,0.0080*%
%ADD12C,0.0100*%
%ADD13C,0.0079*%
%ADD14C,0.0118*%
%ADD15C,0.0060*%
%ADD16C,0.0197*%
%ADD17C,0.0166*%

%LPD*%
D10*
X1389978Y-2731401D02*
G01*
X1389978Y-2764801D01*
X1389978Y-2731401D02*
G01*
X1401178Y-2731401D01*
X1405878Y-2733000D01*
X1409077Y-2736201D01*
X1410678Y-2739301D01*
X1412278Y-2744101D01*
X1412278Y-2752101D01*
X1410678Y-2756801D01*
X1409077Y-2760001D01*
X1405878Y-2763201D01*
X1401178Y-2764801D01*
X1389978Y-2764801D01*
X1422778Y-2731401D02*
G01*
X1422778Y-2764801D01*
X1445078Y-2731401D02*
G01*
X1445078Y-2764801D01*
X1422778Y-2747301D02*
G01*
X1445078Y-2747301D01*
X1466678Y-2731401D02*
G01*
X1466678Y-2764801D01*
X1455578Y-2731401D02*
G01*
X1477778Y-2731401D01*
X1489877Y-2739301D02*
G01*
X1489877Y-2737800D01*
X1491478Y-2734601D01*
X1493078Y-2733000D01*
X1496278Y-2731401D01*
X1502678Y-2731401D01*
X1505778Y-2733000D01*
X1507377Y-2734601D01*
X1508978Y-2737800D01*
X1508978Y-2740901D01*
X1507377Y-2744101D01*
X1504178Y-2748901D01*
X1488278Y-2764801D01*
X1510578Y-2764801D01*
X1522678Y-2739301D02*
G01*
X1522678Y-2737800D01*
X1524278Y-2734601D01*
X1525878Y-2733000D01*
X1529077Y-2731401D01*
X1535378Y-2731401D01*
X1538578Y-2733000D01*
X1540178Y-2734601D01*
X1541778Y-2737800D01*
X1541778Y-2740901D01*
X1540178Y-2744101D01*
X1536977Y-2748901D01*
X1521078Y-2764801D01*
X1543378Y-2764801D01*
X1586868Y-2731402D02*
G01*
X1586868Y-2764801D01*
X1586868Y-2764801D02*
G01*
X1605968Y-2764801D01*
X1616468Y-2731402D02*
G01*
X1616468Y-2764801D01*
X1650768Y-2739402D02*
G01*
X1649268Y-2736202D01*
X1646068Y-2733002D01*
X1642868Y-2731402D01*
X1636468Y-2731402D01*
X1633268Y-2733002D01*
X1630168Y-2736202D01*
X1628568Y-2739402D01*
X1626968Y-2744102D01*
X1626968Y-2752102D01*
X1628568Y-2756902D01*
X1630168Y-2760001D01*
X1633268Y-2763202D01*
X1636468Y-2764801D01*
X1642868Y-2764801D01*
X1646068Y-2763202D01*
X1649268Y-2760001D01*
X1650768Y-2756902D01*
X1650768Y-2752102D01*
X1642868Y-2752102D02*
G01*
X1650768Y-2752102D01*
X1661268Y-2731402D02*
G01*
X1661268Y-2764801D01*
X1683568Y-2731402D02*
G01*
X1683568Y-2764801D01*
X1661268Y-2747301D02*
G01*
X1683568Y-2747301D01*
X1705268Y-2731402D02*
G01*
X1705268Y-2764801D01*
X1694068Y-2731402D02*
G01*
X1716368Y-2731402D01*
X1807619Y-2739402D02*
G01*
X1806019Y-2736202D01*
X1802818Y-2733002D01*
X1799619Y-2731402D01*
X1793218Y-2731402D01*
X1790119Y-2733002D01*
X1786919Y-2736202D01*
X1785318Y-2739402D01*
X1783719Y-2744102D01*
X1783719Y-2752102D01*
X1785318Y-2756902D01*
X1786919Y-2760001D01*
X1790119Y-2763202D01*
X1793218Y-2764801D01*
X1799619Y-2764801D01*
X1802818Y-2763202D01*
X1806019Y-2760001D01*
X1807619Y-2756902D01*
X1807619Y-2752102D01*
X1799619Y-2752102D02*
G01*
X1807619Y-2752102D01*
X1818119Y-2731402D02*
G01*
X1818119Y-2764801D01*
X1818119Y-2731402D02*
G01*
X1840318Y-2764801D01*
X1840318Y-2731402D02*
G01*
X1840318Y-2764801D01*
X1850819Y-2731402D02*
G01*
X1850819Y-2764801D01*
X1850819Y-2731402D02*
G01*
X1862019Y-2731402D01*
X1866719Y-2733002D01*
X1869918Y-2736202D01*
X1871519Y-2739402D01*
X1873119Y-2744102D01*
X1873119Y-2752102D01*
X1871519Y-2756902D01*
X1869918Y-2760001D01*
X1866719Y-2763202D01*
X1862019Y-2764801D01*
X1850819Y-2764801D01*
X1983770Y-2731402D02*
G01*
X2001270Y-2731402D01*
X1991670Y-2744102D01*
X1996469Y-2744102D01*
X1999670Y-2745702D01*
X2001270Y-2747301D01*
X2002870Y-2752102D01*
X2002870Y-2755302D01*
X2001270Y-2760001D01*
X1998070Y-2763202D01*
X1993270Y-2764801D01*
X1988470Y-2764801D01*
X1983770Y-2763202D01*
X1982170Y-2761602D01*
X1980570Y-2758402D01*
X2013370Y-2731402D02*
G01*
X2026069Y-2764801D01*
X2038770Y-2731402D02*
G01*
X2026069Y-2764801D01*
X2052470Y-2731402D02*
G01*
X2069970Y-2731402D01*
X2060470Y-2744102D01*
X2065170Y-2744102D01*
X2068370Y-2745702D01*
X2069970Y-2747301D01*
X2071570Y-2752102D01*
X2071570Y-2755302D01*
X2069970Y-2760001D01*
X2066770Y-2763202D01*
X2061970Y-2764801D01*
X2057270Y-2764801D01*
X2052470Y-2763202D01*
X2050870Y-2761602D01*
X2049270Y-2758402D01*
D11*
X1255905Y-2719500D02*
G01*
X1255905Y-2776700D01*
X1255905Y-2719500D02*
G01*
X1294104Y-2776700D01*
X1294104Y-2719500D02*
G01*
X1294104Y-2776700D01*
X1054646Y-2719500D02*
G01*
X1049146Y-2722200D01*
X1043746Y-2727600D01*
X1041046Y-2733099D01*
X1038245Y-2741300D01*
X1038245Y-2754900D01*
X1041046Y-2763099D01*
X1043746Y-2768500D01*
X1049146Y-2774000D01*
X1054646Y-2776700D01*
X1065546Y-2776700D01*
X1071046Y-2774000D01*
X1076446Y-2768500D01*
X1079146Y-2763099D01*
X1081946Y-2754900D01*
X1081946Y-2741300D01*
X1079146Y-2733099D01*
X1076446Y-2727600D01*
X1071046Y-2722200D01*
X1065546Y-2719500D01*
X1054646Y-2719500D01*
X1099946Y-2730399D02*
G01*
X1105345Y-2727600D01*
X1113546Y-2719500D01*
X1113546Y-2776700D01*
X857686Y-2719500D02*
G01*
X857686Y-2776700D01*
X857686Y-2719500D02*
G01*
X895886Y-2776700D01*
X895886Y-2719500D02*
G01*
X895886Y-2776700D01*
X631824Y-2719500D02*
G01*
X626424Y-2722200D01*
X620925Y-2727600D01*
X618225Y-2733099D01*
X615525Y-2741300D01*
X615525Y-2754900D01*
X618225Y-2763099D01*
X620925Y-2768500D01*
X626424Y-2774000D01*
X631824Y-2776700D01*
X642725Y-2776700D01*
X648225Y-2774000D01*
X653625Y-2768500D01*
X656424Y-2763099D01*
X659125Y-2754900D01*
X659125Y-2741300D01*
X656424Y-2733099D01*
X653625Y-2727600D01*
X648225Y-2722200D01*
X642725Y-2719500D01*
X631824Y-2719500D01*
X679825Y-2733099D02*
G01*
X679825Y-2730399D01*
X682525Y-2724900D01*
X685325Y-2722200D01*
X690725Y-2719500D01*
X701625Y-2719500D01*
X707125Y-2722200D01*
X709825Y-2724900D01*
X712525Y-2730399D01*
X712525Y-2735799D01*
X709825Y-2741300D01*
X704425Y-2749500D01*
X677125Y-2776700D01*
X715325Y-2776700D01*
X435061Y-2719500D02*
G01*
X435061Y-2776700D01*
X435061Y-2719500D02*
G01*
X473161Y-2776700D01*
X473161Y-2719500D02*
G01*
X473161Y-2776700D01*
X260000Y-2719500D02*
G01*
X260000Y-2776700D01*
X260000Y-2776700D02*
G01*
X292700Y-2776700D01*
D10*
X196381Y-1280713D02*
G01*
X234581Y-1280713D01*
X196381Y-1280713D02*
G01*
X196381Y-1264313D01*
X198181Y-1258913D01*
X200081Y-1257112D01*
X203681Y-1255213D01*
X207281Y-1255213D01*
X210981Y-1257112D01*
X212781Y-1258913D01*
X214581Y-1264313D01*
X214581Y-1280713D02*
G01*
X214581Y-1264313D01*
X216381Y-1258913D01*
X218181Y-1257112D01*
X221881Y-1255213D01*
X227281Y-1255213D01*
X230981Y-1257112D01*
X232781Y-1258913D01*
X234581Y-1264313D01*
X234581Y-1280713D01*
X196381Y-1230513D02*
G01*
X234581Y-1230513D01*
X196381Y-1243213D02*
G01*
X196381Y-1217813D01*
X196381Y-1205813D02*
G01*
X234581Y-1205813D01*
X196381Y-1205813D02*
G01*
X234581Y-1180313D01*
X196381Y-1180313D02*
G01*
X234581Y-1180313D01*
X203681Y-1168313D02*
G01*
X201881Y-1164713D01*
X196381Y-1159212D01*
X234581Y-1159212D01*
X297449Y-1297011D02*
G01*
X335650Y-1297011D01*
X297449Y-1297011D02*
G01*
X297449Y-1280712D01*
X299250Y-1275212D01*
X301150Y-1273412D01*
X304750Y-1271612D01*
X308350Y-1271612D01*
X312049Y-1273412D01*
X313850Y-1275212D01*
X315650Y-1280712D01*
X315650Y-1297011D02*
G01*
X315650Y-1280712D01*
X317449Y-1275212D01*
X319250Y-1273412D01*
X322950Y-1271612D01*
X328350Y-1271612D01*
X332049Y-1273412D01*
X333850Y-1275212D01*
X335650Y-1280712D01*
X335650Y-1297011D01*
X297449Y-1246812D02*
G01*
X335650Y-1246812D01*
X297449Y-1259612D02*
G01*
X297449Y-1234112D01*
X297449Y-1222112D02*
G01*
X335650Y-1222112D01*
X297449Y-1222112D02*
G01*
X335650Y-1196712D01*
X297449Y-1196712D02*
G01*
X335650Y-1196712D01*
X306550Y-1182812D02*
G01*
X304750Y-1182812D01*
X301150Y-1181012D01*
X299250Y-1179212D01*
X297449Y-1175612D01*
X297449Y-1168312D01*
X299250Y-1164711D01*
X301150Y-1162812D01*
X304750Y-1161012D01*
X308350Y-1161012D01*
X312049Y-1162812D01*
X317449Y-1166512D01*
X335650Y-1184711D01*
X335650Y-1159212D01*
X398511Y-1297114D02*
G01*
X436711Y-1297114D01*
X398511Y-1297114D02*
G01*
X398511Y-1280714D01*
X400311Y-1275214D01*
X402211Y-1273414D01*
X405811Y-1271613D01*
X409411Y-1271613D01*
X413110Y-1273414D01*
X414911Y-1275214D01*
X416711Y-1280714D01*
X416711Y-1297114D02*
G01*
X416711Y-1280714D01*
X418511Y-1275214D01*
X420311Y-1273414D01*
X424011Y-1271613D01*
X429411Y-1271613D01*
X433110Y-1273414D01*
X434911Y-1275214D01*
X436711Y-1280714D01*
X436711Y-1297114D01*
X398511Y-1246914D02*
G01*
X436711Y-1246914D01*
X398511Y-1259614D02*
G01*
X398511Y-1234214D01*
X398511Y-1222214D02*
G01*
X436711Y-1222214D01*
X398511Y-1222214D02*
G01*
X436711Y-1196714D01*
X398511Y-1196714D02*
G01*
X436711Y-1196714D01*
X398511Y-1181114D02*
G01*
X398511Y-1161114D01*
X413110Y-1172013D01*
X413110Y-1166514D01*
X414911Y-1162914D01*
X416711Y-1161114D01*
X422211Y-1159214D01*
X425811Y-1159214D01*
X431311Y-1161114D01*
X434911Y-1164714D01*
X436711Y-1170214D01*
X436711Y-1175614D01*
X434911Y-1181114D01*
X433110Y-1182914D01*
X429411Y-1184714D01*
X499684Y-1298912D02*
G01*
X537785Y-1298912D01*
X499684Y-1298912D02*
G01*
X499684Y-1282512D01*
X501485Y-1277011D01*
X503285Y-1275212D01*
X506885Y-1273412D01*
X510585Y-1273412D01*
X514185Y-1275212D01*
X515985Y-1277011D01*
X517785Y-1282512D01*
X517785Y-1298912D02*
G01*
X517785Y-1282512D01*
X519684Y-1277011D01*
X521485Y-1275212D01*
X525084Y-1273412D01*
X530585Y-1273412D01*
X534185Y-1275212D01*
X535985Y-1277011D01*
X537785Y-1282512D01*
X537785Y-1298912D01*
X499684Y-1248712D02*
G01*
X537785Y-1248712D01*
X499684Y-1261412D02*
G01*
X499684Y-1236012D01*
X499684Y-1224012D02*
G01*
X537785Y-1224012D01*
X499684Y-1224012D02*
G01*
X537785Y-1198512D01*
X499684Y-1198512D02*
G01*
X537785Y-1198512D01*
X499684Y-1168312D02*
G01*
X525084Y-1186512D01*
X525084Y-1159212D01*
X499684Y-1168312D02*
G01*
X537785Y-1168312D01*
X605759Y-1234113D02*
G01*
X602058Y-1235914D01*
X598459Y-1239513D01*
X596658Y-1243214D01*
X596658Y-1250414D01*
X598459Y-1254113D01*
X602058Y-1257714D01*
X605759Y-1259513D01*
X611159Y-1261314D01*
X620259Y-1261314D01*
X625759Y-1259513D01*
X629359Y-1257714D01*
X633059Y-1254113D01*
X634859Y-1250414D01*
X634859Y-1243214D01*
X633059Y-1239513D01*
X629359Y-1235914D01*
X625759Y-1234113D01*
X620259Y-1234113D01*
X620259Y-1243214D02*
G01*
X620259Y-1234113D01*
X596658Y-1222114D02*
G01*
X634859Y-1222114D01*
X596658Y-1222114D02*
G01*
X634859Y-1196613D01*
X596658Y-1196613D02*
G01*
X634859Y-1196613D01*
X596658Y-1184614D02*
G01*
X634859Y-1184614D01*
X596658Y-1184614D02*
G01*
X596658Y-1171914D01*
X598459Y-1166413D01*
X602058Y-1162814D01*
X605759Y-1161014D01*
X611159Y-1159214D01*
X620259Y-1159214D01*
X625759Y-1161014D01*
X629359Y-1162814D01*
X633059Y-1166413D01*
X634859Y-1171914D01*
X634859Y-1184614D01*
X1355760Y-272155D02*
G01*
X1352060Y-273956D01*
X1348460Y-277555D01*
X1346660Y-281256D01*
X1346660Y-288456D01*
X1348460Y-292155D01*
X1352060Y-295756D01*
X1355760Y-297555D01*
X1361159Y-299356D01*
X1370260Y-299356D01*
X1375760Y-297555D01*
X1379360Y-295756D01*
X1383060Y-292155D01*
X1384859Y-288456D01*
X1384859Y-281256D01*
X1383060Y-277555D01*
X1379360Y-273956D01*
X1375760Y-272155D01*
X1370260Y-272155D01*
X1370260Y-281256D02*
G01*
X1370260Y-272155D01*
X1346660Y-260156D02*
G01*
X1384859Y-260156D01*
X1346660Y-260156D02*
G01*
X1384859Y-234655D01*
X1346660Y-234655D02*
G01*
X1384859Y-234655D01*
X1346660Y-222656D02*
G01*
X1384859Y-222656D01*
X1346660Y-222656D02*
G01*
X1346660Y-209956D01*
X1348460Y-204456D01*
X1352060Y-200856D01*
X1355760Y-199056D01*
X1361159Y-197256D01*
X1370260Y-197256D01*
X1375760Y-199056D01*
X1379360Y-200856D01*
X1383060Y-204456D01*
X1384859Y-209956D01*
X1384859Y-222656D01*
X1447724Y-304855D02*
G01*
X1485924Y-290356D01*
X1447724Y-275756D02*
G01*
X1485924Y-290356D01*
X1456824Y-236556D02*
G01*
X1453124Y-238356D01*
X1449524Y-241956D01*
X1447724Y-245656D01*
X1447724Y-252856D01*
X1449524Y-256556D01*
X1453124Y-260156D01*
X1456824Y-261956D01*
X1462224Y-263756D01*
X1471324Y-263756D01*
X1476824Y-261956D01*
X1480424Y-260156D01*
X1484124Y-256556D01*
X1485924Y-252856D01*
X1485924Y-245656D01*
X1484124Y-241956D01*
X1480424Y-238356D01*
X1476824Y-236556D01*
X1456824Y-197256D02*
G01*
X1453124Y-199056D01*
X1449524Y-202755D01*
X1447724Y-206356D01*
X1447724Y-213656D01*
X1449524Y-217256D01*
X1453124Y-220856D01*
X1456824Y-222755D01*
X1462224Y-224556D01*
X1471324Y-224556D01*
X1476824Y-222755D01*
X1480424Y-220856D01*
X1484124Y-217256D01*
X1485924Y-213656D01*
X1485924Y-206356D01*
X1484124Y-202755D01*
X1480424Y-199056D01*
X1476824Y-197256D01*
X1554185Y-270354D02*
G01*
X1550586Y-273955D01*
X1548786Y-279455D01*
X1548786Y-286655D01*
X1550586Y-292155D01*
X1554185Y-295754D01*
X1557886Y-295754D01*
X1561486Y-293955D01*
X1563286Y-292155D01*
X1565186Y-288555D01*
X1568786Y-277654D01*
X1570586Y-273955D01*
X1572386Y-272155D01*
X1576086Y-270354D01*
X1581486Y-270354D01*
X1585186Y-273955D01*
X1586986Y-279455D01*
X1586986Y-286655D01*
X1585186Y-292155D01*
X1581486Y-295754D01*
X1557886Y-231055D02*
G01*
X1554185Y-232854D01*
X1550586Y-236555D01*
X1548786Y-240154D01*
X1548786Y-247454D01*
X1550586Y-251055D01*
X1554185Y-254655D01*
X1557886Y-256555D01*
X1563286Y-258355D01*
X1572386Y-258355D01*
X1577886Y-256555D01*
X1581486Y-254655D01*
X1585186Y-251055D01*
X1586986Y-247454D01*
X1586986Y-240154D01*
X1585186Y-236555D01*
X1581486Y-232854D01*
X1577886Y-231055D01*
X1548786Y-219055D02*
G01*
X1586986Y-219055D01*
X1586986Y-219055D02*
G01*
X1586986Y-197255D01*
X1655288Y-275754D02*
G01*
X1651688Y-279355D01*
X1649888Y-284855D01*
X1649888Y-292155D01*
X1651688Y-297555D01*
X1655288Y-301255D01*
X1658987Y-301255D01*
X1662588Y-299355D01*
X1664387Y-297555D01*
X1666288Y-293955D01*
X1669888Y-283054D01*
X1671688Y-279355D01*
X1673488Y-277555D01*
X1677188Y-275754D01*
X1682588Y-275754D01*
X1686288Y-279355D01*
X1688088Y-284855D01*
X1688088Y-292155D01*
X1686288Y-297555D01*
X1682588Y-301255D01*
X1649888Y-263755D02*
G01*
X1688088Y-263755D01*
X1649888Y-263755D02*
G01*
X1649888Y-251055D01*
X1651688Y-245554D01*
X1655288Y-241955D01*
X1658987Y-240154D01*
X1664387Y-238355D01*
X1673488Y-238355D01*
X1678987Y-240154D01*
X1682588Y-241955D01*
X1686288Y-245554D01*
X1688088Y-251055D01*
X1688088Y-263755D01*
X1649888Y-211755D02*
G01*
X1688088Y-226355D01*
X1649888Y-211755D02*
G01*
X1688088Y-197255D01*
X1675288Y-220855D02*
G01*
X1675288Y-202654D01*
X2172494Y-459599D02*
G01*
X2172494Y-502499D01*
X2172494Y-459599D02*
G01*
X2190895Y-459599D01*
X2196995Y-461599D01*
X2199095Y-463699D01*
X2201095Y-467799D01*
X2201095Y-471899D01*
X2199095Y-475999D01*
X2196995Y-477998D01*
X2190895Y-479999D01*
X2172494Y-479999D02*
G01*
X2190895Y-479999D01*
X2196995Y-482099D01*
X2199095Y-484099D01*
X2201095Y-488198D01*
X2201095Y-494399D01*
X2199095Y-498499D01*
X2196995Y-500498D01*
X2190895Y-502499D01*
X2172494Y-502499D01*
X2226895Y-459599D02*
G01*
X2222795Y-461599D01*
X2218695Y-465698D01*
X2216694Y-469799D01*
X2214594Y-475999D01*
X2214594Y-486199D01*
X2216694Y-492299D01*
X2218695Y-496399D01*
X2222795Y-500498D01*
X2226895Y-502499D01*
X2235095Y-502499D01*
X2239194Y-500498D01*
X2243295Y-496399D01*
X2245295Y-492299D01*
X2247395Y-486199D01*
X2247395Y-475999D01*
X2245295Y-469799D01*
X2243295Y-465698D01*
X2239194Y-461599D01*
X2235095Y-459599D01*
X2226895Y-459599D01*
X2273095Y-459599D02*
G01*
X2268995Y-461599D01*
X2264994Y-465698D01*
X2262895Y-469799D01*
X2260895Y-475999D01*
X2260895Y-486199D01*
X2262895Y-492299D01*
X2264994Y-496399D01*
X2268995Y-500498D01*
X2273095Y-502499D01*
X2281295Y-502499D01*
X2285395Y-500498D01*
X2289495Y-496399D01*
X2291495Y-492299D01*
X2293595Y-486199D01*
X2293595Y-475999D01*
X2291495Y-469799D01*
X2289495Y-465698D01*
X2285395Y-461599D01*
X2281295Y-459599D01*
X2273095Y-459599D01*
X2321395Y-459599D02*
G01*
X2321395Y-502499D01*
X2307094Y-459599D02*
G01*
X2335695Y-459599D01*
X2314994Y-1310399D02*
G01*
X2314994Y-1267499D01*
X2314994Y-1310399D02*
G01*
X2296595Y-1310399D01*
X2290495Y-1308398D01*
X2288395Y-1306299D01*
X2286395Y-1302199D01*
X2286395Y-1298099D01*
X2288395Y-1293999D01*
X2290495Y-1291999D01*
X2296595Y-1289999D01*
X2314994Y-1289999D01*
X2300695Y-1289999D02*
G01*
X2286395Y-1267499D01*
X2244194Y-1304299D02*
G01*
X2248295Y-1308398D01*
X2254495Y-1310399D01*
X2262595Y-1310399D01*
X2268795Y-1308398D01*
X2272895Y-1304299D01*
X2272895Y-1300199D01*
X2270795Y-1296098D01*
X2268795Y-1293999D01*
X2264695Y-1291999D01*
X2252395Y-1287899D01*
X2248295Y-1285898D01*
X2246295Y-1283799D01*
X2244194Y-1279699D01*
X2244194Y-1273598D01*
X2248295Y-1269499D01*
X2254495Y-1267499D01*
X2262595Y-1267499D01*
X2268795Y-1269499D01*
X2272895Y-1273598D01*
X2216395Y-1310399D02*
G01*
X2216395Y-1267499D01*
X2230695Y-1310399D02*
G01*
X2202094Y-1310399D01*
G36*
X2016500Y-1129000D02*
G01*
X2032500Y-1152000D01*
X2048500Y-1129000D01*
G37*
G36*
X1994040Y-1204120D02*
G01*
X1994040Y-1216120D01*
X2008600Y-1216120D01*
X2008600Y-1204120D01*
G37*
G36*
X2056399Y-1204120D02*
G01*
X2056399Y-1216120D01*
X2070960Y-1216120D01*
X2070960Y-1204120D01*
G37*
D12*
X153564Y-2814724D02*
G01*
X2208681Y-2814724D01*
X2208681Y-2814724D02*
G01*
X2208681Y-3409211D01*
X153564Y-2814724D02*
G01*
X153564Y-3409211D01*
X153564Y-3409211D02*
G01*
X2208681Y-3409211D01*
X153564Y-2933225D02*
G01*
X2208681Y-2933225D01*
X153564Y-3046383D02*
G01*
X229936Y-3046383D01*
X313424Y-3046383D02*
G01*
X426786Y-3046383D01*
X510273Y-3046383D02*
G01*
X623636Y-3046383D01*
X707124Y-3046383D02*
G01*
X820486Y-3046383D01*
X903974Y-3046383D02*
G01*
X1017336Y-3046383D01*
X1100824Y-3046383D02*
G01*
X1214185Y-3046383D01*
X1297674Y-3046383D02*
G01*
X1411036Y-3046383D01*
X1494524Y-3046383D02*
G01*
X1607886Y-3046383D01*
X1691374Y-3046383D02*
G01*
X1804736Y-3046383D01*
X1888224Y-3046383D02*
G01*
X2001586Y-3046383D01*
X2085075Y-3046384D02*
G01*
X2208681Y-3046384D01*
X417500Y-960000D02*
G01*
X417500Y-710000D01*
X317500Y-960000D02*
G01*
X317500Y-710000D01*
X517500Y-960000D02*
G01*
X517500Y-710000D01*
X617500Y-960000D02*
G01*
X617500Y-710000D01*
X217500Y-960000D02*
G01*
X217500Y-710000D01*
X667500Y-1060000D02*
G01*
X167500Y-1060000D01*
X167500Y-960000D01*
X667500Y-960000D01*
X667500Y-1060000D01*
X1725769Y-75000D02*
G01*
X1725769Y-175000D01*
X1309233Y-75000D02*
G01*
X1725769Y-75000D01*
X1418427Y-75000D02*
G01*
X1418427Y-175000D01*
X1309233Y-175000D02*
G01*
X1725769Y-175000D01*
X1309233Y-75000D02*
G01*
X1309233Y-175000D01*
X2199032Y-520787D02*
G01*
X2317143Y-520788D01*
X2199032Y-619212D02*
G01*
X2317143Y-619212D01*
X2199032Y-527434D02*
G01*
X2199032Y-520787D01*
X2199032Y-520787D02*
G01*
X2317143Y-520787D01*
X2317143Y-520787D02*
G01*
X2317143Y-527435D01*
X2317143Y-612564D02*
G01*
X2317143Y-619212D01*
X2317143Y-619212D02*
G01*
X2199032Y-619212D01*
X2199032Y-619212D02*
G01*
X2199032Y-612789D01*
X2317143Y-1249211D02*
G01*
X2199032Y-1249210D01*
X2317143Y-1150785D02*
G01*
X2199032Y-1150786D01*
X2317143Y-1242564D02*
G01*
X2317143Y-1249211D01*
X2317143Y-1249211D02*
G01*
X2199032Y-1249211D01*
X2199032Y-1249211D02*
G01*
X2199032Y-1242563D01*
X2199032Y-1157434D02*
G01*
X2199032Y-1150786D01*
X2199032Y-1150786D02*
G01*
X2317143Y-1150786D01*
X2317143Y-1150786D02*
G01*
X2317143Y-1157209D01*
X1683239Y-1284725D02*
G01*
X1651742Y-1284725D01*
X1695438Y-1241033D02*
G01*
X1695438Y-1272528D01*
X1639546Y-1241033D02*
G01*
X1639546Y-1272528D01*
X1695667Y-1218360D02*
G01*
X1695667Y-1186865D01*
X1683469Y-1174666D02*
G01*
X1651974Y-1174666D01*
X1639777Y-1218360D02*
G01*
X1639777Y-1186865D01*
X1905739Y-1284725D02*
G01*
X1874242Y-1284725D01*
X1917938Y-1241033D02*
G01*
X1917938Y-1272528D01*
X1862046Y-1241033D02*
G01*
X1862046Y-1272528D01*
X1918167Y-1218360D02*
G01*
X1918167Y-1186865D01*
X1905969Y-1174666D02*
G01*
X1874474Y-1174666D01*
X1862277Y-1218360D02*
G01*
X1862277Y-1186865D01*
D10*
X1050012Y-1040370D02*
G01*
X1018906Y-1040370D01*
X1018906Y-1079630D02*
G01*
X1050012Y-1079630D01*
X1056012Y-1073630D02*
G01*
X1056012Y-1046370D01*
X969988Y-1040370D02*
G01*
X1001094Y-1040370D01*
X1001094Y-1079630D02*
G01*
X969988Y-1079630D01*
X963987Y-1073630D02*
G01*
X963987Y-1046370D01*
X1564988Y-836089D02*
G01*
X1596094Y-836089D01*
X1596094Y-796829D02*
G01*
X1564988Y-796829D01*
X1558987Y-802830D02*
G01*
X1558987Y-830090D01*
X1645012Y-836089D02*
G01*
X1613906Y-836089D01*
X1613906Y-796829D02*
G01*
X1645012Y-796829D01*
X1651012Y-802830D02*
G01*
X1651012Y-830090D01*
X1050012Y-1000370D02*
G01*
X1018906Y-1000370D01*
X1018906Y-1039630D02*
G01*
X1050012Y-1039630D01*
X1056012Y-1033630D02*
G01*
X1056012Y-1006370D01*
X969988Y-1000370D02*
G01*
X1001094Y-1000370D01*
X1001094Y-1039630D02*
G01*
X969988Y-1039630D01*
X963987Y-1033630D02*
G01*
X963987Y-1006370D01*
X1564988Y-874630D02*
G01*
X1596094Y-874630D01*
X1596094Y-835370D02*
G01*
X1564988Y-835370D01*
X1558987Y-841370D02*
G01*
X1558987Y-868630D01*
X1645012Y-874630D02*
G01*
X1613906Y-874630D01*
X1613906Y-835370D02*
G01*
X1645012Y-835370D01*
X1651012Y-841370D02*
G01*
X1651012Y-868630D01*
X1763170Y-611417D02*
G01*
X1763170Y-580311D01*
X1723910Y-580311D02*
G01*
X1723910Y-611417D01*
X1729909Y-617417D02*
G01*
X1757170Y-617417D01*
X1763170Y-531393D02*
G01*
X1763170Y-562499D01*
X1723910Y-562499D02*
G01*
X1723910Y-531393D01*
X1729909Y-525393D02*
G01*
X1757170Y-525393D01*
X1438000Y-667742D02*
G01*
X1438000Y-636636D01*
X1398740Y-636636D02*
G01*
X1398740Y-667742D01*
X1404740Y-673742D02*
G01*
X1432000Y-673742D01*
X1438000Y-587717D02*
G01*
X1438000Y-618823D01*
X1398740Y-618823D02*
G01*
X1398740Y-587717D01*
X1404740Y-581718D02*
G01*
X1432000Y-581718D01*
X1398740Y-1095217D02*
G01*
X1398740Y-1126323D01*
X1438000Y-1126323D02*
G01*
X1438000Y-1095217D01*
X1432000Y-1089218D02*
G01*
X1404740Y-1089218D01*
X1398740Y-1175242D02*
G01*
X1398740Y-1144136D01*
X1438000Y-1144136D02*
G01*
X1438000Y-1175242D01*
X1432000Y-1181242D02*
G01*
X1404740Y-1181242D01*
X1256240Y-1095217D02*
G01*
X1256240Y-1126323D01*
X1295500Y-1126323D02*
G01*
X1295500Y-1095217D01*
X1289500Y-1089218D02*
G01*
X1262240Y-1089218D01*
X1256240Y-1175242D02*
G01*
X1256240Y-1144136D01*
X1295500Y-1144136D02*
G01*
X1295500Y-1175242D01*
X1289500Y-1181242D02*
G01*
X1262240Y-1181242D01*
D12*
X1550275Y-1078299D02*
G01*
X1550275Y-1046802D01*
X1593966Y-1090498D02*
G01*
X1562471Y-1090498D01*
X1593966Y-1034606D02*
G01*
X1562471Y-1034606D01*
X1616639Y-1090727D02*
G01*
X1648135Y-1090727D01*
X1660333Y-1078529D02*
G01*
X1660333Y-1047034D01*
X1616639Y-1034837D02*
G01*
X1648135Y-1034837D01*
X1550275Y-1008179D02*
G01*
X1550275Y-976682D01*
X1593966Y-1020378D02*
G01*
X1562471Y-1020378D01*
X1593966Y-964486D02*
G01*
X1562471Y-964486D01*
X1616639Y-1020607D02*
G01*
X1648135Y-1020607D01*
X1660333Y-1008409D02*
G01*
X1660333Y-976914D01*
X1616639Y-964717D02*
G01*
X1648135Y-964717D01*
X2060300Y-1092000D02*
G01*
X2065965Y-1092000D01*
X1999035Y-1092000D02*
G01*
X2004699Y-1092000D01*
X2065965Y-1198000D02*
G01*
X2065965Y-1209487D01*
X2065925Y-1209527D01*
X1999035Y-1198000D02*
G01*
X1999035Y-1209684D01*
X1999075Y-1209724D01*
X1999035Y-1198000D02*
G01*
X1999035Y-1092000D01*
X2016500Y-1129000D02*
G01*
X2048500Y-1129000D01*
X2032490Y-1129000D02*
G01*
X2032490Y-1116649D01*
X2032500Y-1156024D02*
G01*
X2032500Y-1169016D01*
X2012500Y-1155000D02*
G01*
X2052500Y-1155000D01*
X2032500Y-1152000D02*
G01*
X2016500Y-1129000D01*
X2048500Y-1129000D02*
G01*
X2032500Y-1152000D01*
X2065965Y-1092000D02*
G01*
X2065965Y-1198000D01*
X1857933Y-1838996D02*
G01*
X1787067Y-1838996D01*
X1857071Y-1776004D02*
G01*
X1787929Y-1776004D01*
D13*
X1827500Y-1807500D02*
G01*
X1808500Y-1826500D01*
X1808500Y-1788500D01*
X1826500Y-1806500D01*
X1831500Y-1830500D02*
G01*
X1831500Y-1786500D01*
X1846500Y-1807500D02*
G01*
X1795500Y-1807500D01*
D12*
X1202933Y-1838996D02*
G01*
X1132067Y-1838996D01*
X1202071Y-1776004D02*
G01*
X1132929Y-1776004D01*
D13*
X1172500Y-1807500D02*
G01*
X1153500Y-1826500D01*
X1153500Y-1788500D01*
X1171500Y-1806500D01*
X1176500Y-1830500D02*
G01*
X1176500Y-1786500D01*
X1191500Y-1807500D02*
G01*
X1140500Y-1807500D01*
D10*
X1616409Y-1867587D02*
G01*
X1673591Y-1867587D01*
X1673591Y-1826972D01*
X1616409Y-1747413D02*
G01*
X1673591Y-1747413D01*
X1673591Y-1788027D01*
X1616409Y-1825429D02*
G01*
X1616409Y-1789571D01*
X960246Y-1867587D02*
G01*
X1017429Y-1867587D01*
X1017429Y-1826972D01*
X960246Y-1747413D02*
G01*
X1017429Y-1747413D01*
X1017429Y-1788027D01*
X960246Y-1825429D02*
G01*
X960246Y-1789571D01*
X2093987Y-586779D02*
G01*
X2093987Y-624529D01*
X2146003Y-624529D01*
X2146003Y-586779D01*
X2093987Y-553219D02*
G01*
X2093987Y-515468D01*
X2146003Y-515468D01*
X2146003Y-553219D01*
X1514637Y-1619461D02*
G01*
X1514637Y-1657211D01*
X1566653Y-1657211D01*
X1566653Y-1619461D01*
X1514637Y-1585901D02*
G01*
X1514637Y-1548150D01*
X1566653Y-1548150D01*
X1566653Y-1585901D01*
X859639Y-1619646D02*
G01*
X859639Y-1657397D01*
X911655Y-1657397D01*
X911655Y-1619646D01*
X859639Y-1586086D02*
G01*
X859639Y-1548335D01*
X911655Y-1548335D01*
X911655Y-1586086D01*
X2037130Y-783906D02*
G01*
X2037130Y-812175D01*
X1997870Y-812175D01*
X1997870Y-783906D01*
X2037130Y-766094D02*
G01*
X2037130Y-737825D01*
X1997870Y-737825D01*
X1997870Y-766094D01*
X1997870Y-986094D02*
G01*
X1997870Y-957825D01*
X2037130Y-957825D01*
X2037130Y-986094D01*
X1997870Y-1003906D02*
G01*
X1997870Y-1032175D01*
X2037130Y-1032175D01*
X2037130Y-1003906D01*
X1596094Y-914630D02*
G01*
X1567825Y-914630D01*
X1567825Y-875370D01*
X1596094Y-875370D01*
X1613906Y-914630D02*
G01*
X1642175Y-914630D01*
X1642175Y-875370D01*
X1613906Y-875370D01*
X1596094Y-954630D02*
G01*
X1567825Y-954630D01*
X1567825Y-915370D01*
X1596094Y-915370D01*
X1613906Y-954630D02*
G01*
X1642175Y-954630D01*
X1642175Y-915370D01*
X1613906Y-915370D01*
X1514639Y-1823396D02*
G01*
X1514639Y-1861147D01*
X1566655Y-1861147D01*
X1566655Y-1823396D01*
X1514639Y-1789836D02*
G01*
X1514639Y-1752085D01*
X1566655Y-1752085D01*
X1566655Y-1789836D01*
X859639Y-1823396D02*
G01*
X859639Y-1861147D01*
X911655Y-1861147D01*
X911655Y-1823396D01*
X859639Y-1789836D02*
G01*
X859639Y-1752085D01*
X911655Y-1752085D01*
X911655Y-1789836D01*
X2093987Y-1216779D02*
G01*
X2093987Y-1254529D01*
X2146003Y-1254529D01*
X2146003Y-1216779D01*
X2093987Y-1183219D02*
G01*
X2093987Y-1145468D01*
X2146003Y-1145468D01*
X2146003Y-1183219D01*
X1329862Y-1144510D02*
G01*
X1329862Y-1182261D01*
X1381878Y-1182261D01*
X1381878Y-1144510D01*
X1329862Y-1110950D02*
G01*
X1329862Y-1073198D01*
X1381878Y-1073198D01*
X1381878Y-1110950D01*
D14*
X1851477Y-2509108D02*
G01*
X1911477Y-2569108D01*
X1892526Y-1988587D02*
G01*
X1969827Y-1988587D01*
X1969827Y-2328587D01*
X1851727Y-2328587D01*
X1850826Y-2329538D01*
X1850826Y-2487647D01*
X1850826Y-2507647D01*
X1590826Y-2135488D02*
G01*
X1590826Y-2167647D01*
X1778326Y-2167647D01*
X1883227Y-2167647D02*
G01*
X1883227Y-2240088D01*
X1778326Y-2240088D01*
X1778326Y-2100088D01*
X1883227Y-2100088D01*
X1883227Y-2175208D01*
X2063227Y-2175208D01*
X2063227Y-2133058D01*
D12*
X1518009Y-2678814D02*
G01*
X2128245Y-2678814D01*
X1518027Y-1930778D02*
G01*
X1779928Y-1930778D01*
X1865227Y-1930778D02*
G01*
X2128227Y-1930778D01*
X2128245Y-2678814D02*
G01*
X2128245Y-1930783D01*
X1518009Y-2678814D02*
G01*
X1518009Y-1930783D01*
D14*
X1657926Y-2547647D02*
G01*
X1810826Y-2547647D01*
X1196477Y-2509108D02*
G01*
X1256477Y-2569108D01*
X1237526Y-1988587D02*
G01*
X1314827Y-1988587D01*
X1314827Y-2328587D01*
X1196727Y-2328587D01*
X1195826Y-2329538D01*
X1195826Y-2487647D01*
X1195826Y-2507647D01*
X935826Y-2135488D02*
G01*
X935826Y-2167647D01*
X1123326Y-2167647D01*
X1228227Y-2167647D02*
G01*
X1228227Y-2240088D01*
X1123326Y-2240088D01*
X1123326Y-2100088D01*
X1228227Y-2100088D01*
X1228227Y-2175208D01*
X1408227Y-2175208D01*
X1408227Y-2133058D01*
D12*
X863009Y-2678814D02*
G01*
X1473245Y-2678814D01*
X863027Y-1930778D02*
G01*
X1124928Y-1930778D01*
X1210227Y-1930778D02*
G01*
X1473227Y-1930778D01*
X1473245Y-2678814D02*
G01*
X1473245Y-1930783D01*
X863009Y-2678814D02*
G01*
X863009Y-1930783D01*
D14*
X1002926Y-2547647D02*
G01*
X1155826Y-2547647D01*
D12*
X1453661Y-752632D02*
G01*
X1449848Y-752632D01*
X1439648Y-742432D01*
X1431266Y-742432D02*
G01*
X1453661Y-764828D01*
X1431266Y-742432D02*
G01*
X1453661Y-742432D01*
X1178073Y-764828D02*
G01*
X1178073Y-746370D01*
X1178073Y-742432D01*
X1200468Y-742432D01*
X1200468Y-1018022D02*
G01*
X1178073Y-1018022D01*
X1178073Y-995626D01*
X1453661Y-995626D02*
G01*
X1453661Y-1018022D01*
X1431266Y-1018022D01*
X1453661Y-742432D02*
G01*
X1453661Y-764828D01*
D10*
X1706424Y-463890D02*
G01*
X1706424Y-706110D01*
X1503575Y-706110D02*
G01*
X1503575Y-463890D01*
D12*
X1713870Y-1504453D02*
G01*
X1973715Y-1504453D01*
X1713870Y-1685557D02*
G01*
X1713870Y-1504453D01*
X1973715Y-1685557D02*
G01*
X1713870Y-1685557D01*
X1973715Y-1504453D02*
G01*
X1973715Y-1685557D01*
X1060077Y-1504453D02*
G01*
X1319921Y-1504453D01*
X1060077Y-1685557D02*
G01*
X1060077Y-1504453D01*
X1319921Y-1685557D02*
G01*
X1060077Y-1685557D01*
X1319921Y-1504453D02*
G01*
X1319921Y-1685557D01*
D10*
X1813512Y-1290087D02*
G01*
X1746487Y-1290087D01*
X1813512Y-1169913D02*
G01*
X1746487Y-1169913D01*
X1746487Y-1211244D02*
G01*
X1746487Y-1248756D01*
D12*
X2271237Y-708622D02*
G01*
X2207493Y-708622D01*
X2358903Y-1061377D02*
G01*
X2414973Y-1061377D01*
X2414973Y-708622D01*
X2358903Y-708622D01*
X2201429Y-1061377D02*
G01*
X2271237Y-1061377D01*
X17500Y-2680000D02*
G01*
X17500Y-1330000D01*
X817500Y-1330000D01*
X817500Y-2680000D01*
X17500Y-2680000D01*
D15*
X1064445Y-948310D02*
G01*
X1084445Y-948310D01*
X1084445Y-928310D01*
D10*
X1075540Y-938210D02*
G01*
X944440Y-938210D01*
X944445Y-778310D01*
X1009445Y-778310D01*
X1074445Y-778310D01*
X1074445Y-778310D01*
X1075540Y-938210D01*
X969988Y-764630D02*
G01*
X1001094Y-764630D01*
X1001094Y-725370D02*
G01*
X969988Y-725370D01*
X963987Y-731370D02*
G01*
X963987Y-758630D01*
X1050012Y-764630D02*
G01*
X1018906Y-764630D01*
X1018906Y-725370D02*
G01*
X1050012Y-725370D01*
X1056012Y-731370D02*
G01*
X1056012Y-758630D01*
X969988Y-989630D02*
G01*
X1001094Y-989630D01*
X1001094Y-950370D02*
G01*
X969988Y-950370D01*
X963987Y-956370D02*
G01*
X963987Y-983630D01*
X1050012Y-989630D02*
G01*
X1018906Y-989630D01*
X1018906Y-950370D02*
G01*
X1050012Y-950370D01*
X1056012Y-956370D02*
G01*
X1056012Y-983630D01*
X1252512Y-502870D02*
G01*
X1221406Y-502870D01*
X1221406Y-542130D02*
G01*
X1252512Y-542130D01*
X1258512Y-536130D02*
G01*
X1258512Y-508870D01*
X1172488Y-502870D02*
G01*
X1203594Y-502870D01*
X1203594Y-542130D02*
G01*
X1172488Y-542130D01*
X1166487Y-536130D02*
G01*
X1166487Y-508870D01*
D12*
G75*
G01*
X1683469Y-1174665D02*
G02*
X1695667Y-1186863I0J-12198D01*
G75*
G01*
X1639775Y-1186863D02*
G02*
X1651974Y-1174665I12198J0D01*
G75*
G01*
X1695438Y-1272527D02*
G02*
X1683239Y-1284725I-12198J0D01*
G75*
G01*
X1651744Y-1284725D02*
G02*
X1639546Y-1272527I0J12198D01*
G75*
G01*
X1905969Y-1174665D02*
G02*
X1918167Y-1186863I0J-12198D01*
G75*
G01*
X1862275Y-1186863D02*
G02*
X1874474Y-1174665I12198J0D01*
G75*
G01*
X1917938Y-1272527D02*
G02*
X1905739Y-1284725I-12198J0D01*
G75*
G01*
X1874244Y-1284725D02*
G02*
X1862046Y-1272527I0J12198D01*
D10*
G75*
G01*
X1050012Y-1079630D02*
G03*
X1056012Y-1073630I0J6000D01*
G75*
G01*
X1056012Y-1046370D02*
G03*
X1050012Y-1040370I-6000J0D01*
G75*
G01*
X969988Y-1079630D02*
G02*
X963988Y-1073630I0J6000D01*
G75*
G01*
X963988Y-1046370D02*
G02*
X969988Y-1040370I6000J0D01*
G75*
G01*
X1564988Y-796830D02*
G03*
X1558988Y-802830I0J-6000D01*
G75*
G01*
X1558988Y-830090D02*
G03*
X1564988Y-836090I6000J0D01*
G75*
G01*
X1645012Y-796830D02*
G02*
X1651012Y-802830I0J-6000D01*
G75*
G01*
X1651012Y-830090D02*
G02*
X1645012Y-836090I-6000J0D01*
G75*
G01*
X1050012Y-1039630D02*
G03*
X1056012Y-1033630I0J6000D01*
G75*
G01*
X1056012Y-1006370D02*
G03*
X1050012Y-1000370I-6000J0D01*
G75*
G01*
X969988Y-1039630D02*
G02*
X963988Y-1033630I0J6000D01*
G75*
G01*
X963988Y-1006370D02*
G02*
X969988Y-1000370I6000J0D01*
G75*
G01*
X1564988Y-835370D02*
G03*
X1558988Y-841370I0J-6000D01*
G75*
G01*
X1558988Y-868630D02*
G03*
X1564988Y-874630I6000J0D01*
G75*
G01*
X1645012Y-835370D02*
G02*
X1651012Y-841370I0J-6000D01*
G75*
G01*
X1651012Y-868630D02*
G02*
X1645012Y-874630I-6000J0D01*
G75*
G01*
X1723910Y-611417D02*
G03*
X1729910Y-617417I6000J0D01*
G75*
G01*
X1757170Y-617417D02*
G03*
X1763170Y-611417I0J6000D01*
G75*
G01*
X1723910Y-531393D02*
G02*
X1729910Y-525393I6000J0D01*
G75*
G01*
X1757170Y-525393D02*
G02*
X1763170Y-531393I0J-6000D01*
G75*
G01*
X1398740Y-667742D02*
G03*
X1404740Y-673742I6000J0D01*
G75*
G01*
X1432000Y-673742D02*
G03*
X1438000Y-667742I0J6000D01*
G75*
G01*
X1398740Y-587718D02*
G02*
X1404740Y-581718I6000J0D01*
G75*
G01*
X1432000Y-581718D02*
G02*
X1438000Y-587718I0J-6000D01*
G75*
G01*
X1438000Y-1095218D02*
G03*
X1432000Y-1089218I-6000J0D01*
G75*
G01*
X1404740Y-1089218D02*
G03*
X1398740Y-1095218I0J-6000D01*
G75*
G01*
X1438000Y-1175242D02*
G02*
X1432000Y-1181242I-6000J0D01*
G75*
G01*
X1404740Y-1181242D02*
G02*
X1398740Y-1175242I0J6000D01*
G75*
G01*
X1295500Y-1095218D02*
G03*
X1289500Y-1089218I-6000J0D01*
G75*
G01*
X1262240Y-1089218D02*
G03*
X1256240Y-1095218I0J-6000D01*
G75*
G01*
X1295500Y-1175242D02*
G02*
X1289500Y-1181242I-6000J0D01*
G75*
G01*
X1262240Y-1181242D02*
G02*
X1256240Y-1175242I0J6000D01*
D12*
G75*
G01*
X1660335Y-1078529D02*
G02*
X1648137Y-1090727I-12198J0D01*
G75*
G01*
X1648137Y-1034835D02*
G02*
X1660335Y-1047034I0J-12198D01*
G75*
G01*
X1562473Y-1090498D02*
G02*
X1550275Y-1078299I0J12198D01*
G75*
G01*
X1550275Y-1046804D02*
G02*
X1562473Y-1034606I12198J0D01*
G75*
G01*
X1660335Y-1008409D02*
G02*
X1648137Y-1020607I-12198J0D01*
G75*
G01*
X1648137Y-964715D02*
G02*
X1660335Y-976914I0J-12198D01*
G75*
G01*
X1562473Y-1020378D02*
G02*
X1550275Y-1008179I0J12198D01*
G75*
G01*
X1550275Y-976684D02*
G02*
X1562473Y-964486I12198J0D01*
D10*
G75*
G01*
X969988Y-725370D02*
G03*
X963988Y-731370I0J-6000D01*
G75*
G01*
X963988Y-758630D02*
G03*
X969988Y-764630I6000J0D01*
G75*
G01*
X1050012Y-725370D02*
G02*
X1056012Y-731370I0J-6000D01*
G75*
G01*
X1056012Y-758630D02*
G02*
X1050012Y-764630I-6000J0D01*
G75*
G01*
X969988Y-950370D02*
G03*
X963988Y-956370I0J-6000D01*
G75*
G01*
X963988Y-983630D02*
G03*
X969988Y-989630I6000J0D01*
G75*
G01*
X1050012Y-950370D02*
G02*
X1056012Y-956370I0J-6000D01*
G75*
G01*
X1056012Y-983630D02*
G02*
X1050012Y-989630I-6000J0D01*
G75*
G01*
X1252512Y-542130D02*
G03*
X1258512Y-536130I0J6000D01*
G75*
G01*
X1258512Y-508870D02*
G03*
X1252512Y-502870I-6000J0D01*
G75*
G01*
X1172488Y-542130D02*
G02*
X1166488Y-536130I0J6000D01*
G75*
G01*
X1166488Y-508870D02*
G02*
X1172488Y-502870I6000J0D01*
D12*
G75*
G01
X2289590Y-570000D02*
G03X2289590Y-570000I-31500J0D01*
G75*
G01
X2289590Y-1200000D02*
G03X2289590Y-1200000I-31500J0D01*
D16*
G75*
G01
X2171990Y-1992370D02*
G03X2171990Y-1992370I-9840J0D01*
G75*
G01
X1516990Y-1992370D02*
G03X1516990Y-1992370I-9840J0D01*
D12*
G75*
G01
X1466540Y-722750D02*
G03X1466540Y-722750I-5000J0D01*
D13*
G75*
G01
X1683940Y-429470D02*
G03X1683940Y-429470I-3940J0D01*
D14*
G75*
G01
X2009700Y-1695000D02*
G03X2009700Y-1695000I-5910J0D01*
G75*
G01
X1949700Y-1660000D02*
G03X1949700Y-1660000I-5910J0D01*
G75*
G01
X1355910Y-1695000D02*
G03X1355910Y-1695000I-5910J0D01*
G75*
G01
X1295910Y-1660000D02*
G03X1295910Y-1660000I-5910J0D01*
G75*
G01
X1830910Y-1295000D02*
G03X1830910Y-1295000I-5910J0D01*
M02*
