G04 Layer: BottomSolderMaskLayer*
G04 EasyEDA v6.5.23, 2023-05-02 00:31:49*
G04 877d1f729ee14e6da983c975b027c834,5a628b76fac64d3cb101ae6d552a3bac,10*
G04 Gerber Generator version 0.2*
G04 Scale: 100 percent, Rotated: No, Reflected: No *
G04 Dimensions in inches *
G04 leading zeros omitted , absolute positions ,3 integer and 6 decimal *
%FSLAX36Y36*%
%MOIN*%

%AMMACRO1*1,1,$1,$2,$3*1,1,$1,$4,$5*1,1,$1,0-$2,0-$3*1,1,$1,0-$4,0-$5*20,1,$1,$2,$3,$4,$5,0*20,1,$1,$4,$5,0-$2,0-$3,0*20,1,$1,0-$2,0-$3,0-$4,0-$5,0*20,1,$1,0-$4,0-$5,$2,$3,0*4,1,4,$2,$3,$4,$5,0-$2,0-$3,0-$4,0-$5,$2,$3,0*%
%ADD10C,0.0946*%
%ADD11C,0.0749*%
%ADD12MACRO1,0.004X-0.0354X-0.0354X0.0354X-0.0354*%
%ADD13MACRO1,0.004X-0.0335X0.0335X0.0335X0.0335*%
%ADD14C,0.0709*%
%ADD15C,0.1140*%
%ADD16O,0.074804X0.043308*%
%ADD17O,0.086615X0.043308*%
%ADD18C,0.0827*%

%LPD*%
D10*
G01*
X271670Y-3208425D03*
G01*
X468520Y-3208425D03*
G01*
X665370Y-3208425D03*
G01*
X862220Y-3208425D03*
G01*
X1059070Y-3208425D03*
G01*
X1255930Y-3208425D03*
G01*
X1452780Y-3208425D03*
G01*
X1649630Y-3208425D03*
G01*
X1846480Y-3208425D03*
G01*
X2043330Y-3208425D03*
G01*
X2043330Y-3011575D03*
G01*
X1846480Y-3011575D03*
G01*
X1649630Y-3011575D03*
G01*
X1452780Y-3011575D03*
G01*
X1255930Y-3011575D03*
G01*
X1059080Y-3011575D03*
G01*
X862229Y-3011575D03*
G01*
X665380Y-3011575D03*
G01*
X468530Y-3011575D03*
G01*
X271680Y-3011575D03*
D11*
G01*
X217500Y-1110000D03*
G01*
X317500Y-1110000D03*
G01*
X417500Y-1110000D03*
G01*
X517500Y-1110000D03*
D12*
G01*
X617500Y-1110000D03*
D13*
G01*
X1367501Y-125000D03*
D14*
G01*
X1467501Y-125000D03*
G01*
X1567501Y-125000D03*
G01*
X1667501Y-125000D03*
D15*
G01*
X1586930Y-2064580D03*
G01*
X2059369Y-2064580D03*
G01*
X1823130Y-1985840D03*
G01*
X1586930Y-2544900D03*
G01*
X931930Y-2064580D03*
G01*
X1404369Y-2064580D03*
G01*
X1168130Y-1985840D03*
G01*
X931930Y-2544900D03*
D16*
G01*
X2315070Y-714920D03*
G01*
X2315070Y-1055080D03*
D17*
G01*
X2151690Y-714920D03*
G01*
X2151690Y-1055080D03*
D18*
G01*
X720650Y-1426260D03*
G01*
X114350Y-1426260D03*
G01*
X515920Y-2583740D03*
G01*
X319070Y-2583740D03*
M02*
