G04 Layer: TopPasteMaskLayer*
G04 EasyEDA v6.5.23, 2023-05-02 00:31:49*
G04 877d1f729ee14e6da983c975b027c834,5a628b76fac64d3cb101ae6d552a3bac,10*
G04 Gerber Generator version 0.2*
G04 Scale: 100 percent, Rotated: No, Reflected: No *
G04 Dimensions in inches *
G04 leading zeros omitted , absolute positions ,3 integer and 6 decimal *
%FSLAX36Y36*%
%MOIN*%

%AMMACRO1*21,1,$1,$2,0,0,$3*%
%ADD10R,0.0315X0.0669*%
%ADD11R,0.0354X0.0315*%
%ADD12R,0.0315X0.0354*%
%ADD13R,0.0374X0.0472*%
%ADD14R,0.0433X0.0669*%
%ADD15R,0.0492X0.0276*%
%ADD16R,0.0079X0.0433*%
%ADD17R,0.0433X0.0079*%
%ADD18R,0.1220X0.1220*%
%ADD19O,0.022874X0.050217*%
%ADD20MACRO1,0.1339X0.1693X-90.0000*%
%ADD21R,0.1181X0.0591*%
%ADD22R,0.0456X0.0193*%
%ADD23R,0.0463X0.0193*%
%ADD24R,0.0472X0.0551*%
%ADD25R,0.0135X0.0551*%

%LPD*%
G36*
X981260Y-1049180D02*
G01*
X979300Y-1051140D01*
X979300Y-1068860D01*
X981260Y-1070820D01*
X1000160Y-1070820D01*
X1002920Y-1068860D01*
X1002920Y-1051140D01*
X1000160Y-1049180D01*
G37*
G36*
X1019840Y-1049180D02*
G01*
X1017080Y-1051140D01*
X1017080Y-1068860D01*
X1019840Y-1070820D01*
X1038740Y-1070820D01*
X1040699Y-1068860D01*
X1040699Y-1051140D01*
X1038740Y-1049180D01*
G37*
G36*
X1614840Y-805639D02*
G01*
X1612080Y-807600D01*
X1612080Y-825320D01*
X1614840Y-827280D01*
X1633740Y-827280D01*
X1635700Y-825320D01*
X1635700Y-807600D01*
X1633740Y-805639D01*
G37*
G36*
X1576260Y-805639D02*
G01*
X1574300Y-807600D01*
X1574300Y-825320D01*
X1576260Y-827280D01*
X1595160Y-827280D01*
X1597920Y-825320D01*
X1597920Y-807600D01*
X1595160Y-805639D01*
G37*
G36*
X981260Y-1009180D02*
G01*
X979300Y-1011140D01*
X979300Y-1028860D01*
X981260Y-1030819D01*
X1000160Y-1030819D01*
X1002920Y-1028860D01*
X1002920Y-1011140D01*
X1000160Y-1009180D01*
G37*
G36*
X1019840Y-1009180D02*
G01*
X1017080Y-1011140D01*
X1017080Y-1028860D01*
X1019840Y-1030819D01*
X1038740Y-1030819D01*
X1040699Y-1028860D01*
X1040699Y-1011140D01*
X1038740Y-1009180D01*
G37*
G36*
X1614840Y-844180D02*
G01*
X1612080Y-846140D01*
X1612080Y-863860D01*
X1614840Y-865819D01*
X1633740Y-865819D01*
X1635700Y-863860D01*
X1635700Y-846140D01*
X1633740Y-844180D01*
G37*
G36*
X1576260Y-844180D02*
G01*
X1574300Y-846140D01*
X1574300Y-863860D01*
X1576260Y-865819D01*
X1595160Y-865819D01*
X1597920Y-863860D01*
X1597920Y-846140D01*
X1595160Y-844180D01*
G37*
G36*
X1734680Y-540700D02*
G01*
X1732720Y-542660D01*
X1732720Y-561560D01*
X1734680Y-564320D01*
X1752400Y-564320D01*
X1754360Y-561560D01*
X1754360Y-542660D01*
X1752400Y-540700D01*
G37*
G36*
X1734680Y-578500D02*
G01*
X1732720Y-581240D01*
X1732720Y-600140D01*
X1734680Y-602120D01*
X1752400Y-602120D01*
X1754360Y-600140D01*
X1754360Y-581240D01*
X1752400Y-578500D01*
G37*
G36*
X1409520Y-597020D02*
G01*
X1407540Y-598980D01*
X1407540Y-617880D01*
X1409520Y-620640D01*
X1427220Y-620640D01*
X1429199Y-617880D01*
X1429199Y-598980D01*
X1427220Y-597020D01*
G37*
G36*
X1409520Y-634820D02*
G01*
X1407540Y-637580D01*
X1407540Y-656460D01*
X1409520Y-658439D01*
X1427220Y-658439D01*
X1429199Y-656460D01*
X1429199Y-637580D01*
X1427220Y-634820D01*
G37*
G36*
X1409520Y-1142320D02*
G01*
X1407540Y-1145080D01*
X1407540Y-1163980D01*
X1409520Y-1165940D01*
X1427220Y-1165940D01*
X1429199Y-1163980D01*
X1429199Y-1145080D01*
X1427220Y-1142320D01*
G37*
G36*
X1409520Y-1104520D02*
G01*
X1407540Y-1106500D01*
X1407540Y-1125380D01*
X1409520Y-1128140D01*
X1427220Y-1128140D01*
X1429199Y-1125380D01*
X1429199Y-1106500D01*
X1427220Y-1104520D01*
G37*
G36*
X1267020Y-1142320D02*
G01*
X1265040Y-1145080D01*
X1265040Y-1163980D01*
X1267020Y-1165940D01*
X1284720Y-1165940D01*
X1286699Y-1163980D01*
X1286699Y-1145080D01*
X1284720Y-1142320D01*
G37*
G36*
X1267020Y-1104520D02*
G01*
X1265040Y-1106500D01*
X1265040Y-1125380D01*
X1267020Y-1128140D01*
X1284720Y-1128140D01*
X1286699Y-1125380D01*
X1286699Y-1106500D01*
X1284720Y-1104520D01*
G37*
G36*
X2104240Y-583580D02*
G01*
X2102280Y-585560D01*
X2102280Y-617040D01*
X2104240Y-619020D01*
X2135740Y-619020D01*
X2137720Y-617040D01*
X2137720Y-585560D01*
X2135740Y-583580D01*
X2126760Y-583580D01*
X2126760Y-598140D01*
X2113780Y-598140D01*
X2113780Y-583580D01*
G37*
G36*
X2104240Y-520980D02*
G01*
X2102280Y-522960D01*
X2102280Y-554060D01*
X2104240Y-556020D01*
X2113780Y-556020D01*
X2113780Y-541060D01*
X2126760Y-541060D01*
X2126760Y-556020D01*
X2135740Y-556020D01*
X2137720Y-554060D01*
X2137720Y-522960D01*
X2135740Y-520980D01*
G37*
G36*
X1524900Y-1616260D02*
G01*
X1522920Y-1618240D01*
X1522920Y-1649720D01*
X1524900Y-1651699D01*
X1556399Y-1651699D01*
X1558360Y-1649720D01*
X1558360Y-1618240D01*
X1556399Y-1616260D01*
X1547420Y-1616260D01*
X1547420Y-1630840D01*
X1534420Y-1630840D01*
X1534420Y-1616260D01*
G37*
G36*
X1524900Y-1553660D02*
G01*
X1522920Y-1555640D01*
X1522920Y-1586740D01*
X1524900Y-1588700D01*
X1534420Y-1588700D01*
X1534420Y-1573740D01*
X1547420Y-1573740D01*
X1547420Y-1588700D01*
X1556399Y-1588700D01*
X1558360Y-1586740D01*
X1558360Y-1555640D01*
X1556399Y-1553660D01*
G37*
G36*
X869900Y-1616440D02*
G01*
X867940Y-1618420D01*
X867940Y-1649920D01*
X869900Y-1651879D01*
X901400Y-1651879D01*
X903360Y-1649920D01*
X903360Y-1618420D01*
X901400Y-1616440D01*
X892420Y-1616440D01*
X892420Y-1631020D01*
X879419Y-1631020D01*
X879419Y-1616440D01*
G37*
G36*
X869900Y-1553860D02*
G01*
X867940Y-1555820D01*
X867940Y-1586920D01*
X869900Y-1588899D01*
X879419Y-1588899D01*
X879419Y-1573940D01*
X892420Y-1573940D01*
X892420Y-1588899D01*
X901400Y-1588899D01*
X903360Y-1586920D01*
X903360Y-1555820D01*
X901400Y-1553860D01*
G37*
G36*
X2008440Y-746820D02*
G01*
X2006860Y-748400D01*
X2006860Y-768120D01*
X2008440Y-769680D01*
X2026560Y-769680D01*
X2028140Y-768120D01*
X2028140Y-748400D01*
X2026560Y-746820D01*
G37*
G36*
X2008440Y-780320D02*
G01*
X2006860Y-781900D01*
X2006860Y-801600D01*
X2008440Y-803180D01*
X2026560Y-803180D01*
X2028140Y-801600D01*
X2028140Y-781900D01*
X2026560Y-780320D01*
G37*
G36*
X2008440Y-1000320D02*
G01*
X2006860Y-1001900D01*
X2006860Y-1021600D01*
X2008440Y-1023180D01*
X2026560Y-1023180D01*
X2028140Y-1021600D01*
X2028140Y-1001900D01*
X2026560Y-1000320D01*
G37*
G36*
X2008440Y-966820D02*
G01*
X2006860Y-968400D01*
X2006860Y-988120D01*
X2008440Y-989680D01*
X2026560Y-989680D01*
X2028140Y-988120D01*
X2028140Y-968400D01*
X2026560Y-966820D01*
G37*
G36*
X1611900Y-884380D02*
G01*
X1610320Y-885939D01*
X1610320Y-904060D01*
X1611900Y-905639D01*
X1631600Y-905639D01*
X1633180Y-904060D01*
X1633180Y-885939D01*
X1631600Y-884380D01*
G37*
G36*
X1578400Y-884380D02*
G01*
X1576819Y-885939D01*
X1576819Y-904060D01*
X1578400Y-905639D01*
X1598120Y-905639D01*
X1599680Y-904060D01*
X1599680Y-885939D01*
X1598120Y-884380D01*
G37*
G36*
X1611900Y-924380D02*
G01*
X1610320Y-925939D01*
X1610320Y-944060D01*
X1611900Y-945639D01*
X1631600Y-945639D01*
X1633180Y-944060D01*
X1633180Y-925939D01*
X1631600Y-924380D01*
G37*
G36*
X1578400Y-924380D02*
G01*
X1576819Y-925939D01*
X1576819Y-944060D01*
X1578400Y-945639D01*
X1598120Y-945639D01*
X1599680Y-944060D01*
X1599680Y-925939D01*
X1598120Y-924380D01*
G37*
G36*
X1524900Y-1820200D02*
G01*
X1522940Y-1822160D01*
X1522940Y-1853660D01*
X1524900Y-1855640D01*
X1556399Y-1855640D01*
X1558360Y-1853660D01*
X1558360Y-1822160D01*
X1556399Y-1820200D01*
X1547420Y-1820200D01*
X1547420Y-1834760D01*
X1534420Y-1834760D01*
X1534420Y-1820200D01*
G37*
G36*
X1524900Y-1757600D02*
G01*
X1522940Y-1759580D01*
X1522940Y-1790680D01*
X1524900Y-1792640D01*
X1534420Y-1792640D01*
X1534420Y-1777680D01*
X1547420Y-1777680D01*
X1547420Y-1792640D01*
X1556399Y-1792640D01*
X1558360Y-1790680D01*
X1558360Y-1759580D01*
X1556399Y-1757600D01*
G37*
G36*
X869900Y-1820200D02*
G01*
X867940Y-1822160D01*
X867940Y-1853660D01*
X869900Y-1855640D01*
X901400Y-1855640D01*
X903360Y-1853660D01*
X903360Y-1822160D01*
X901400Y-1820200D01*
X892420Y-1820200D01*
X892420Y-1834760D01*
X879419Y-1834760D01*
X879419Y-1820200D01*
G37*
G36*
X869900Y-1757600D02*
G01*
X867940Y-1759580D01*
X867940Y-1790680D01*
X869900Y-1792640D01*
X879419Y-1792640D01*
X879419Y-1777680D01*
X892420Y-1777680D01*
X892420Y-1792640D01*
X901400Y-1792640D01*
X903360Y-1790680D01*
X903360Y-1759580D01*
X901400Y-1757600D01*
G37*
G36*
X2104240Y-1213580D02*
G01*
X2102280Y-1215560D01*
X2102280Y-1247040D01*
X2104240Y-1249020D01*
X2135740Y-1249020D01*
X2137720Y-1247040D01*
X2137720Y-1215560D01*
X2135740Y-1213580D01*
X2126760Y-1213580D01*
X2126760Y-1228140D01*
X2113780Y-1228140D01*
X2113780Y-1213580D01*
G37*
G36*
X2104240Y-1150980D02*
G01*
X2102280Y-1152960D01*
X2102280Y-1184060D01*
X2104240Y-1186020D01*
X2113780Y-1186020D01*
X2113780Y-1171060D01*
X2126760Y-1171060D01*
X2126760Y-1186020D01*
X2135740Y-1186020D01*
X2137720Y-1184060D01*
X2137720Y-1152960D01*
X2135740Y-1150980D01*
G37*
G36*
X1340120Y-1141320D02*
G01*
X1338160Y-1143280D01*
X1338160Y-1174780D01*
X1340120Y-1176740D01*
X1371620Y-1176740D01*
X1373580Y-1174780D01*
X1373580Y-1143280D01*
X1371620Y-1141320D01*
X1362640Y-1141320D01*
X1362640Y-1155880D01*
X1349660Y-1155880D01*
X1349660Y-1141320D01*
G37*
G36*
X1340120Y-1078720D02*
G01*
X1338160Y-1080680D01*
X1338160Y-1111780D01*
X1340120Y-1113760D01*
X1349660Y-1113760D01*
X1349660Y-1098800D01*
X1362640Y-1098800D01*
X1362640Y-1113760D01*
X1371620Y-1113760D01*
X1373580Y-1111780D01*
X1373580Y-1080680D01*
X1371620Y-1078720D01*
G37*
G36*
X2099340Y-999180D02*
G01*
X2099340Y-1022800D01*
X2150520Y-1022800D01*
X2150520Y-999180D01*
G37*
G36*
X2099340Y-967680D02*
G01*
X2099340Y-991300D01*
X2150520Y-991300D01*
X2150520Y-967680D01*
G37*
G36*
X2099340Y-747200D02*
G01*
X2099340Y-770819D01*
X2150520Y-770819D01*
X2150520Y-747200D01*
G37*
G36*
X2099340Y-778700D02*
G01*
X2099340Y-802320D01*
X2150520Y-802320D01*
X2150520Y-778700D01*
G37*
G36*
X2099340Y-810200D02*
G01*
X2099340Y-822000D01*
X2150520Y-822000D01*
X2150520Y-810200D01*
G37*
G36*
X2099340Y-829880D02*
G01*
X2099340Y-841700D01*
X2150520Y-841700D01*
X2150520Y-829880D01*
G37*
G36*
X2099340Y-849560D02*
G01*
X2099340Y-861380D01*
X2150520Y-861380D01*
X2150520Y-849560D01*
G37*
G36*
X2099340Y-869260D02*
G01*
X2099340Y-881060D01*
X2150520Y-881060D01*
X2150520Y-869260D01*
G37*
G36*
X2099340Y-888920D02*
G01*
X2099340Y-900740D01*
X2150520Y-900740D01*
X2150520Y-888920D01*
G37*
G36*
X2099340Y-908620D02*
G01*
X2099340Y-920440D01*
X2150520Y-920440D01*
X2150520Y-908620D01*
G37*
G36*
X2099340Y-928300D02*
G01*
X2099340Y-940120D01*
X2150520Y-940120D01*
X2150520Y-928300D01*
G37*
G36*
X2099340Y-948000D02*
G01*
X2099340Y-959800D01*
X2150520Y-959800D01*
X2150520Y-948000D01*
G37*
G36*
X2130040Y-1035400D02*
G01*
X2128080Y-1035500D01*
X2126140Y-1035780D01*
X2124240Y-1036260D01*
X2122400Y-1036940D01*
X2120620Y-1037800D01*
X2118940Y-1038820D01*
X2117380Y-1040000D01*
X2115940Y-1041340D01*
X2114640Y-1042800D01*
X2113500Y-1044400D01*
X2112520Y-1046100D01*
X2111720Y-1047880D01*
X2111080Y-1049740D01*
X2110660Y-1051660D01*
X2110400Y-1053600D01*
X2110360Y-1055580D01*
X2110500Y-1057520D01*
X2110840Y-1059460D01*
X2111380Y-1061340D01*
X2112100Y-1063180D01*
X2112980Y-1064920D01*
X2114060Y-1066580D01*
X2115280Y-1068100D01*
X2116640Y-1069520D01*
X2118160Y-1070780D01*
X2119780Y-1071880D01*
X2121500Y-1072820D01*
X2123300Y-1073580D01*
X2125180Y-1074160D01*
X2127100Y-1074540D01*
X2129060Y-1074740D01*
X2173340Y-1074760D01*
X2175300Y-1074660D01*
X2177240Y-1074380D01*
X2179140Y-1073900D01*
X2181000Y-1073220D01*
X2182760Y-1072360D01*
X2184440Y-1071340D01*
X2186000Y-1070160D01*
X2187440Y-1068820D01*
X2188740Y-1067360D01*
X2189880Y-1065760D01*
X2190860Y-1064060D01*
X2191660Y-1062280D01*
X2192300Y-1060420D01*
X2192740Y-1058500D01*
X2192980Y-1056560D01*
X2193020Y-1054580D01*
X2192880Y-1052640D01*
X2192540Y-1050700D01*
X2192000Y-1048820D01*
X2191280Y-1046979D01*
X2190400Y-1045240D01*
X2189320Y-1043580D01*
X2188100Y-1042060D01*
X2186740Y-1040660D01*
X2185240Y-1039380D01*
X2183600Y-1038280D01*
X2181880Y-1037340D01*
X2180080Y-1036580D01*
X2178200Y-1036000D01*
X2176280Y-1035620D01*
X2174320Y-1035420D01*
G37*
G36*
X2130040Y-695240D02*
G01*
X2128080Y-695340D01*
X2126140Y-695620D01*
X2124240Y-696120D01*
X2122400Y-696780D01*
X2120620Y-697640D01*
X2118940Y-698660D01*
X2117380Y-699840D01*
X2115940Y-701180D01*
X2114640Y-702640D01*
X2113500Y-704240D01*
X2112520Y-705939D01*
X2111720Y-707720D01*
X2111080Y-709580D01*
X2110660Y-711500D01*
X2110400Y-713439D01*
X2110360Y-715420D01*
X2110500Y-717360D01*
X2110840Y-719300D01*
X2111380Y-721180D01*
X2112100Y-723020D01*
X2112980Y-724760D01*
X2114060Y-726420D01*
X2115280Y-727940D01*
X2116640Y-729340D01*
X2118160Y-730620D01*
X2119780Y-731720D01*
X2121500Y-732660D01*
X2123300Y-733420D01*
X2125180Y-734000D01*
X2127100Y-734380D01*
X2129060Y-734580D01*
X2173340Y-734599D01*
X2175300Y-734500D01*
X2177240Y-734220D01*
X2179140Y-733740D01*
X2181000Y-733060D01*
X2182760Y-732200D01*
X2184440Y-731180D01*
X2186000Y-730000D01*
X2187440Y-728660D01*
X2188740Y-727200D01*
X2189880Y-725600D01*
X2190860Y-723900D01*
X2191660Y-722120D01*
X2192300Y-720260D01*
X2192740Y-718340D01*
X2192980Y-716400D01*
X2193020Y-714419D01*
X2192880Y-712480D01*
X2192540Y-710540D01*
X2192000Y-708660D01*
X2191280Y-706820D01*
X2190400Y-705080D01*
X2189320Y-703420D01*
X2188100Y-701900D01*
X2186740Y-700480D01*
X2185240Y-699220D01*
X2183600Y-698120D01*
X2181880Y-697180D01*
X2180080Y-696420D01*
X2178200Y-695840D01*
X2176280Y-695460D01*
X2174320Y-695260D01*
G37*
G36*
X2299320Y-1035400D02*
G01*
X2297360Y-1035500D01*
X2295420Y-1035780D01*
X2293520Y-1036260D01*
X2291680Y-1036940D01*
X2289900Y-1037800D01*
X2288240Y-1038820D01*
X2286660Y-1040000D01*
X2285240Y-1041340D01*
X2283940Y-1042800D01*
X2282780Y-1044400D01*
X2281800Y-1046100D01*
X2281000Y-1047880D01*
X2280380Y-1049740D01*
X2279940Y-1051660D01*
X2279700Y-1053600D01*
X2279640Y-1055580D01*
X2279800Y-1057520D01*
X2280140Y-1059460D01*
X2280660Y-1061340D01*
X2281380Y-1063180D01*
X2282280Y-1064920D01*
X2283340Y-1066580D01*
X2284560Y-1068100D01*
X2285940Y-1069520D01*
X2287440Y-1070780D01*
X2289060Y-1071880D01*
X2290780Y-1072820D01*
X2292580Y-1073580D01*
X2294460Y-1074160D01*
X2296380Y-1074540D01*
X2298340Y-1074740D01*
X2330820Y-1074760D01*
X2332780Y-1074660D01*
X2334720Y-1074380D01*
X2336620Y-1073900D01*
X2338460Y-1073220D01*
X2340240Y-1072360D01*
X2341900Y-1071340D01*
X2343480Y-1070160D01*
X2344920Y-1068820D01*
X2346200Y-1067360D01*
X2347360Y-1065760D01*
X2348340Y-1064060D01*
X2349140Y-1062280D01*
X2349760Y-1060420D01*
X2350200Y-1058500D01*
X2350440Y-1056560D01*
X2350500Y-1054580D01*
X2350360Y-1052640D01*
X2350000Y-1050700D01*
X2349480Y-1048820D01*
X2348760Y-1046979D01*
X2347860Y-1045240D01*
X2346800Y-1043580D01*
X2345580Y-1042060D01*
X2344200Y-1040660D01*
X2342700Y-1039380D01*
X2341080Y-1038280D01*
X2339360Y-1037340D01*
X2337560Y-1036580D01*
X2335680Y-1036000D01*
X2333760Y-1035620D01*
X2331800Y-1035420D01*
G37*
G36*
X2299320Y-695240D02*
G01*
X2297360Y-695340D01*
X2295420Y-695620D01*
X2293520Y-696120D01*
X2291680Y-696780D01*
X2289900Y-697640D01*
X2288240Y-698660D01*
X2286660Y-699840D01*
X2285240Y-701180D01*
X2283940Y-702640D01*
X2282780Y-704240D01*
X2281800Y-705939D01*
X2281000Y-707720D01*
X2280380Y-709580D01*
X2279940Y-711500D01*
X2279700Y-713439D01*
X2279640Y-715420D01*
X2279800Y-717360D01*
X2280140Y-719300D01*
X2280660Y-721180D01*
X2281380Y-723020D01*
X2282280Y-724760D01*
X2283340Y-726420D01*
X2284560Y-727940D01*
X2285940Y-729340D01*
X2287440Y-730620D01*
X2289060Y-731720D01*
X2290780Y-732660D01*
X2292580Y-733420D01*
X2294460Y-734000D01*
X2296380Y-734380D01*
X2298340Y-734580D01*
X2330820Y-734599D01*
X2332780Y-734500D01*
X2334720Y-734220D01*
X2336620Y-733740D01*
X2338460Y-733060D01*
X2340240Y-732200D01*
X2341900Y-731180D01*
X2343480Y-730000D01*
X2344920Y-728660D01*
X2346200Y-727200D01*
X2347360Y-725600D01*
X2348340Y-723900D01*
X2349140Y-722120D01*
X2349760Y-720260D01*
X2350200Y-718340D01*
X2350440Y-716400D01*
X2350500Y-714419D01*
X2350360Y-712480D01*
X2350000Y-710540D01*
X2349480Y-708660D01*
X2348760Y-706820D01*
X2347860Y-705080D01*
X2346800Y-703420D01*
X2345580Y-701900D01*
X2344200Y-700480D01*
X2342700Y-699220D01*
X2341080Y-698120D01*
X2339360Y-697180D01*
X2337560Y-696420D01*
X2335680Y-695840D01*
X2333760Y-695460D01*
X2331800Y-695260D01*
G37*
G36*
X1019840Y-734180D02*
G01*
X1017080Y-736140D01*
X1017080Y-753860D01*
X1019840Y-755819D01*
X1038740Y-755819D01*
X1040699Y-753860D01*
X1040699Y-736140D01*
X1038740Y-734180D01*
G37*
G36*
X981260Y-734180D02*
G01*
X979300Y-736140D01*
X979300Y-753860D01*
X981260Y-755819D01*
X1000160Y-755819D01*
X1002920Y-753860D01*
X1002920Y-736140D01*
X1000160Y-734180D01*
G37*
G36*
X1019840Y-959180D02*
G01*
X1017080Y-961140D01*
X1017080Y-978860D01*
X1019840Y-980819D01*
X1038740Y-980819D01*
X1040699Y-978860D01*
X1040699Y-961140D01*
X1038740Y-959180D01*
G37*
G36*
X981260Y-959180D02*
G01*
X979300Y-961140D01*
X979300Y-978860D01*
X981260Y-980819D01*
X1000160Y-980819D01*
X1002920Y-978860D01*
X1002920Y-961140D01*
X1000160Y-959180D01*
G37*
G36*
X1183760Y-511680D02*
G01*
X1181800Y-513640D01*
X1181800Y-531360D01*
X1183760Y-533320D01*
X1202660Y-533320D01*
X1205420Y-531360D01*
X1205420Y-513640D01*
X1202660Y-511680D01*
G37*
G36*
X1222340Y-511680D02*
G01*
X1219580Y-513640D01*
X1219580Y-531360D01*
X1222340Y-533320D01*
X1241240Y-533320D01*
X1243200Y-531360D01*
X1243200Y-513640D01*
X1241240Y-511680D01*
G37*
D10*
G01*
X2325020Y-570000D03*
G01*
X2191160Y-570000D03*
G01*
X2191160Y-1200000D03*
G01*
X2325020Y-1200000D03*
D11*
G01*
X1667500Y-1257560D03*
G01*
X1667500Y-1202440D03*
G01*
X1890000Y-1257560D03*
G01*
X1890000Y-1202440D03*
D12*
G01*
X1577440Y-1062560D03*
G01*
X1632560Y-1062560D03*
G01*
X1577440Y-992440D03*
G01*
X1632560Y-992440D03*
D13*
G01*
X2032500Y-1078070D03*
G01*
X2032500Y-1211930D03*
D14*
G01*
X1755570Y-1807500D03*
G01*
X1889430Y-1807500D03*
G01*
X1100570Y-1807500D03*
G01*
X1234430Y-1807500D03*
D15*
G01*
X1605630Y-1770100D03*
G01*
X1605630Y-1844900D03*
G01*
X1684369Y-1807500D03*
G01*
X949470Y-1770100D03*
G01*
X949470Y-1844900D03*
G01*
X1028209Y-1807500D03*
D16*
G01*
X1418230Y-740460D03*
G01*
X1402480Y-740460D03*
G01*
X1386730Y-740460D03*
G01*
X1370979Y-740460D03*
G01*
X1355240Y-740460D03*
G01*
X1339490Y-740460D03*
G01*
X1323740Y-740460D03*
G01*
X1307989Y-740460D03*
G01*
X1292240Y-740460D03*
G01*
X1276500Y-740460D03*
G01*
X1260750Y-740460D03*
G01*
X1245000Y-740460D03*
G01*
X1229250Y-740460D03*
G01*
X1213500Y-740460D03*
D17*
G01*
X1176100Y-777870D03*
G01*
X1176100Y-793610D03*
G01*
X1176100Y-809360D03*
G01*
X1176100Y-825109D03*
G01*
X1176100Y-840860D03*
G01*
X1176100Y-856610D03*
G01*
X1176100Y-872350D03*
G01*
X1176100Y-888099D03*
G01*
X1176100Y-903850D03*
G01*
X1176100Y-919600D03*
G01*
X1176100Y-935350D03*
G01*
X1176100Y-951089D03*
G01*
X1176100Y-966840D03*
G01*
X1176100Y-982590D03*
D16*
G01*
X1213500Y-1020000D03*
G01*
X1229250Y-1020000D03*
G01*
X1245000Y-1020000D03*
G01*
X1260750Y-1020000D03*
G01*
X1276500Y-1020000D03*
G01*
X1292240Y-1020000D03*
G01*
X1307989Y-1020000D03*
G01*
X1323740Y-1020000D03*
G01*
X1339490Y-1020000D03*
G01*
X1355240Y-1020000D03*
G01*
X1370979Y-1020000D03*
G01*
X1386730Y-1020000D03*
G01*
X1402480Y-1020000D03*
G01*
X1418230Y-1020000D03*
D17*
G01*
X1455630Y-982590D03*
G01*
X1455630Y-966840D03*
G01*
X1455630Y-951089D03*
G01*
X1455630Y-935350D03*
G01*
X1455630Y-919600D03*
G01*
X1455630Y-903850D03*
G01*
X1455630Y-888099D03*
G01*
X1455630Y-872350D03*
G01*
X1455630Y-856610D03*
G01*
X1455630Y-840860D03*
G01*
X1455630Y-825109D03*
G01*
X1455630Y-809360D03*
G01*
X1455630Y-793610D03*
G01*
X1455630Y-777870D03*
D18*
G01*
X1315870Y-880230D03*
D19*
G01*
X1680000Y-466390D03*
G01*
X1630000Y-466390D03*
G01*
X1580000Y-466390D03*
G01*
X1530000Y-466390D03*
G01*
X1680000Y-703610D03*
G01*
X1630000Y-703610D03*
G01*
X1580000Y-703610D03*
G01*
X1530000Y-703610D03*
D20*
G01*
X1605000Y-585000D03*
D21*
G01*
X1646940Y-1645010D03*
G01*
X1646940Y-1545010D03*
G01*
X2040640Y-1545010D03*
G01*
X2040640Y-1645010D03*
G01*
X993150Y-1645010D03*
G01*
X993150Y-1545010D03*
G01*
X1386850Y-1545010D03*
G01*
X1386850Y-1645010D03*
D22*
G01*
X1825420Y-1267400D03*
G01*
X1825420Y-1230000D03*
G01*
X1825420Y-1192600D03*
D23*
G01*
X1734580Y-1192600D03*
G01*
X1734580Y-1267400D03*
D24*
G01*
X1043900Y-901620D03*
G01*
X1043900Y-815000D03*
G01*
X975000Y-815000D03*
G01*
X975000Y-901620D03*
M02*
